<svg width="1484" height="1052" viewBox="0 0 1484 1052" fill="none" xmlns="http://www.w3.org/2000/svg">
<g filter="url(#filter0_f_798_2043)">
<rect x="200" y="314.105" width="534" height="490" rx="245" fill="#2A07A5" fill-opacity="0.54"/>
</g>
<g filter="url(#filter1_f_798_2043)">
<rect x="454" y="248.105" width="534" height="490" rx="245" fill="#7F23A9" fill-opacity="0.54"/>
</g>
<g filter="url(#filter2_f_798_2043)">
<rect x="750" y="361.105" width="534" height="490" rx="245" fill="#0F3A7A" fill-opacity="0.42"/>
</g>
<g filter="url(#filter3_f_798_2043)">
<path d="M735.697 248.848C756.317 208.099 804.425 189.561 847.057 205.937C915.212 232.118 924.611 324.692 863.109 364.036L720.629 455.186C673.137 485.568 660 549.109 691.552 595.833L701.967 611.258C741.092 669.197 701.935 747.651 632.114 751.215C563.232 754.73 516.258 682.51 547.399 620.969L735.697 248.848Z" fill="#201668" fill-opacity="0.42"/>
</g>
<defs>
<filter id="filter0_f_798_2043" x="0" y="114.105" width="934" height="890" filterUnits="userSpaceOnUse" color-interpolation-filters="sRGB">
<feFlood flood-opacity="0" result="BackgroundImageFix"/>
<feBlend mode="normal" in="SourceGraphic" in2="BackgroundImageFix" result="shape"/>
<feGaussianBlur stdDeviation="100" result="effect1_foregroundBlur_798_2043"/>
</filter>
<filter id="filter1_f_798_2043" x="254" y="48.1055" width="934" height="890" filterUnits="userSpaceOnUse" color-interpolation-filters="sRGB">
<feFlood flood-opacity="0" result="BackgroundImageFix"/>
<feBlend mode="normal" in="SourceGraphic" in2="BackgroundImageFix" result="shape"/>
<feGaussianBlur stdDeviation="100" result="effect1_foregroundBlur_798_2043"/>
</filter>
<filter id="filter2_f_798_2043" x="550" y="161.105" width="934" height="890" filterUnits="userSpaceOnUse" color-interpolation-filters="sRGB">
<feFlood flood-opacity="0" result="BackgroundImageFix"/>
<feBlend mode="normal" in="SourceGraphic" in2="BackgroundImageFix" result="shape"/>
<feGaussianBlur stdDeviation="100" result="effect1_foregroundBlur_798_2043"/>
</filter>
<filter id="filter3_f_798_2043" x="337.587" y="0" width="766.584" height="951.34" filterUnits="userSpaceOnUse" color-interpolation-filters="sRGB">
<feFlood flood-opacity="0" result="BackgroundImageFix"/>
<feBlend mode="normal" in="SourceGraphic" in2="BackgroundImageFix" result="shape"/>
<feGaussianBlur stdDeviation="100" result="effect1_foregroundBlur_798_2043"/>
</filter>
</defs>
</svg>
