<svg width="675" height="494" viewBox="0 0 675 494" fill="none" xmlns="http://www.w3.org/2000/svg">
<path d="M546.571 34.6738H116.61C101.289 34.6738 88.8701 47.0932 88.8701 62.4133V423.026C88.8701 438.346 101.289 450.766 116.61 450.766H546.571C561.891 450.766 574.311 438.346 574.311 423.026V62.4133C574.311 47.0932 561.891 34.6738 546.571 34.6738Z" fill="white" stroke="#E3E9F2" stroke-width="3.46743"/>
<path d="M127.012 79.7505C130.842 79.7505 133.947 76.6457 133.947 72.8157C133.947 68.9857 130.842 65.8809 127.012 65.8809C123.182 65.8809 120.077 68.9857 120.077 72.8157C120.077 76.6457 123.182 79.7505 127.012 79.7505Z" fill="#D64545"/>
<path d="M151.283 79.7505C155.113 79.7505 158.218 76.6457 158.218 72.8157C158.218 68.9857 155.113 65.8809 151.283 65.8809C147.453 65.8809 144.349 68.9857 144.349 72.8157C144.349 76.6457 147.453 79.7505 151.283 79.7505Z" fill="#FFD166"/>
<path d="M175.556 79.7505C179.386 79.7505 182.491 76.6457 182.491 72.8157C182.491 68.9857 179.386 65.8809 175.556 65.8809C171.726 65.8809 168.621 68.9857 168.621 72.8157C168.621 76.6457 171.726 79.7505 175.556 79.7505Z" fill="#00D09C"/>
<path d="M307.319 114.425H130.48C126.65 114.425 123.545 117.53 123.545 121.36V124.827C123.545 128.657 126.65 131.762 130.48 131.762H307.319C311.149 131.762 314.254 128.657 314.254 124.827V121.36C314.254 117.53 311.149 114.425 307.319 114.425Z" fill="#1437FF"/>
<path d="M237.97 145.632H130.48C126.65 145.632 123.545 148.737 123.545 152.567C123.545 156.397 126.65 159.501 130.48 159.501H237.97C241.8 159.501 244.904 156.397 244.904 152.567C244.904 148.737 241.8 145.632 237.97 145.632Z" fill="#E3E9F2"/>
<path d="M217.165 190.709H133.947C128.202 190.709 123.545 195.366 123.545 201.111V284.329C123.545 290.074 128.202 294.731 133.947 294.731H217.165C222.91 294.731 227.567 290.074 227.567 284.329V201.111C227.567 195.366 222.91 190.709 217.165 190.709Z" fill="#E9EEFF"/>
<g filter="url(#filter0_d_838_3869)">
<path d="M154.751 251.389H147.816C145.901 251.389 144.349 252.941 144.349 254.856V279.128C144.349 281.043 145.901 282.595 147.816 282.595H154.751C156.666 282.595 158.218 281.043 158.218 279.128V254.856C158.218 252.941 156.666 251.389 154.751 251.389Z" fill="#1437FF"/>
</g>
<g filter="url(#filter1_d_838_3869)">
<path d="M175.556 228.851H168.621C166.706 228.851 165.153 230.403 165.153 232.318V279.128C165.153 281.043 166.706 282.596 168.621 282.596H175.556C177.471 282.596 179.023 281.043 179.023 279.128V232.318C179.023 230.403 177.471 228.851 175.556 228.851Z" fill="#6A2EFF"/>
</g>
<g filter="url(#filter2_d_838_3869)">
<path d="M196.36 211.514H189.425C187.51 211.514 185.958 213.066 185.958 214.981V279.128C185.958 281.043 187.51 282.596 189.425 282.596H196.36C198.275 282.596 199.828 281.043 199.828 279.128V214.981C199.828 213.066 198.275 211.514 196.36 211.514Z" fill="#00B7FF"/>
</g>
<path d="M314.253 294.731C342.978 294.731 366.265 271.445 366.265 242.72C366.265 213.995 342.978 190.709 314.253 190.709C285.528 190.709 262.242 213.995 262.242 242.72C262.242 271.445 285.528 294.731 314.253 294.731Z" stroke="#E3E9F2" stroke-width="17.3372"/>
<g filter="url(#filter3_d_838_3869)">
<path d="M314.253 190.71C325.002 190.71 335.486 194.04 344.265 200.243C353.043 206.445 359.685 215.215 363.275 225.346C366.866 235.477 367.23 246.471 364.316 256.817C361.403 267.164 355.356 276.353 347.006 283.122C338.657 289.891 328.415 293.906 317.69 294.617C306.965 295.327 296.284 292.697 287.114 287.088C277.945 281.48 270.739 273.168 266.486 263.296C262.234 253.425 261.145 242.478 263.368 231.962" stroke="#1437FF" stroke-width="20" stroke-linecap="round"/>
</g>
<path d="M291.715 250.117L299.033 235.637V235.516H290.508V232.465H302.894V235.559L295.568 250.117H291.715ZM303.763 247.014V244.075L311.132 232.465H313.666V236.533H312.167L307.521 243.885V244.023H317.993V247.014H303.763ZM312.236 250.117V246.118L312.305 244.816V232.465H315.804V250.117H312.236ZM330.142 246.807V245.876C330.142 245.17 330.292 244.52 330.59 243.929C330.895 243.331 331.335 242.854 331.909 242.498C332.49 242.136 333.196 241.955 334.03 241.955C334.874 241.955 335.584 242.133 336.159 242.489C336.739 242.845 337.176 243.322 337.469 243.92C337.768 244.512 337.917 245.164 337.917 245.876V246.807C337.917 247.514 337.768 248.166 337.469 248.764C337.17 249.356 336.73 249.83 336.15 250.186C335.57 250.548 334.863 250.729 334.03 250.729C333.185 250.729 332.475 250.548 331.901 250.186C331.326 249.83 330.889 249.356 330.59 248.764C330.292 248.166 330.142 247.514 330.142 246.807ZM332.65 245.876V246.807C332.65 247.215 332.748 247.6 332.944 247.962C333.145 248.324 333.507 248.505 334.03 248.505C334.552 248.505 334.909 248.327 335.098 247.971C335.294 247.615 335.391 247.227 335.391 246.807V245.876C335.391 245.457 335.3 245.066 335.116 244.704C334.932 244.342 334.57 244.161 334.03 244.161C333.512 244.161 333.153 244.342 332.952 244.704C332.751 245.066 332.65 245.457 332.65 245.876ZM321.083 236.706V235.775C321.083 235.062 321.236 234.41 321.54 233.818C321.845 233.22 322.284 232.743 322.859 232.387C323.439 232.031 324.14 231.853 324.962 231.853C325.812 231.853 326.525 232.031 327.1 232.387C327.674 232.743 328.111 233.22 328.41 233.818C328.709 234.41 328.858 235.062 328.858 235.775V236.706C328.858 237.418 328.706 238.07 328.401 238.662C328.102 239.254 327.663 239.728 327.082 240.084C326.508 240.435 325.801 240.61 324.962 240.61C324.123 240.61 323.413 240.432 322.833 240.076C322.258 239.714 321.822 239.24 321.523 238.653C321.23 238.062 321.083 237.412 321.083 236.706ZM323.609 235.775V236.706C323.609 237.125 323.707 237.513 323.902 237.869C324.103 238.225 324.456 238.404 324.962 238.404C325.491 238.404 325.85 238.225 326.039 237.869C326.235 237.513 326.333 237.125 326.333 236.706V235.775C326.333 235.355 326.241 234.964 326.057 234.602C325.873 234.24 325.508 234.059 324.962 234.059C324.451 234.059 324.097 234.243 323.902 234.611C323.707 234.979 323.609 235.367 323.609 235.775ZM322.221 250.117L334.357 232.465H336.615L324.479 250.117H322.221Z" fill="#071B2D"/>
<path d="M529.234 190.709H411.342C405.597 190.709 400.939 195.366 400.939 201.111V284.329C400.939 290.074 405.597 294.731 411.342 294.731H529.234C534.979 294.731 539.636 290.074 539.636 284.329V201.111C539.636 195.366 534.979 190.709 529.234 190.709Z" fill="#F1EBFF"/>
<g filter="url(#filter4_d_838_3869)">
<path d="M418.276 268.726L444.282 234.052L470.288 256.59L496.293 211.514L522.299 225.383" stroke="#6A2EFF" stroke-width="5.20115" stroke-linecap="round" stroke-linejoin="round"/>
</g>
<g filter="url(#filter5_d_838_3869)">
<path d="M522.299 232.318C526.129 232.318 529.234 229.213 529.234 225.383C529.234 221.553 526.129 218.448 522.299 218.448C518.469 218.448 515.364 221.553 515.364 225.383C515.364 229.213 518.469 232.318 522.299 232.318Z" fill="#9A2DFF"/>
</g>
<path d="M539.637 329.406H123.545V331.14H539.637V329.406Z" fill="#E3E9F2"/>
<path d="M149.55 397.02C162.955 397.02 173.822 386.153 173.822 372.748C173.822 359.343 162.955 348.477 149.55 348.477C136.145 348.477 125.278 359.343 125.278 372.748C125.278 386.153 136.145 397.02 149.55 397.02Z" fill="#FFD9B3"/>
<path d="M125.279 372.748C125.279 358.879 135.681 348.477 149.55 348.477C163.42 348.477 173.822 358.879 173.822 371.015C170.355 367.547 166.888 365.814 161.686 364.08C158.219 367.547 154.752 369.281 149.55 369.281C144.349 369.281 140.882 367.547 137.415 364.08C137.415 367.547 139.148 371.015 140.882 374.482C133.947 372.748 125.279 369.281 125.279 365.814C121.811 365.814 118.344 369.281 118.344 372.748H125.279Z" fill="#1E3049"/>
<path d="M394.005 355.412H199.828C195.998 355.412 192.894 358.517 192.894 362.347V364.081C192.894 367.911 195.998 371.016 199.828 371.016H394.005C397.835 371.016 400.94 367.911 400.94 364.081V362.347C400.94 358.517 397.835 355.412 394.005 355.412Z" fill="#071B2D"/>
<path d="M326.389 381.418H198.095C195.222 381.418 192.894 383.747 192.894 386.619V388.353C192.894 391.225 195.222 393.554 198.095 393.554H326.389C329.262 393.554 331.59 391.225 331.59 388.353V386.619C331.59 383.747 329.262 381.418 326.389 381.418Z" fill="#CBD5E1"/>
<path d="M517.098 351.944H458.151C445.704 351.944 435.613 362.035 435.613 374.483C435.613 386.93 445.704 397.021 458.151 397.021H517.098C529.545 397.021 539.636 386.93 539.636 374.483C539.636 362.035 529.545 351.944 517.098 351.944Z" fill="url(#paint0_linear_838_3869)"/>
<path d="M464.059 380.347V366.477H466.991V372.2H472.944V366.477H475.87V380.347H472.944V374.617H466.991V380.347H464.059ZM478.233 380.347V369.944H481.118V380.347H478.233ZM479.683 368.603C479.254 368.603 478.886 368.461 478.579 368.177C478.276 367.888 478.125 367.542 478.125 367.141C478.125 366.743 478.276 366.402 478.579 366.118C478.886 365.829 479.254 365.685 479.683 365.685C480.112 365.685 480.477 365.829 480.78 366.118C481.087 366.402 481.24 366.743 481.24 367.141C481.24 367.542 481.087 367.888 480.78 368.177C480.477 368.461 480.112 368.603 479.683 368.603ZM483.429 380.347V369.944H486.226V371.759H486.335C486.524 371.114 486.843 370.626 487.29 370.297C487.737 369.962 488.251 369.795 488.834 369.795C488.978 369.795 489.134 369.804 489.301 369.822C489.468 369.841 489.615 369.865 489.741 369.897V372.457C489.606 372.416 489.418 372.38 489.179 372.349C488.94 372.317 488.721 372.301 488.522 372.301C488.098 372.301 487.719 372.394 487.384 372.579C487.055 372.759 486.793 373.012 486.599 373.337C486.409 373.662 486.314 374.037 486.314 374.462V380.347H483.429ZM495.489 380.55C494.419 380.55 493.498 380.333 492.726 379.9C491.959 379.462 491.367 378.843 490.952 378.044C490.536 377.24 490.329 376.29 490.329 375.193C490.329 374.123 490.536 373.184 490.952 372.376C491.367 371.567 491.952 370.938 492.706 370.486C493.464 370.035 494.354 369.809 495.374 369.809C496.06 369.809 496.699 369.92 497.291 370.141C497.887 370.357 498.406 370.685 498.848 371.123C499.295 371.561 499.643 372.112 499.891 372.775C500.14 373.434 500.264 374.206 500.264 375.091V375.884H491.48V374.096H497.548C497.548 373.68 497.458 373.312 497.277 372.992C497.097 372.671 496.846 372.421 496.525 372.24C496.209 372.055 495.841 371.963 495.422 371.963C494.984 371.963 494.595 372.064 494.257 372.267C493.923 372.466 493.661 372.735 493.471 373.073C493.281 373.407 493.184 373.78 493.18 374.191V375.89C493.18 376.405 493.275 376.85 493.464 377.225C493.658 377.599 493.932 377.888 494.284 378.091C494.636 378.295 495.054 378.396 495.537 378.396C495.857 378.396 496.151 378.351 496.417 378.261C496.683 378.171 496.911 378.035 497.101 377.854C497.291 377.674 497.435 377.453 497.534 377.191L500.203 377.367C500.067 378.008 499.79 378.568 499.37 379.046C498.954 379.52 498.417 379.891 497.758 380.157C497.103 380.419 496.347 380.55 495.489 380.55ZM505.98 380.516C505.189 380.516 504.474 380.313 503.833 379.906C503.196 379.496 502.69 378.893 502.316 378.098C501.946 377.299 501.76 376.319 501.76 375.159C501.76 373.967 501.952 372.976 502.336 372.186C502.72 371.391 503.23 370.798 503.867 370.405C504.508 370.008 505.21 369.809 505.973 369.809C506.555 369.809 507.041 369.908 507.429 370.107C507.822 370.301 508.138 370.545 508.377 370.838C508.621 371.127 508.806 371.412 508.932 371.692H509.02V366.477H511.899V380.347H509.054V378.681H508.932C508.797 378.97 508.605 379.256 508.357 379.541C508.113 379.821 507.795 380.053 507.402 380.238C507.013 380.423 506.539 380.516 505.98 380.516ZM506.894 378.22C507.359 378.22 507.752 378.094 508.072 377.841C508.397 377.584 508.646 377.225 508.817 376.764C508.993 376.304 509.081 375.764 509.081 375.146C509.081 374.527 508.996 373.99 508.824 373.534C508.652 373.078 508.404 372.726 508.079 372.477C507.754 372.229 507.359 372.105 506.894 372.105C506.42 372.105 506.02 372.233 505.695 372.491C505.37 372.748 505.124 373.105 504.957 373.561C504.79 374.017 504.706 374.545 504.706 375.146C504.706 375.751 504.79 376.286 504.957 376.751C505.129 377.211 505.375 377.572 505.695 377.834C506.02 378.091 506.42 378.22 506.894 378.22Z" fill="white"/>
<g filter="url(#filter6_d_838_3869)">
<rect x="32" y="39.4297" width="173.34" height="38" rx="19" fill="white" shape-rendering="crispEdges"/>
<rect x="32.5" y="39.9297" width="172.34" height="37" rx="18.5" stroke="#E3E9F2" shape-rendering="crispEdges"/>
<rect x="47" y="54.4297" width="7" height="7" rx="3.5" fill="#00D09C"/>
<path d="M60.8967 53.8388H62.9119L65.6108 60.4261H65.7173L68.4162 53.8388H70.4315V62.9297H68.8512V56.6841H68.7669L66.2544 62.9031H65.0737L62.5613 56.6708H62.4769V62.9297H60.8967V53.8388ZM75.1278 63.0629C74.462 63.0629 73.8849 62.9164 73.3967 62.6234C72.9084 62.3304 72.5296 61.9206 72.2603 61.3938C71.994 60.8671 71.8608 60.2515 71.8608 59.5472C71.8608 58.8429 71.994 58.2259 72.2603 57.6962C72.5296 57.1665 72.9084 56.7551 73.3967 56.4622C73.8849 56.1692 74.462 56.0227 75.1278 56.0227C75.7937 56.0227 76.3707 56.1692 76.859 56.4622C77.3473 56.7551 77.7246 57.1665 77.9909 57.6962C78.2602 58.2259 78.3949 58.8429 78.3949 59.5472C78.3949 60.2515 78.2602 60.8671 77.9909 61.3938C77.7246 61.9206 77.3473 62.3304 76.859 62.6234C76.3707 62.9164 75.7937 63.0629 75.1278 63.0629ZM75.1367 61.7756C75.4978 61.7756 75.7996 61.6764 76.0423 61.4782C76.2849 61.2769 76.4654 61.0076 76.5838 60.6703C76.7051 60.3329 76.7658 59.9571 76.7658 59.5428C76.7658 59.1255 76.7051 58.7482 76.5838 58.4109C76.4654 58.0705 76.2849 57.7998 76.0423 57.5985C75.7996 57.3973 75.4978 57.2967 75.1367 57.2967C74.7668 57.2967 74.459 57.3973 74.2134 57.5985C73.9708 57.7998 73.7888 58.0705 73.6674 58.4109C73.5491 58.7482 73.4899 59.1255 73.4899 59.5428C73.4899 59.9571 73.5491 60.3329 73.6674 60.6703C73.7888 61.0076 73.9708 61.2769 74.2134 61.4782C74.459 61.6764 74.7668 61.7756 75.1367 61.7756ZM82.2889 63.0495C81.7533 63.0495 81.2739 62.9119 80.8507 62.6367C80.4275 62.3615 80.0931 61.962 79.8475 61.4382C79.6019 60.9144 79.4791 60.2782 79.4791 59.5295C79.4791 58.7719 79.6034 58.1327 79.852 57.6119C80.1035 57.0881 80.4423 56.693 80.8685 56.4267C81.2946 56.1574 81.7696 56.0227 82.2934 56.0227C82.6929 56.0227 83.0214 56.0908 83.2788 56.2269C83.5363 56.3601 83.7405 56.5214 83.8914 56.7108C84.0423 56.8972 84.1592 57.0733 84.2421 57.239H84.3086V53.8388H85.92V62.9297H84.3397V61.8555H84.2421C84.1592 62.0212 84.0393 62.1973 83.8825 62.3837C83.7257 62.5672 83.5185 62.724 83.2611 62.8542C83.0036 62.9844 82.6796 63.0495 82.2889 63.0495ZM82.7373 61.7312C83.0776 61.7312 83.3676 61.6394 83.6073 61.456C83.847 61.2695 84.029 61.0106 84.1533 60.6792C84.2776 60.3477 84.3397 59.9615 84.3397 59.5206C84.3397 59.0797 84.2776 58.6964 84.1533 58.3709C84.0319 58.0454 83.8514 57.7924 83.6117 57.6119C83.375 57.4313 83.0835 57.3411 82.7373 57.3411C82.3792 57.3411 82.0803 57.4343 81.8406 57.6207C81.6009 57.8072 81.4204 58.0646 81.2991 58.3931C81.1777 58.7216 81.1171 59.0974 81.1171 59.5206C81.1171 59.9467 81.1777 60.327 81.2991 60.6614C81.4233 60.9928 81.6053 61.2547 81.845 61.4471C82.0877 61.6365 82.3851 61.7312 82.7373 61.7312ZM90.6507 63.0629C89.9672 63.0629 89.3768 62.9208 88.8796 62.6367C88.3854 62.3497 88.0051 61.9442 87.7388 61.4205C87.4725 60.8937 87.3393 60.2737 87.3393 59.5605C87.3393 58.8592 87.4725 58.2437 87.7388 57.714C88.0081 57.1813 88.3839 56.767 88.8663 56.4711C89.3487 56.1722 89.9154 56.0227 90.5664 56.0227C90.9866 56.0227 91.3832 56.0908 91.756 56.2269C92.1319 56.3601 92.4633 56.5672 92.7504 56.8484C93.0404 57.1295 93.2682 57.4876 93.4339 57.9226C93.5997 58.3546 93.6825 58.8696 93.6825 59.4673V59.96H88.0939V58.877H92.1422C92.1393 58.5692 92.0727 58.2955 91.9425 58.0558C91.8123 57.8131 91.6303 57.6222 91.3965 57.4831C91.1657 57.344 90.8964 57.2745 90.5886 57.2745C90.2601 57.2745 89.9716 57.3544 89.723 57.5142C89.4744 57.671 89.2806 57.8782 89.1415 58.1357C89.0054 58.3902 88.9358 58.6698 88.9329 58.9746V59.9201C88.9329 60.3166 89.0054 60.657 89.1504 60.9411C89.2954 61.2222 89.4981 61.4382 89.7585 61.5891C90.0189 61.7371 90.3237 61.8111 90.6729 61.8111C90.9067 61.8111 91.1183 61.7785 91.3077 61.7134C91.4971 61.6454 91.6613 61.5462 91.8004 61.416C91.9395 61.2858 92.0446 61.1245 92.1156 60.9322L93.6159 61.1009C93.5212 61.4974 93.3407 61.8436 93.0744 62.1396C92.811 62.4325 92.4737 62.6604 92.0623 62.8232C91.651 62.983 91.1805 63.0629 90.6507 63.0629ZM96.6488 53.8388V62.9297H95.0419V53.8388H96.6488ZM102.64 62.9297H100.882L104.083 53.8388H106.116L109.321 62.9297H107.563L105.135 55.7031H105.064L102.64 62.9297ZM102.698 59.3652H107.492V60.688H102.698V59.3652ZM113.214 63.0629C112.533 63.0629 111.949 62.9134 111.46 62.6145C110.975 62.3156 110.601 61.9028 110.337 61.3761C110.077 60.8464 109.947 60.2367 109.947 59.5472C109.947 58.8548 110.08 58.2437 110.346 57.714C110.613 57.1813 110.988 56.767 111.474 56.4711C111.962 56.1722 112.539 56.0227 113.205 56.0227C113.758 56.0227 114.248 56.1248 114.674 56.329C115.103 56.5302 115.445 56.8158 115.7 57.1857C115.954 57.5527 116.099 57.9818 116.135 58.473H114.599C114.537 58.1445 114.389 57.8708 114.155 57.6518C113.924 57.4299 113.615 57.3189 113.227 57.3189C112.899 57.3189 112.61 57.4077 112.362 57.5852C112.113 57.7598 111.919 58.0114 111.78 58.3398C111.644 58.6683 111.576 59.0619 111.576 59.5206C111.576 59.9852 111.644 60.3847 111.78 60.7191C111.916 61.0505 112.107 61.3065 112.353 61.487C112.601 61.6646 112.893 61.7534 113.227 61.7534C113.464 61.7534 113.675 61.709 113.862 61.6202C114.051 61.5285 114.21 61.3968 114.337 61.2251C114.464 61.0535 114.551 60.8449 114.599 60.5993H116.135C116.096 61.0816 115.954 61.5092 115.708 61.8821C115.463 62.252 115.128 62.542 114.705 62.7521C114.282 62.9593 113.785 63.0629 113.214 63.0629ZM120.428 63.0629C119.747 63.0629 119.163 62.9134 118.675 62.6145C118.189 62.3156 117.815 61.9028 117.552 61.3761C117.291 60.8464 117.161 60.2367 117.161 59.5472C117.161 58.8548 117.294 58.2437 117.561 57.714C117.827 57.1813 118.203 56.767 118.688 56.4711C119.176 56.1722 119.753 56.0227 120.419 56.0227C120.973 56.0227 121.462 56.1248 121.889 56.329C122.318 56.5302 122.659 56.8158 122.914 57.1857C123.168 57.5527 123.313 57.9818 123.349 58.473H121.813C121.751 58.1445 121.603 57.8708 121.369 57.6518C121.138 57.4299 120.829 57.3189 120.441 57.3189C120.113 57.3189 119.824 57.4077 119.576 57.5852C119.327 57.7598 119.133 58.0114 118.994 58.3398C118.858 58.6683 118.79 59.0619 118.79 59.5206C118.79 59.9852 118.858 60.3847 118.994 60.7191C119.13 61.0505 119.321 61.3065 119.567 61.487C119.816 61.6646 120.107 61.7534 120.441 61.7534C120.678 61.7534 120.89 61.709 121.076 61.6202C121.266 61.5285 121.424 61.3968 121.551 61.2251C121.678 61.0535 121.766 60.8449 121.813 60.5993H123.349C123.31 61.0816 123.168 61.5092 122.923 61.8821C122.677 62.252 122.343 62.542 121.92 62.7521C121.496 62.9593 120.999 63.0629 120.428 63.0629ZM129.014 60.0621V56.1115H130.621V62.9297H129.063V61.7179H128.992C128.838 62.0996 128.585 62.4118 128.233 62.6545C127.884 62.8971 127.453 63.0185 126.941 63.0185C126.494 63.0185 126.099 62.9193 125.756 62.7211C125.416 62.5198 125.149 62.2283 124.957 61.8466C124.765 61.4619 124.668 60.9973 124.668 60.4528V56.1115H126.275V60.2042C126.275 60.6362 126.394 60.9795 126.63 61.234C126.867 61.4885 127.178 61.6158 127.563 61.6158C127.799 61.6158 128.029 61.5581 128.251 61.4426C128.473 61.3272 128.655 61.1556 128.797 60.9277C128.942 60.6969 129.014 60.4084 129.014 60.0621ZM132.273 62.9297V56.1115H133.831V57.2479H133.902C134.027 56.8543 134.24 56.551 134.542 56.3379C134.846 56.1219 135.194 56.0138 135.585 56.0138C135.674 56.0138 135.773 56.0183 135.882 56.0272C135.995 56.0331 136.088 56.0434 136.162 56.0582V57.5364C136.094 57.5127 135.986 57.492 135.838 57.4743C135.693 57.4535 135.552 57.4432 135.416 57.4432C135.123 57.4432 134.86 57.5068 134.626 57.6341C134.395 57.7583 134.213 57.9315 134.08 58.1534C133.947 58.3754 133.88 58.6313 133.88 58.9213V62.9297H132.273ZM139.069 63.0673C138.637 63.0673 138.248 62.9904 137.902 62.8365C137.559 62.6796 137.286 62.4488 137.085 62.144C136.887 61.8392 136.788 61.4634 136.788 61.0165C136.788 60.6318 136.859 60.3137 137.001 60.0621C137.143 59.8106 137.337 59.6094 137.582 59.4585C137.828 59.3075 138.105 59.1936 138.412 59.1167C138.723 59.0368 139.044 58.979 139.376 58.9435C139.775 58.9021 140.099 58.8651 140.348 58.8326C140.596 58.7971 140.777 58.7438 140.889 58.6728C141.005 58.5988 141.062 58.4848 141.062 58.331V58.3043C141.062 57.9699 140.963 57.711 140.765 57.5275C140.567 57.344 140.281 57.2523 139.908 57.2523C139.515 57.2523 139.203 57.3381 138.972 57.5098C138.744 57.6814 138.59 57.8841 138.51 58.1179L137.01 57.9048C137.128 57.4905 137.323 57.1443 137.596 56.8661C137.868 56.585 138.201 56.3749 138.594 56.2358C138.988 56.0938 139.423 56.0227 139.899 56.0227C140.228 56.0227 140.555 56.0612 140.88 56.1381C141.206 56.2151 141.503 56.3423 141.773 56.5199C142.042 56.6945 142.258 56.9327 142.421 57.2346C142.586 57.5364 142.669 57.9137 142.669 58.3665V62.9297H141.125V61.9931H141.071C140.974 62.1825 140.836 62.36 140.659 62.5257C140.484 62.6885 140.263 62.8202 139.997 62.9208C139.734 63.0185 139.424 63.0673 139.069 63.0673ZM139.487 61.8865C139.809 61.8865 140.089 61.8229 140.326 61.6957C140.562 61.5655 140.744 61.3938 140.872 61.1808C141.002 60.9677 141.067 60.7354 141.067 60.4838V59.6804C141.017 59.7218 140.931 59.7603 140.809 59.7958C140.691 59.8313 140.558 59.8624 140.41 59.889C140.262 59.9157 140.115 59.9393 139.97 59.96C139.825 59.9808 139.7 59.9985 139.593 60.0133C139.353 60.0459 139.139 60.0991 138.95 60.1731C138.76 60.2471 138.611 60.3507 138.501 60.4838C138.392 60.6141 138.337 60.7827 138.337 60.9899C138.337 61.2858 138.445 61.5092 138.661 61.6602C138.877 61.8111 139.152 61.8865 139.487 61.8865ZM147.259 63.0629C146.579 63.0629 145.994 62.9134 145.506 62.6145C145.02 62.3156 144.646 61.9028 144.383 61.3761C144.122 60.8464 143.992 60.2367 143.992 59.5472C143.992 58.8548 144.125 58.2437 144.392 57.714C144.658 57.1813 145.034 56.767 145.519 56.4711C146.007 56.1722 146.584 56.0227 147.25 56.0227C147.804 56.0227 148.293 56.1248 148.72 56.329C149.149 56.5302 149.49 56.8158 149.745 57.1857C149.999 57.5527 150.144 57.9818 150.18 58.473H148.644C148.582 58.1445 148.434 57.8708 148.2 57.6518C147.969 57.4299 147.66 57.3189 147.273 57.3189C146.944 57.3189 146.655 57.4077 146.407 57.5852C146.158 57.7598 145.965 58.0114 145.825 58.3398C145.689 58.6683 145.621 59.0619 145.621 59.5206C145.621 59.9852 145.689 60.3847 145.825 60.7191C145.962 61.0505 146.152 61.3065 146.398 61.487C146.647 61.6646 146.938 61.7534 147.273 61.7534C147.509 61.7534 147.721 61.709 147.907 61.6202C148.097 61.5285 148.255 61.3968 148.382 61.2251C148.509 61.0535 148.597 60.8449 148.644 60.5993H150.18C150.142 61.0816 149.999 61.5092 149.754 61.8821C149.508 62.252 149.174 62.542 148.751 62.7521C148.327 62.9593 147.83 63.0629 147.259 63.0629ZM152.498 65.4865C152.279 65.4865 152.077 65.4688 151.89 65.4332C151.707 65.4007 151.56 65.3622 151.451 65.3178L151.824 64.0661C152.057 64.1341 152.266 64.1667 152.449 64.1637C152.633 64.1607 152.794 64.103 152.933 63.9906C153.075 63.8811 153.195 63.6976 153.293 63.4402L153.43 63.0717L150.958 56.1115H152.662L154.234 61.2607H154.305L155.881 56.1115H157.59L154.86 63.7553C154.732 64.1164 154.564 64.4256 154.354 64.6831C154.144 64.9435 153.886 65.1417 153.581 65.2779C153.279 65.417 152.918 65.4865 152.498 65.4865ZM164.941 53.7145C165.376 53.7174 165.799 53.7944 166.21 53.9453C166.624 54.0933 166.997 54.3359 167.329 54.6733C167.66 55.0077 167.923 55.456 168.119 56.0183C168.314 56.5806 168.412 57.276 168.412 58.1046C168.415 58.8858 168.332 59.5842 168.163 60.1998C167.997 60.8123 167.759 61.3302 167.449 61.7534C167.138 62.1766 166.763 62.4991 166.325 62.7211C165.887 62.943 165.395 63.054 164.847 63.054C164.273 63.054 163.764 62.9415 163.32 62.7166C162.879 62.4917 162.523 62.1839 162.251 61.7933C161.978 61.4027 161.811 60.9558 161.749 60.4528H163.369C163.452 60.8138 163.621 61.1009 163.875 61.3139C164.133 61.524 164.457 61.6291 164.847 61.6291C165.478 61.6291 165.963 61.3554 166.303 60.8079C166.644 60.2604 166.814 59.4999 166.814 58.5263H166.752C166.607 58.7867 166.419 59.0116 166.188 59.201C165.957 59.3874 165.695 59.531 165.402 59.6316C165.112 59.7322 164.804 59.7825 164.479 59.7825C163.946 59.7825 163.467 59.6552 163.041 59.4007C162.617 59.1462 162.282 58.7971 162.033 58.3532C161.787 57.9093 161.663 57.4018 161.66 56.8306C161.66 56.2388 161.796 55.7076 162.069 55.237C162.344 54.7636 162.727 54.3907 163.218 54.1184C163.709 53.8432 164.284 53.7086 164.941 53.7145ZM164.945 55.0462C164.625 55.0462 164.337 55.1246 164.079 55.2814C163.825 55.4353 163.624 55.6454 163.476 55.9118C163.331 56.1751 163.258 56.4696 163.258 56.7951C163.261 57.1177 163.334 57.4106 163.476 57.674C163.621 57.9374 163.817 58.146 164.066 58.2999C164.318 58.4538 164.605 58.5307 164.927 58.5307C165.167 58.5307 165.39 58.4848 165.597 58.3931C165.805 58.3014 165.985 58.1741 166.139 58.0114C166.296 57.8456 166.417 57.6577 166.503 57.4476C166.592 57.2375 166.635 57.0156 166.632 56.7818C166.632 56.4711 166.558 56.184 166.41 55.9206C166.265 55.6573 166.065 55.4457 165.811 55.2859C165.559 55.1261 165.27 55.0462 164.945 55.0462ZM169.726 61.2429V59.9334L173.583 53.8388H174.675V55.7031H174.009L171.412 59.818V59.889H176.797V61.2429H169.726ZM174.062 62.9297V60.8434L174.08 60.2575V53.8388H175.634V62.9297H174.062ZM183.076 61.2251V60.7457C183.076 60.3936 183.15 60.0695 183.298 59.7736C183.449 59.4777 183.668 59.2395 183.955 59.0589C184.242 58.8784 184.589 58.7882 184.998 58.7882C185.418 58.7882 185.77 58.8784 186.054 59.0589C186.338 59.2365 186.553 59.4732 186.698 59.7692C186.846 60.0651 186.92 60.3906 186.92 60.7457V61.2251C186.92 61.5773 186.846 61.9013 186.698 62.1973C186.55 62.4932 186.332 62.7314 186.045 62.9119C185.761 63.0924 185.412 63.1827 184.998 63.1827C184.583 63.1827 184.233 63.0924 183.946 62.9119C183.659 62.7314 183.441 62.4932 183.293 62.1973C183.148 61.9013 183.076 61.5773 183.076 61.2251ZM184.234 60.7457V61.2251C184.234 61.4589 184.291 61.6735 184.403 61.8688C184.515 62.0641 184.714 62.1618 184.998 62.1618C185.285 62.1618 185.482 62.0656 185.588 61.8732C185.698 61.6779 185.752 61.4619 185.752 61.2251V60.7457C185.752 60.509 185.701 60.293 185.597 60.0977C185.493 59.8994 185.294 59.8002 184.998 59.8002C184.72 59.8002 184.523 59.8994 184.407 60.0977C184.292 60.293 184.234 60.509 184.234 60.7457ZM178.455 56.0227V55.5433C178.455 55.1882 178.53 54.8627 178.681 54.5668C178.832 54.2708 179.051 54.0341 179.338 53.8565C179.625 53.676 179.973 53.5858 180.381 53.5858C180.799 53.5858 181.149 53.676 181.433 53.8565C181.72 54.0341 181.936 54.2708 182.081 54.5668C182.226 54.8627 182.299 55.1882 182.299 55.5433V56.0227C182.299 56.3778 182.225 56.7034 182.077 56.9993C181.932 57.2923 181.716 57.5275 181.429 57.7051C181.142 57.8826 180.793 57.9714 180.381 57.9714C179.964 57.9714 179.612 57.8826 179.325 57.7051C179.041 57.5275 178.825 57.2908 178.677 56.9949C178.529 56.6989 178.455 56.3749 178.455 56.0227ZM179.622 55.5433V56.0227C179.622 56.2595 179.677 56.4755 179.786 56.6708C179.899 56.8632 180.097 56.9593 180.381 56.9593C180.665 56.9593 180.861 56.8632 180.967 56.6708C181.077 56.4755 181.131 56.2595 181.131 56.0227V55.5433C181.131 55.3066 181.08 55.0906 180.976 54.8952C180.873 54.697 180.674 54.5978 180.381 54.5978C180.1 54.5978 179.903 54.697 179.791 54.8952C179.678 55.0935 179.622 55.3095 179.622 55.5433ZM178.961 62.9297L185.211 53.8388H186.321L180.071 62.9297H178.961Z" fill="#071B2D"/>
</g>
<g filter="url(#filter7_d_838_3869)">
<rect x="472.271" y="405.73" width="170" height="38" rx="19" fill="white" shape-rendering="crispEdges"/>
<rect x="472.771" y="406.23" width="169" height="37" rx="18.5" stroke="#E3E9F2" shape-rendering="crispEdges"/>
<rect x="487.271" y="420.73" width="7" height="7" rx="3.5" fill="#00D09C"/>
<path d="M503.777 427.775V421.631H505.171V427.775H503.777ZM501.402 425.4V424.006H507.546V425.4H501.402ZM509.325 427.544V426.234L513.182 420.14H514.274V422.004H513.608L511.012 426.119V426.19H516.396V427.544H509.325ZM513.662 429.23V427.144L513.679 426.558V420.14H515.233V429.23H513.662ZM521.174 429.404C520.444 429.404 519.816 429.219 519.292 428.849C518.772 428.476 518.371 427.939 518.089 427.237C517.811 426.533 517.672 425.685 517.672 424.694C517.675 423.703 517.816 422.859 518.094 422.164C518.375 421.465 518.776 420.933 519.297 420.566C519.821 420.199 520.447 420.015 521.174 420.015C521.902 420.015 522.528 420.199 523.052 420.566C523.576 420.933 523.977 421.465 524.255 422.164C524.536 422.862 524.677 423.705 524.677 424.694C524.677 425.688 524.536 426.538 524.255 427.242C523.977 427.943 523.576 428.479 523.052 428.849C522.531 429.219 521.905 429.404 521.174 429.404ZM521.174 428.014C521.743 428.014 522.191 427.735 522.519 427.175C522.851 426.613 523.017 425.786 523.017 424.694C523.017 423.972 522.941 423.365 522.79 422.874C522.639 422.383 522.426 422.013 522.151 421.764C521.876 421.513 521.55 421.387 521.174 421.387C520.609 421.387 520.162 421.668 519.834 422.23C519.505 422.79 519.34 423.611 519.337 424.694C519.334 425.419 519.406 426.029 519.554 426.523C519.705 427.017 519.918 427.39 520.193 427.641C520.469 427.89 520.796 428.014 521.174 428.014ZM531.012 427.526V427.047C531.012 426.694 531.086 426.37 531.234 426.074C531.385 425.778 531.604 425.54 531.891 425.36C532.178 425.179 532.526 425.089 532.934 425.089C533.355 425.089 533.707 425.179 533.991 425.36C534.275 425.537 534.489 425.774 534.634 426.07C534.782 426.366 534.856 426.691 534.856 427.047V427.526C534.856 427.878 534.782 428.202 534.634 428.498C534.486 428.794 534.269 429.032 533.982 429.213C533.698 429.393 533.349 429.483 532.934 429.483C532.52 429.483 532.169 429.393 531.882 429.213C531.595 429.032 531.378 428.794 531.23 428.498C531.085 428.202 531.012 427.878 531.012 427.526ZM532.171 427.047V427.526C532.171 427.76 532.227 427.974 532.339 428.17C532.452 428.365 532.65 428.463 532.934 428.463C533.221 428.463 533.418 428.366 533.525 428.174C533.634 427.979 533.689 427.763 533.689 427.526V427.047C533.689 426.81 533.637 426.594 533.534 426.398C533.43 426.2 533.23 426.101 532.934 426.101C532.656 426.101 532.459 426.2 532.344 426.398C532.229 426.594 532.171 426.81 532.171 427.047ZM526.391 422.324V421.844C526.391 421.489 526.467 421.163 526.618 420.868C526.769 420.572 526.988 420.335 527.275 420.157C527.562 419.977 527.909 419.887 528.318 419.887C528.735 419.887 529.086 419.977 529.37 420.157C529.657 420.335 529.873 420.572 530.018 420.868C530.163 421.163 530.235 421.489 530.235 421.844V422.324C530.235 422.679 530.161 423.004 530.013 423.3C529.868 423.593 529.652 423.828 529.365 424.006C529.078 424.183 528.729 424.272 528.318 424.272C527.901 424.272 527.548 424.183 527.261 424.006C526.977 423.828 526.761 423.592 526.613 423.296C526.465 423 526.391 422.676 526.391 422.324ZM527.559 421.844V422.324C527.559 422.56 527.614 422.776 527.723 422.972C527.835 423.164 528.034 423.26 528.318 423.26C528.602 423.26 528.797 423.164 528.904 422.972C529.013 422.776 529.068 422.56 529.068 422.324V421.844C529.068 421.607 529.016 421.391 528.913 421.196C528.809 420.998 528.611 420.899 528.318 420.899C528.037 420.899 527.84 420.998 527.727 421.196C527.615 421.394 527.559 421.61 527.559 421.844ZM526.897 429.23L533.147 420.14H534.257L528.007 429.23H526.897ZM541.055 429.23H539.297L542.498 420.14H544.531L547.736 429.23H545.978L543.55 422.004H543.479L541.055 429.23ZM541.113 425.666H545.907V426.989H541.113V425.666ZM554.098 422.412L551.67 429.23H549.894L547.466 422.412H549.18L550.747 427.477H550.818L552.389 422.412H554.098ZM557.943 431.929C557.366 431.929 556.87 431.851 556.456 431.694C556.042 431.54 555.709 431.333 555.457 431.073C555.206 430.812 555.031 430.524 554.934 430.207L556.381 429.856C556.446 429.99 556.54 430.121 556.665 430.251C556.789 430.385 556.956 430.494 557.166 430.58C557.379 430.669 557.647 430.713 557.97 430.713C558.426 430.713 558.803 430.602 559.102 430.38C559.401 430.161 559.55 429.8 559.55 429.297V428.005H559.47C559.387 428.171 559.266 428.341 559.106 428.516C558.949 428.69 558.741 428.837 558.48 428.955C558.223 429.074 557.899 429.133 557.508 429.133C556.984 429.133 556.509 429.01 556.083 428.764C555.66 428.516 555.323 428.146 555.071 427.655C554.823 427.16 554.698 426.542 554.698 425.799C554.698 425.05 554.823 424.419 555.071 423.904C555.323 423.386 555.662 422.994 556.088 422.727C556.514 422.458 556.989 422.324 557.513 422.324C557.912 422.324 558.241 422.392 558.498 422.528C558.758 422.661 558.966 422.822 559.119 423.012C559.273 423.198 559.39 423.374 559.47 423.54H559.559V422.412H561.144V429.341C561.144 429.924 561.005 430.407 560.726 430.789C560.448 431.17 560.068 431.456 559.586 431.645C559.103 431.835 558.556 431.929 557.943 431.929ZM557.956 427.872C558.297 427.872 558.587 427.789 558.827 427.624C559.066 427.458 559.248 427.22 559.373 426.909C559.497 426.598 559.559 426.225 559.559 425.79C559.559 425.361 559.497 424.985 559.373 424.663C559.251 424.34 559.071 424.09 558.831 423.913C558.594 423.732 558.303 423.642 557.956 423.642C557.598 423.642 557.3 423.735 557.06 423.922C556.82 424.108 556.64 424.364 556.518 424.689C556.397 425.012 556.336 425.379 556.336 425.79C556.336 426.208 556.397 426.573 556.518 426.887C556.643 427.197 556.825 427.44 557.064 427.615C557.307 427.786 557.604 427.872 557.956 427.872ZM563.78 429.328C563.511 429.328 563.28 429.233 563.088 429.044C562.896 428.855 562.801 428.624 562.804 428.352C562.801 428.085 562.896 427.857 563.088 427.668C563.28 427.479 563.511 427.384 563.78 427.384C564.041 427.384 564.267 427.479 564.46 427.668C564.655 427.857 564.754 428.085 564.757 428.352C564.754 428.532 564.707 428.696 564.615 428.844C564.526 428.992 564.408 429.111 564.26 429.199C564.115 429.285 563.955 429.328 563.78 429.328ZM577.088 423.207H575.428C575.381 422.935 575.293 422.693 575.166 422.483C575.039 422.27 574.881 422.09 574.691 421.942C574.502 421.794 574.286 421.683 574.043 421.609C573.803 421.532 573.545 421.493 573.266 421.493C572.772 421.493 572.334 421.618 571.952 421.866C571.571 422.112 571.272 422.473 571.056 422.949C570.84 423.423 570.732 424.001 570.732 424.685C570.732 425.38 570.84 425.966 571.056 426.443C571.275 426.916 571.574 427.274 571.952 427.517C572.334 427.757 572.771 427.877 573.262 427.877C573.534 427.877 573.789 427.841 574.025 427.77C574.265 427.696 574.48 427.588 574.669 427.446C574.861 427.304 575.023 427.129 575.153 426.922C575.286 426.715 575.378 426.478 575.428 426.212L577.088 426.221C577.026 426.653 576.891 427.058 576.684 427.437C576.48 427.816 576.212 428.15 575.881 428.44C575.549 428.727 575.162 428.952 574.718 429.115C574.274 429.275 573.781 429.355 573.24 429.355C572.441 429.355 571.728 429.17 571.1 428.8C570.473 428.43 569.979 427.896 569.618 427.197C569.257 426.499 569.076 425.662 569.076 424.685C569.076 423.705 569.258 422.868 569.622 422.173C569.986 421.474 570.482 420.94 571.109 420.57C571.736 420.2 572.447 420.015 573.24 420.015C573.746 420.015 574.216 420.086 574.651 420.228C575.086 420.37 575.474 420.579 575.814 420.854C576.155 421.126 576.434 421.461 576.653 421.857C576.875 422.251 577.02 422.701 577.088 423.207ZM578.197 421.52V420.14H585.45V421.52H582.64V429.23H581.007V421.52H578.197ZM594.227 423.207H592.567C592.519 422.935 592.432 422.693 592.305 422.483C592.178 422.27 592.019 422.09 591.83 421.942C591.641 421.794 591.424 421.683 591.182 421.609C590.942 421.532 590.683 421.493 590.405 421.493C589.911 421.493 589.473 421.618 589.091 421.866C588.709 422.112 588.41 422.473 588.194 422.949C587.978 423.423 587.87 424.001 587.87 424.685C587.87 425.38 587.978 425.966 588.194 426.443C588.413 426.916 588.712 427.274 589.091 427.517C589.473 427.757 589.909 427.877 590.401 427.877C590.673 427.877 590.927 427.841 591.164 427.77C591.404 427.696 591.618 427.588 591.808 427.446C592 427.304 592.161 427.129 592.292 426.922C592.425 426.715 592.516 426.478 592.567 426.212L594.227 426.221C594.165 426.653 594.03 427.058 593.823 427.437C593.619 427.816 593.351 428.15 593.02 428.44C592.688 428.727 592.3 428.952 591.857 429.115C591.413 429.275 590.92 429.355 590.378 429.355C589.579 429.355 588.866 429.17 588.239 428.8C587.611 428.43 587.117 427.896 586.756 427.197C586.395 426.499 586.215 425.662 586.215 424.685C586.215 423.705 586.397 422.868 586.761 422.173C587.125 421.474 587.62 420.94 588.248 420.57C588.875 420.2 589.585 420.015 590.378 420.015C590.884 420.015 591.355 420.086 591.79 420.228C592.225 420.37 592.613 420.579 592.953 420.854C593.293 421.126 593.573 421.461 593.792 421.857C594.014 422.251 594.159 422.701 594.227 423.207ZM598.836 429.23V420.14H600.482V423.988H604.695V420.14H606.346V429.23H604.695V425.369H600.482V429.23H598.836ZM608.066 429.23V422.412H609.673V429.23H608.066ZM608.874 421.445C608.62 421.445 608.401 421.36 608.217 421.192C608.034 421.02 607.942 420.814 607.942 420.575C607.942 420.332 608.034 420.126 608.217 419.958C608.401 419.786 608.62 419.7 608.874 419.7C609.132 419.7 609.351 419.786 609.531 419.958C609.715 420.126 609.806 420.332 609.806 420.575C609.806 420.814 609.715 421.02 609.531 421.192C609.351 421.36 609.132 421.445 608.874 421.445ZM612.79 427.091L612.786 425.151H613.044L615.494 422.412H617.371L614.357 425.768H614.025L612.79 427.091ZM611.326 429.23V420.14H612.933V429.23H611.326ZM615.605 429.23L613.385 426.128L614.468 424.996L617.527 429.23H615.605ZM621.18 429.364C620.496 429.364 619.906 429.222 619.409 428.938C618.915 428.65 618.534 428.245 618.268 427.721C618.002 427.194 617.869 426.575 617.869 425.861C617.869 425.16 618.002 424.544 618.268 424.015C618.537 423.482 618.913 423.068 619.396 422.772C619.878 422.473 620.445 422.324 621.096 422.324C621.516 422.324 621.912 422.392 622.285 422.528C622.661 422.661 622.993 422.868 623.28 423.149C623.57 423.43 623.798 423.788 623.963 424.223C624.129 424.655 624.212 425.17 624.212 425.768V426.261H618.623V425.178H622.672C622.669 424.87 622.602 424.596 622.472 424.357C622.342 424.114 622.16 423.923 621.926 423.784C621.695 423.645 621.426 423.575 621.118 423.575C620.789 423.575 620.501 423.655 620.252 423.815C620.004 423.972 619.81 424.179 619.671 424.436C619.535 424.691 619.465 424.971 619.462 425.275V426.221C619.462 426.617 619.535 426.958 619.68 427.242C619.825 427.523 620.027 427.739 620.288 427.89C620.548 428.038 620.853 428.112 621.202 428.112C621.436 428.112 621.648 428.079 621.837 428.014C622.026 427.946 622.191 427.847 622.33 427.717C622.469 427.587 622.574 427.425 622.645 427.233L624.145 427.402C624.051 427.798 623.87 428.144 623.604 428.44C623.34 428.733 623.003 428.961 622.592 429.124C622.18 429.284 621.71 429.364 621.18 429.364Z" fill="#071B2D"/>
</g>
<defs>
<filter id="filter0_d_838_3869" x="134.349" y="245.389" width="33.8701" height="51.2067" filterUnits="userSpaceOnUse" color-interpolation-filters="sRGB">
<feFlood flood-opacity="0" result="BackgroundImageFix"/>
<feColorMatrix in="SourceAlpha" type="matrix" values="0 0 0 0 0 0 0 0 0 0 0 0 0 0 0 0 0 0 127 0" result="hardAlpha"/>
<feOffset dy="4"/>
<feGaussianBlur stdDeviation="5"/>
<feComposite in2="hardAlpha" operator="out"/>
<feColorMatrix type="matrix" values="0 0 0 0 0 0 0 0 0 0 0 0 0 0 0 0 0 0 0.15 0"/>
<feBlend mode="normal" in2="BackgroundImageFix" result="effect1_dropShadow_838_3869"/>
<feBlend mode="normal" in="SourceGraphic" in2="effect1_dropShadow_838_3869" result="shape"/>
</filter>
<filter id="filter1_d_838_3869" x="155.153" y="222.851" width="33.8701" height="73.7449" filterUnits="userSpaceOnUse" color-interpolation-filters="sRGB">
<feFlood flood-opacity="0" result="BackgroundImageFix"/>
<feColorMatrix in="SourceAlpha" type="matrix" values="0 0 0 0 0 0 0 0 0 0 0 0 0 0 0 0 0 0 127 0" result="hardAlpha"/>
<feOffset dy="4"/>
<feGaussianBlur stdDeviation="5"/>
<feComposite in2="hardAlpha" operator="out"/>
<feColorMatrix type="matrix" values="0 0 0 0 0 0 0 0 0 0 0 0 0 0 0 0 0 0 0.15 0"/>
<feBlend mode="normal" in2="BackgroundImageFix" result="effect1_dropShadow_838_3869"/>
<feBlend mode="normal" in="SourceGraphic" in2="effect1_dropShadow_838_3869" result="shape"/>
</filter>
<filter id="filter2_d_838_3869" x="175.958" y="205.514" width="33.8701" height="91.082" filterUnits="userSpaceOnUse" color-interpolation-filters="sRGB">
<feFlood flood-opacity="0" result="BackgroundImageFix"/>
<feColorMatrix in="SourceAlpha" type="matrix" values="0 0 0 0 0 0 0 0 0 0 0 0 0 0 0 0 0 0 127 0" result="hardAlpha"/>
<feOffset dy="4"/>
<feGaussianBlur stdDeviation="5"/>
<feComposite in2="hardAlpha" operator="out"/>
<feColorMatrix type="matrix" values="0 0 0 0 0 0 0 0 0 0 0 0 0 0 0 0 0 0 0.15 0"/>
<feBlend mode="normal" in2="BackgroundImageFix" result="effect1_dropShadow_838_3869"/>
<feBlend mode="normal" in="SourceGraphic" in2="effect1_dropShadow_838_3869" result="shape"/>
</filter>
<filter id="filter3_d_838_3869" x="242.243" y="174.71" width="144.02" height="144.02" filterUnits="userSpaceOnUse" color-interpolation-filters="sRGB">
<feFlood flood-opacity="0" result="BackgroundImageFix"/>
<feColorMatrix in="SourceAlpha" type="matrix" values="0 0 0 0 0 0 0 0 0 0 0 0 0 0 0 0 0 0 127 0" result="hardAlpha"/>
<feOffset dy="4"/>
<feGaussianBlur stdDeviation="5"/>
<feComposite in2="hardAlpha" operator="out"/>
<feColorMatrix type="matrix" values="0 0 0 0 0.0784314 0 0 0 0 0.215686 0 0 0 0 1 0 0 0 0.25 0"/>
<feBlend mode="normal" in2="BackgroundImageFix" result="effect1_dropShadow_838_3869"/>
<feBlend mode="normal" in="SourceGraphic" in2="effect1_dropShadow_838_3869" result="shape"/>
</filter>
<filter id="filter4_d_838_3869" x="405.676" y="202.913" width="129.224" height="82.4141" filterUnits="userSpaceOnUse" color-interpolation-filters="sRGB">
<feFlood flood-opacity="0" result="BackgroundImageFix"/>
<feColorMatrix in="SourceAlpha" type="matrix" values="0 0 0 0 0 0 0 0 0 0 0 0 0 0 0 0 0 0 127 0" result="hardAlpha"/>
<feOffset dy="4"/>
<feGaussianBlur stdDeviation="5"/>
<feComposite in2="hardAlpha" operator="out"/>
<feColorMatrix type="matrix" values="0 0 0 0 0 0 0 0 0 0 0 0 0 0 0 0 0 0 0.15 0"/>
<feBlend mode="normal" in2="BackgroundImageFix" result="effect1_dropShadow_838_3869"/>
<feBlend mode="normal" in="SourceGraphic" in2="effect1_dropShadow_838_3869" result="shape"/>
</filter>
<filter id="filter5_d_838_3869" x="505.364" y="212.448" width="33.8701" height="33.8697" filterUnits="userSpaceOnUse" color-interpolation-filters="sRGB">
<feFlood flood-opacity="0" result="BackgroundImageFix"/>
<feColorMatrix in="SourceAlpha" type="matrix" values="0 0 0 0 0 0 0 0 0 0 0 0 0 0 0 0 0 0 127 0" result="hardAlpha"/>
<feOffset dy="4"/>
<feGaussianBlur stdDeviation="5"/>
<feComposite in2="hardAlpha" operator="out"/>
<feColorMatrix type="matrix" values="0 0 0 0 0 0 0 0 0 0 0 0 0 0 0 0 0 0 0.15 0"/>
<feBlend mode="normal" in2="BackgroundImageFix" result="effect1_dropShadow_838_3869"/>
<feBlend mode="normal" in="SourceGraphic" in2="effect1_dropShadow_838_3869" result="shape"/>
</filter>
<filter id="filter6_d_838_3869" x="0" y="19.4297" width="237.34" height="102" filterUnits="userSpaceOnUse" color-interpolation-filters="sRGB">
<feFlood flood-opacity="0" result="BackgroundImageFix"/>
<feColorMatrix in="SourceAlpha" type="matrix" values="0 0 0 0 0 0 0 0 0 0 0 0 0 0 0 0 0 0 127 0" result="hardAlpha"/>
<feOffset dy="12"/>
<feGaussianBlur stdDeviation="16"/>
<feComposite in2="hardAlpha" operator="out"/>
<feColorMatrix type="matrix" values="0 0 0 0 0.0784314 0 0 0 0 0.215686 0 0 0 0 1 0 0 0 0.14 0"/>
<feBlend mode="normal" in2="BackgroundImageFix" result="effect1_dropShadow_838_3869"/>
<feBlend mode="normal" in="SourceGraphic" in2="effect1_dropShadow_838_3869" result="shape"/>
</filter>
<filter id="filter7_d_838_3869" x="440.271" y="385.73" width="234" height="102" filterUnits="userSpaceOnUse" color-interpolation-filters="sRGB">
<feFlood flood-opacity="0" result="BackgroundImageFix"/>
<feColorMatrix in="SourceAlpha" type="matrix" values="0 0 0 0 0 0 0 0 0 0 0 0 0 0 0 0 0 0 127 0" result="hardAlpha"/>
<feOffset dy="12"/>
<feGaussianBlur stdDeviation="16"/>
<feComposite in2="hardAlpha" operator="out"/>
<feColorMatrix type="matrix" values="0 0 0 0 0.0784314 0 0 0 0 0.215686 0 0 0 0 1 0 0 0 0.14 0"/>
<feBlend mode="normal" in2="BackgroundImageFix" result="effect1_dropShadow_838_3869"/>
<feBlend mode="normal" in="SourceGraphic" in2="effect1_dropShadow_838_3869" result="shape"/>
</filter>
<linearGradient id="paint0_linear_838_3869" x1="435.613" y1="12973.3" x2="12011.2" y2="-10400.5" gradientUnits="userSpaceOnUse">
<stop stop-color="#00B7FF"/>
<stop offset="1" stop-color="#9A2DFF"/>
</linearGradient>
</defs>
</svg>
