<svg width="152" height="31" viewBox="0 0 152 31" fill="none" xmlns="http://www.w3.org/2000/svg">
<path d="M13 3.80469L22.75 11.1172L18.6875 26.5547H7.3125L3.25 11.1172L13 3.80469Z" fill="url(#paint0_linear_838_2982)"/>
<path d="M13 3.80469V26.5547M18.6875 26.5547L13 3.80469L7.3125 26.5547M3.25 11.1172H22.75" stroke="white" stroke-opacity="0.3" stroke-width="0.8125"/>
<path d="M41.89 21.133C40.9653 21.133 40.1293 20.9747 39.382 20.658C38.6473 20.3413 38.0647 19.8853 37.634 19.29C37.2033 18.6947 36.9817 17.9917 36.969 17.181H39.819C39.857 17.7257 40.047 18.1563 40.389 18.473C40.7437 18.7897 41.225 18.948 41.833 18.948C42.4537 18.948 42.9413 18.8023 43.296 18.511C43.6507 18.207 43.828 17.8143 43.828 17.333C43.828 16.9403 43.7077 16.6173 43.467 16.364C43.2263 16.1107 42.9223 15.9143 42.555 15.775C42.2003 15.623 41.7063 15.4583 41.073 15.281C40.2117 15.0277 39.5087 14.7807 38.964 14.54C38.432 14.2867 37.9697 13.913 37.577 13.419C37.197 12.9123 37.007 12.241 37.007 11.405C37.007 10.6197 37.2033 9.93567 37.596 9.353C37.9887 8.77033 38.5397 8.327 39.249 8.023C39.9583 7.70633 40.769 7.548 41.681 7.548C43.049 7.548 44.1573 7.88367 45.006 8.555C45.8673 9.21367 46.3423 10.1383 46.431 11.329H43.505C43.4797 10.873 43.2833 10.4993 42.916 10.208C42.5613 9.904 42.0863 9.752 41.491 9.752C40.9717 9.752 40.5537 9.885 40.237 10.151C39.933 10.417 39.781 10.8033 39.781 11.31C39.781 11.6647 39.895 11.9623 40.123 12.203C40.3637 12.431 40.655 12.621 40.997 12.773C41.3517 12.9123 41.8457 13.077 42.479 13.267C43.3403 13.5203 44.0433 13.7737 44.588 14.027C45.1327 14.2803 45.6013 14.6603 45.994 15.167C46.3867 15.6737 46.583 16.3387 46.583 17.162C46.583 17.8713 46.3993 18.53 46.032 19.138C45.6647 19.746 45.1263 20.2337 44.417 20.601C43.7077 20.9557 42.8653 21.133 41.89 21.133ZM48.0151 15.699C48.0151 14.635 48.2241 13.6913 48.6421 12.868C49.0728 12.0447 49.6491 11.4113 50.3711 10.968C51.1058 10.5247 51.9228 10.303 52.8221 10.303C53.6075 10.303 54.2915 10.4613 54.8741 10.778C55.4695 11.0947 55.9445 11.4937 56.2991 11.975V10.474H58.9781V21H56.2991V19.461C55.9571 19.955 55.4821 20.3667 54.8741 20.696C54.2788 21.0127 53.5885 21.171 52.8031 21.171C51.9165 21.171 51.1058 20.943 50.3711 20.487C49.6491 20.031 49.0728 19.3913 48.6421 18.568C48.2241 17.732 48.0151 16.7757 48.0151 15.699ZM56.2991 15.737C56.2991 15.091 56.1725 14.54 55.9191 14.084C55.6658 13.6153 55.3238 13.2607 54.8931 13.02C54.4625 12.7667 54.0001 12.64 53.5061 12.64C53.0121 12.64 52.5561 12.7603 52.1381 13.001C51.7201 13.2417 51.3781 13.5963 51.1121 14.065C50.8588 14.521 50.7321 15.0657 50.7321 15.699C50.7321 16.3323 50.8588 16.8897 51.1121 17.371C51.3781 17.8397 51.7201 18.2007 52.1381 18.454C52.5688 18.7073 53.0248 18.834 53.5061 18.834C54.0001 18.834 54.4625 18.7137 54.8931 18.473C55.3238 18.2197 55.6658 17.865 55.9191 17.409C56.1725 16.9403 56.2991 16.383 56.2991 15.737ZM64.0461 11.994C64.3881 11.5127 64.8567 11.1137 65.4521 10.797C66.0601 10.4677 66.7504 10.303 67.5231 10.303C68.4224 10.303 69.2331 10.5247 69.9551 10.968C70.6897 11.4113 71.2661 12.0447 71.6841 12.868C72.1147 13.6787 72.3301 14.6223 72.3301 15.699C72.3301 16.7757 72.1147 17.732 71.6841 18.568C71.2661 19.3913 70.6897 20.031 69.9551 20.487C69.2331 20.943 68.4224 21.171 67.5231 21.171C66.7504 21.171 66.0664 21.0127 65.4711 20.696C64.8884 20.3793 64.4134 19.9803 64.0461 19.499V26.016H61.3861V10.474H64.0461V11.994ZM69.6131 15.699C69.6131 15.0657 69.4801 14.521 69.2141 14.065C68.9607 13.5963 68.6187 13.2417 68.1881 13.001C67.7701 12.7603 67.3141 12.64 66.8201 12.64C66.3387 12.64 65.8827 12.7667 65.4521 13.02C65.0341 13.2607 64.6921 13.6153 64.4261 14.084C64.1727 14.5527 64.0461 15.1037 64.0461 15.737C64.0461 16.3703 64.1727 16.9213 64.4261 17.39C64.6921 17.8587 65.0341 18.2197 65.4521 18.473C65.8827 18.7137 66.3387 18.834 66.8201 18.834C67.3141 18.834 67.7701 18.7073 68.1881 18.454C68.6187 18.2007 68.9607 17.8397 69.2141 17.371C69.4801 16.9023 69.6131 16.345 69.6131 15.699ZM76.733 11.994C77.075 11.5127 77.5437 11.1137 78.139 10.797C78.747 10.4677 79.4374 10.303 80.21 10.303C81.1094 10.303 81.92 10.5247 82.642 10.968C83.3767 11.4113 83.953 12.0447 84.371 12.868C84.8017 13.6787 85.017 14.6223 85.017 15.699C85.017 16.7757 84.8017 17.732 84.371 18.568C83.953 19.3913 83.3767 20.031 82.642 20.487C81.92 20.943 81.1094 21.171 80.21 21.171C79.4374 21.171 78.7534 21.0127 78.158 20.696C77.5754 20.3793 77.1004 19.9803 76.733 19.499V26.016H74.073V10.474H76.733V11.994ZM82.3 15.699C82.3 15.0657 82.167 14.521 81.901 14.065C81.6477 13.5963 81.3057 13.2417 80.875 13.001C80.457 12.7603 80.001 12.64 79.507 12.64C79.0257 12.64 78.5697 12.7667 78.139 13.02C77.721 13.2607 77.379 13.6153 77.113 14.084C76.8597 14.5527 76.733 15.1037 76.733 15.737C76.733 16.3703 76.8597 16.9213 77.113 17.39C77.379 17.8587 77.721 18.2197 78.139 18.473C78.5697 18.7137 79.0257 18.834 79.507 18.834C80.001 18.834 80.457 18.7073 80.875 18.454C81.3057 18.2007 81.6477 17.8397 81.901 17.371C82.167 16.9023 82.3 16.345 82.3 15.699ZM92.688 10.322C93.486 10.322 94.1953 10.4993 94.816 10.854C95.4367 11.196 95.918 11.709 96.26 12.393C96.6147 13.0643 96.792 13.875 96.792 14.825V21H94.132V15.186C94.132 14.35 93.923 13.7103 93.505 13.267C93.087 12.811 92.517 12.583 91.795 12.583C91.0603 12.583 90.4777 12.811 90.047 13.267C89.629 13.7103 89.42 14.35 89.42 15.186V21H86.76V6.94H89.42V11.785C89.762 11.329 90.218 10.9743 90.788 10.721C91.358 10.455 91.9913 10.322 92.688 10.322ZM100.481 9.22C100.012 9.22 99.6192 9.07433 99.3025 8.783C98.9985 8.479 98.8465 8.10533 98.8465 7.662C98.8465 7.21867 98.9985 6.85133 99.3025 6.56C99.6192 6.256 100.012 6.104 100.481 6.104C100.949 6.104 101.336 6.256 101.64 6.56C101.956 6.85133 102.115 7.21867 102.115 7.662C102.115 8.10533 101.956 8.479 101.64 8.783C101.336 9.07433 100.949 9.22 100.481 9.22ZM101.792 10.474V21H99.1315V10.474H101.792ZM106.89 12.108C107.232 11.5507 107.675 11.1137 108.22 10.797C108.777 10.4803 109.41 10.322 110.12 10.322V13.115H109.417C108.581 13.115 107.947 13.3113 107.517 13.704C107.099 14.0967 106.89 14.7807 106.89 15.756V21H104.23V10.474H106.89V12.108ZM121.506 15.509C121.506 15.889 121.481 16.231 121.43 16.535H113.735C113.799 17.295 114.065 17.8903 114.533 18.321C115.002 18.7517 115.578 18.967 116.262 18.967C117.25 18.967 117.953 18.5427 118.371 17.694H121.24C120.936 18.7073 120.354 19.5433 119.492 20.202C118.631 20.848 117.573 21.171 116.319 21.171C115.306 21.171 114.394 20.9493 113.583 20.506C112.785 20.05 112.158 19.4103 111.702 18.587C111.259 17.7637 111.037 16.8137 111.037 15.737C111.037 14.6477 111.259 13.6913 111.702 12.868C112.146 12.0447 112.766 11.4113 113.564 10.968C114.362 10.5247 115.281 10.303 116.319 10.303C117.32 10.303 118.213 10.5183 118.998 10.949C119.796 11.3797 120.411 11.994 120.841 12.792C121.285 13.5773 121.506 14.483 121.506 15.509ZM118.751 14.749C118.739 14.065 118.492 13.5203 118.01 13.115C117.529 12.697 116.94 12.488 116.243 12.488C115.585 12.488 115.027 12.6907 114.571 13.096C114.128 13.4887 113.856 14.0397 113.754 14.749H118.751Z" fill="#071B2D"/>
<path d="M135.911 7.738V21H133.251V7.738H135.911ZM148.229 23.337L146.215 20.924C145.658 21.0633 145.088 21.133 144.505 21.133C143.264 21.133 142.124 20.8417 141.085 20.259C140.046 19.6763 139.223 18.872 138.615 17.846C138.007 16.8073 137.703 15.6357 137.703 14.331C137.703 13.039 138.007 11.88 138.615 10.854C139.223 9.81533 140.046 9.00467 141.085 8.422C142.124 7.83933 143.264 7.548 144.505 7.548C145.759 7.548 146.899 7.83933 147.925 8.422C148.964 9.00467 149.781 9.81533 150.376 10.854C150.984 11.88 151.288 13.039 151.288 14.331C151.288 15.509 151.035 16.5857 150.528 17.561C150.034 18.5237 149.356 19.309 148.495 19.917L151.535 23.337H148.229ZM140.439 14.331C140.439 15.2177 140.61 15.9967 140.952 16.668C141.294 17.3393 141.769 17.8587 142.377 18.226C142.998 18.5807 143.707 18.758 144.505 18.758C145.303 18.758 146.006 18.5807 146.614 18.226C147.222 17.8587 147.697 17.3393 148.039 16.668C148.381 15.9967 148.552 15.2177 148.552 14.331C148.552 13.4443 148.381 12.6717 148.039 12.013C147.697 11.3417 147.222 10.8287 146.614 10.474C146.006 10.1193 145.303 9.942 144.505 9.942C143.707 9.942 142.998 10.1193 142.377 10.474C141.769 10.8287 141.294 11.3417 140.952 12.013C140.61 12.6717 140.439 13.4443 140.439 14.331Z" fill="url(#paint1_linear_838_2982)"/>
<defs>
<linearGradient id="paint0_linear_838_2982" x1="42.25" y1="49.3047" x2="671.756" y2="588.881" gradientUnits="userSpaceOnUse">
<stop stop-color="#00B7FF"/>
<stop offset="0.45" stop-color="#1437FF"/>
<stop offset="1" stop-color="#9A2DFF"/>
</linearGradient>
<linearGradient id="paint1_linear_838_2982" x1="129.133" y1="1.68534" x2="154.737" y2="28.4502" gradientUnits="userSpaceOnUse">
<stop stop-color="#1437FF"/>
<stop offset="1" stop-color="#6A2EFF"/>
</linearGradient>
</defs>
</svg>
