<svg width="152" height="32" viewBox="0 0 152 32" fill="none" xmlns="http://www.w3.org/2000/svg">
<path d="M13 4.81445L22.75 12.127L18.6875 27.5645H7.3125L3.25 12.127L13 4.81445Z" fill="url(#paint0_linear_847_2080)"/>
<path d="M13 4.81445V27.5645M18.6875 27.5645L13 4.81445L7.3125 27.5645M3.25 12.127H22.75" stroke="white" stroke-opacity="0.3" stroke-width="0.8125"/>
<path d="M41.89 22.133C40.9653 22.133 40.1293 21.9747 39.382 21.658C38.6473 21.3413 38.0647 20.8853 37.634 20.29C37.2033 19.6947 36.9817 18.9917 36.969 18.181H39.819C39.857 18.7257 40.047 19.1563 40.389 19.473C40.7437 19.7897 41.225 19.948 41.833 19.948C42.4537 19.948 42.9413 19.8023 43.296 19.511C43.6507 19.207 43.828 18.8143 43.828 18.333C43.828 17.9403 43.7077 17.6173 43.467 17.364C43.2263 17.1107 42.9223 16.9143 42.555 16.775C42.2003 16.623 41.7063 16.4583 41.073 16.281C40.2117 16.0277 39.5087 15.7807 38.964 15.54C38.432 15.2867 37.9697 14.913 37.577 14.419C37.197 13.9123 37.007 13.241 37.007 12.405C37.007 11.6197 37.2033 10.9357 37.596 10.353C37.9887 9.77033 38.5397 9.327 39.249 9.023C39.9583 8.70633 40.769 8.548 41.681 8.548C43.049 8.548 44.1573 8.88367 45.006 9.555C45.8673 10.2137 46.3423 11.1383 46.431 12.329H43.505C43.4797 11.873 43.2833 11.4993 42.916 11.208C42.5613 10.904 42.0863 10.752 41.491 10.752C40.9717 10.752 40.5537 10.885 40.237 11.151C39.933 11.417 39.781 11.8033 39.781 12.31C39.781 12.6647 39.895 12.9623 40.123 13.203C40.3637 13.431 40.655 13.621 40.997 13.773C41.3517 13.9123 41.8457 14.077 42.479 14.267C43.3403 14.5203 44.0433 14.7737 44.588 15.027C45.1327 15.2803 45.6013 15.6603 45.994 16.167C46.3867 16.6737 46.583 17.3387 46.583 18.162C46.583 18.8713 46.3993 19.53 46.032 20.138C45.6647 20.746 45.1263 21.2337 44.417 21.601C43.7077 21.9557 42.8653 22.133 41.89 22.133ZM48.0151 16.699C48.0151 15.635 48.2241 14.6913 48.6421 13.868C49.0728 13.0447 49.6491 12.4113 50.3711 11.968C51.1058 11.5247 51.9228 11.303 52.8221 11.303C53.6075 11.303 54.2915 11.4613 54.8741 11.778C55.4695 12.0947 55.9445 12.4937 56.2991 12.975V11.474H58.9781V22H56.2991V20.461C55.9571 20.955 55.4821 21.3667 54.8741 21.696C54.2788 22.0127 53.5885 22.171 52.8031 22.171C51.9165 22.171 51.1058 21.943 50.3711 21.487C49.6491 21.031 49.0728 20.3913 48.6421 19.568C48.2241 18.732 48.0151 17.7757 48.0151 16.699ZM56.2991 16.737C56.2991 16.091 56.1725 15.54 55.9191 15.084C55.6658 14.6153 55.3238 14.2607 54.8931 14.02C54.4625 13.7667 54.0001 13.64 53.5061 13.64C53.0121 13.64 52.5561 13.7603 52.1381 14.001C51.7201 14.2417 51.3781 14.5963 51.1121 15.065C50.8588 15.521 50.7321 16.0657 50.7321 16.699C50.7321 17.3323 50.8588 17.8897 51.1121 18.371C51.3781 18.8397 51.7201 19.2007 52.1381 19.454C52.5688 19.7073 53.0248 19.834 53.5061 19.834C54.0001 19.834 54.4625 19.7137 54.8931 19.473C55.3238 19.2197 55.6658 18.865 55.9191 18.409C56.1725 17.9403 56.2991 17.383 56.2991 16.737ZM64.0461 12.994C64.3881 12.5127 64.8567 12.1137 65.4521 11.797C66.0601 11.4677 66.7504 11.303 67.5231 11.303C68.4224 11.303 69.2331 11.5247 69.9551 11.968C70.6897 12.4113 71.2661 13.0447 71.6841 13.868C72.1147 14.6787 72.3301 15.6223 72.3301 16.699C72.3301 17.7757 72.1147 18.732 71.6841 19.568C71.2661 20.3913 70.6897 21.031 69.9551 21.487C69.2331 21.943 68.4224 22.171 67.5231 22.171C66.7504 22.171 66.0664 22.0127 65.4711 21.696C64.8884 21.3793 64.4134 20.9803 64.0461 20.499V27.016H61.3861V11.474H64.0461V12.994ZM69.6131 16.699C69.6131 16.0657 69.4801 15.521 69.2141 15.065C68.9607 14.5963 68.6187 14.2417 68.1881 14.001C67.7701 13.7603 67.3141 13.64 66.8201 13.64C66.3387 13.64 65.8827 13.7667 65.4521 14.02C65.0341 14.2607 64.6921 14.6153 64.4261 15.084C64.1727 15.5527 64.0461 16.1037 64.0461 16.737C64.0461 17.3703 64.1727 17.9213 64.4261 18.39C64.6921 18.8587 65.0341 19.2197 65.4521 19.473C65.8827 19.7137 66.3387 19.834 66.8201 19.834C67.3141 19.834 67.7701 19.7073 68.1881 19.454C68.6187 19.2007 68.9607 18.8397 69.2141 18.371C69.4801 17.9023 69.6131 17.345 69.6131 16.699ZM76.733 12.994C77.075 12.5127 77.5437 12.1137 78.139 11.797C78.747 11.4677 79.4374 11.303 80.21 11.303C81.1094 11.303 81.92 11.5247 82.642 11.968C83.3767 12.4113 83.953 13.0447 84.371 13.868C84.8017 14.6787 85.017 15.6223 85.017 16.699C85.017 17.7757 84.8017 18.732 84.371 19.568C83.953 20.3913 83.3767 21.031 82.642 21.487C81.92 21.943 81.1094 22.171 80.21 22.171C79.4374 22.171 78.7534 22.0127 78.158 21.696C77.5754 21.3793 77.1004 20.9803 76.733 20.499V27.016H74.073V11.474H76.733V12.994ZM82.3 16.699C82.3 16.0657 82.167 15.521 81.901 15.065C81.6477 14.5963 81.3057 14.2417 80.875 14.001C80.457 13.7603 80.001 13.64 79.507 13.64C79.0257 13.64 78.5697 13.7667 78.139 14.02C77.721 14.2607 77.379 14.6153 77.113 15.084C76.8597 15.5527 76.733 16.1037 76.733 16.737C76.733 17.3703 76.8597 17.9213 77.113 18.39C77.379 18.8587 77.721 19.2197 78.139 19.473C78.5697 19.7137 79.0257 19.834 79.507 19.834C80.001 19.834 80.457 19.7073 80.875 19.454C81.3057 19.2007 81.6477 18.8397 81.901 18.371C82.167 17.9023 82.3 17.345 82.3 16.699ZM92.688 11.322C93.486 11.322 94.1953 11.4993 94.816 11.854C95.4367 12.196 95.918 12.709 96.26 13.393C96.6147 14.0643 96.792 14.875 96.792 15.825V22H94.132V16.186C94.132 15.35 93.923 14.7103 93.505 14.267C93.087 13.811 92.517 13.583 91.795 13.583C91.0603 13.583 90.4777 13.811 90.047 14.267C89.629 14.7103 89.42 15.35 89.42 16.186V22H86.76V7.94H89.42V12.785C89.762 12.329 90.218 11.9743 90.788 11.721C91.358 11.455 91.9913 11.322 92.688 11.322ZM100.481 10.22C100.012 10.22 99.6192 10.0743 99.3025 9.783C98.9985 9.479 98.8465 9.10533 98.8465 8.662C98.8465 8.21867 98.9985 7.85133 99.3025 7.56C99.6192 7.256 100.012 7.104 100.481 7.104C100.949 7.104 101.336 7.256 101.64 7.56C101.956 7.85133 102.115 8.21867 102.115 8.662C102.115 9.10533 101.956 9.479 101.64 9.783C101.336 10.0743 100.949 10.22 100.481 10.22ZM101.792 11.474V22H99.1315V11.474H101.792ZM106.89 13.108C107.232 12.5507 107.675 12.1137 108.22 11.797C108.777 11.4803 109.41 11.322 110.12 11.322V14.115H109.417C108.581 14.115 107.947 14.3113 107.517 14.704C107.099 15.0967 106.89 15.7807 106.89 16.756V22H104.23V11.474H106.89V13.108ZM121.506 16.509C121.506 16.889 121.481 17.231 121.43 17.535H113.735C113.799 18.295 114.065 18.8903 114.533 19.321C115.002 19.7517 115.578 19.967 116.262 19.967C117.25 19.967 117.953 19.5427 118.371 18.694H121.24C120.936 19.7073 120.354 20.5433 119.492 21.202C118.631 21.848 117.573 22.171 116.319 22.171C115.306 22.171 114.394 21.9493 113.583 21.506C112.785 21.05 112.158 20.4103 111.702 19.587C111.259 18.7637 111.037 17.8137 111.037 16.737C111.037 15.6477 111.259 14.6913 111.702 13.868C112.146 13.0447 112.766 12.4113 113.564 11.968C114.362 11.5247 115.281 11.303 116.319 11.303C117.32 11.303 118.213 11.5183 118.998 11.949C119.796 12.3797 120.411 12.994 120.841 13.792C121.285 14.5773 121.506 15.483 121.506 16.509ZM118.751 15.749C118.739 15.065 118.492 14.5203 118.01 14.115C117.529 13.697 116.94 13.488 116.243 13.488C115.585 13.488 115.027 13.6907 114.571 14.096C114.128 14.4887 113.856 15.0397 113.754 15.749H118.751Z" fill="white"/>
<path d="M135.911 8.738V22H133.251V8.738H135.911ZM148.229 24.337L146.215 21.924C145.658 22.0633 145.088 22.133 144.505 22.133C143.264 22.133 142.124 21.8417 141.085 21.259C140.046 20.6763 139.223 19.872 138.615 18.846C138.007 17.8073 137.703 16.6357 137.703 15.331C137.703 14.039 138.007 12.88 138.615 11.854C139.223 10.8153 140.046 10.0047 141.085 9.422C142.124 8.83933 143.264 8.548 144.505 8.548C145.759 8.548 146.899 8.83933 147.925 9.422C148.964 10.0047 149.781 10.8153 150.376 11.854C150.984 12.88 151.288 14.039 151.288 15.331C151.288 16.509 151.035 17.5857 150.528 18.561C150.034 19.5237 149.356 20.309 148.495 20.917L151.535 24.337H148.229ZM140.439 15.331C140.439 16.2177 140.61 16.9967 140.952 17.668C141.294 18.3393 141.769 18.8587 142.377 19.226C142.998 19.5807 143.707 19.758 144.505 19.758C145.303 19.758 146.006 19.5807 146.614 19.226C147.222 18.8587 147.697 18.3393 148.039 17.668C148.381 16.9967 148.552 16.2177 148.552 15.331C148.552 14.4443 148.381 13.6717 148.039 13.013C147.697 12.3417 147.222 11.8287 146.614 11.474C146.006 11.1193 145.303 10.942 144.505 10.942C143.707 10.942 142.998 11.1193 142.377 11.474C141.769 11.8287 141.294 12.3417 140.952 13.013C140.61 13.6717 140.439 14.4443 140.439 15.331Z" fill="url(#paint1_linear_847_2080)"/>
<defs>
<linearGradient id="paint0_linear_847_2080" x1="42.25" y1="50.3145" x2="671.756" y2="589.891" gradientUnits="userSpaceOnUse">
<stop stop-color="#00B7FF"/>
<stop offset="0.45" stop-color="#1437FF"/>
<stop offset="1" stop-color="#9A2DFF"/>
</linearGradient>
<linearGradient id="paint1_linear_847_2080" x1="129.133" y1="2.68534" x2="154.737" y2="29.4502" gradientUnits="userSpaceOnUse">
<stop stop-color="#1437FF"/>
<stop offset="1" stop-color="#6A2EFF"/>
</linearGradient>
</defs>
</svg>
