<svg width="866" height="239" viewBox="0 0 866 239" fill="none" xmlns="http://www.w3.org/2000/svg">
<g clip-path="url(#clip0_1041_3192)">
<path fill-rule="evenodd" clip-rule="evenodd" d="M115.969 30.5954L13.5771 30.5898V49.9128L50.8974 49.9194V113.322H78.5941L78.5858 49.9128L115.969 49.9161V30.5954Z" fill="#656262"/>
<mask id="mask0_1041_3192" style="mask-type:luminance" maskUnits="userSpaceOnUse" x="-60" y="-71" width="991" height="400">
<path d="M-59.334 -70.4554H930.666V328.207H-59.334V-70.4554Z" fill="white"/>
</mask>
<g mask="url(#mask0_1041_3192)">
<path fill-rule="evenodd" clip-rule="evenodd" d="M394.464 170.806C394.464 163.569 387.147 157.753 378.16 157.753H342.128C338.979 157.753 337.405 159.022 335.736 161.036C335.643 161.108 324.994 173.494 324.994 173.494H359.726C361.703 173.565 363.569 174.249 364.933 175.403C366.298 176.557 367.054 178.091 367.045 179.685V218.405H394.464V170.806ZM297.575 135.671H324.992V218.405H297.575V135.671ZM535.814 157.753H457.915V218.403H485.517V173.494H516.824C521.086 173.494 524.61 176.253 524.61 179.685V218.403H552.12V170.806C552.12 163.569 544.798 157.753 535.814 157.753ZM145.293 135.671H13.5752V218.406H40.8999V154.994H70.1702C72.9494 154.994 75.1718 156.86 75.1718 159.098V218.406H102.591V159.098C102.589 158.559 102.719 158.024 102.974 157.526C103.229 157.027 103.604 156.574 104.078 156.193C104.551 155.811 105.114 155.509 105.733 155.303C106.352 155.097 107.016 154.992 107.685 154.994H129.268C133.436 154.994 136.863 157.679 136.863 161.038V218.406H164.189V150.89C164.194 148.89 163.709 146.909 162.761 145.061C161.813 143.213 160.421 141.534 158.665 140.12C156.909 138.706 154.824 137.585 152.529 136.822C150.234 136.059 147.775 135.668 145.292 135.673M412.528 177.446V218.406H439.947V158.428C439.947 158.428 427.254 164.768 418.271 169.318C414.842 171.107 412.528 174.092 412.528 177.449M412.528 135.598H439.947V150.888L412.528 165.509V135.598ZM698.75 157.753C691.892 157.753 687.448 162.005 687.448 166.557V218.403H715.051V179.758C715.051 176.328 718.107 173.418 722.462 173.418H742.932C745.894 173.272 748.4 171.854 749.972 169.987C750.063 169.912 760.714 157.753 760.714 157.753H698.75ZM641.877 135.671V203.263H602.137C599.36 203.263 597.411 201.321 597.411 199.68V179.686H597.507C597.504 178.872 597.701 178.066 598.087 177.314C598.472 176.562 599.038 175.879 599.753 175.304C600.467 174.728 601.316 174.272 602.25 173.962C603.184 173.652 604.185 173.493 605.195 173.496H625.292C628.257 173.496 631.315 172.078 632.611 170.438L641.875 157.754H586.117C577.219 157.754 569.904 163.571 569.904 170.808V207.512C569.904 214.525 576.848 218.406 583.24 218.406H669.387V135.671H641.877ZM841.21 157.753H777.852C774.703 157.753 771.837 158.945 770.075 160.888L759.422 173.494H823.243C827.225 173.643 830.467 176.404 830.467 179.685L830.372 203.78H782.579V196.842C782.579 195.503 783.966 194.38 785.635 194.38H819.076V185.431C819.076 183.267 817.409 182.071 815.091 182.071H768.774C763.033 182.071 758.496 185.726 758.496 190.28V212.285C758.496 212.433 758.496 212.511 758.588 212.66C759.236 215.938 762.758 218.402 767.017 218.402H857.423V170.805C857.429 169.089 857.013 167.39 856.2 165.804C855.388 164.218 854.194 162.777 852.687 161.564C851.181 160.351 849.391 159.39 847.422 158.735C845.453 158.081 843.342 157.747 841.212 157.751M264.32 157.753H200.962C197.906 157.753 194.943 158.945 193.276 160.888L182.528 173.494H246.351C250.335 173.643 253.576 176.404 253.576 179.685V203.78H205.687V196.842C205.687 195.503 207.076 194.38 208.743 194.38H242.181V185.431C242.181 183.267 240.516 182.071 238.199 182.071H191.884C186.143 182.071 181.605 185.726 181.605 190.28V212.285C181.605 212.433 181.605 212.511 181.697 212.66C182.02 214.27 183.047 215.733 184.593 216.786C186.139 217.839 188.101 218.412 190.125 218.402H280.532V170.805C280.537 169.089 280.121 167.39 279.309 165.804C278.496 164.218 277.302 162.777 275.795 161.564C274.289 160.351 272.5 159.39 270.53 158.735C268.561 158.081 266.451 157.748 264.32 157.753Z" fill="#E51635"/>
<path fill-rule="evenodd" clip-rule="evenodd" d="M439.946 66.7543C439.946 59.5189 432.625 53.7009 423.642 53.7009H386.664C383.512 53.7009 381.938 54.9675 380.271 56.9815C380.179 57.0549 369.525 69.4397 369.525 69.4397H405.206C407.183 69.5109 409.049 70.1952 410.413 71.3493C411.777 72.5035 412.534 74.038 412.525 75.6315V114.352H439.946V66.9052V66.7543ZM342.107 31.618H369.525V114.35H342.107V31.618ZM266.013 92.4182H266.106C266.106 93.234 266.306 94.0418 266.695 94.7951C267.084 95.5484 267.654 96.2323 268.372 96.8077C269.09 97.3831 269.942 97.8385 270.879 98.1478C271.817 98.4571 272.821 98.6141 273.833 98.6099L325.063 98.6072V114.35H254.656C245.718 114.35 238.365 108.531 238.365 101.295V56.4085V65.7203C238.365 58.4848 245.72 52.6641 254.656 52.6641H324.898L320.575 61.317C319.661 63.1414 319.186 64.6918 317.106 65.8698C315.621 66.7128 314.365 67.2997 312.454 67.2997H273.833C272.821 67.2959 271.817 67.4532 270.88 67.7628C269.943 68.0723 269.091 68.5278 268.373 69.1033C267.655 69.6788 267.085 70.3628 266.696 71.1161C266.308 71.8694 266.108 72.6771 266.108 73.4928H266.015V92.4182M142.987 113.59H201.648C204.702 113.59 207.665 112.396 209.334 110.458L220.08 97.8486H160.958C156.977 97.7005 153.732 94.9389 153.732 91.6569V67.5613H196.925V74.4991C196.925 75.8419 195.534 76.9603 193.865 76.9603H165.129V85.9136C165.129 88.0758 166.797 89.2691 169.112 89.2691H210.724C216.467 89.2691 221.006 85.616 221.006 81.0646V59.0551C221.006 58.907 221.006 58.8337 220.913 58.6842C220.591 57.0742 219.565 55.61 218.019 54.5565C216.473 53.5029 214.511 52.9294 212.486 52.9395H126.779V100.535C126.773 102.251 127.189 103.95 128.001 105.536C128.814 107.122 130.008 108.563 131.514 109.776C133.02 110.99 134.809 111.951 136.778 112.606C138.746 113.261 140.857 113.596 142.987 113.592" fill="#656262"/>
</g>
</g>
<defs>
<clipPath id="clip0_1041_3192">
<rect width="866" height="239" fill="white"/>
</clipPath>
</defs>
</svg>
