<svg width="256" height="360" viewBox="0 0 256 360" fill="none" xmlns="http://www.w3.org/2000/svg">
<rect x="3.28125" y="291" width="10" height="10" rx="5" fill="#1437FF"/>
<path d="M23.4492 291.27V300H22.3359V291.27H23.4492ZM25.0781 292.254V291.27H31.6758V292.254H28.9395V300H27.8262V292.254H25.0781ZM39.4746 300.152C38.8457 300.152 38.2998 300.051 37.8369 299.848C37.374 299.645 37.0117 299.36 36.75 298.995C36.4883 298.63 36.3398 298.203 36.3047 297.715H37.4473C37.4785 298.043 37.5898 298.313 37.7812 298.526C37.9727 298.739 38.2178 298.897 38.5166 299.001C38.8154 299.104 39.1348 299.156 39.4746 299.156C39.8691 299.156 40.2236 299.092 40.5381 298.963C40.8525 298.834 41.1016 298.652 41.2852 298.418C41.4688 298.184 41.5605 297.912 41.5605 297.604C41.5605 297.322 41.4814 297.094 41.3232 296.918C41.165 296.742 40.9551 296.598 40.6934 296.484C40.4316 296.371 40.1445 296.271 39.832 296.186L38.7773 295.887C38.0742 295.688 37.5273 295.402 37.1367 295.031C36.7461 294.66 36.5508 294.186 36.5508 293.607C36.5508 293.115 36.6836 292.685 36.9492 292.315C37.2148 291.946 37.5742 291.66 38.0273 291.457C38.4805 291.254 38.9883 291.152 39.5508 291.152C40.125 291.152 40.6328 291.254 41.0742 291.457C41.5156 291.66 41.8643 291.937 42.1201 292.286C42.376 292.636 42.5117 293.031 42.5273 293.473H41.4375C41.3867 293.047 41.1836 292.718 40.8281 292.485C40.4727 292.253 40.0352 292.137 39.5156 292.137C39.1406 292.137 38.8115 292.198 38.5283 292.321C38.2451 292.444 38.0254 292.612 37.8691 292.825C37.7129 293.038 37.6348 293.281 37.6348 293.555C37.6348 293.859 37.7295 294.104 37.9189 294.29C38.1084 294.476 38.333 294.62 38.5928 294.724C38.8525 294.827 39.0879 294.908 39.2988 294.967L40.1719 295.207C40.4062 295.27 40.665 295.355 40.9482 295.465C41.2314 295.574 41.502 295.72 41.7598 295.901C42.0176 296.083 42.2295 296.313 42.3955 296.593C42.5615 296.872 42.6445 297.215 42.6445 297.621C42.6445 298.098 42.5205 298.527 42.2725 298.91C42.0244 299.293 41.6641 299.596 41.1914 299.818C40.7188 300.041 40.1465 300.152 39.4746 300.152ZM47.0039 300.141C46.3711 300.141 45.8252 300 45.3662 299.719C44.9072 299.438 44.5537 299.045 44.3057 298.541C44.0576 298.037 43.9336 297.449 43.9336 296.777C43.9336 296.105 44.0547 295.514 44.2969 295.002C44.5391 294.49 44.8818 294.09 45.3252 293.801C45.7686 293.512 46.2871 293.367 46.8809 293.367C47.2285 293.367 47.5713 293.425 47.9092 293.54C48.2471 293.655 48.5537 293.841 48.8291 294.097C49.1045 294.353 49.3242 294.689 49.4883 295.107C49.6523 295.525 49.7344 296.037 49.7344 296.643V297.082H44.6484V296.191H49.166L48.6738 296.52C48.6738 296.09 48.6064 295.708 48.4717 295.374C48.3369 295.04 48.1367 294.778 47.8711 294.589C47.6055 294.399 47.2754 294.305 46.8809 294.305C46.4863 294.305 46.1484 294.401 45.8672 294.595C45.5859 294.788 45.3711 295.04 45.2227 295.351C45.0742 295.661 45 295.994 45 296.35V296.941C45 297.426 45.084 297.837 45.252 298.175C45.4199 298.513 45.6553 298.769 45.958 298.942C46.2607 299.116 46.6113 299.203 47.0098 299.203C47.2676 299.203 47.502 299.166 47.7129 299.092C47.9238 299.018 48.1055 298.905 48.2578 298.755C48.4102 298.604 48.5273 298.418 48.6094 298.195L49.6289 298.477C49.5273 298.805 49.3555 299.094 49.1133 299.344C48.8711 299.594 48.5713 299.789 48.2139 299.93C47.8564 300.07 47.4531 300.141 47.0039 300.141ZM51.2461 300V293.449H52.2656V294.457H52.3359C52.457 294.125 52.6729 293.858 52.9834 293.657C53.2939 293.456 53.6445 293.355 54.0352 293.355C54.1133 293.355 54.2061 293.357 54.3135 293.361C54.4209 293.365 54.5059 293.369 54.5684 293.373V294.434C54.5371 294.426 54.459 294.414 54.334 294.398C54.209 294.383 54.0762 294.375 53.9355 294.375C53.623 294.375 53.3428 294.44 53.0947 294.571C52.8467 294.702 52.6523 294.882 52.5117 295.11C52.3711 295.339 52.3008 295.602 52.3008 295.898V300H51.2461ZM57.8438 300L55.3418 293.449H56.4961L57.8906 297.334C58.0391 297.736 58.165 298.138 58.2686 298.538C58.3721 298.938 58.4805 299.326 58.5938 299.701H58.207C58.3203 299.326 58.4287 298.938 58.5322 298.538C58.6357 298.138 58.7598 297.736 58.9043 297.334L60.2988 293.449H61.4531L58.9512 300H57.8438ZM62.6953 300V293.449H63.75V300H62.6953ZM63.2285 292.377C63.0293 292.377 62.8574 292.309 62.7129 292.172C62.5684 292.035 62.4961 291.871 62.4961 291.68C62.4961 291.484 62.5684 291.319 62.7129 291.185C62.8574 291.05 63.0293 290.982 63.2285 290.982C63.4316 290.982 63.6055 291.05 63.75 291.185C63.8945 291.319 63.9668 291.484 63.9668 291.68C63.9668 291.871 63.8945 292.035 63.75 292.172C63.6055 292.309 63.4316 292.377 63.2285 292.377ZM68.2676 300.141C67.6738 300.141 67.1533 300 66.7061 299.719C66.2588 299.438 65.9102 299.043 65.6602 298.535C65.4102 298.027 65.2852 297.438 65.2852 296.766C65.2852 296.082 65.4102 295.485 65.6602 294.976C65.9102 294.466 66.2588 294.07 66.7061 293.789C67.1533 293.508 67.6738 293.367 68.2676 293.367C68.584 293.367 68.8828 293.408 69.1641 293.49C69.4453 293.572 69.7021 293.69 69.9346 293.845C70.167 293.999 70.3672 294.188 70.5352 294.413C70.7031 294.638 70.832 294.893 70.9219 295.178L69.9082 295.465C69.8613 295.297 69.7891 295.143 69.6914 295.002C69.5938 294.861 69.4756 294.739 69.3369 294.636C69.1982 294.532 69.0391 294.452 68.8594 294.396C68.6797 294.339 68.4824 294.311 68.2676 294.311C67.8301 294.311 67.4707 294.425 67.1895 294.653C66.9082 294.882 66.6992 295.182 66.5625 295.553C66.4258 295.924 66.3574 296.328 66.3574 296.766C66.3574 297.195 66.4258 297.595 66.5625 297.964C66.6992 298.333 66.9082 298.631 67.1895 298.857C67.4707 299.084 67.8301 299.197 68.2676 299.197C68.4863 299.197 68.6875 299.168 68.8711 299.109C69.0547 299.051 69.2178 298.968 69.3604 298.86C69.5029 298.753 69.623 298.625 69.7207 298.477C69.8184 298.328 69.8906 298.166 69.9375 297.99L70.9453 298.277C70.8594 298.57 70.7314 298.831 70.5615 299.06C70.3916 299.288 70.1895 299.483 69.9551 299.646C69.7207 299.808 69.4609 299.931 69.1758 300.015C68.8906 300.099 68.5879 300.141 68.2676 300.141ZM75.2109 300.141C74.5781 300.141 74.0322 300 73.5732 299.719C73.1143 299.438 72.7607 299.045 72.5127 298.541C72.2646 298.037 72.1406 297.449 72.1406 296.777C72.1406 296.105 72.2617 295.514 72.5039 295.002C72.7461 294.49 73.0889 294.09 73.5322 293.801C73.9756 293.512 74.4941 293.367 75.0879 293.367C75.4355 293.367 75.7783 293.425 76.1162 293.54C76.4541 293.655 76.7607 293.841 77.0361 294.097C77.3115 294.353 77.5312 294.689 77.6953 295.107C77.8594 295.525 77.9414 296.037 77.9414 296.643V297.082H72.8555V296.191H77.373L76.8809 296.52C76.8809 296.09 76.8135 295.708 76.6787 295.374C76.5439 295.04 76.3438 294.778 76.0781 294.589C75.8125 294.399 75.4824 294.305 75.0879 294.305C74.6934 294.305 74.3555 294.401 74.0742 294.595C73.793 294.788 73.5781 295.04 73.4297 295.351C73.2812 295.661 73.207 295.994 73.207 296.35V296.941C73.207 297.426 73.291 297.837 73.459 298.175C73.627 298.513 73.8623 298.769 74.165 298.942C74.4678 299.116 74.8184 299.203 75.2168 299.203C75.4746 299.203 75.709 299.166 75.9199 299.092C76.1309 299.018 76.3125 298.905 76.4648 298.755C76.6172 298.604 76.7344 298.418 76.8164 298.195L77.8359 298.477C77.7344 298.805 77.5625 299.094 77.3203 299.344C77.0781 299.594 76.7783 299.789 76.4209 299.93C76.0635 300.07 75.6602 300.141 75.2109 300.141ZM81.6797 300.141C81.2305 300.141 80.8311 300.075 80.4814 299.944C80.1318 299.813 79.8438 299.619 79.6172 299.361C79.3906 299.104 79.2383 298.787 79.1602 298.412L80.1621 298.172C80.2559 298.531 80.4326 298.795 80.6924 298.963C80.9521 299.131 81.2773 299.215 81.668 299.215C82.125 299.215 82.4893 299.117 82.7607 298.922C83.0322 298.727 83.168 298.494 83.168 298.225C83.168 297.998 83.0889 297.81 82.9307 297.659C82.7725 297.509 82.5312 297.396 82.207 297.322L81.1172 297.064C80.5234 296.924 80.082 296.706 79.793 296.411C79.5039 296.116 79.3594 295.738 79.3594 295.277C79.3594 294.902 79.4648 294.571 79.6758 294.284C79.8867 293.997 80.1748 293.772 80.54 293.61C80.9053 293.448 81.3203 293.367 81.7852 293.367C82.2344 293.367 82.6162 293.435 82.9307 293.569C83.2451 293.704 83.501 293.89 83.6982 294.126C83.8955 294.362 84.043 294.635 84.1406 294.943L83.1855 295.189C83.0957 294.955 82.9463 294.742 82.7373 294.551C82.5283 294.359 82.2129 294.264 81.791 294.264C81.4004 294.264 81.0752 294.354 80.8154 294.533C80.5557 294.713 80.4258 294.939 80.4258 295.213C80.4258 295.455 80.5137 295.649 80.6895 295.796C80.8652 295.942 81.1445 296.061 81.5273 296.15L82.5176 296.385C83.1113 296.525 83.5508 296.743 83.8359 297.038C84.1211 297.333 84.2637 297.705 84.2637 298.154C84.2637 298.537 84.1553 298.878 83.9385 299.177C83.7217 299.476 83.4189 299.711 83.0303 299.883C82.6416 300.055 82.1914 300.141 81.6797 300.141Z" fill="#475569"/>
<rect x="140.002" y="291" width="10" height="10" rx="5" fill="#6A2EFF"/>
<path d="M159.057 300V291.27H164.336V292.254H160.17V295.242H163.938V296.227H160.17V300H159.057ZM166.012 300V293.449H167.066V300H166.012ZM166.545 292.377C166.346 292.377 166.174 292.309 166.029 292.172C165.885 292.035 165.812 291.871 165.812 291.68C165.812 291.484 165.885 291.319 166.029 291.185C166.174 291.05 166.346 290.982 166.545 290.982C166.748 290.982 166.922 291.05 167.066 291.185C167.211 291.319 167.283 291.484 167.283 291.68C167.283 291.871 167.211 292.035 167.066 292.172C166.922 292.309 166.748 292.377 166.545 292.377ZM169.973 296.074V300H168.918V293.449H169.932L169.938 295.037H169.791C169.99 294.432 170.274 294.002 170.644 293.748C171.013 293.494 171.445 293.367 171.941 293.367C172.383 293.367 172.77 293.458 173.102 293.64C173.434 293.821 173.692 294.095 173.878 294.46C174.063 294.825 174.156 295.285 174.156 295.84V300H173.102V295.928C173.102 295.424 172.97 295.029 172.706 294.744C172.442 294.459 172.082 294.316 171.625 294.316C171.312 294.316 171.031 294.385 170.781 294.521C170.531 294.658 170.334 294.857 170.189 295.119C170.045 295.381 169.973 295.699 169.973 296.074ZM177.842 300.152C177.428 300.152 177.052 300.074 176.714 299.918C176.376 299.762 176.107 299.533 175.908 299.232C175.709 298.932 175.609 298.566 175.609 298.137C175.609 297.762 175.684 297.457 175.832 297.223C175.98 296.988 176.179 296.804 176.427 296.669C176.675 296.534 176.949 296.434 177.25 296.367C177.551 296.301 177.854 296.248 178.158 296.209C178.549 296.158 178.867 296.119 179.113 296.092C179.359 296.064 179.542 296.018 179.661 295.951C179.78 295.885 179.84 295.771 179.84 295.611V295.576C179.84 295.303 179.789 295.071 179.688 294.882C179.586 294.692 179.434 294.547 179.23 294.445C179.027 294.344 178.773 294.293 178.469 294.293C178.156 294.293 177.889 294.342 177.666 294.439C177.443 294.537 177.263 294.659 177.124 294.806C176.985 294.952 176.881 295.102 176.811 295.254L175.797 294.92C175.965 294.521 176.191 294.21 176.477 293.985C176.762 293.761 177.076 293.602 177.42 293.508C177.764 293.414 178.104 293.367 178.439 293.367C178.658 293.367 178.907 293.394 179.187 293.446C179.466 293.499 179.735 293.604 179.995 293.76C180.255 293.916 180.47 294.147 180.64 294.454C180.81 294.761 180.895 295.17 180.895 295.682V300H179.857V299.109H179.787C179.713 299.262 179.594 299.419 179.43 299.581C179.266 299.743 179.053 299.879 178.791 299.988C178.529 300.098 178.213 300.152 177.842 300.152ZM178.023 299.221C178.414 299.221 178.744 299.145 179.014 298.992C179.283 298.84 179.488 298.642 179.629 298.397C179.77 298.153 179.84 297.898 179.84 297.633V296.725C179.797 296.775 179.703 296.821 179.559 296.862C179.414 296.903 179.249 296.939 179.063 296.971C178.878 297.002 178.698 297.028 178.524 297.05C178.351 297.071 178.213 297.088 178.111 297.1C177.857 297.131 177.62 297.185 177.399 297.261C177.179 297.337 177.002 297.448 176.869 297.595C176.736 297.741 176.67 297.939 176.67 298.189C176.67 298.416 176.729 298.605 176.846 298.758C176.963 298.91 177.123 299.025 177.326 299.104C177.529 299.182 177.762 299.221 178.023 299.221ZM183.801 296.074V300H182.746V293.449H183.76L183.766 295.037H183.619C183.818 294.432 184.103 294.002 184.472 293.748C184.841 293.494 185.273 293.367 185.77 293.367C186.211 293.367 186.598 293.458 186.93 293.64C187.262 293.821 187.521 294.095 187.706 294.46C187.892 294.825 187.984 295.285 187.984 295.84V300H186.93V295.928C186.93 295.424 186.798 295.029 186.534 294.744C186.271 294.459 185.91 294.316 185.453 294.316C185.141 294.316 184.859 294.385 184.609 294.521C184.359 294.658 184.162 294.857 184.018 295.119C183.873 295.381 183.801 295.699 183.801 296.074ZM192.502 300.141C191.908 300.141 191.388 300 190.94 299.719C190.493 299.438 190.145 299.043 189.895 298.535C189.645 298.027 189.52 297.438 189.52 296.766C189.52 296.082 189.645 295.485 189.895 294.976C190.145 294.466 190.493 294.07 190.94 293.789C191.388 293.508 191.908 293.367 192.502 293.367C192.818 293.367 193.117 293.408 193.398 293.49C193.68 293.572 193.937 293.69 194.169 293.845C194.401 293.999 194.602 294.188 194.77 294.413C194.938 294.638 195.066 294.893 195.156 295.178L194.143 295.465C194.096 295.297 194.023 295.143 193.926 295.002C193.828 294.861 193.71 294.739 193.571 294.636C193.433 294.532 193.273 294.452 193.094 294.396C192.914 294.339 192.717 294.311 192.502 294.311C192.064 294.311 191.705 294.425 191.424 294.653C191.143 294.882 190.934 295.182 190.797 295.553C190.66 295.924 190.592 296.328 190.592 296.766C190.592 297.195 190.66 297.595 190.797 297.964C190.934 298.333 191.143 298.631 191.424 298.857C191.705 299.084 192.064 299.197 192.502 299.197C192.721 299.197 192.922 299.168 193.105 299.109C193.289 299.051 193.452 298.968 193.595 298.86C193.737 298.753 193.857 298.625 193.955 298.477C194.053 298.328 194.125 298.166 194.172 297.99L195.18 298.277C195.094 298.57 194.966 298.831 194.796 299.06C194.626 299.288 194.424 299.483 194.189 299.646C193.955 299.808 193.695 299.931 193.41 300.015C193.125 300.099 192.822 300.141 192.502 300.141ZM199.445 300.141C198.812 300.141 198.267 300 197.808 299.719C197.349 299.438 196.995 299.045 196.747 298.541C196.499 298.037 196.375 297.449 196.375 296.777C196.375 296.105 196.496 295.514 196.738 295.002C196.98 294.49 197.323 294.09 197.767 293.801C198.21 293.512 198.729 293.367 199.322 293.367C199.67 293.367 200.013 293.425 200.351 293.54C200.688 293.655 200.995 293.841 201.271 294.097C201.546 294.353 201.766 294.689 201.93 295.107C202.094 295.525 202.176 296.037 202.176 296.643V297.082H197.09V296.191H201.607L201.115 296.52C201.115 296.09 201.048 295.708 200.913 295.374C200.778 295.04 200.578 294.778 200.312 294.589C200.047 294.399 199.717 294.305 199.322 294.305C198.928 294.305 198.59 294.401 198.309 294.595C198.027 294.788 197.812 295.04 197.664 295.351C197.516 295.661 197.441 295.994 197.441 296.35V296.941C197.441 297.426 197.525 297.837 197.693 298.175C197.861 298.513 198.097 298.769 198.399 298.942C198.702 299.116 199.053 299.203 199.451 299.203C199.709 299.203 199.943 299.166 200.154 299.092C200.365 299.018 200.547 298.905 200.699 298.755C200.852 298.604 200.969 298.418 201.051 298.195L202.07 298.477C201.969 298.805 201.797 299.094 201.555 299.344C201.312 299.594 201.013 299.789 200.655 299.93C200.298 300.07 199.895 300.141 199.445 300.141ZM206.816 290.859L204.004 301.312H203.031L205.844 290.859H206.816ZM208.141 300V291.27H211.234C211.844 291.27 212.347 291.374 212.743 291.583C213.14 291.792 213.435 292.071 213.628 292.421C213.821 292.771 213.918 293.158 213.918 293.584C213.918 293.959 213.852 294.269 213.719 294.513C213.586 294.757 213.411 294.951 213.194 295.096C212.978 295.24 212.742 295.348 212.488 295.418V295.5C212.762 295.516 213.034 295.609 213.306 295.781C213.577 295.953 213.804 296.197 213.985 296.514C214.167 296.83 214.258 297.217 214.258 297.674C214.258 298.111 214.157 298.506 213.956 298.857C213.755 299.209 213.439 299.487 213.01 299.692C212.58 299.897 212.021 300 211.334 300H208.141ZM209.254 299.016H211.305C211.984 299.016 212.468 298.885 212.755 298.623C213.042 298.361 213.186 298.041 213.186 297.662C213.186 297.369 213.111 297.1 212.963 296.854C212.814 296.607 212.604 296.41 212.333 296.262C212.062 296.113 211.738 296.039 211.363 296.039H209.254V299.016ZM209.254 295.102H211.176C211.488 295.102 211.771 295.04 212.025 294.917C212.279 294.794 212.48 294.62 212.629 294.396C212.777 294.171 212.852 293.908 212.852 293.607C212.852 293.229 212.72 292.908 212.456 292.646C212.192 292.385 211.777 292.254 211.211 292.254H209.254V295.102ZM217.697 300.152C217.283 300.152 216.907 300.074 216.569 299.918C216.231 299.762 215.963 299.533 215.764 299.232C215.564 298.932 215.465 298.566 215.465 298.137C215.465 297.762 215.539 297.457 215.688 297.223C215.836 296.988 216.034 296.804 216.282 296.669C216.53 296.534 216.805 296.434 217.105 296.367C217.406 296.301 217.709 296.248 218.014 296.209C218.404 296.158 218.723 296.119 218.969 296.092C219.215 296.064 219.397 296.018 219.517 295.951C219.636 295.885 219.695 295.771 219.695 295.611V295.576C219.695 295.303 219.645 295.071 219.543 294.882C219.441 294.692 219.289 294.547 219.086 294.445C218.883 294.344 218.629 294.293 218.324 294.293C218.012 294.293 217.744 294.342 217.521 294.439C217.299 294.537 217.118 294.659 216.979 294.806C216.841 294.952 216.736 295.102 216.666 295.254L215.652 294.92C215.82 294.521 216.047 294.21 216.332 293.985C216.617 293.761 216.932 293.602 217.275 293.508C217.619 293.414 217.959 293.367 218.295 293.367C218.514 293.367 218.763 293.394 219.042 293.446C219.321 293.499 219.591 293.604 219.851 293.76C220.11 293.916 220.325 294.147 220.495 294.454C220.665 294.761 220.75 295.17 220.75 295.682V300H219.713V299.109H219.643C219.568 299.262 219.449 299.419 219.285 299.581C219.121 299.743 218.908 299.879 218.646 299.988C218.385 300.098 218.068 300.152 217.697 300.152ZM217.879 299.221C218.27 299.221 218.6 299.145 218.869 298.992C219.139 298.84 219.344 298.642 219.484 298.397C219.625 298.153 219.695 297.898 219.695 297.633V296.725C219.652 296.775 219.559 296.821 219.414 296.862C219.27 296.903 219.104 296.939 218.919 296.971C218.733 297.002 218.554 297.028 218.38 297.05C218.206 297.071 218.068 297.088 217.967 297.1C217.713 297.131 217.476 297.185 217.255 297.261C217.034 297.337 216.857 297.448 216.725 297.595C216.592 297.741 216.525 297.939 216.525 298.189C216.525 298.416 216.584 298.605 216.701 298.758C216.818 298.91 216.979 299.025 217.182 299.104C217.385 299.182 217.617 299.221 217.879 299.221ZM223.656 296.074V300H222.602V293.449H223.615L223.621 295.037H223.475C223.674 294.432 223.958 294.002 224.327 293.748C224.696 293.494 225.129 293.367 225.625 293.367C226.066 293.367 226.453 293.458 226.785 293.64C227.117 293.821 227.376 294.095 227.562 294.46C227.747 294.825 227.84 295.285 227.84 295.84V300H226.785V295.928C226.785 295.424 226.653 295.029 226.39 294.744C226.126 294.459 225.766 294.316 225.309 294.316C224.996 294.316 224.715 294.385 224.465 294.521C224.215 294.658 224.018 294.857 223.873 295.119C223.729 295.381 223.656 295.699 223.656 296.074ZM230.682 297.645V296.338H230.875L233.676 293.449H234.982L231.953 296.561H231.836L230.682 297.645ZM229.691 300V291.27H230.746V300H229.691ZM233.834 300L231.326 296.795L232.076 296.051L235.188 300H233.834ZM236.277 300V293.449H237.332V300H236.277ZM236.811 292.377C236.611 292.377 236.439 292.309 236.295 292.172C236.15 292.035 236.078 291.871 236.078 291.68C236.078 291.484 236.15 291.319 236.295 291.185C236.439 291.05 236.611 290.982 236.811 290.982C237.014 290.982 237.188 291.05 237.332 291.185C237.477 291.319 237.549 291.484 237.549 291.68C237.549 291.871 237.477 292.035 237.332 292.172C237.188 292.309 237.014 292.377 236.811 292.377ZM240.238 296.074V300H239.184V293.449H240.197L240.203 295.037H240.057C240.256 294.432 240.54 294.002 240.909 293.748C241.278 293.494 241.711 293.367 242.207 293.367C242.648 293.367 243.035 293.458 243.367 293.64C243.699 293.821 243.958 294.095 244.144 294.46C244.329 294.825 244.422 295.285 244.422 295.84V300H243.367V295.928C243.367 295.424 243.235 295.029 242.972 294.744C242.708 294.459 242.348 294.316 241.891 294.316C241.578 294.316 241.297 294.385 241.047 294.521C240.797 294.658 240.6 294.857 240.455 295.119C240.311 295.381 240.238 295.699 240.238 296.074ZM248.928 302.59C248.443 302.59 248.024 302.528 247.671 302.405C247.317 302.282 247.023 302.119 246.789 301.916C246.555 301.713 246.369 301.492 246.232 301.254L247.088 300.703C247.182 300.828 247.298 300.967 247.437 301.119C247.575 301.271 247.763 301.401 247.999 301.509C248.235 301.616 248.545 301.67 248.928 301.67C249.451 301.67 249.882 301.545 250.22 301.295C250.558 301.045 250.727 300.65 250.727 300.111V298.799H250.627C250.553 298.924 250.448 299.072 250.313 299.244C250.179 299.416 249.985 299.567 249.733 299.698C249.481 299.829 249.145 299.895 248.723 299.895C248.199 299.895 247.729 299.771 247.311 299.522C246.893 299.274 246.562 298.912 246.32 298.436C246.078 297.959 245.957 297.379 245.957 296.695C245.957 296.02 246.076 295.433 246.314 294.935C246.553 294.437 246.882 294.051 247.302 293.777C247.722 293.504 248.203 293.367 248.746 293.367C249.168 293.367 249.505 293.437 249.757 293.575C250.009 293.714 250.203 293.873 250.34 294.053C250.477 294.232 250.582 294.381 250.656 294.498H250.756V293.449H251.781V300.17C251.781 300.732 251.654 301.192 251.4 301.55C251.146 301.907 250.804 302.17 250.372 302.338C249.94 302.506 249.459 302.59 248.928 302.59ZM248.898 298.957C249.297 298.957 249.633 298.866 249.906 298.685C250.18 298.503 250.387 298.241 250.527 297.899C250.668 297.558 250.738 297.148 250.738 296.672C250.738 296.207 250.669 295.798 250.53 295.444C250.392 295.091 250.186 294.813 249.912 294.612C249.639 294.411 249.301 294.311 248.898 294.311C248.484 294.311 248.139 294.417 247.861 294.63C247.584 294.843 247.376 295.127 247.237 295.482C247.099 295.838 247.029 296.234 247.029 296.672C247.029 297.121 247.1 297.518 247.24 297.861C247.381 298.205 247.59 298.474 247.867 298.667C248.145 298.86 248.488 298.957 248.898 298.957Z" fill="#475569"/>
<rect x="3.28125" y="319" width="10" height="10" rx="5" fill="#00B7FF"/>
<path d="M22.3359 328V319.27H27.6562V320.254H23.4492V323.102H27.3691V324.086H23.4492V327.016H27.709V328H22.3359ZM33.1699 323.787V324.76H29.3379V323.787H33.1699ZM37.6055 328.141C37.0117 328.141 36.4912 328 36.0439 327.719C35.5967 327.438 35.248 327.043 34.998 326.535C34.748 326.027 34.623 325.438 34.623 324.766C34.623 324.082 34.748 323.485 34.998 322.976C35.248 322.466 35.5967 322.07 36.0439 321.789C36.4912 321.508 37.0117 321.367 37.6055 321.367C37.9219 321.367 38.2207 321.408 38.502 321.49C38.7832 321.572 39.04 321.69 39.2725 321.845C39.5049 321.999 39.7051 322.188 39.873 322.413C40.041 322.638 40.1699 322.893 40.2598 323.178L39.2461 323.465C39.1992 323.297 39.127 323.143 39.0293 323.002C38.9316 322.861 38.8135 322.739 38.6748 322.636C38.5361 322.532 38.377 322.452 38.1973 322.396C38.0176 322.339 37.8203 322.311 37.6055 322.311C37.168 322.311 36.8086 322.425 36.5273 322.653C36.2461 322.882 36.0371 323.182 35.9004 323.553C35.7637 323.924 35.6953 324.328 35.6953 324.766C35.6953 325.195 35.7637 325.595 35.9004 325.964C36.0371 326.333 36.2461 326.631 36.5273 326.857C36.8086 327.084 37.168 327.197 37.6055 327.197C37.8242 327.197 38.0254 327.168 38.209 327.109C38.3926 327.051 38.5557 326.968 38.6982 326.86C38.8408 326.753 38.9609 326.625 39.0586 326.477C39.1562 326.328 39.2285 326.166 39.2754 325.99L40.2832 326.277C40.1973 326.57 40.0693 326.831 39.8994 327.06C39.7295 327.288 39.5273 327.483 39.293 327.646C39.0586 327.808 38.7988 327.931 38.5137 328.015C38.2285 328.099 37.9258 328.141 37.6055 328.141ZM44.4609 328.141C43.8672 328.141 43.3467 328 42.8994 327.719C42.4521 327.438 42.1035 327.043 41.8535 326.535C41.6035 326.027 41.4785 325.438 41.4785 324.766C41.4785 324.082 41.6035 323.485 41.8535 322.976C42.1035 322.466 42.4521 322.07 42.8994 321.789C43.3467 321.508 43.8672 321.367 44.4609 321.367C45.0586 321.367 45.582 321.508 46.0312 321.789C46.4805 322.07 46.8301 322.466 47.0801 322.976C47.3301 323.485 47.4551 324.082 47.4551 324.766C47.4551 325.438 47.3301 326.027 47.0801 326.535C46.8301 327.043 46.4805 327.438 46.0312 327.719C45.582 328 45.0586 328.141 44.4609 328.141ZM44.4609 327.197C44.9023 327.197 45.2656 327.084 45.5508 326.857C45.8359 326.631 46.0469 326.333 46.1836 325.964C46.3203 325.595 46.3887 325.195 46.3887 324.766C46.3887 324.332 46.3203 323.929 46.1836 323.556C46.0469 323.183 45.8359 322.882 45.5508 322.653C45.2656 322.425 44.9023 322.311 44.4609 322.311C44.0234 322.311 43.6641 322.425 43.3828 322.653C43.1016 322.882 42.8926 323.182 42.7559 323.553C42.6191 323.924 42.5508 324.328 42.5508 324.766C42.5508 325.195 42.6191 325.595 42.7559 325.964C42.8926 326.333 43.1016 326.631 43.3828 326.857C43.6641 327.084 44.0234 327.197 44.4609 327.197ZM48.9902 328V321.449H50.0156L50.0215 322.914H49.9395C50.0293 322.559 50.1709 322.265 50.3643 322.032C50.5576 321.8 50.7842 321.625 51.0439 321.508C51.3037 321.391 51.5742 321.332 51.8555 321.332C52.332 321.332 52.7178 321.479 53.0127 321.771C53.3076 322.064 53.498 322.449 53.584 322.926H53.4434C53.5215 322.598 53.6641 322.314 53.8711 322.076C54.0781 321.838 54.3291 321.654 54.624 321.525C54.9189 321.396 55.2402 321.332 55.5879 321.332C55.9668 321.332 56.3125 321.414 56.625 321.578C56.9375 321.742 57.1865 321.99 57.3721 322.322C57.5576 322.654 57.6504 323.074 57.6504 323.582V328H56.5957V323.611C56.5957 323.139 56.4629 322.801 56.1973 322.598C55.9316 322.395 55.623 322.293 55.2715 322.293C54.9785 322.293 54.7256 322.354 54.5127 322.478C54.2998 322.601 54.1357 322.77 54.0205 322.984C53.9053 323.199 53.8477 323.445 53.8477 323.723V328H52.793V323.506C52.793 323.143 52.6719 322.85 52.4297 322.627C52.1875 322.404 51.8809 322.293 51.5098 322.293C51.2559 322.293 51.0166 322.353 50.792 322.472C50.5674 322.591 50.3867 322.768 50.25 323.002C50.1133 323.236 50.0449 323.527 50.0449 323.875V328H48.9902ZM59.502 328V321.449H60.5273L60.5332 322.914H60.4512C60.541 322.559 60.6826 322.265 60.876 322.032C61.0693 321.8 61.2959 321.625 61.5557 321.508C61.8154 321.391 62.0859 321.332 62.3672 321.332C62.8438 321.332 63.2295 321.479 63.5244 321.771C63.8193 322.064 64.0098 322.449 64.0957 322.926H63.9551C64.0332 322.598 64.1758 322.314 64.3828 322.076C64.5898 321.838 64.8408 321.654 65.1357 321.525C65.4307 321.396 65.752 321.332 66.0996 321.332C66.4785 321.332 66.8242 321.414 67.1367 321.578C67.4492 321.742 67.6982 321.99 67.8838 322.322C68.0693 322.654 68.1621 323.074 68.1621 323.582V328H67.1074V323.611C67.1074 323.139 66.9746 322.801 66.709 322.598C66.4434 322.395 66.1348 322.293 65.7832 322.293C65.4902 322.293 65.2373 322.354 65.0244 322.478C64.8115 322.601 64.6475 322.77 64.5322 322.984C64.417 323.199 64.3594 323.445 64.3594 323.723V328H63.3047V323.506C63.3047 323.143 63.1836 322.85 62.9414 322.627C62.6992 322.404 62.3926 322.293 62.0215 322.293C61.7676 322.293 61.5283 322.353 61.3037 322.472C61.0791 322.591 60.8984 322.768 60.7617 323.002C60.625 323.236 60.5566 323.527 60.5566 323.875V328H59.502ZM72.7676 328.141C72.1348 328.141 71.5889 328 71.1299 327.719C70.6709 327.438 70.3174 327.045 70.0693 326.541C69.8213 326.037 69.6973 325.449 69.6973 324.777C69.6973 324.105 69.8184 323.514 70.0605 323.002C70.3027 322.49 70.6455 322.09 71.0889 321.801C71.5322 321.512 72.0508 321.367 72.6445 321.367C72.9922 321.367 73.335 321.425 73.6729 321.54C74.0107 321.655 74.3174 321.841 74.5928 322.097C74.8682 322.353 75.0879 322.689 75.252 323.107C75.416 323.525 75.498 324.037 75.498 324.643V325.082H70.4121V324.191H74.9297L74.4375 324.52C74.4375 324.09 74.3701 323.708 74.2354 323.374C74.1006 323.04 73.9004 322.778 73.6348 322.589C73.3691 322.399 73.0391 322.305 72.6445 322.305C72.25 322.305 71.9121 322.401 71.6309 322.595C71.3496 322.788 71.1348 323.04 70.9863 323.351C70.8379 323.661 70.7637 323.994 70.7637 324.35V324.941C70.7637 325.426 70.8477 325.837 71.0156 326.175C71.1836 326.513 71.4189 326.769 71.7217 326.942C72.0244 327.116 72.375 327.203 72.7734 327.203C73.0312 327.203 73.2656 327.166 73.4766 327.092C73.6875 327.018 73.8691 326.905 74.0215 326.755C74.1738 326.604 74.291 326.418 74.373 326.195L75.3926 326.477C75.291 326.805 75.1191 327.094 74.877 327.344C74.6348 327.594 74.335 327.789 73.9775 327.93C73.6201 328.07 73.2168 328.141 72.7676 328.141ZM77.0098 328V321.449H78.0293V322.457H78.0996C78.2207 322.125 78.4365 321.858 78.7471 321.657C79.0576 321.456 79.4082 321.355 79.7988 321.355C79.877 321.355 79.9697 321.357 80.0771 321.361C80.1846 321.365 80.2695 321.369 80.332 321.373V322.434C80.3008 322.426 80.2227 322.414 80.0977 322.398C79.9727 322.383 79.8398 322.375 79.6992 322.375C79.3867 322.375 79.1064 322.44 78.8584 322.571C78.6104 322.702 78.416 322.882 78.2754 323.11C78.1348 323.339 78.0645 323.602 78.0645 323.898V328H77.0098ZM83.9941 328.141C83.4004 328.141 82.8799 328 82.4326 327.719C81.9854 327.438 81.6367 327.043 81.3867 326.535C81.1367 326.027 81.0117 325.438 81.0117 324.766C81.0117 324.082 81.1367 323.485 81.3867 322.976C81.6367 322.466 81.9854 322.07 82.4326 321.789C82.8799 321.508 83.4004 321.367 83.9941 321.367C84.3105 321.367 84.6094 321.408 84.8906 321.49C85.1719 321.572 85.4287 321.69 85.6611 321.845C85.8936 321.999 86.0938 322.188 86.2617 322.413C86.4297 322.638 86.5586 322.893 86.6484 323.178L85.6348 323.465C85.5879 323.297 85.5156 323.143 85.418 323.002C85.3203 322.861 85.2021 322.739 85.0635 322.636C84.9248 322.532 84.7656 322.452 84.5859 322.396C84.4062 322.339 84.209 322.311 83.9941 322.311C83.5566 322.311 83.1973 322.425 82.916 322.653C82.6348 322.882 82.4258 323.182 82.2891 323.553C82.1523 323.924 82.084 324.328 82.084 324.766C82.084 325.195 82.1523 325.595 82.2891 325.964C82.4258 326.333 82.6348 326.631 82.916 326.857C83.1973 327.084 83.5566 327.197 83.9941 327.197C84.2129 327.197 84.4141 327.168 84.5977 327.109C84.7812 327.051 84.9443 326.968 85.0869 326.86C85.2295 326.753 85.3496 326.625 85.4473 326.477C85.5449 326.328 85.6172 326.166 85.6641 325.99L86.6719 326.277C86.5859 326.57 86.458 326.831 86.2881 327.06C86.1182 327.288 85.916 327.483 85.6816 327.646C85.4473 327.808 85.1875 327.931 84.9023 328.015C84.6172 328.099 84.3145 328.141 83.9941 328.141ZM90.9375 328.141C90.3047 328.141 89.7588 328 89.2998 327.719C88.8408 327.438 88.4873 327.045 88.2393 326.541C87.9912 326.037 87.8672 325.449 87.8672 324.777C87.8672 324.105 87.9883 323.514 88.2305 323.002C88.4727 322.49 88.8154 322.09 89.2588 321.801C89.7021 321.512 90.2207 321.367 90.8145 321.367C91.1621 321.367 91.5049 321.425 91.8428 321.54C92.1807 321.655 92.4873 321.841 92.7627 322.097C93.0381 322.353 93.2578 322.689 93.4219 323.107C93.5859 323.525 93.668 324.037 93.668 324.643V325.082H88.582V324.191H93.0996L92.6074 324.52C92.6074 324.09 92.54 323.708 92.4053 323.374C92.2705 323.04 92.0703 322.778 91.8047 322.589C91.5391 322.399 91.209 322.305 90.8145 322.305C90.4199 322.305 90.082 322.401 89.8008 322.595C89.5195 322.788 89.3047 323.04 89.1562 323.351C89.0078 323.661 88.9336 323.994 88.9336 324.35V324.941C88.9336 325.426 89.0176 325.837 89.1855 326.175C89.3535 326.513 89.5889 326.769 89.8916 326.942C90.1943 327.116 90.5449 327.203 90.9434 327.203C91.2012 327.203 91.4355 327.166 91.6465 327.092C91.8574 327.018 92.0391 326.905 92.1914 326.755C92.3438 326.604 92.4609 326.418 92.543 326.195L93.5625 326.477C93.4609 326.805 93.2891 327.094 93.0469 327.344C92.8047 327.594 92.5049 327.789 92.1475 327.93C91.79 328.07 91.3867 328.141 90.9375 328.141Z" fill="#475569"/>
<rect x="140.002" y="319" width="10" height="10" rx="5" fill="#00D09C"/>
<path d="M158.307 328L161.477 319.27H162.766L165.977 328H164.805L162.953 322.82C162.84 322.5 162.708 322.101 162.558 321.622C162.407 321.144 162.225 320.533 162.01 319.791H162.221C162.01 320.541 161.827 321.159 161.673 321.646C161.519 322.132 161.391 322.523 161.289 322.82L159.49 328H158.307ZM159.9 325.562V324.59H164.383V325.562H159.9ZM168.262 324.074V328H167.207V321.449H168.221L168.227 323.037H168.08C168.279 322.432 168.563 322.002 168.933 321.748C169.302 321.494 169.734 321.367 170.23 321.367C170.672 321.367 171.059 321.458 171.391 321.64C171.723 321.821 171.981 322.095 172.167 322.46C172.353 322.825 172.445 323.285 172.445 323.84V328H171.391V323.928C171.391 323.424 171.259 323.029 170.995 322.744C170.731 322.459 170.371 322.316 169.914 322.316C169.602 322.316 169.32 322.385 169.07 322.521C168.82 322.658 168.623 322.857 168.479 323.119C168.334 323.381 168.262 323.699 168.262 324.074ZM176.131 328.152C175.717 328.152 175.341 328.074 175.003 327.918C174.665 327.762 174.396 327.533 174.197 327.232C173.998 326.932 173.898 326.566 173.898 326.137C173.898 325.762 173.973 325.457 174.121 325.223C174.27 324.988 174.468 324.804 174.716 324.669C174.964 324.534 175.238 324.434 175.539 324.367C175.84 324.301 176.143 324.248 176.447 324.209C176.838 324.158 177.156 324.119 177.402 324.092C177.648 324.064 177.831 324.018 177.95 323.951C178.069 323.885 178.129 323.771 178.129 323.611V323.576C178.129 323.303 178.078 323.071 177.977 322.882C177.875 322.692 177.723 322.547 177.52 322.445C177.316 322.344 177.062 322.293 176.758 322.293C176.445 322.293 176.178 322.342 175.955 322.439C175.732 322.537 175.552 322.659 175.413 322.806C175.274 322.952 175.17 323.102 175.1 323.254L174.086 322.92C174.254 322.521 174.48 322.21 174.766 321.985C175.051 321.761 175.365 321.602 175.709 321.508C176.053 321.414 176.393 321.367 176.729 321.367C176.947 321.367 177.196 321.394 177.476 321.446C177.755 321.499 178.024 321.604 178.284 321.76C178.544 321.916 178.759 322.147 178.929 322.454C179.099 322.761 179.184 323.17 179.184 323.682V328H178.146V327.109H178.076C178.002 327.262 177.883 327.419 177.719 327.581C177.555 327.743 177.342 327.879 177.08 327.988C176.818 328.098 176.502 328.152 176.131 328.152ZM176.312 327.221C176.703 327.221 177.033 327.145 177.303 326.992C177.572 326.84 177.777 326.642 177.918 326.397C178.059 326.153 178.129 325.898 178.129 325.633V324.725C178.086 324.775 177.992 324.821 177.848 324.862C177.703 324.903 177.538 324.939 177.353 324.971C177.167 325.002 176.987 325.028 176.813 325.05C176.64 325.071 176.502 325.088 176.4 325.1C176.146 325.131 175.909 325.185 175.688 325.261C175.468 325.337 175.291 325.448 175.158 325.595C175.025 325.741 174.959 325.939 174.959 326.189C174.959 326.416 175.018 326.605 175.135 326.758C175.252 326.91 175.412 327.025 175.615 327.104C175.818 327.182 176.051 327.221 176.312 327.221ZM182.09 319.27V328H181.035V319.27H182.09ZM183.895 330.373L184.164 329.459L184.275 329.488C184.49 329.543 184.686 329.558 184.861 329.532C185.037 329.507 185.195 329.42 185.336 329.271C185.477 329.123 185.6 328.893 185.705 328.58L185.893 328.035L183.391 321.449H184.545L185.939 325.334C186.088 325.74 186.213 326.143 186.314 326.541C186.416 326.939 186.523 327.326 186.637 327.701H186.25C186.363 327.326 186.472 326.938 186.575 326.538C186.679 326.138 186.803 325.736 186.947 325.334L188.354 321.449H189.502L186.625 328.979C186.492 329.326 186.333 329.612 186.147 329.837C185.962 330.062 185.746 330.228 185.5 330.335C185.254 330.442 184.977 330.496 184.668 330.496C184.48 330.496 184.318 330.482 184.182 330.455C184.045 330.428 183.949 330.4 183.895 330.373ZM193.498 321.449V322.352H190.111V321.449H193.498ZM191.096 319.891H192.15V326.301C192.15 326.594 192.21 326.808 192.329 326.942C192.448 327.077 192.646 327.145 192.924 327.145C192.99 327.145 193.075 327.137 193.179 327.121C193.282 327.105 193.377 327.09 193.463 327.074L193.68 327.965C193.57 328.004 193.446 328.033 193.308 328.053C193.169 328.072 193.031 328.082 192.895 328.082C192.328 328.082 191.887 327.933 191.57 327.634C191.254 327.335 191.096 326.918 191.096 326.383V319.891ZM194.846 328V321.449H195.9V328H194.846ZM195.379 320.377C195.18 320.377 195.008 320.309 194.863 320.172C194.719 320.035 194.646 319.871 194.646 319.68C194.646 319.484 194.719 319.319 194.863 319.185C195.008 319.05 195.18 318.982 195.379 318.982C195.582 318.982 195.756 319.05 195.9 319.185C196.045 319.319 196.117 319.484 196.117 319.68C196.117 319.871 196.045 320.035 195.9 320.172C195.756 320.309 195.582 320.377 195.379 320.377ZM200.418 328.141C199.824 328.141 199.304 328 198.856 327.719C198.409 327.438 198.061 327.043 197.811 326.535C197.561 326.027 197.436 325.438 197.436 324.766C197.436 324.082 197.561 323.485 197.811 322.976C198.061 322.466 198.409 322.07 198.856 321.789C199.304 321.508 199.824 321.367 200.418 321.367C200.734 321.367 201.033 321.408 201.314 321.49C201.596 321.572 201.853 321.69 202.085 321.845C202.317 321.999 202.518 322.188 202.686 322.413C202.854 322.638 202.982 322.893 203.072 323.178L202.059 323.465C202.012 323.297 201.939 323.143 201.842 323.002C201.744 322.861 201.626 322.739 201.487 322.636C201.349 322.532 201.189 322.452 201.01 322.396C200.83 322.339 200.633 322.311 200.418 322.311C199.98 322.311 199.621 322.425 199.34 322.653C199.059 322.882 198.85 323.182 198.713 323.553C198.576 323.924 198.508 324.328 198.508 324.766C198.508 325.195 198.576 325.595 198.713 325.964C198.85 326.333 199.059 326.631 199.34 326.857C199.621 327.084 199.98 327.197 200.418 327.197C200.637 327.197 200.838 327.168 201.021 327.109C201.205 327.051 201.368 326.968 201.511 326.86C201.653 326.753 201.773 326.625 201.871 326.477C201.969 326.328 202.041 326.166 202.088 325.99L203.096 326.277C203.01 326.57 202.882 326.831 202.712 327.06C202.542 327.288 202.34 327.483 202.105 327.646C201.871 327.808 201.611 327.931 201.326 328.015C201.041 328.099 200.738 328.141 200.418 328.141ZM206.834 328.141C206.385 328.141 205.985 328.075 205.636 327.944C205.286 327.813 204.998 327.619 204.771 327.361C204.545 327.104 204.393 326.787 204.314 326.412L205.316 326.172C205.41 326.531 205.587 326.795 205.847 326.963C206.106 327.131 206.432 327.215 206.822 327.215C207.279 327.215 207.644 327.117 207.915 326.922C208.187 326.727 208.322 326.494 208.322 326.225C208.322 325.998 208.243 325.81 208.085 325.659C207.927 325.509 207.686 325.396 207.361 325.322L206.271 325.064C205.678 324.924 205.236 324.706 204.947 324.411C204.658 324.116 204.514 323.738 204.514 323.277C204.514 322.902 204.619 322.571 204.83 322.284C205.041 321.997 205.329 321.772 205.694 321.61C206.06 321.448 206.475 321.367 206.939 321.367C207.389 321.367 207.771 321.435 208.085 321.569C208.399 321.704 208.655 321.89 208.853 322.126C209.05 322.362 209.197 322.635 209.295 322.943L208.34 323.189C208.25 322.955 208.101 322.742 207.892 322.551C207.683 322.359 207.367 322.264 206.945 322.264C206.555 322.264 206.229 322.354 205.97 322.533C205.71 322.713 205.58 322.939 205.58 323.213C205.58 323.455 205.668 323.649 205.844 323.796C206.02 323.942 206.299 324.061 206.682 324.15L207.672 324.385C208.266 324.525 208.705 324.743 208.99 325.038C209.275 325.333 209.418 325.705 209.418 326.154C209.418 326.537 209.31 326.878 209.093 327.177C208.876 327.476 208.573 327.711 208.185 327.883C207.796 328.055 207.346 328.141 206.834 328.141Z" fill="#475569"/>
<rect x="3.28125" y="347" width="10" height="10" rx="5" fill="#FFD166"/>
<path d="M25.875 356.117C25.1289 356.117 24.4639 355.937 23.8799 355.575C23.2959 355.214 22.8359 354.698 22.5 354.028C22.1641 353.358 21.9961 352.562 21.9961 351.641C21.9961 350.715 22.1641 349.917 22.5 349.247C22.8359 348.577 23.2959 348.061 23.8799 347.697C24.4639 347.334 25.1289 347.152 25.875 347.152C26.6211 347.152 27.2852 347.334 27.8672 347.697C28.4492 348.061 28.9072 348.577 29.2412 349.247C29.5752 349.917 29.7422 350.715 29.7422 351.641C29.7422 352.562 29.5752 353.358 29.2412 354.028C28.9072 354.698 28.4492 355.214 27.8672 355.575C27.2852 355.937 26.6211 356.117 25.875 356.117ZM25.875 355.086C26.3945 355.086 26.8643 354.954 27.2842 354.69C27.7041 354.427 28.0381 354.038 28.2861 353.524C28.5342 353.011 28.6582 352.383 28.6582 351.641C28.6582 350.891 28.5342 350.259 28.2861 349.745C28.0381 349.231 27.7041 348.843 27.2842 348.579C26.8643 348.315 26.3945 348.184 25.875 348.184C25.3516 348.184 24.8789 348.316 24.457 348.582C24.0352 348.848 23.7002 349.237 23.4521 349.751C23.2041 350.265 23.0801 350.895 23.0801 351.641C23.0801 352.383 23.2041 353.01 23.4521 353.521C23.7002 354.033 24.0352 354.422 24.457 354.688C24.8789 354.953 25.3516 355.086 25.875 355.086ZM31.3828 358.449V349.449H32.4023V350.498H32.5195C32.5938 350.381 32.6973 350.233 32.8301 350.056C32.9629 349.878 33.1543 349.719 33.4043 349.578C33.6543 349.438 33.9922 349.367 34.418 349.367C34.9648 349.367 35.4463 349.504 35.8623 349.777C36.2783 350.051 36.6045 350.44 36.8408 350.946C37.0771 351.452 37.1953 352.051 37.1953 352.742C37.1953 353.438 37.0781 354.039 36.8438 354.547C36.6094 355.055 36.2842 355.447 35.8682 355.725C35.4521 356.002 34.9707 356.141 34.4238 356.141C34.0098 356.141 33.6758 356.069 33.4219 355.927C33.168 355.784 32.9727 355.622 32.8359 355.44C32.6992 355.259 32.5938 355.107 32.5195 354.986H32.4375V358.449H31.3828ZM34.2656 355.197C34.6758 355.197 35.0186 355.087 35.2939 354.866C35.5693 354.646 35.7764 354.349 35.915 353.976C36.0537 353.603 36.123 353.188 36.123 352.73C36.123 352.277 36.0547 351.868 35.918 351.503C35.7812 351.138 35.5752 350.848 35.2998 350.633C35.0244 350.418 34.6797 350.311 34.2656 350.311C33.8633 350.311 33.5254 350.412 33.252 350.615C32.9785 350.818 32.7725 351.101 32.6338 351.462C32.4951 351.823 32.4258 352.246 32.4258 352.73C32.4258 353.215 32.4961 353.643 32.6367 354.014C32.7773 354.385 32.9854 354.675 33.2607 354.884C33.5361 355.093 33.8711 355.197 34.2656 355.197ZM41.4844 356.141C40.8516 356.141 40.3057 356 39.8467 355.719C39.3877 355.438 39.0342 355.045 38.7861 354.541C38.5381 354.037 38.4141 353.449 38.4141 352.777C38.4141 352.105 38.5352 351.514 38.7773 351.002C39.0195 350.49 39.3623 350.09 39.8057 349.801C40.249 349.512 40.7676 349.367 41.3613 349.367C41.709 349.367 42.0518 349.425 42.3896 349.54C42.7275 349.655 43.0342 349.841 43.3096 350.097C43.585 350.353 43.8047 350.689 43.9688 351.107C44.1328 351.525 44.2148 352.037 44.2148 352.643V353.082H39.1289V352.191H43.6465L43.1543 352.52C43.1543 352.09 43.0869 351.708 42.9521 351.374C42.8174 351.04 42.6172 350.778 42.3516 350.589C42.0859 350.399 41.7559 350.305 41.3613 350.305C40.9668 350.305 40.6289 350.401 40.3477 350.595C40.0664 350.788 39.8516 351.04 39.7031 351.351C39.5547 351.661 39.4805 351.994 39.4805 352.35V352.941C39.4805 353.426 39.5645 353.837 39.7324 354.175C39.9004 354.513 40.1357 354.769 40.4385 354.942C40.7412 355.116 41.0918 355.203 41.4902 355.203C41.748 355.203 41.9824 355.166 42.1934 355.092C42.4043 355.018 42.5859 354.905 42.7383 354.755C42.8906 354.604 43.0078 354.418 43.0898 354.195L44.1094 354.477C44.0078 354.805 43.8359 355.094 43.5938 355.344C43.3516 355.594 43.0518 355.789 42.6943 355.93C42.3369 356.07 41.9336 356.141 41.4844 356.141ZM45.7266 356V349.449H46.7461V350.457H46.8164C46.9375 350.125 47.1533 349.858 47.4639 349.657C47.7744 349.456 48.125 349.355 48.5156 349.355C48.5938 349.355 48.6865 349.357 48.7939 349.361C48.9014 349.365 48.9863 349.369 49.0488 349.373V350.434C49.0176 350.426 48.9395 350.414 48.8145 350.398C48.6895 350.383 48.5566 350.375 48.416 350.375C48.1035 350.375 47.8232 350.44 47.5752 350.571C47.3271 350.702 47.1328 350.882 46.9922 351.11C46.8516 351.339 46.7812 351.602 46.7812 351.898V356H45.7266ZM52.0781 356.152C51.6641 356.152 51.2881 356.074 50.9502 355.918C50.6123 355.762 50.3438 355.533 50.1445 355.232C49.9453 354.932 49.8457 354.566 49.8457 354.137C49.8457 353.762 49.9199 353.457 50.0684 353.223C50.2168 352.988 50.415 352.804 50.6631 352.669C50.9111 352.534 51.1855 352.434 51.4863 352.367C51.7871 352.301 52.0898 352.248 52.3945 352.209C52.7852 352.158 53.1035 352.119 53.3496 352.092C53.5957 352.064 53.7783 352.018 53.8975 351.951C54.0166 351.885 54.0762 351.771 54.0762 351.611V351.576C54.0762 351.303 54.0254 351.071 53.9238 350.882C53.8223 350.692 53.6699 350.547 53.4668 350.445C53.2637 350.344 53.0098 350.293 52.7051 350.293C52.3926 350.293 52.125 350.342 51.9023 350.439C51.6797 350.537 51.499 350.659 51.3604 350.806C51.2217 350.952 51.1172 351.102 51.0469 351.254L50.0332 350.92C50.2012 350.521 50.4277 350.21 50.7129 349.985C50.998 349.761 51.3125 349.602 51.6562 349.508C52 349.414 52.3398 349.367 52.6758 349.367C52.8945 349.367 53.1436 349.394 53.4229 349.446C53.7021 349.499 53.9717 349.604 54.2314 349.76C54.4912 349.916 54.7061 350.147 54.876 350.454C55.0459 350.761 55.1309 351.17 55.1309 351.682V356H54.0938V355.109H54.0234C53.9492 355.262 53.8301 355.419 53.666 355.581C53.502 355.743 53.2891 355.879 53.0273 355.988C52.7656 356.098 52.4492 356.152 52.0781 356.152ZM52.2598 355.221C52.6504 355.221 52.9805 355.145 53.25 354.992C53.5195 354.84 53.7246 354.642 53.8652 354.397C54.0059 354.153 54.0762 353.898 54.0762 353.633V352.725C54.0332 352.775 53.9395 352.821 53.7949 352.862C53.6504 352.903 53.4854 352.939 53.2998 352.971C53.1143 353.002 52.9346 353.028 52.7607 353.05C52.5869 353.071 52.4492 353.088 52.3477 353.1C52.0938 353.131 51.8564 353.185 51.6357 353.261C51.415 353.337 51.2383 353.448 51.1055 353.595C50.9727 353.741 50.9062 353.939 50.9062 354.189C50.9062 354.416 50.9648 354.605 51.082 354.758C51.1992 354.91 51.3594 355.025 51.5625 355.104C51.7656 355.182 51.998 355.221 52.2598 355.221ZM59.5605 349.449V350.352H56.1738V349.449H59.5605ZM57.1582 347.891H58.2129V354.301C58.2129 354.594 58.2725 354.808 58.3916 354.942C58.5107 355.077 58.709 355.145 58.9863 355.145C59.0527 355.145 59.1377 355.137 59.2412 355.121C59.3447 355.105 59.4395 355.09 59.5254 355.074L59.7422 355.965C59.6328 356.004 59.5088 356.033 59.3701 356.053C59.2314 356.072 59.0938 356.082 58.957 356.082C58.3906 356.082 57.9492 355.933 57.6328 355.634C57.3164 355.335 57.1582 354.918 57.1582 354.383V347.891ZM60.9082 356V349.449H61.9629V356H60.9082ZM61.4414 348.377C61.2422 348.377 61.0703 348.309 60.9258 348.172C60.7812 348.035 60.709 347.871 60.709 347.68C60.709 347.484 60.7812 347.319 60.9258 347.185C61.0703 347.05 61.2422 346.982 61.4414 346.982C61.6445 346.982 61.8184 347.05 61.9629 347.185C62.1074 347.319 62.1797 347.484 62.1797 347.68C62.1797 347.871 62.1074 348.035 61.9629 348.172C61.8184 348.309 61.6445 348.377 61.4414 348.377ZM66.4805 356.141C65.8867 356.141 65.3662 356 64.9189 355.719C64.4717 355.438 64.123 355.043 63.873 354.535C63.623 354.027 63.498 353.438 63.498 352.766C63.498 352.082 63.623 351.485 63.873 350.976C64.123 350.466 64.4717 350.07 64.9189 349.789C65.3662 349.508 65.8867 349.367 66.4805 349.367C67.0781 349.367 67.6016 349.508 68.0508 349.789C68.5 350.07 68.8496 350.466 69.0996 350.976C69.3496 351.485 69.4746 352.082 69.4746 352.766C69.4746 353.438 69.3496 354.027 69.0996 354.535C68.8496 355.043 68.5 355.438 68.0508 355.719C67.6016 356 67.0781 356.141 66.4805 356.141ZM66.4805 355.197C66.9219 355.197 67.2852 355.084 67.5703 354.857C67.8555 354.631 68.0664 354.333 68.2031 353.964C68.3398 353.595 68.4082 353.195 68.4082 352.766C68.4082 352.332 68.3398 351.929 68.2031 351.556C68.0664 351.183 67.8555 350.882 67.5703 350.653C67.2852 350.425 66.9219 350.311 66.4805 350.311C66.043 350.311 65.6836 350.425 65.4023 350.653C65.1211 350.882 64.9121 351.182 64.7754 351.553C64.6387 351.924 64.5703 352.328 64.5703 352.766C64.5703 353.195 64.6387 353.595 64.7754 353.964C64.9121 354.333 65.1211 354.631 65.4023 354.857C65.6836 355.084 66.043 355.197 66.4805 355.197ZM72.0645 352.074V356H71.0098V349.449H72.0234L72.0293 351.037H71.8828C72.082 350.432 72.3662 350.002 72.7354 349.748C73.1045 349.494 73.5371 349.367 74.0332 349.367C74.4746 349.367 74.8613 349.458 75.1934 349.64C75.5254 349.821 75.7842 350.095 75.9697 350.46C76.1553 350.825 76.248 351.285 76.248 351.84V356H75.1934V351.928C75.1934 351.424 75.0615 351.029 74.7979 350.744C74.5342 350.459 74.1738 350.316 73.7168 350.316C73.4043 350.316 73.123 350.385 72.873 350.521C72.623 350.658 72.4258 350.857 72.2812 351.119C72.1367 351.381 72.0645 351.699 72.0645 352.074ZM80.3262 356.141C79.877 356.141 79.4775 356.075 79.1279 355.944C78.7783 355.813 78.4902 355.619 78.2637 355.361C78.0371 355.104 77.8848 354.787 77.8066 354.412L78.8086 354.172C78.9023 354.531 79.0791 354.795 79.3389 354.963C79.5986 355.131 79.9238 355.215 80.3145 355.215C80.7715 355.215 81.1357 355.117 81.4072 354.922C81.6787 354.727 81.8145 354.494 81.8145 354.225C81.8145 353.998 81.7354 353.81 81.5771 353.659C81.4189 353.509 81.1777 353.396 80.8535 353.322L79.7637 353.064C79.1699 352.924 78.7285 352.706 78.4395 352.411C78.1504 352.116 78.0059 351.738 78.0059 351.277C78.0059 350.902 78.1113 350.571 78.3223 350.284C78.5332 349.997 78.8213 349.772 79.1865 349.61C79.5518 349.448 79.9668 349.367 80.4316 349.367C80.8809 349.367 81.2627 349.435 81.5771 349.569C81.8916 349.704 82.1475 349.89 82.3447 350.126C82.542 350.362 82.6895 350.635 82.7871 350.943L81.832 351.189C81.7422 350.955 81.5928 350.742 81.3838 350.551C81.1748 350.359 80.8594 350.264 80.4375 350.264C80.0469 350.264 79.7217 350.354 79.4619 350.533C79.2021 350.713 79.0723 350.939 79.0723 351.213C79.0723 351.455 79.1602 351.649 79.3359 351.796C79.5117 351.942 79.791 352.061 80.1738 352.15L81.1641 352.385C81.7578 352.525 82.1973 352.743 82.4824 353.038C82.7676 353.333 82.9102 353.705 82.9102 354.154C82.9102 354.537 82.8018 354.878 82.585 355.177C82.3682 355.476 82.0654 355.711 81.6768 355.883C81.2881 356.055 80.8379 356.141 80.3262 356.141Z" fill="#475569"/>
<rect x="140.002" y="347" width="10" height="10" rx="5" fill="#9A2DFF"/>
<path d="M162.596 356.117C161.85 356.117 161.185 355.937 160.601 355.575C160.017 355.214 159.557 354.698 159.221 354.028C158.885 353.358 158.717 352.562 158.717 351.641C158.717 350.715 158.885 349.917 159.221 349.247C159.557 348.577 160.017 348.061 160.601 347.697C161.185 347.334 161.85 347.152 162.596 347.152C163.342 347.152 164.006 347.334 164.588 347.697C165.17 348.061 165.628 348.577 165.962 349.247C166.296 349.917 166.463 350.715 166.463 351.641C166.463 352.562 166.296 353.358 165.962 354.028C165.628 354.698 165.17 355.214 164.588 355.575C164.006 355.937 163.342 356.117 162.596 356.117ZM162.596 355.086C163.115 355.086 163.585 354.954 164.005 354.69C164.425 354.427 164.759 354.038 165.007 353.524C165.255 353.011 165.379 352.383 165.379 351.641C165.379 350.891 165.255 350.259 165.007 349.745C164.759 349.231 164.425 348.843 164.005 348.579C163.585 348.315 163.115 348.184 162.596 348.184C162.072 348.184 161.6 348.316 161.178 348.582C160.756 348.848 160.421 349.237 160.173 349.751C159.925 350.265 159.801 350.895 159.801 351.641C159.801 352.383 159.925 353.01 160.173 353.521C160.421 354.033 160.756 354.422 161.178 354.688C161.6 354.953 162.072 355.086 162.596 355.086ZM170.682 349.449V350.352H167.295V349.449H170.682ZM168.279 347.891H169.334V354.301C169.334 354.594 169.394 354.808 169.513 354.942C169.632 355.077 169.83 355.145 170.107 355.145C170.174 355.145 170.259 355.137 170.362 355.121C170.466 355.105 170.561 355.09 170.646 355.074L170.863 355.965C170.754 356.004 170.63 356.033 170.491 356.053C170.353 356.072 170.215 356.082 170.078 356.082C169.512 356.082 169.07 355.933 168.754 355.634C168.438 355.335 168.279 354.918 168.279 354.383V347.891ZM173.084 352.074V356H172.029V347.27H173.084V351.037H172.902C173.102 350.432 173.386 350.002 173.755 349.748C174.124 349.494 174.557 349.367 175.053 349.367C175.494 349.367 175.882 349.458 176.216 349.64C176.55 349.821 176.81 350.095 176.995 350.46C177.181 350.825 177.273 351.285 177.273 351.84V356H176.213V351.928C176.213 351.424 176.081 351.029 175.817 350.744C175.554 350.459 175.193 350.316 174.736 350.316C174.424 350.316 174.143 350.385 173.893 350.521C173.643 350.658 173.445 350.857 173.301 351.119C173.156 351.381 173.084 351.699 173.084 352.074ZM181.879 356.141C181.246 356.141 180.7 356 180.241 355.719C179.782 355.438 179.429 355.045 179.181 354.541C178.933 354.037 178.809 353.449 178.809 352.777C178.809 352.105 178.93 351.514 179.172 351.002C179.414 350.49 179.757 350.09 180.2 349.801C180.644 349.512 181.162 349.367 181.756 349.367C182.104 349.367 182.446 349.425 182.784 349.54C183.122 349.655 183.429 349.841 183.704 350.097C183.979 350.353 184.199 350.689 184.363 351.107C184.527 351.525 184.609 352.037 184.609 352.643V353.082H179.523V352.191H184.041L183.549 352.52C183.549 352.09 183.481 351.708 183.347 351.374C183.212 351.04 183.012 350.778 182.746 350.589C182.48 350.399 182.15 350.305 181.756 350.305C181.361 350.305 181.023 350.401 180.742 350.595C180.461 350.788 180.246 351.04 180.098 351.351C179.949 351.661 179.875 351.994 179.875 352.35V352.941C179.875 353.426 179.959 353.837 180.127 354.175C180.295 354.513 180.53 354.769 180.833 354.942C181.136 355.116 181.486 355.203 181.885 355.203C182.143 355.203 182.377 355.166 182.588 355.092C182.799 355.018 182.98 354.905 183.133 354.755C183.285 354.604 183.402 354.418 183.484 354.195L184.504 354.477C184.402 354.805 184.23 355.094 183.988 355.344C183.746 355.594 183.446 355.789 183.089 355.93C182.731 356.07 182.328 356.141 181.879 356.141ZM186.121 356V349.449H187.141V350.457H187.211C187.332 350.125 187.548 349.858 187.858 349.657C188.169 349.456 188.52 349.355 188.91 349.355C188.988 349.355 189.081 349.357 189.188 349.361C189.296 349.365 189.381 349.369 189.443 349.373V350.434C189.412 350.426 189.334 350.414 189.209 350.398C189.084 350.383 188.951 350.375 188.811 350.375C188.498 350.375 188.218 350.44 187.97 350.571C187.722 350.702 187.527 350.882 187.387 351.11C187.246 351.339 187.176 351.602 187.176 351.898V356H186.121ZM192.865 356.141C192.416 356.141 192.017 356.075 191.667 355.944C191.317 355.813 191.029 355.619 190.803 355.361C190.576 355.104 190.424 354.787 190.346 354.412L191.348 354.172C191.441 354.531 191.618 354.795 191.878 354.963C192.138 355.131 192.463 355.215 192.854 355.215C193.311 355.215 193.675 355.117 193.946 354.922C194.218 354.727 194.354 354.494 194.354 354.225C194.354 353.998 194.274 353.81 194.116 353.659C193.958 353.509 193.717 353.396 193.393 353.322L192.303 353.064C191.709 352.924 191.268 352.706 190.979 352.411C190.689 352.116 190.545 351.738 190.545 351.277C190.545 350.902 190.65 350.571 190.861 350.284C191.072 349.997 191.36 349.772 191.726 349.61C192.091 349.448 192.506 349.367 192.971 349.367C193.42 349.367 193.802 349.435 194.116 349.569C194.431 349.704 194.687 349.89 194.884 350.126C195.081 350.362 195.229 350.635 195.326 350.943L194.371 351.189C194.281 350.955 194.132 350.742 193.923 350.551C193.714 350.359 193.398 350.264 192.977 350.264C192.586 350.264 192.261 350.354 192.001 350.533C191.741 350.713 191.611 350.939 191.611 351.213C191.611 351.455 191.699 351.649 191.875 351.796C192.051 351.942 192.33 352.061 192.713 352.15L193.703 352.385C194.297 352.525 194.736 352.743 195.021 353.038C195.307 353.333 195.449 353.705 195.449 354.154C195.449 354.537 195.341 354.878 195.124 355.177C194.907 355.476 194.604 355.711 194.216 355.883C193.827 356.055 193.377 356.141 192.865 356.141Z" fill="#475569"/>
<path d="M128 25.6004C144.094 25.6004 159.963 29.3943 174.317 36.6742C188.671 43.9542 201.107 54.5152 210.616 67.5005C220.125 80.4859 226.44 95.5299 229.047 111.412C231.654 127.294 230.481 143.567 225.623 158.911" stroke="#1437FF" stroke-width="30.72"/>
<path d="M225.623 158.911C219.121 179.444 206.312 197.404 189.015 210.237C171.719 223.07 150.817 230.123 129.281 230.392" stroke="#6A2EFF" stroke-width="30.72"/>
<path d="M129.281 230.392C109.93 230.635 90.9056 225.388 74.4138 215.26C57.9221 205.133 44.6379 190.539 36.1009 173.171" stroke="#00B7FF" stroke-width="30.72"/>
<path d="M36.1009 173.171C29.4784 159.698 25.8995 144.933 25.6177 129.923C25.3358 114.913 28.3579 100.024 34.4699 86.3115" stroke="#00D09C" stroke-width="30.72"/>
<path d="M34.4699 86.3115C43.2381 66.64 57.9855 50.2339 76.6147 39.4264" stroke="#FFD166" stroke-width="30.72"/>
<path d="M76.6147 39.4264C92.3758 30.2828 110.291 25.5105 128.512 25.6017" stroke="#9A2DFF" stroke-width="30.72"/>
<path d="M103.228 112.039V129.5H99.6629V115.19H99.5457L95.5421 118.022V114.745L99.4023 112.039H103.228ZM112.891 129.734C111.422 129.734 110.167 129.381 109.126 128.673C108.086 127.966 107.288 126.946 106.734 125.614C106.18 124.282 105.903 122.67 105.903 120.778C105.903 118.894 106.181 117.283 106.737 115.946C107.292 114.608 108.09 113.584 109.13 112.872C110.171 112.161 111.424 111.805 112.891 111.805C114.358 111.805 115.614 112.161 116.658 112.874C117.703 113.587 118.501 114.612 119.053 115.948C119.605 117.284 119.881 118.895 119.881 120.782C119.881 122.669 119.606 124.279 119.056 125.612C118.505 126.946 117.71 127.966 116.669 128.673C115.629 129.381 114.369 129.734 112.891 129.734ZM112.893 126.764C113.609 126.764 114.215 126.531 114.712 126.065C115.209 125.599 115.587 124.92 115.847 124.029C116.106 123.138 116.236 122.055 116.236 120.78C116.236 119.499 116.106 118.41 115.847 117.513C115.587 116.616 115.208 115.933 114.711 115.463C114.213 114.992 113.607 114.757 112.894 114.757C112.18 114.757 111.574 114.993 111.075 115.465C110.576 115.937 110.197 116.621 109.937 117.516C109.678 118.411 109.548 119.499 109.548 120.78C109.548 122.055 109.677 123.138 109.934 124.029C110.192 124.92 110.57 125.599 111.07 126.065C111.569 126.531 112.177 126.764 112.893 126.764ZM129.075 129.734C127.605 129.734 126.35 129.381 125.31 128.673C124.269 127.966 123.472 126.946 122.918 125.614C122.364 124.282 122.087 122.67 122.087 120.778C122.087 118.894 122.365 117.283 122.92 115.946C123.476 114.608 124.274 113.584 125.314 112.872C126.354 112.161 127.608 111.805 129.075 111.805C130.542 111.805 131.797 112.161 132.842 112.874C133.886 113.587 134.685 114.612 135.236 115.948C135.788 117.284 136.064 118.895 136.064 120.782C136.064 122.669 135.789 124.279 135.239 125.612C134.689 126.946 133.894 127.966 132.853 128.673C131.812 129.381 130.553 129.734 129.075 129.734ZM129.076 126.764C129.792 126.764 130.399 126.531 130.895 126.065C131.392 125.599 131.77 124.92 132.03 124.029C132.29 123.138 132.42 122.055 132.42 120.78C132.42 119.499 132.29 118.41 132.03 117.513C131.77 116.616 131.392 115.933 130.894 115.463C130.397 114.992 129.791 114.757 129.077 114.757C128.364 114.757 127.758 114.993 127.259 115.465C126.76 115.937 126.381 116.621 126.121 117.516C125.861 118.411 125.731 119.499 125.731 120.78C125.731 122.055 125.86 123.138 126.118 124.029C126.375 124.92 126.754 125.599 127.253 126.065C127.753 126.531 128.36 126.764 129.076 126.764ZM143.153 120.376C142.331 120.376 141.636 120.2 141.07 119.848C140.503 119.496 140.074 119.028 139.783 118.442C139.492 117.857 139.346 117.219 139.346 116.527V115.613C139.346 114.914 139.495 114.272 139.792 113.688C140.089 113.105 140.522 112.637 141.091 112.285C141.66 111.934 142.347 111.758 143.153 111.758C143.988 111.758 144.686 111.934 145.249 112.285C145.812 112.637 146.238 113.105 146.528 113.688C146.817 114.272 146.962 114.914 146.962 115.613V116.527C146.962 117.227 146.815 117.869 146.522 118.452C146.229 119.035 145.8 119.502 145.234 119.851C144.669 120.201 143.976 120.376 143.153 120.376ZM143.153 118.227C143.68 118.227 144.038 118.05 144.23 117.697C144.422 117.344 144.517 116.954 144.517 116.527V115.613C144.517 115.19 144.425 114.797 144.242 114.434C144.058 114.071 143.695 113.889 143.153 113.889C142.639 113.889 142.283 114.074 142.087 114.443C141.89 114.813 141.791 115.203 141.791 115.613V116.527C141.791 116.954 141.89 117.344 142.087 117.697C142.285 118.05 142.64 118.227 143.153 118.227ZM155.555 129.808C154.732 129.808 154.038 129.632 153.471 129.281C152.905 128.929 152.476 128.461 152.185 127.875C151.893 127.29 151.748 126.651 151.748 125.96V125.046C151.748 124.346 151.896 123.705 152.194 123.121C152.491 122.537 152.924 122.07 153.493 121.718C154.061 121.366 154.749 121.19 155.555 121.19C156.389 121.19 157.089 121.366 157.654 121.718C158.218 122.07 158.645 122.537 158.932 123.121C159.22 123.705 159.364 124.346 159.364 125.046V125.96C159.364 126.66 159.217 127.301 158.924 127.885C158.63 128.468 158.201 128.934 157.636 129.284C157.071 129.633 156.377 129.808 155.555 129.808ZM155.555 127.659C156.081 127.659 156.44 127.483 156.632 127.129C156.823 126.776 156.919 126.386 156.919 125.96V125.046C156.919 124.623 156.827 124.23 156.643 123.867C156.46 123.503 156.097 123.321 155.555 123.321C155.041 123.321 154.685 123.506 154.488 123.876C154.291 124.246 154.193 124.636 154.193 125.046V125.96C154.193 126.386 154.291 126.776 154.489 127.129C154.687 127.483 155.042 127.659 155.555 127.659ZM142.081 129.5L154.081 112.039H156.511L144.511 129.5H142.081Z" fill="#071B2D"/>
<path d="M110.788 141.462V140.225H116.729V141.462H114.506V147.5H113.014V141.462H110.788ZM121.132 147.598C120.489 147.598 119.911 147.451 119.398 147.158C118.885 146.865 118.48 146.44 118.182 145.883C117.885 145.327 117.736 144.655 117.736 143.867C117.736 143.075 117.885 142.4 118.182 141.842C118.48 141.285 118.885 140.86 119.398 140.567C119.911 140.273 120.489 140.127 121.132 140.127C121.775 140.127 122.352 140.273 122.863 140.567C123.375 140.86 123.779 141.285 124.077 141.842C124.374 142.4 124.523 143.075 124.523 143.867C124.523 144.657 124.374 145.329 124.077 145.886C123.779 146.442 123.375 146.867 122.863 147.159C122.352 147.451 121.775 147.598 121.132 147.598ZM121.132 146.274C121.509 146.274 121.838 146.182 122.119 145.997C122.4 145.813 122.619 145.541 122.776 145.183C122.933 144.824 123.011 144.385 123.011 143.867C123.011 143.344 122.933 142.903 122.776 142.543C122.619 142.184 122.4 141.912 122.119 141.727C121.838 141.543 121.509 141.45 121.132 141.45C120.755 141.45 120.426 141.543 120.144 141.728C119.862 141.914 119.642 142.186 119.485 142.546C119.327 142.905 119.248 143.346 119.248 143.867C119.248 144.385 119.327 144.824 119.485 145.181C119.642 145.539 119.862 145.811 120.144 145.996C120.426 146.182 120.755 146.274 121.132 146.274ZM125.533 141.462V140.225H131.474V141.462H129.252V147.5H127.76V141.462H125.533ZM131.689 147.5L134.178 140.225H136.128L138.679 147.5H137.023L135.857 143.99C135.715 143.537 135.572 143.041 135.428 142.501C135.284 141.962 135.133 141.374 134.973 140.738H135.296C135.142 141.377 134.997 141.968 134.862 142.51C134.728 143.053 134.593 143.546 134.459 143.99L133.335 147.5H131.689ZM133.244 145.812V144.642H137.125V145.812H133.244ZM140.074 147.5V140.225H141.566V146.263H144.704V147.5H140.074Z" fill="#94A3B8"/>
</svg>
