<svg width="256" height="360" viewBox="0 0 256 360" fill="none" xmlns="http://www.w3.org/2000/svg">
<rect x="1.58984" y="291" width="10" height="10" rx="5" fill="#1437FF"/>
<path d="M23.3691 300H21.2598V299.016H23.2988C24.0098 299.016 24.5986 298.88 25.0654 298.608C25.5322 298.337 25.8809 297.947 26.1113 297.439C26.3418 296.932 26.457 296.324 26.457 295.617C26.457 294.918 26.3428 294.317 26.1143 293.815C25.8857 293.313 25.5459 292.928 25.0947 292.658C24.6436 292.389 24.0801 292.254 23.4043 292.254H21.2129V291.27H23.4805C24.332 291.27 25.0596 291.443 25.6631 291.791C26.2666 292.139 26.7295 292.638 27.0518 293.288C27.374 293.938 27.5352 294.715 27.5352 295.617C27.5352 296.527 27.373 297.31 27.0488 297.964C26.7246 298.618 26.252 299.121 25.6309 299.473C25.0098 299.824 24.2559 300 23.3691 300ZM21.7578 291.27V300H20.6445V291.27H21.7578ZM31.0098 300.152C30.5957 300.152 30.2197 300.074 29.8818 299.918C29.5439 299.762 29.2754 299.533 29.0762 299.232C28.877 298.932 28.7773 298.566 28.7773 298.137C28.7773 297.762 28.8516 297.457 29 297.223C29.1484 296.988 29.3467 296.804 29.5947 296.669C29.8428 296.534 30.1172 296.434 30.418 296.367C30.7188 296.301 31.0215 296.248 31.3262 296.209C31.7168 296.158 32.0352 296.119 32.2812 296.092C32.5273 296.064 32.71 296.018 32.8291 295.951C32.9482 295.885 33.0078 295.771 33.0078 295.611V295.576C33.0078 295.303 32.957 295.071 32.8555 294.882C32.7539 294.692 32.6016 294.547 32.3984 294.445C32.1953 294.344 31.9414 294.293 31.6367 294.293C31.3242 294.293 31.0566 294.342 30.834 294.439C30.6113 294.537 30.4307 294.659 30.292 294.806C30.1533 294.952 30.0488 295.102 29.9785 295.254L28.9648 294.92C29.1328 294.521 29.3594 294.21 29.6445 293.985C29.9297 293.761 30.2441 293.602 30.5879 293.508C30.9316 293.414 31.2715 293.367 31.6074 293.367C31.8262 293.367 32.0752 293.394 32.3545 293.446C32.6338 293.499 32.9033 293.604 33.1631 293.76C33.4229 293.916 33.6377 294.147 33.8076 294.454C33.9775 294.761 34.0625 295.17 34.0625 295.682V300H33.0254V299.109H32.9551C32.8809 299.262 32.7617 299.419 32.5977 299.581C32.4336 299.743 32.2207 299.879 31.959 299.988C31.6973 300.098 31.3809 300.152 31.0098 300.152ZM31.1914 299.221C31.582 299.221 31.9121 299.145 32.1816 298.992C32.4512 298.84 32.6562 298.642 32.7969 298.397C32.9375 298.153 33.0078 297.898 33.0078 297.633V296.725C32.9648 296.775 32.8711 296.821 32.7266 296.862C32.582 296.903 32.417 296.939 32.2314 296.971C32.0459 297.002 31.8662 297.028 31.6924 297.05C31.5186 297.071 31.3809 297.088 31.2793 297.1C31.0254 297.131 30.7881 297.185 30.5674 297.261C30.3467 297.337 30.1699 297.448 30.0371 297.595C29.9043 297.741 29.8379 297.939 29.8379 298.189C29.8379 298.416 29.8965 298.605 30.0137 298.758C30.1309 298.91 30.291 299.025 30.4941 299.104C30.6973 299.182 30.9297 299.221 31.1914 299.221ZM38.4922 293.449V294.352H35.1055V293.449H38.4922ZM36.0898 291.891H37.1445V298.301C37.1445 298.594 37.2041 298.808 37.3232 298.942C37.4424 299.077 37.6406 299.145 37.918 299.145C37.9844 299.145 38.0693 299.137 38.1729 299.121C38.2764 299.105 38.3711 299.09 38.457 299.074L38.6738 299.965C38.5645 300.004 38.4404 300.033 38.3018 300.053C38.1631 300.072 38.0254 300.082 37.8887 300.082C37.3223 300.082 36.8809 299.933 36.5645 299.634C36.248 299.335 36.0898 298.918 36.0898 298.383V291.891ZM41.7324 300.152C41.3184 300.152 40.9424 300.074 40.6045 299.918C40.2666 299.762 39.998 299.533 39.7988 299.232C39.5996 298.932 39.5 298.566 39.5 298.137C39.5 297.762 39.5742 297.457 39.7227 297.223C39.8711 296.988 40.0693 296.804 40.3174 296.669C40.5654 296.534 40.8398 296.434 41.1406 296.367C41.4414 296.301 41.7441 296.248 42.0488 296.209C42.4395 296.158 42.7578 296.119 43.0039 296.092C43.25 296.064 43.4326 296.018 43.5518 295.951C43.6709 295.885 43.7305 295.771 43.7305 295.611V295.576C43.7305 295.303 43.6797 295.071 43.5781 294.882C43.4766 294.692 43.3242 294.547 43.1211 294.445C42.918 294.344 42.6641 294.293 42.3594 294.293C42.0469 294.293 41.7793 294.342 41.5566 294.439C41.334 294.537 41.1533 294.659 41.0146 294.806C40.876 294.952 40.7715 295.102 40.7012 295.254L39.6875 294.92C39.8555 294.521 40.082 294.21 40.3672 293.985C40.6523 293.761 40.9668 293.602 41.3105 293.508C41.6543 293.414 41.9941 293.367 42.3301 293.367C42.5488 293.367 42.7979 293.394 43.0771 293.446C43.3564 293.499 43.626 293.604 43.8857 293.76C44.1455 293.916 44.3604 294.147 44.5303 294.454C44.7002 294.761 44.7852 295.17 44.7852 295.682V300H43.748V299.109H43.6777C43.6035 299.262 43.4844 299.419 43.3203 299.581C43.1562 299.743 42.9434 299.879 42.6816 299.988C42.4199 300.098 42.1035 300.152 41.7324 300.152ZM41.9141 299.221C42.3047 299.221 42.6348 299.145 42.9043 298.992C43.1738 298.84 43.3789 298.642 43.5195 298.397C43.6602 298.153 43.7305 297.898 43.7305 297.633V296.725C43.6875 296.775 43.5938 296.821 43.4492 296.862C43.3047 296.903 43.1396 296.939 42.9541 296.971C42.7686 297.002 42.5889 297.028 42.415 297.05C42.2412 297.071 42.1035 297.088 42.002 297.1C41.748 297.131 41.5107 297.185 41.29 297.261C41.0693 297.337 40.8926 297.448 40.7598 297.595C40.627 297.741 40.5605 297.939 40.5605 298.189C40.5605 298.416 40.6191 298.605 40.7363 298.758C40.8535 298.91 41.0137 299.025 41.2168 299.104C41.4199 299.182 41.6523 299.221 41.9141 299.221ZM49.3906 300L52.5605 291.27H53.8496L57.0605 300H55.8887L54.0371 294.82C53.9238 294.5 53.792 294.101 53.6416 293.622C53.4912 293.144 53.3086 292.533 53.0938 291.791H53.3047C53.0938 292.541 52.9111 293.159 52.7568 293.646C52.6025 294.132 52.4746 294.523 52.373 294.82L50.5742 300H49.3906ZM50.9844 297.562V296.59H55.4668V297.562H50.9844ZM59.3457 296.074V300H58.291V293.449H59.3047L59.3105 295.037H59.1641C59.3633 294.432 59.6475 294.002 60.0166 293.748C60.3857 293.494 60.8184 293.367 61.3145 293.367C61.7559 293.367 62.1426 293.458 62.4746 293.64C62.8066 293.821 63.0654 294.095 63.251 294.46C63.4365 294.825 63.5293 295.285 63.5293 295.84V300H62.4746V295.928C62.4746 295.424 62.3428 295.029 62.0791 294.744C61.8154 294.459 61.4551 294.316 60.998 294.316C60.6855 294.316 60.4043 294.385 60.1543 294.521C59.9043 294.658 59.707 294.857 59.5625 295.119C59.418 295.381 59.3457 295.699 59.3457 296.074ZM67.2148 300.152C66.8008 300.152 66.4248 300.074 66.0869 299.918C65.749 299.762 65.4805 299.533 65.2812 299.232C65.082 298.932 64.9824 298.566 64.9824 298.137C64.9824 297.762 65.0566 297.457 65.2051 297.223C65.3535 296.988 65.5518 296.804 65.7998 296.669C66.0479 296.534 66.3223 296.434 66.623 296.367C66.9238 296.301 67.2266 296.248 67.5312 296.209C67.9219 296.158 68.2402 296.119 68.4863 296.092C68.7324 296.064 68.915 296.018 69.0342 295.951C69.1533 295.885 69.2129 295.771 69.2129 295.611V295.576C69.2129 295.303 69.1621 295.071 69.0605 294.882C68.959 294.692 68.8066 294.547 68.6035 294.445C68.4004 294.344 68.1465 294.293 67.8418 294.293C67.5293 294.293 67.2617 294.342 67.0391 294.439C66.8164 294.537 66.6357 294.659 66.4971 294.806C66.3584 294.952 66.2539 295.102 66.1836 295.254L65.1699 294.92C65.3379 294.521 65.5645 294.21 65.8496 293.985C66.1348 293.761 66.4492 293.602 66.793 293.508C67.1367 293.414 67.4766 293.367 67.8125 293.367C68.0312 293.367 68.2803 293.394 68.5596 293.446C68.8389 293.499 69.1084 293.604 69.3682 293.76C69.6279 293.916 69.8428 294.147 70.0127 294.454C70.1826 294.761 70.2676 295.17 70.2676 295.682V300H69.2305V299.109H69.1602C69.0859 299.262 68.9668 299.419 68.8027 299.581C68.6387 299.743 68.4258 299.879 68.1641 299.988C67.9023 300.098 67.5859 300.152 67.2148 300.152ZM67.3965 299.221C67.7871 299.221 68.1172 299.145 68.3867 298.992C68.6562 298.84 68.8613 298.642 69.002 298.397C69.1426 298.153 69.2129 297.898 69.2129 297.633V296.725C69.1699 296.775 69.0762 296.821 68.9316 296.862C68.7871 296.903 68.6221 296.939 68.4365 296.971C68.251 297.002 68.0713 297.028 67.8975 297.05C67.7236 297.071 67.5859 297.088 67.4844 297.1C67.2305 297.131 66.9932 297.185 66.7725 297.261C66.5518 297.337 66.375 297.448 66.2422 297.595C66.1094 297.741 66.043 297.939 66.043 298.189C66.043 298.416 66.1016 298.605 66.2188 298.758C66.3359 298.91 66.4961 299.025 66.6992 299.104C66.9023 299.182 67.1348 299.221 67.3965 299.221ZM73.1738 291.27V300H72.1191V291.27H73.1738ZM74.9785 302.373L75.248 301.459L75.3594 301.488C75.5742 301.543 75.7695 301.558 75.9453 301.532C76.1211 301.507 76.2793 301.42 76.4199 301.271C76.5605 301.123 76.6836 300.893 76.7891 300.58L76.9766 300.035L74.4746 293.449H75.6289L77.0234 297.334C77.1719 297.74 77.2969 298.143 77.3984 298.541C77.5 298.939 77.6074 299.326 77.7207 299.701H77.334C77.4473 299.326 77.5557 298.938 77.6592 298.538C77.7627 298.138 77.8867 297.736 78.0312 297.334L79.4375 293.449H80.5859L77.709 300.979C77.5762 301.326 77.417 301.612 77.2314 301.837C77.0459 302.062 76.8301 302.228 76.584 302.335C76.3379 302.442 76.0605 302.496 75.752 302.496C75.5645 302.496 75.4023 302.482 75.2656 302.455C75.1289 302.428 75.0332 302.4 74.9785 302.373ZM84.0547 300.141C83.6055 300.141 83.2061 300.075 82.8564 299.944C82.5068 299.813 82.2188 299.619 81.9922 299.361C81.7656 299.104 81.6133 298.787 81.5352 298.412L82.5371 298.172C82.6309 298.531 82.8076 298.795 83.0674 298.963C83.3271 299.131 83.6523 299.215 84.043 299.215C84.5 299.215 84.8643 299.117 85.1357 298.922C85.4072 298.727 85.543 298.494 85.543 298.225C85.543 297.998 85.4639 297.81 85.3057 297.659C85.1475 297.509 84.9062 297.396 84.582 297.322L83.4922 297.064C82.8984 296.924 82.457 296.706 82.168 296.411C81.8789 296.116 81.7344 295.738 81.7344 295.277C81.7344 294.902 81.8398 294.571 82.0508 294.284C82.2617 293.997 82.5498 293.772 82.915 293.61C83.2803 293.448 83.6953 293.367 84.1602 293.367C84.6094 293.367 84.9912 293.435 85.3057 293.569C85.6201 293.704 85.876 293.89 86.0732 294.126C86.2705 294.362 86.418 294.635 86.5156 294.943L85.5605 295.189C85.4707 294.955 85.3213 294.742 85.1123 294.551C84.9033 294.359 84.5879 294.264 84.166 294.264C83.7754 294.264 83.4502 294.354 83.1904 294.533C82.9307 294.713 82.8008 294.939 82.8008 295.213C82.8008 295.455 82.8887 295.649 83.0645 295.796C83.2402 295.942 83.5195 296.061 83.9023 296.15L84.8926 296.385C85.4863 296.525 85.9258 296.743 86.2109 297.038C86.4961 297.333 86.6387 297.705 86.6387 298.154C86.6387 298.537 86.5303 298.878 86.3135 299.177C86.0967 299.476 85.7939 299.711 85.4053 299.883C85.0166 300.055 84.5664 300.141 84.0547 300.141ZM90.7402 293.449V294.352H87.3535V293.449H90.7402ZM88.3379 291.891H89.3926V298.301C89.3926 298.594 89.4521 298.808 89.5713 298.942C89.6904 299.077 89.8887 299.145 90.166 299.145C90.2324 299.145 90.3174 299.137 90.4209 299.121C90.5244 299.105 90.6191 299.09 90.7051 299.074L90.9219 299.965C90.8125 300.004 90.6885 300.033 90.5498 300.053C90.4111 300.072 90.2734 300.082 90.1367 300.082C89.5703 300.082 89.1289 299.933 88.8125 299.634C88.4961 299.335 88.3379 298.918 88.3379 298.383V291.891Z" fill="#475569"/>
<rect x="139.994" y="291" width="10" height="10" rx="5" fill="#6A2EFF"/>
<path d="M161.773 300H159.664V299.016H161.703C162.414 299.016 163.003 298.88 163.47 298.608C163.937 298.337 164.285 297.947 164.516 297.439C164.746 296.932 164.861 296.324 164.861 295.617C164.861 294.918 164.747 294.317 164.519 293.815C164.29 293.313 163.95 292.928 163.499 292.658C163.048 292.389 162.484 292.254 161.809 292.254H159.617V291.27H161.885C162.736 291.27 163.464 291.443 164.067 291.791C164.671 292.139 165.134 292.638 165.456 293.288C165.778 293.938 165.939 294.715 165.939 295.617C165.939 296.527 165.777 297.31 165.453 297.964C165.129 298.618 164.656 299.121 164.035 299.473C163.414 299.824 162.66 300 161.773 300ZM160.162 291.27V300H159.049V291.27H160.162ZM169.414 300.152C169 300.152 168.624 300.074 168.286 299.918C167.948 299.762 167.68 299.533 167.48 299.232C167.281 298.932 167.182 298.566 167.182 298.137C167.182 297.762 167.256 297.457 167.404 297.223C167.553 296.988 167.751 296.804 167.999 296.669C168.247 296.534 168.521 296.434 168.822 296.367C169.123 296.301 169.426 296.248 169.73 296.209C170.121 296.158 170.439 296.119 170.686 296.092C170.932 296.064 171.114 296.018 171.233 295.951C171.353 295.885 171.412 295.771 171.412 295.611V295.576C171.412 295.303 171.361 295.071 171.26 294.882C171.158 294.692 171.006 294.547 170.803 294.445C170.6 294.344 170.346 294.293 170.041 294.293C169.729 294.293 169.461 294.342 169.238 294.439C169.016 294.537 168.835 294.659 168.696 294.806C168.558 294.952 168.453 295.102 168.383 295.254L167.369 294.92C167.537 294.521 167.764 294.21 168.049 293.985C168.334 293.761 168.648 293.602 168.992 293.508C169.336 293.414 169.676 293.367 170.012 293.367C170.23 293.367 170.479 293.394 170.759 293.446C171.038 293.499 171.308 293.604 171.567 293.76C171.827 293.916 172.042 294.147 172.212 294.454C172.382 294.761 172.467 295.17 172.467 295.682V300H171.43V299.109H171.359C171.285 299.262 171.166 299.419 171.002 299.581C170.838 299.743 170.625 299.879 170.363 299.988C170.102 300.098 169.785 300.152 169.414 300.152ZM169.596 299.221C169.986 299.221 170.316 299.145 170.586 298.992C170.855 298.84 171.061 298.642 171.201 298.397C171.342 298.153 171.412 297.898 171.412 297.633V296.725C171.369 296.775 171.275 296.821 171.131 296.862C170.986 296.903 170.821 296.939 170.636 296.971C170.45 297.002 170.271 297.028 170.097 297.05C169.923 297.071 169.785 297.088 169.684 297.1C169.43 297.131 169.192 297.185 168.972 297.261C168.751 297.337 168.574 297.448 168.441 297.595C168.309 297.741 168.242 297.939 168.242 298.189C168.242 298.416 168.301 298.605 168.418 298.758C168.535 298.91 168.695 299.025 168.898 299.104C169.102 299.182 169.334 299.221 169.596 299.221ZM176.896 293.449V294.352H173.51V293.449H176.896ZM174.494 291.891H175.549V298.301C175.549 298.594 175.608 298.808 175.728 298.942C175.847 299.077 176.045 299.145 176.322 299.145C176.389 299.145 176.474 299.137 176.577 299.121C176.681 299.105 176.775 299.09 176.861 299.074L177.078 299.965C176.969 300.004 176.845 300.033 176.706 300.053C176.567 300.072 176.43 300.082 176.293 300.082C175.727 300.082 175.285 299.933 174.969 299.634C174.652 299.335 174.494 298.918 174.494 298.383V291.891ZM180.137 300.152C179.723 300.152 179.347 300.074 179.009 299.918C178.671 299.762 178.402 299.533 178.203 299.232C178.004 298.932 177.904 298.566 177.904 298.137C177.904 297.762 177.979 297.457 178.127 297.223C178.275 296.988 178.474 296.804 178.722 296.669C178.97 296.534 179.244 296.434 179.545 296.367C179.846 296.301 180.148 296.248 180.453 296.209C180.844 296.158 181.162 296.119 181.408 296.092C181.654 296.064 181.837 296.018 181.956 295.951C182.075 295.885 182.135 295.771 182.135 295.611V295.576C182.135 295.303 182.084 295.071 181.982 294.882C181.881 294.692 181.729 294.547 181.525 294.445C181.322 294.344 181.068 294.293 180.764 294.293C180.451 294.293 180.184 294.342 179.961 294.439C179.738 294.537 179.558 294.659 179.419 294.806C179.28 294.952 179.176 295.102 179.105 295.254L178.092 294.92C178.26 294.521 178.486 294.21 178.771 293.985C179.057 293.761 179.371 293.602 179.715 293.508C180.059 293.414 180.398 293.367 180.734 293.367C180.953 293.367 181.202 293.394 181.481 293.446C181.761 293.499 182.03 293.604 182.29 293.76C182.55 293.916 182.765 294.147 182.935 294.454C183.104 294.761 183.189 295.17 183.189 295.682V300H182.152V299.109H182.082C182.008 299.262 181.889 299.419 181.725 299.581C181.561 299.743 181.348 299.879 181.086 299.988C180.824 300.098 180.508 300.152 180.137 300.152ZM180.318 299.221C180.709 299.221 181.039 299.145 181.309 298.992C181.578 298.84 181.783 298.642 181.924 298.397C182.064 298.153 182.135 297.898 182.135 297.633V296.725C182.092 296.775 181.998 296.821 181.854 296.862C181.709 296.903 181.544 296.939 181.358 296.971C181.173 297.002 180.993 297.028 180.819 297.05C180.646 297.071 180.508 297.088 180.406 297.1C180.152 297.131 179.915 297.185 179.694 297.261C179.474 297.337 179.297 297.448 179.164 297.595C179.031 297.741 178.965 297.939 178.965 298.189C178.965 298.416 179.023 298.605 179.141 298.758C179.258 298.91 179.418 299.025 179.621 299.104C179.824 299.182 180.057 299.221 180.318 299.221ZM191.34 300.152C190.711 300.152 190.165 300.051 189.702 299.848C189.239 299.645 188.877 299.36 188.615 298.995C188.354 298.63 188.205 298.203 188.17 297.715H189.312C189.344 298.043 189.455 298.313 189.646 298.526C189.838 298.739 190.083 298.897 190.382 299.001C190.681 299.104 191 299.156 191.34 299.156C191.734 299.156 192.089 299.092 192.403 298.963C192.718 298.834 192.967 298.652 193.15 298.418C193.334 298.184 193.426 297.912 193.426 297.604C193.426 297.322 193.347 297.094 193.188 296.918C193.03 296.742 192.82 296.598 192.559 296.484C192.297 296.371 192.01 296.271 191.697 296.186L190.643 295.887C189.939 295.688 189.393 295.402 189.002 295.031C188.611 294.66 188.416 294.186 188.416 293.607C188.416 293.115 188.549 292.685 188.814 292.315C189.08 291.946 189.439 291.66 189.893 291.457C190.346 291.254 190.854 291.152 191.416 291.152C191.99 291.152 192.498 291.254 192.939 291.457C193.381 291.66 193.729 291.937 193.985 292.286C194.241 292.636 194.377 293.031 194.393 293.473H193.303C193.252 293.047 193.049 292.718 192.693 292.485C192.338 292.253 191.9 292.137 191.381 292.137C191.006 292.137 190.677 292.198 190.394 292.321C190.11 292.444 189.891 292.612 189.734 292.825C189.578 293.038 189.5 293.281 189.5 293.555C189.5 293.859 189.595 294.104 189.784 294.29C189.974 294.476 190.198 294.62 190.458 294.724C190.718 294.827 190.953 294.908 191.164 294.967L192.037 295.207C192.271 295.27 192.53 295.355 192.813 295.465C193.097 295.574 193.367 295.72 193.625 295.901C193.883 296.083 194.095 296.313 194.261 296.593C194.427 296.872 194.51 297.215 194.51 297.621C194.51 298.098 194.386 298.527 194.138 298.91C193.89 299.293 193.529 299.596 193.057 299.818C192.584 300.041 192.012 300.152 191.34 300.152ZM198.781 300.141C198.188 300.141 197.667 300 197.22 299.719C196.772 299.438 196.424 299.043 196.174 298.535C195.924 298.027 195.799 297.438 195.799 296.766C195.799 296.082 195.924 295.485 196.174 294.976C196.424 294.466 196.772 294.07 197.22 293.789C197.667 293.508 198.188 293.367 198.781 293.367C199.098 293.367 199.396 293.408 199.678 293.49C199.959 293.572 200.216 293.69 200.448 293.845C200.681 293.999 200.881 294.188 201.049 294.413C201.217 294.638 201.346 294.893 201.436 295.178L200.422 295.465C200.375 295.297 200.303 295.143 200.205 295.002C200.107 294.861 199.989 294.739 199.851 294.636C199.712 294.532 199.553 294.452 199.373 294.396C199.193 294.339 198.996 294.311 198.781 294.311C198.344 294.311 197.984 294.425 197.703 294.653C197.422 294.882 197.213 295.182 197.076 295.553C196.939 295.924 196.871 296.328 196.871 296.766C196.871 297.195 196.939 297.595 197.076 297.964C197.213 298.333 197.422 298.631 197.703 298.857C197.984 299.084 198.344 299.197 198.781 299.197C199 299.197 199.201 299.168 199.385 299.109C199.568 299.051 199.731 298.968 199.874 298.86C200.017 298.753 200.137 298.625 200.234 298.477C200.332 298.328 200.404 298.166 200.451 297.99L201.459 298.277C201.373 298.57 201.245 298.831 201.075 299.06C200.905 299.288 200.703 299.483 200.469 299.646C200.234 299.808 199.975 299.931 199.689 300.015C199.404 300.099 199.102 300.141 198.781 300.141ZM202.971 300V293.449H204.025V300H202.971ZM203.504 292.377C203.305 292.377 203.133 292.309 202.988 292.172C202.844 292.035 202.771 291.871 202.771 291.68C202.771 291.484 202.844 291.319 202.988 291.185C203.133 291.05 203.305 290.982 203.504 290.982C203.707 290.982 203.881 291.05 204.025 291.185C204.17 291.319 204.242 291.484 204.242 291.68C204.242 291.871 204.17 292.035 204.025 292.172C203.881 292.309 203.707 292.377 203.504 292.377ZM208.631 300.141C207.998 300.141 207.452 300 206.993 299.719C206.534 299.438 206.181 299.045 205.933 298.541C205.685 298.037 205.561 297.449 205.561 296.777C205.561 296.105 205.682 295.514 205.924 295.002C206.166 294.49 206.509 294.09 206.952 293.801C207.396 293.512 207.914 293.367 208.508 293.367C208.855 293.367 209.198 293.425 209.536 293.54C209.874 293.655 210.181 293.841 210.456 294.097C210.731 294.353 210.951 294.689 211.115 295.107C211.279 295.525 211.361 296.037 211.361 296.643V297.082H206.275V296.191H210.793L210.301 296.52C210.301 296.09 210.233 295.708 210.099 295.374C209.964 295.04 209.764 294.778 209.498 294.589C209.232 294.399 208.902 294.305 208.508 294.305C208.113 294.305 207.775 294.401 207.494 294.595C207.213 294.788 206.998 295.04 206.85 295.351C206.701 295.661 206.627 295.994 206.627 296.35V296.941C206.627 297.426 206.711 297.837 206.879 298.175C207.047 298.513 207.282 298.769 207.585 298.942C207.888 299.116 208.238 299.203 208.637 299.203C208.895 299.203 209.129 299.166 209.34 299.092C209.551 299.018 209.732 298.905 209.885 298.755C210.037 298.604 210.154 298.418 210.236 298.195L211.256 298.477C211.154 298.805 210.982 299.094 210.74 299.344C210.498 299.594 210.198 299.789 209.841 299.93C209.483 300.07 209.08 300.141 208.631 300.141ZM213.928 296.074V300H212.873V293.449H213.887L213.893 295.037H213.746C213.945 294.432 214.229 294.002 214.599 293.748C214.968 293.494 215.4 293.367 215.896 293.367C216.338 293.367 216.725 293.458 217.057 293.64C217.389 293.821 217.647 294.095 217.833 294.46C218.019 294.825 218.111 295.285 218.111 295.84V300H217.057V295.928C217.057 295.424 216.925 295.029 216.661 294.744C216.397 294.459 216.037 294.316 215.58 294.316C215.268 294.316 214.986 294.385 214.736 294.521C214.486 294.658 214.289 294.857 214.145 295.119C214 295.381 213.928 295.699 213.928 296.074ZM222.541 293.449V294.352H219.154V293.449H222.541ZM220.139 291.891H221.193V298.301C221.193 298.594 221.253 298.808 221.372 298.942C221.491 299.077 221.689 299.145 221.967 299.145C222.033 299.145 222.118 299.137 222.222 299.121C222.325 299.105 222.42 299.09 222.506 299.074L222.723 299.965C222.613 300.004 222.489 300.033 222.351 300.053C222.212 300.072 222.074 300.082 221.938 300.082C221.371 300.082 220.93 299.933 220.613 299.634C220.297 299.335 220.139 298.918 220.139 298.383V291.891ZM223.889 300V293.449H224.943V300H223.889ZM224.422 292.377C224.223 292.377 224.051 292.309 223.906 292.172C223.762 292.035 223.689 291.871 223.689 291.68C223.689 291.484 223.762 291.319 223.906 291.185C224.051 291.05 224.223 290.982 224.422 290.982C224.625 290.982 224.799 291.05 224.943 291.185C225.088 291.319 225.16 291.484 225.16 291.68C225.16 291.871 225.088 292.035 224.943 292.172C224.799 292.309 224.625 292.377 224.422 292.377ZM229.021 300.141C228.572 300.141 228.173 300.075 227.823 299.944C227.474 299.813 227.186 299.619 226.959 299.361C226.732 299.104 226.58 298.787 226.502 298.412L227.504 298.172C227.598 298.531 227.774 298.795 228.034 298.963C228.294 299.131 228.619 299.215 229.01 299.215C229.467 299.215 229.831 299.117 230.103 298.922C230.374 298.727 230.51 298.494 230.51 298.225C230.51 297.998 230.431 297.81 230.272 297.659C230.114 297.509 229.873 297.396 229.549 297.322L228.459 297.064C227.865 296.924 227.424 296.706 227.135 296.411C226.846 296.116 226.701 295.738 226.701 295.277C226.701 294.902 226.807 294.571 227.018 294.284C227.229 293.997 227.517 293.772 227.882 293.61C228.247 293.448 228.662 293.367 229.127 293.367C229.576 293.367 229.958 293.435 230.272 293.569C230.587 293.704 230.843 293.89 231.04 294.126C231.237 294.362 231.385 294.635 231.482 294.943L230.527 295.189C230.438 294.955 230.288 294.742 230.079 294.551C229.87 294.359 229.555 294.264 229.133 294.264C228.742 294.264 228.417 294.354 228.157 294.533C227.897 294.713 227.768 294.939 227.768 295.213C227.768 295.455 227.855 295.649 228.031 295.796C228.207 295.942 228.486 296.061 228.869 296.15L229.859 296.385C230.453 296.525 230.893 296.743 231.178 297.038C231.463 297.333 231.605 297.705 231.605 298.154C231.605 298.537 231.497 298.878 231.28 299.177C231.063 299.476 230.761 299.711 230.372 299.883C229.983 300.055 229.533 300.141 229.021 300.141ZM235.707 293.449V294.352H232.32V293.449H235.707ZM233.305 291.891H234.359V298.301C234.359 298.594 234.419 298.808 234.538 298.942C234.657 299.077 234.855 299.145 235.133 299.145C235.199 299.145 235.284 299.137 235.388 299.121C235.491 299.105 235.586 299.09 235.672 299.074L235.889 299.965C235.779 300.004 235.655 300.033 235.517 300.053C235.378 300.072 235.24 300.082 235.104 300.082C234.537 300.082 234.096 299.933 233.779 299.634C233.463 299.335 233.305 298.918 233.305 298.383V291.891Z" fill="#475569"/>
<rect x="1.58984" y="319" width="10" height="10" rx="5" fill="#00B7FF"/>
<path d="M20.6445 328V319.27H25.9238V320.254H21.7578V323.242H25.5254V324.227H21.7578V328H20.6445ZM29.416 328.082C28.9746 328.082 28.5869 327.991 28.2529 327.81C27.9189 327.628 27.6592 327.354 27.4736 326.986C27.2881 326.619 27.1953 326.16 27.1953 325.609V321.449H28.25V325.521C28.25 326.025 28.3828 326.42 28.6484 326.705C28.9141 326.99 29.2754 327.133 29.7324 327.133C30.0449 327.133 30.3252 327.064 30.5732 326.928C30.8213 326.791 31.0176 326.591 31.1621 326.327C31.3066 326.063 31.3789 325.746 31.3789 325.375V321.449H32.4395V328H31.4199V326.412H31.5605C31.3574 327.025 31.0693 327.457 30.6963 327.707C30.3232 327.957 29.8965 328.082 29.416 328.082ZM35.3457 319.27V328H34.291V319.27H35.3457ZM38.252 319.27V328H37.1973V319.27H38.252ZM45.7051 328.141C45.2559 328.141 44.8564 328.075 44.5068 327.944C44.1572 327.813 43.8691 327.619 43.6426 327.361C43.416 327.104 43.2637 326.787 43.1855 326.412L44.1875 326.172C44.2812 326.531 44.458 326.795 44.7178 326.963C44.9775 327.131 45.3027 327.215 45.6934 327.215C46.1504 327.215 46.5146 327.117 46.7861 326.922C47.0576 326.727 47.1934 326.494 47.1934 326.225C47.1934 325.998 47.1143 325.81 46.9561 325.659C46.7979 325.509 46.5566 325.396 46.2324 325.322L45.1426 325.064C44.5488 324.924 44.1074 324.706 43.8184 324.411C43.5293 324.116 43.3848 323.738 43.3848 323.277C43.3848 322.902 43.4902 322.571 43.7012 322.284C43.9121 321.997 44.2002 321.772 44.5654 321.61C44.9307 321.448 45.3457 321.367 45.8105 321.367C46.2598 321.367 46.6416 321.435 46.9561 321.569C47.2705 321.704 47.5264 321.89 47.7236 322.126C47.9209 322.362 48.0684 322.635 48.166 322.943L47.2109 323.189C47.1211 322.955 46.9717 322.742 46.7627 322.551C46.5537 322.359 46.2383 322.264 45.8164 322.264C45.4258 322.264 45.1006 322.354 44.8408 322.533C44.5811 322.713 44.4512 322.939 44.4512 323.213C44.4512 323.455 44.5391 323.649 44.7148 323.796C44.8906 323.942 45.1699 324.061 45.5527 324.15L46.543 324.385C47.1367 324.525 47.5762 324.743 47.8613 325.038C48.1465 325.333 48.2891 325.705 48.2891 326.154C48.2891 326.537 48.1807 326.878 47.9639 327.177C47.7471 327.476 47.4443 327.711 47.0557 327.883C46.667 328.055 46.2168 328.141 45.7051 328.141ZM52.3906 321.449V322.352H49.0039V321.449H52.3906ZM49.9883 319.891H51.043V326.301C51.043 326.594 51.1025 326.808 51.2217 326.942C51.3408 327.077 51.5391 327.145 51.8164 327.145C51.8828 327.145 51.9678 327.137 52.0713 327.121C52.1748 327.105 52.2695 327.09 52.3555 327.074L52.5723 327.965C52.4629 328.004 52.3389 328.033 52.2002 328.053C52.0615 328.072 51.9238 328.082 51.7871 328.082C51.2207 328.082 50.7793 327.933 50.4629 327.634C50.1465 327.335 49.9883 326.918 49.9883 326.383V319.891ZM55.6309 328.152C55.2168 328.152 54.8408 328.074 54.5029 327.918C54.165 327.762 53.8965 327.533 53.6973 327.232C53.498 326.932 53.3984 326.566 53.3984 326.137C53.3984 325.762 53.4727 325.457 53.6211 325.223C53.7695 324.988 53.9678 324.804 54.2158 324.669C54.4639 324.534 54.7383 324.434 55.0391 324.367C55.3398 324.301 55.6426 324.248 55.9473 324.209C56.3379 324.158 56.6562 324.119 56.9023 324.092C57.1484 324.064 57.3311 324.018 57.4502 323.951C57.5693 323.885 57.6289 323.771 57.6289 323.611V323.576C57.6289 323.303 57.5781 323.071 57.4766 322.882C57.375 322.692 57.2227 322.547 57.0195 322.445C56.8164 322.344 56.5625 322.293 56.2578 322.293C55.9453 322.293 55.6777 322.342 55.4551 322.439C55.2324 322.537 55.0518 322.659 54.9131 322.806C54.7744 322.952 54.6699 323.102 54.5996 323.254L53.5859 322.92C53.7539 322.521 53.9805 322.21 54.2656 321.985C54.5508 321.761 54.8652 321.602 55.209 321.508C55.5527 321.414 55.8926 321.367 56.2285 321.367C56.4473 321.367 56.6963 321.394 56.9756 321.446C57.2549 321.499 57.5244 321.604 57.7842 321.76C58.0439 321.916 58.2588 322.147 58.4287 322.454C58.5986 322.761 58.6836 323.17 58.6836 323.682V328H57.6465V327.109H57.5762C57.502 327.262 57.3828 327.419 57.2188 327.581C57.0547 327.743 56.8418 327.879 56.5801 327.988C56.3184 328.098 56.002 328.152 55.6309 328.152ZM55.8125 327.221C56.2031 327.221 56.5332 327.145 56.8027 326.992C57.0723 326.84 57.2773 326.642 57.418 326.397C57.5586 326.153 57.6289 325.898 57.6289 325.633V324.725C57.5859 324.775 57.4922 324.821 57.3477 324.862C57.2031 324.903 57.0381 324.939 56.8525 324.971C56.667 325.002 56.4873 325.028 56.3135 325.05C56.1396 325.071 56.002 325.088 55.9004 325.1C55.6465 325.131 55.4092 325.185 55.1885 325.261C54.9678 325.337 54.791 325.448 54.6582 325.595C54.5254 325.741 54.459 325.939 54.459 326.189C54.459 326.416 54.5176 326.605 54.6348 326.758C54.752 326.91 54.9121 327.025 55.1152 327.104C55.3184 327.182 55.5508 327.221 55.8125 327.221ZM63.2012 328.141C62.6074 328.141 62.0869 328 61.6396 327.719C61.1924 327.438 60.8438 327.043 60.5938 326.535C60.3438 326.027 60.2188 325.438 60.2188 324.766C60.2188 324.082 60.3438 323.485 60.5938 322.976C60.8438 322.466 61.1924 322.07 61.6396 321.789C62.0869 321.508 62.6074 321.367 63.2012 321.367C63.5176 321.367 63.8164 321.408 64.0977 321.49C64.3789 321.572 64.6357 321.69 64.8682 321.845C65.1006 321.999 65.3008 322.188 65.4688 322.413C65.6367 322.638 65.7656 322.893 65.8555 323.178L64.8418 323.465C64.7949 323.297 64.7227 323.143 64.625 323.002C64.5273 322.861 64.4092 322.739 64.2705 322.636C64.1318 322.532 63.9727 322.452 63.793 322.396C63.6133 322.339 63.416 322.311 63.2012 322.311C62.7637 322.311 62.4043 322.425 62.123 322.653C61.8418 322.882 61.6328 323.182 61.4961 323.553C61.3594 323.924 61.291 324.328 61.291 324.766C61.291 325.195 61.3594 325.595 61.4961 325.964C61.6328 326.333 61.8418 326.631 62.123 326.857C62.4043 327.084 62.7637 327.197 63.2012 327.197C63.4199 327.197 63.6211 327.168 63.8047 327.109C63.9883 327.051 64.1514 326.968 64.2939 326.86C64.4365 326.753 64.5566 326.625 64.6543 326.477C64.752 326.328 64.8242 326.166 64.8711 325.99L65.8789 326.277C65.793 326.57 65.665 326.831 65.4951 327.06C65.3252 327.288 65.123 327.483 64.8887 327.646C64.6543 327.808 64.3945 327.931 64.1094 328.015C63.8242 328.099 63.5215 328.141 63.2012 328.141ZM68.3809 325.645V324.338H68.5742L71.375 321.449H72.6816L69.6523 324.561H69.5352L68.3809 325.645ZM67.3906 328V319.27H68.4453V328H67.3906ZM71.5332 328L69.0254 324.795L69.7754 324.051L72.8867 328H71.5332ZM80.2051 328H78.0957V327.016H80.1348C80.8457 327.016 81.4346 326.88 81.9014 326.608C82.3682 326.337 82.7168 325.947 82.9473 325.439C83.1777 324.932 83.293 324.324 83.293 323.617C83.293 322.918 83.1787 322.317 82.9502 321.815C82.7217 321.313 82.3818 320.928 81.9307 320.658C81.4795 320.389 80.916 320.254 80.2402 320.254H78.0488V319.27H80.3164C81.168 319.27 81.8955 319.443 82.499 319.791C83.1025 320.139 83.5654 320.638 83.8877 321.288C84.21 321.938 84.3711 322.715 84.3711 323.617C84.3711 324.527 84.209 325.31 83.8848 325.964C83.5605 326.618 83.0879 327.121 82.4668 327.473C81.8457 327.824 81.0918 328 80.2051 328ZM78.5938 319.27V328H77.4805V319.27H78.5938ZM88.7656 328.141C88.1328 328.141 87.5869 328 87.1279 327.719C86.6689 327.438 86.3154 327.045 86.0674 326.541C85.8193 326.037 85.6953 325.449 85.6953 324.777C85.6953 324.105 85.8164 323.514 86.0586 323.002C86.3008 322.49 86.6436 322.09 87.0869 321.801C87.5303 321.512 88.0488 321.367 88.6426 321.367C88.9902 321.367 89.333 321.425 89.6709 321.54C90.0088 321.655 90.3154 321.841 90.5908 322.097C90.8662 322.353 91.0859 322.689 91.25 323.107C91.4141 323.525 91.4961 324.037 91.4961 324.643V325.082H86.4102V324.191H90.9277L90.4355 324.52C90.4355 324.09 90.3682 323.708 90.2334 323.374C90.0986 323.04 89.8984 322.778 89.6328 322.589C89.3672 322.399 89.0371 322.305 88.6426 322.305C88.248 322.305 87.9102 322.401 87.6289 322.595C87.3477 322.788 87.1328 323.04 86.9844 323.351C86.8359 323.661 86.7617 323.994 86.7617 324.35V324.941C86.7617 325.426 86.8457 325.837 87.0137 326.175C87.1816 326.513 87.417 326.769 87.7197 326.942C88.0225 327.116 88.373 327.203 88.7715 327.203C89.0293 327.203 89.2637 327.166 89.4746 327.092C89.6855 327.018 89.8672 326.905 90.0195 326.755C90.1719 326.604 90.2891 326.418 90.3711 326.195L91.3906 326.477C91.2891 326.805 91.1172 327.094 90.875 327.344C90.6328 327.594 90.333 327.789 89.9756 327.93C89.6182 328.07 89.2148 328.141 88.7656 328.141ZM94.666 328L92.1641 321.449H93.3184L94.7129 325.334C94.8613 325.736 94.9873 326.138 95.0908 326.538C95.1943 326.938 95.3027 327.326 95.416 327.701H95.0293C95.1426 327.326 95.251 326.938 95.3545 326.538C95.458 326.138 95.582 325.736 95.7266 325.334L97.1211 321.449H98.2754L95.7734 328H94.666Z" fill="#475569"/>
<rect x="139.994" y="319" width="10" height="10" rx="5" fill="#00D09C"/>
<path d="M159.049 328V319.27H162.143C162.752 319.27 163.255 319.374 163.651 319.583C164.048 319.792 164.343 320.071 164.536 320.421C164.729 320.771 164.826 321.158 164.826 321.584C164.826 321.959 164.76 322.269 164.627 322.513C164.494 322.757 164.319 322.951 164.103 323.096C163.886 323.24 163.65 323.348 163.396 323.418V323.5C163.67 323.516 163.942 323.609 164.214 323.781C164.485 323.953 164.712 324.197 164.894 324.514C165.075 324.83 165.166 325.217 165.166 325.674C165.166 326.111 165.065 326.506 164.864 326.857C164.663 327.209 164.348 327.487 163.918 327.692C163.488 327.897 162.93 328 162.242 328H159.049ZM160.162 327.016H162.213C162.893 327.016 163.376 326.885 163.663 326.623C163.95 326.361 164.094 326.041 164.094 325.662C164.094 325.369 164.02 325.1 163.871 324.854C163.723 324.607 163.513 324.41 163.241 324.262C162.97 324.113 162.646 324.039 162.271 324.039H160.162V327.016ZM160.162 323.102H162.084C162.396 323.102 162.68 323.04 162.934 322.917C163.188 322.794 163.389 322.62 163.537 322.396C163.686 322.171 163.76 321.908 163.76 321.607C163.76 321.229 163.628 320.908 163.364 320.646C163.101 320.385 162.686 320.254 162.119 320.254H160.162V323.102ZM168.992 328.082C168.551 328.082 168.163 327.991 167.829 327.81C167.495 327.628 167.235 327.354 167.05 326.986C166.864 326.619 166.771 326.16 166.771 325.609V321.449H167.826V325.521C167.826 326.025 167.959 326.42 168.225 326.705C168.49 326.99 168.852 327.133 169.309 327.133C169.621 327.133 169.901 327.064 170.149 326.928C170.397 326.791 170.594 326.591 170.738 326.327C170.883 326.063 170.955 325.746 170.955 325.375V321.449H172.016V328H170.996V326.412H171.137C170.934 327.025 170.646 327.457 170.272 327.707C169.899 327.957 169.473 328.082 168.992 328.082ZM176.094 328.141C175.645 328.141 175.245 328.075 174.896 327.944C174.546 327.813 174.258 327.619 174.031 327.361C173.805 327.104 173.652 326.787 173.574 326.412L174.576 326.172C174.67 326.531 174.847 326.795 175.106 326.963C175.366 327.131 175.691 327.215 176.082 327.215C176.539 327.215 176.903 327.117 177.175 326.922C177.446 326.727 177.582 326.494 177.582 326.225C177.582 325.998 177.503 325.81 177.345 325.659C177.187 325.509 176.945 325.396 176.621 325.322L175.531 325.064C174.938 324.924 174.496 324.706 174.207 324.411C173.918 324.116 173.773 323.738 173.773 323.277C173.773 322.902 173.879 322.571 174.09 322.284C174.301 321.997 174.589 321.772 174.954 321.61C175.319 321.448 175.734 321.367 176.199 321.367C176.648 321.367 177.03 321.435 177.345 321.569C177.659 321.704 177.915 321.89 178.112 322.126C178.31 322.362 178.457 322.635 178.555 322.943L177.6 323.189C177.51 322.955 177.36 322.742 177.151 322.551C176.942 322.359 176.627 322.264 176.205 322.264C175.814 322.264 175.489 322.354 175.229 322.533C174.97 322.713 174.84 322.939 174.84 323.213C174.84 323.455 174.928 323.649 175.104 323.796C175.279 323.942 175.559 324.061 175.941 324.15L176.932 324.385C177.525 324.525 177.965 324.743 178.25 325.038C178.535 325.333 178.678 325.705 178.678 326.154C178.678 326.537 178.569 326.878 178.353 327.177C178.136 327.476 177.833 327.711 177.444 327.883C177.056 328.055 176.605 328.141 176.094 328.141ZM180.201 328V321.449H181.256V328H180.201ZM180.734 320.377C180.535 320.377 180.363 320.309 180.219 320.172C180.074 320.035 180.002 319.871 180.002 319.68C180.002 319.484 180.074 319.319 180.219 319.185C180.363 319.05 180.535 318.982 180.734 318.982C180.938 318.982 181.111 319.05 181.256 319.185C181.4 319.319 181.473 319.484 181.473 319.68C181.473 319.871 181.4 320.035 181.256 320.172C181.111 320.309 180.938 320.377 180.734 320.377ZM184.162 324.074V328H183.107V321.449H184.121L184.127 323.037H183.98C184.18 322.432 184.464 322.002 184.833 321.748C185.202 321.494 185.635 321.367 186.131 321.367C186.572 321.367 186.959 321.458 187.291 321.64C187.623 321.821 187.882 322.095 188.067 322.46C188.253 322.825 188.346 323.285 188.346 323.84V328H187.291V323.928C187.291 323.424 187.159 323.029 186.896 322.744C186.632 322.459 186.271 322.316 185.814 322.316C185.502 322.316 185.221 322.385 184.971 322.521C184.721 322.658 184.523 322.857 184.379 323.119C184.234 323.381 184.162 323.699 184.162 324.074ZM192.951 328.141C192.318 328.141 191.772 328 191.313 327.719C190.854 327.438 190.501 327.045 190.253 326.541C190.005 326.037 189.881 325.449 189.881 324.777C189.881 324.105 190.002 323.514 190.244 323.002C190.486 322.49 190.829 322.09 191.272 321.801C191.716 321.512 192.234 321.367 192.828 321.367C193.176 321.367 193.519 321.425 193.856 321.54C194.194 321.655 194.501 321.841 194.776 322.097C195.052 322.353 195.271 322.689 195.436 323.107C195.6 323.525 195.682 324.037 195.682 324.643V325.082H190.596V324.191H195.113L194.621 324.52C194.621 324.09 194.554 323.708 194.419 323.374C194.284 323.04 194.084 322.778 193.818 322.589C193.553 322.399 193.223 322.305 192.828 322.305C192.434 322.305 192.096 322.401 191.814 322.595C191.533 322.788 191.318 323.04 191.17 323.351C191.021 323.661 190.947 323.994 190.947 324.35V324.941C190.947 325.426 191.031 325.837 191.199 326.175C191.367 326.513 191.603 326.769 191.905 326.942C192.208 327.116 192.559 327.203 192.957 327.203C193.215 327.203 193.449 327.166 193.66 327.092C193.871 327.018 194.053 326.905 194.205 326.755C194.357 326.604 194.475 326.418 194.557 326.195L195.576 326.477C195.475 326.805 195.303 327.094 195.061 327.344C194.818 327.594 194.519 327.789 194.161 327.93C193.804 328.07 193.4 328.141 192.951 328.141ZM199.42 328.141C198.971 328.141 198.571 328.075 198.222 327.944C197.872 327.813 197.584 327.619 197.357 327.361C197.131 327.104 196.979 326.787 196.9 326.412L197.902 326.172C197.996 326.531 198.173 326.795 198.433 326.963C198.692 327.131 199.018 327.215 199.408 327.215C199.865 327.215 200.229 327.117 200.501 326.922C200.772 326.727 200.908 326.494 200.908 326.225C200.908 325.998 200.829 325.81 200.671 325.659C200.513 325.509 200.271 325.396 199.947 325.322L198.857 325.064C198.264 324.924 197.822 324.706 197.533 324.411C197.244 324.116 197.1 323.738 197.1 323.277C197.1 322.902 197.205 322.571 197.416 322.284C197.627 321.997 197.915 321.772 198.28 321.61C198.646 321.448 199.061 321.367 199.525 321.367C199.975 321.367 200.356 321.435 200.671 321.569C200.985 321.704 201.241 321.89 201.438 322.126C201.636 322.362 201.783 322.635 201.881 322.943L200.926 323.189C200.836 322.955 200.687 322.742 200.478 322.551C200.269 322.359 199.953 322.264 199.531 322.264C199.141 322.264 198.815 322.354 198.556 322.533C198.296 322.713 198.166 322.939 198.166 323.213C198.166 323.455 198.254 323.649 198.43 323.796C198.605 323.942 198.885 324.061 199.268 324.15L200.258 324.385C200.852 324.525 201.291 324.743 201.576 325.038C201.861 325.333 202.004 325.705 202.004 326.154C202.004 326.537 201.896 326.878 201.679 327.177C201.462 327.476 201.159 327.711 200.771 327.883C200.382 328.055 199.932 328.141 199.42 328.141ZM205.754 328.141C205.305 328.141 204.905 328.075 204.556 327.944C204.206 327.813 203.918 327.619 203.691 327.361C203.465 327.104 203.312 326.787 203.234 326.412L204.236 326.172C204.33 326.531 204.507 326.795 204.767 326.963C205.026 327.131 205.352 327.215 205.742 327.215C206.199 327.215 206.563 327.117 206.835 326.922C207.106 326.727 207.242 326.494 207.242 326.225C207.242 325.998 207.163 325.81 207.005 325.659C206.847 325.509 206.605 325.396 206.281 325.322L205.191 325.064C204.598 324.924 204.156 324.706 203.867 324.411C203.578 324.116 203.434 323.738 203.434 323.277C203.434 322.902 203.539 322.571 203.75 322.284C203.961 321.997 204.249 321.772 204.614 321.61C204.979 321.448 205.395 321.367 205.859 321.367C206.309 321.367 206.69 321.435 207.005 321.569C207.319 321.704 207.575 321.89 207.772 322.126C207.97 322.362 208.117 322.635 208.215 322.943L207.26 323.189C207.17 322.955 207.021 322.742 206.812 322.551C206.603 322.359 206.287 322.264 205.865 322.264C205.475 322.264 205.149 322.354 204.89 322.533C204.63 322.713 204.5 322.939 204.5 323.213C204.5 323.455 204.588 323.649 204.764 323.796C204.939 323.942 205.219 324.061 205.602 324.15L206.592 324.385C207.186 324.525 207.625 324.743 207.91 325.038C208.195 325.333 208.338 325.705 208.338 326.154C208.338 326.537 208.229 326.878 208.013 327.177C207.796 327.476 207.493 327.711 207.104 327.883C206.716 328.055 206.266 328.141 205.754 328.141ZM212.615 328L215.785 319.27H217.074L220.285 328H219.113L217.262 322.82C217.148 322.5 217.017 322.101 216.866 321.622C216.716 321.144 216.533 320.533 216.318 319.791H216.529C216.318 320.541 216.136 321.159 215.981 321.646C215.827 322.132 215.699 322.523 215.598 322.82L213.799 328H212.615ZM214.209 325.562V324.59H218.691V325.562H214.209ZM222.57 324.074V328H221.516V321.449H222.529L222.535 323.037H222.389C222.588 322.432 222.872 322.002 223.241 321.748C223.61 321.494 224.043 321.367 224.539 321.367C224.98 321.367 225.367 321.458 225.699 321.64C226.031 321.821 226.29 322.095 226.476 322.46C226.661 322.825 226.754 323.285 226.754 323.84V328H225.699V323.928C225.699 323.424 225.567 323.029 225.304 322.744C225.04 322.459 224.68 322.316 224.223 322.316C223.91 322.316 223.629 322.385 223.379 322.521C223.129 322.658 222.932 322.857 222.787 323.119C222.643 323.381 222.57 323.699 222.57 324.074ZM230.439 328.152C230.025 328.152 229.649 328.074 229.312 327.918C228.974 327.762 228.705 327.533 228.506 327.232C228.307 326.932 228.207 326.566 228.207 326.137C228.207 325.762 228.281 325.457 228.43 325.223C228.578 324.988 228.776 324.804 229.024 324.669C229.272 324.534 229.547 324.434 229.848 324.367C230.148 324.301 230.451 324.248 230.756 324.209C231.146 324.158 231.465 324.119 231.711 324.092C231.957 324.064 232.14 324.018 232.259 323.951C232.378 323.885 232.438 323.771 232.438 323.611V323.576C232.438 323.303 232.387 323.071 232.285 322.882C232.184 322.692 232.031 322.547 231.828 322.445C231.625 322.344 231.371 322.293 231.066 322.293C230.754 322.293 230.486 322.342 230.264 322.439C230.041 322.537 229.86 322.659 229.722 322.806C229.583 322.952 229.479 323.102 229.408 323.254L228.395 322.92C228.562 322.521 228.789 322.21 229.074 321.985C229.359 321.761 229.674 321.602 230.018 321.508C230.361 321.414 230.701 321.367 231.037 321.367C231.256 321.367 231.505 321.394 231.784 321.446C232.063 321.499 232.333 321.604 232.593 321.76C232.853 321.916 233.067 322.147 233.237 322.454C233.407 322.761 233.492 323.17 233.492 323.682V328H232.455V327.109H232.385C232.311 327.262 232.191 327.419 232.027 327.581C231.863 327.743 231.65 327.879 231.389 327.988C231.127 328.098 230.811 328.152 230.439 328.152ZM230.621 327.221C231.012 327.221 231.342 327.145 231.611 326.992C231.881 326.84 232.086 326.642 232.227 326.397C232.367 326.153 232.438 325.898 232.438 325.633V324.725C232.395 324.775 232.301 324.821 232.156 324.862C232.012 324.903 231.847 324.939 231.661 324.971C231.476 325.002 231.296 325.028 231.122 325.05C230.948 325.071 230.811 325.088 230.709 325.1C230.455 325.131 230.218 325.185 229.997 325.261C229.776 325.337 229.6 325.448 229.467 325.595C229.334 325.741 229.268 325.939 229.268 326.189C229.268 326.416 229.326 326.605 229.443 326.758C229.561 326.91 229.721 327.025 229.924 327.104C230.127 327.182 230.359 327.221 230.621 327.221ZM236.398 319.27V328H235.344V319.27H236.398ZM238.203 330.373L238.473 329.459L238.584 329.488C238.799 329.543 238.994 329.558 239.17 329.532C239.346 329.507 239.504 329.42 239.645 329.271C239.785 329.123 239.908 328.893 240.014 328.58L240.201 328.035L237.699 321.449H238.854L240.248 325.334C240.396 325.74 240.521 326.143 240.623 326.541C240.725 326.939 240.832 327.326 240.945 327.701H240.559C240.672 327.326 240.78 326.938 240.884 326.538C240.987 326.138 241.111 325.736 241.256 325.334L242.662 321.449H243.811L240.934 328.979C240.801 329.326 240.642 329.612 240.456 329.837C240.271 330.062 240.055 330.228 239.809 330.335C239.562 330.442 239.285 330.496 238.977 330.496C238.789 330.496 238.627 330.482 238.49 330.455C238.354 330.428 238.258 330.4 238.203 330.373ZM247.279 328.141C246.83 328.141 246.431 328.075 246.081 327.944C245.731 327.813 245.443 327.619 245.217 327.361C244.99 327.104 244.838 326.787 244.76 326.412L245.762 326.172C245.855 326.531 246.032 326.795 246.292 326.963C246.552 327.131 246.877 327.215 247.268 327.215C247.725 327.215 248.089 327.117 248.36 326.922C248.632 326.727 248.768 326.494 248.768 326.225C248.768 325.998 248.688 325.81 248.53 325.659C248.372 325.509 248.131 325.396 247.807 325.322L246.717 325.064C246.123 324.924 245.682 324.706 245.393 324.411C245.104 324.116 244.959 323.738 244.959 323.277C244.959 322.902 245.064 322.571 245.275 322.284C245.486 321.997 245.774 321.772 246.14 321.61C246.505 321.448 246.92 321.367 247.385 321.367C247.834 321.367 248.216 321.435 248.53 321.569C248.845 321.704 249.101 321.89 249.298 322.126C249.495 322.362 249.643 322.635 249.74 322.943L248.785 323.189C248.695 322.955 248.546 322.742 248.337 322.551C248.128 322.359 247.812 322.264 247.391 322.264C247 322.264 246.675 322.354 246.415 322.533C246.155 322.713 246.025 322.939 246.025 323.213C246.025 323.455 246.113 323.649 246.289 323.796C246.465 323.942 246.744 324.061 247.127 324.15L248.117 324.385C248.711 324.525 249.15 324.743 249.436 325.038C249.721 325.333 249.863 325.705 249.863 326.154C249.863 326.537 249.755 326.878 249.538 327.177C249.321 327.476 249.019 327.711 248.63 327.883C248.241 328.055 247.791 328.141 247.279 328.141ZM253.965 321.449V322.352H250.578V321.449H253.965ZM251.562 319.891H252.617V326.301C252.617 326.594 252.677 326.808 252.796 326.942C252.915 327.077 253.113 327.145 253.391 327.145C253.457 327.145 253.542 327.137 253.646 327.121C253.749 327.105 253.844 327.09 253.93 327.074L254.146 327.965C254.037 328.004 253.913 328.033 253.774 328.053C253.636 328.072 253.498 328.082 253.361 328.082C252.795 328.082 252.354 327.933 252.037 327.634C251.721 327.335 251.562 326.918 251.562 326.383V319.891Z" fill="#475569"/>
<rect x="1.58984" y="347" width="10" height="10" rx="5" fill="#FFD166"/>
<path d="M20.6445 356V347.27H22.2266L24.377 352.777C24.4277 352.906 24.4854 353.067 24.5498 353.261C24.6143 353.454 24.6826 353.664 24.7549 353.891C24.8271 354.117 24.8965 354.343 24.9629 354.567C25.0293 354.792 25.0879 355 25.1387 355.191H24.8926C24.9473 355.012 25.0078 354.812 25.0742 354.591C25.1406 354.37 25.21 354.146 25.2822 353.917C25.3545 353.688 25.4238 353.475 25.4902 353.275C25.5566 353.076 25.6152 352.91 25.666 352.777L27.7871 347.27H29.375V356H28.2793V351.014C28.2793 350.834 28.2803 350.629 28.2822 350.398C28.2842 350.168 28.2881 349.926 28.2939 349.672C28.2998 349.418 28.3057 349.16 28.3115 348.898C28.3174 348.637 28.3223 348.383 28.3262 348.137H28.4199C28.3379 348.406 28.251 348.681 28.1592 348.96C28.0674 349.239 27.9775 349.509 27.8896 349.769C27.8018 350.028 27.7188 350.266 27.6406 350.48C27.5625 350.695 27.4961 350.873 27.4414 351.014L25.4902 356H24.5234L22.543 351.014C22.4883 350.877 22.4238 350.704 22.3496 350.495C22.2754 350.286 22.1943 350.054 22.1064 349.798C22.0186 349.542 21.9277 349.272 21.834 348.989C21.7402 348.706 21.6445 348.422 21.5469 348.137H21.6523C21.6602 348.355 21.667 348.592 21.6729 348.846C21.6787 349.1 21.6836 349.356 21.6875 349.616C21.6914 349.876 21.6953 350.126 21.6992 350.366C21.7031 350.606 21.7051 350.822 21.7051 351.014V356H20.6445ZM31.4844 356V347.27H32.5977V355.016H36.6406V356H31.4844ZM41.2695 346.859L38.457 357.312H37.4844L40.2969 346.859H41.2695ZM41.5508 356L44.7207 347.27H46.0098L49.2207 356H48.0488L46.1973 350.82C46.084 350.5 45.9521 350.101 45.8018 349.622C45.6514 349.144 45.4688 348.533 45.2539 347.791H45.4648C45.2539 348.541 45.0713 349.159 44.917 349.646C44.7627 350.132 44.6348 350.523 44.5332 350.82L42.7344 356H41.5508ZM43.1445 353.562V352.59H47.627V353.562H43.1445ZM51.6934 347.27V356H50.5801V347.27H51.6934ZM57.1777 356V347.27H62.498V348.254H58.291V351.102H62.2109V352.086H58.291V355.016H62.5508V356H57.1777ZM65.3164 352.074V356H64.2617V349.449H65.2754L65.2812 351.037H65.1348C65.334 350.432 65.6182 350.002 65.9873 349.748C66.3564 349.494 66.7891 349.367 67.2852 349.367C67.7266 349.367 68.1133 349.458 68.4453 349.64C68.7773 349.821 69.0361 350.095 69.2217 350.46C69.4072 350.825 69.5 351.285 69.5 351.84V356H68.4453V351.928C68.4453 351.424 68.3135 351.029 68.0498 350.744C67.7861 350.459 67.4258 350.316 66.9688 350.316C66.6562 350.316 66.375 350.385 66.125 350.521C65.875 350.658 65.6777 350.857 65.5332 351.119C65.3887 351.381 65.3164 351.699 65.3164 352.074ZM74.0059 358.59C73.5215 358.59 73.1025 358.528 72.749 358.405C72.3955 358.282 72.1016 358.119 71.8672 357.916C71.6328 357.713 71.4473 357.492 71.3105 357.254L72.166 356.703C72.2598 356.828 72.376 356.967 72.5146 357.119C72.6533 357.271 72.8408 357.401 73.0771 357.509C73.3135 357.616 73.623 357.67 74.0059 357.67C74.5293 357.67 74.96 357.545 75.2979 357.295C75.6357 357.045 75.8047 356.65 75.8047 356.111V354.799H75.7051C75.6309 354.924 75.5264 355.072 75.3916 355.244C75.2568 355.416 75.0635 355.567 74.8115 355.698C74.5596 355.829 74.2227 355.895 73.8008 355.895C73.2773 355.895 72.8066 355.771 72.3887 355.522C71.9707 355.274 71.6406 354.912 71.3984 354.436C71.1562 353.959 71.0352 353.379 71.0352 352.695C71.0352 352.02 71.1543 351.433 71.3926 350.935C71.6309 350.437 71.96 350.051 72.3799 349.777C72.7998 349.504 73.2812 349.367 73.8242 349.367C74.2461 349.367 74.583 349.437 74.835 349.575C75.0869 349.714 75.2812 349.873 75.418 350.053C75.5547 350.232 75.6602 350.381 75.7344 350.498H75.834V349.449H76.8594V356.17C76.8594 356.732 76.7324 357.192 76.4785 357.55C76.2246 357.907 75.8818 358.17 75.4502 358.338C75.0186 358.506 74.5371 358.59 74.0059 358.59ZM73.9766 354.957C74.375 354.957 74.7109 354.866 74.9844 354.685C75.2578 354.503 75.4648 354.241 75.6055 353.899C75.7461 353.558 75.8164 353.148 75.8164 352.672C75.8164 352.207 75.7471 351.798 75.6084 351.444C75.4697 351.091 75.2637 350.813 74.9902 350.612C74.7168 350.411 74.3789 350.311 73.9766 350.311C73.5625 350.311 73.2168 350.417 72.9395 350.63C72.6621 350.843 72.4541 351.127 72.3154 351.482C72.1768 351.838 72.1074 352.234 72.1074 352.672C72.1074 353.121 72.1777 353.518 72.3184 353.861C72.459 354.205 72.668 354.474 72.9453 354.667C73.2227 354.86 73.5664 354.957 73.9766 354.957ZM78.7109 356V349.449H79.7656V356H78.7109ZM79.2441 348.377C79.0449 348.377 78.873 348.309 78.7285 348.172C78.584 348.035 78.5117 347.871 78.5117 347.68C78.5117 347.484 78.584 347.319 78.7285 347.185C78.873 347.05 79.0449 346.982 79.2441 346.982C79.4473 346.982 79.6211 347.05 79.7656 347.185C79.9102 347.319 79.9824 347.484 79.9824 347.68C79.9824 347.871 79.9102 348.035 79.7656 348.172C79.6211 348.309 79.4473 348.377 79.2441 348.377ZM82.6719 352.074V356H81.6172V349.449H82.6309L82.6367 351.037H82.4902C82.6895 350.432 82.9736 350.002 83.3428 349.748C83.7119 349.494 84.1445 349.367 84.6406 349.367C85.082 349.367 85.4688 349.458 85.8008 349.64C86.1328 349.821 86.3916 350.095 86.5771 350.46C86.7627 350.825 86.8555 351.285 86.8555 351.84V356H85.8008V351.928C85.8008 351.424 85.6689 351.029 85.4053 350.744C85.1416 350.459 84.7812 350.316 84.3242 350.316C84.0117 350.316 83.7305 350.385 83.4805 350.521C83.2305 350.658 83.0332 350.857 82.8887 351.119C82.7441 351.381 82.6719 351.699 82.6719 352.074ZM91.4609 356.141C90.8281 356.141 90.2822 356 89.8232 355.719C89.3643 355.438 89.0107 355.045 88.7627 354.541C88.5146 354.037 88.3906 353.449 88.3906 352.777C88.3906 352.105 88.5117 351.514 88.7539 351.002C88.9961 350.49 89.3389 350.09 89.7822 349.801C90.2256 349.512 90.7441 349.367 91.3379 349.367C91.6855 349.367 92.0283 349.425 92.3662 349.54C92.7041 349.655 93.0107 349.841 93.2861 350.097C93.5615 350.353 93.7812 350.689 93.9453 351.107C94.1094 351.525 94.1914 352.037 94.1914 352.643V353.082H89.1055V352.191H93.623L93.1309 352.52C93.1309 352.09 93.0635 351.708 92.9287 351.374C92.7939 351.04 92.5938 350.778 92.3281 350.589C92.0625 350.399 91.7324 350.305 91.3379 350.305C90.9434 350.305 90.6055 350.401 90.3242 350.595C90.043 350.788 89.8281 351.04 89.6797 351.351C89.5312 351.661 89.457 351.994 89.457 352.35V352.941C89.457 353.426 89.541 353.837 89.709 354.175C89.877 354.513 90.1123 354.769 90.415 354.942C90.7178 355.116 91.0684 355.203 91.4668 355.203C91.7246 355.203 91.959 355.166 92.1699 355.092C92.3809 355.018 92.5625 354.905 92.7148 354.755C92.8672 354.604 92.9844 354.418 93.0664 354.195L94.0859 354.477C93.9844 354.805 93.8125 355.094 93.5703 355.344C93.3281 355.594 93.0283 355.789 92.6709 355.93C92.3135 356.07 91.9102 356.141 91.4609 356.141ZM98.457 356.141C97.8242 356.141 97.2783 356 96.8193 355.719C96.3604 355.438 96.0068 355.045 95.7588 354.541C95.5107 354.037 95.3867 353.449 95.3867 352.777C95.3867 352.105 95.5078 351.514 95.75 351.002C95.9922 350.49 96.335 350.09 96.7783 349.801C97.2217 349.512 97.7402 349.367 98.334 349.367C98.6816 349.367 99.0244 349.425 99.3623 349.54C99.7002 349.655 100.007 349.841 100.282 350.097C100.558 350.353 100.777 350.689 100.941 351.107C101.105 351.525 101.188 352.037 101.188 352.643V353.082H96.1016V352.191H100.619L100.127 352.52C100.127 352.09 100.06 351.708 99.9248 351.374C99.79 351.04 99.5898 350.778 99.3242 350.589C99.0586 350.399 98.7285 350.305 98.334 350.305C97.9395 350.305 97.6016 350.401 97.3203 350.595C97.0391 350.788 96.8242 351.04 96.6758 351.351C96.5273 351.661 96.4531 351.994 96.4531 352.35V352.941C96.4531 353.426 96.5371 353.837 96.7051 354.175C96.873 354.513 97.1084 354.769 97.4111 354.942C97.7139 355.116 98.0645 355.203 98.4629 355.203C98.7207 355.203 98.9551 355.166 99.166 355.092C99.377 355.018 99.5586 354.905 99.7109 354.755C99.8633 354.604 99.9805 354.418 100.062 354.195L101.082 354.477C100.98 354.805 100.809 355.094 100.566 355.344C100.324 355.594 100.024 355.789 99.667 355.93C99.3096 356.07 98.9062 356.141 98.457 356.141ZM102.699 356V349.449H103.719V350.457H103.789C103.91 350.125 104.126 349.858 104.437 349.657C104.747 349.456 105.098 349.355 105.488 349.355C105.566 349.355 105.659 349.357 105.767 349.361C105.874 349.365 105.959 349.369 106.021 349.373V350.434C105.99 350.426 105.912 350.414 105.787 350.398C105.662 350.383 105.529 350.375 105.389 350.375C105.076 350.375 104.796 350.44 104.548 350.571C104.3 350.702 104.105 350.882 103.965 351.11C103.824 351.339 103.754 351.602 103.754 351.898V356H102.699Z" fill="#475569"/>
<rect x="139.994" y="347" width="10" height="10" rx="5" fill="#9A2DFF"/>
<path d="M161.773 356H159.664V355.016H161.703C162.414 355.016 163.003 354.88 163.47 354.608C163.937 354.337 164.285 353.947 164.516 353.439C164.746 352.932 164.861 352.324 164.861 351.617C164.861 350.918 164.747 350.317 164.519 349.815C164.29 349.313 163.95 348.928 163.499 348.658C163.048 348.389 162.484 348.254 161.809 348.254H159.617V347.27H161.885C162.736 347.27 163.464 347.443 164.067 347.791C164.671 348.139 165.134 348.638 165.456 349.288C165.778 349.938 165.939 350.715 165.939 351.617C165.939 352.527 165.777 353.31 165.453 353.964C165.129 354.618 164.656 355.121 164.035 355.473C163.414 355.824 162.66 356 161.773 356ZM160.162 347.27V356H159.049V347.27H160.162ZM169.414 356.152C169 356.152 168.624 356.074 168.286 355.918C167.948 355.762 167.68 355.533 167.48 355.232C167.281 354.932 167.182 354.566 167.182 354.137C167.182 353.762 167.256 353.457 167.404 353.223C167.553 352.988 167.751 352.804 167.999 352.669C168.247 352.534 168.521 352.434 168.822 352.367C169.123 352.301 169.426 352.248 169.73 352.209C170.121 352.158 170.439 352.119 170.686 352.092C170.932 352.064 171.114 352.018 171.233 351.951C171.353 351.885 171.412 351.771 171.412 351.611V351.576C171.412 351.303 171.361 351.071 171.26 350.882C171.158 350.692 171.006 350.547 170.803 350.445C170.6 350.344 170.346 350.293 170.041 350.293C169.729 350.293 169.461 350.342 169.238 350.439C169.016 350.537 168.835 350.659 168.696 350.806C168.558 350.952 168.453 351.102 168.383 351.254L167.369 350.92C167.537 350.521 167.764 350.21 168.049 349.985C168.334 349.761 168.648 349.602 168.992 349.508C169.336 349.414 169.676 349.367 170.012 349.367C170.23 349.367 170.479 349.394 170.759 349.446C171.038 349.499 171.308 349.604 171.567 349.76C171.827 349.916 172.042 350.147 172.212 350.454C172.382 350.761 172.467 351.17 172.467 351.682V356H171.43V355.109H171.359C171.285 355.262 171.166 355.419 171.002 355.581C170.838 355.743 170.625 355.879 170.363 355.988C170.102 356.098 169.785 356.152 169.414 356.152ZM169.596 355.221C169.986 355.221 170.316 355.145 170.586 354.992C170.855 354.84 171.061 354.642 171.201 354.397C171.342 354.153 171.412 353.898 171.412 353.633V352.725C171.369 352.775 171.275 352.821 171.131 352.862C170.986 352.903 170.821 352.939 170.636 352.971C170.45 353.002 170.271 353.028 170.097 353.05C169.923 353.071 169.785 353.088 169.684 353.1C169.43 353.131 169.192 353.185 168.972 353.261C168.751 353.337 168.574 353.448 168.441 353.595C168.309 353.741 168.242 353.939 168.242 354.189C168.242 354.416 168.301 354.605 168.418 354.758C168.535 354.91 168.695 355.025 168.898 355.104C169.102 355.182 169.334 355.221 169.596 355.221ZM176.896 349.449V350.352H173.51V349.449H176.896ZM174.494 347.891H175.549V354.301C175.549 354.594 175.608 354.808 175.728 354.942C175.847 355.077 176.045 355.145 176.322 355.145C176.389 355.145 176.474 355.137 176.577 355.121C176.681 355.105 176.775 355.09 176.861 355.074L177.078 355.965C176.969 356.004 176.845 356.033 176.706 356.053C176.567 356.072 176.43 356.082 176.293 356.082C175.727 356.082 175.285 355.933 174.969 355.634C174.652 355.335 174.494 354.918 174.494 354.383V347.891ZM180.137 356.152C179.723 356.152 179.347 356.074 179.009 355.918C178.671 355.762 178.402 355.533 178.203 355.232C178.004 354.932 177.904 354.566 177.904 354.137C177.904 353.762 177.979 353.457 178.127 353.223C178.275 352.988 178.474 352.804 178.722 352.669C178.97 352.534 179.244 352.434 179.545 352.367C179.846 352.301 180.148 352.248 180.453 352.209C180.844 352.158 181.162 352.119 181.408 352.092C181.654 352.064 181.837 352.018 181.956 351.951C182.075 351.885 182.135 351.771 182.135 351.611V351.576C182.135 351.303 182.084 351.071 181.982 350.882C181.881 350.692 181.729 350.547 181.525 350.445C181.322 350.344 181.068 350.293 180.764 350.293C180.451 350.293 180.184 350.342 179.961 350.439C179.738 350.537 179.558 350.659 179.419 350.806C179.28 350.952 179.176 351.102 179.105 351.254L178.092 350.92C178.26 350.521 178.486 350.21 178.771 349.985C179.057 349.761 179.371 349.602 179.715 349.508C180.059 349.414 180.398 349.367 180.734 349.367C180.953 349.367 181.202 349.394 181.481 349.446C181.761 349.499 182.03 349.604 182.29 349.76C182.55 349.916 182.765 350.147 182.935 350.454C183.104 350.761 183.189 351.17 183.189 351.682V356H182.152V355.109H182.082C182.008 355.262 181.889 355.419 181.725 355.581C181.561 355.743 181.348 355.879 181.086 355.988C180.824 356.098 180.508 356.152 180.137 356.152ZM180.318 355.221C180.709 355.221 181.039 355.145 181.309 354.992C181.578 354.84 181.783 354.642 181.924 354.397C182.064 354.153 182.135 353.898 182.135 353.633V352.725C182.092 352.775 181.998 352.821 181.854 352.862C181.709 352.903 181.544 352.939 181.358 352.971C181.173 353.002 180.993 353.028 180.819 353.05C180.646 353.071 180.508 353.088 180.406 353.1C180.152 353.131 179.915 353.185 179.694 353.261C179.474 353.337 179.297 353.448 179.164 353.595C179.031 353.741 178.965 353.939 178.965 354.189C178.965 354.416 179.023 354.605 179.141 354.758C179.258 354.91 179.418 355.025 179.621 355.104C179.824 355.182 180.057 355.221 180.318 355.221ZM188.545 356V347.27H193.865V348.254H189.658V351.102H193.578V352.086H189.658V355.016H193.918V356H188.545ZM196.684 352.074V356H195.629V349.449H196.643L196.648 351.037H196.502C196.701 350.432 196.985 350.002 197.354 349.748C197.724 349.494 198.156 349.367 198.652 349.367C199.094 349.367 199.48 349.458 199.812 349.64C200.145 349.821 200.403 350.095 200.589 350.46C200.774 350.825 200.867 351.285 200.867 351.84V356H199.812V351.928C199.812 351.424 199.681 351.029 199.417 350.744C199.153 350.459 198.793 350.316 198.336 350.316C198.023 350.316 197.742 350.385 197.492 350.521C197.242 350.658 197.045 350.857 196.9 351.119C196.756 351.381 196.684 351.699 196.684 352.074ZM205.373 358.59C204.889 358.59 204.47 358.528 204.116 358.405C203.763 358.282 203.469 358.119 203.234 357.916C203 357.713 202.814 357.492 202.678 357.254L203.533 356.703C203.627 356.828 203.743 356.967 203.882 357.119C204.021 357.271 204.208 357.401 204.444 357.509C204.681 357.616 204.99 357.67 205.373 357.67C205.896 357.67 206.327 357.545 206.665 357.295C207.003 357.045 207.172 356.65 207.172 356.111V354.799H207.072C206.998 354.924 206.894 355.072 206.759 355.244C206.624 355.416 206.431 355.567 206.179 355.698C205.927 355.829 205.59 355.895 205.168 355.895C204.645 355.895 204.174 355.771 203.756 355.522C203.338 355.274 203.008 354.912 202.766 354.436C202.523 353.959 202.402 353.379 202.402 352.695C202.402 352.02 202.521 351.433 202.76 350.935C202.998 350.437 203.327 350.051 203.747 349.777C204.167 349.504 204.648 349.367 205.191 349.367C205.613 349.367 205.95 349.437 206.202 349.575C206.454 349.714 206.648 349.873 206.785 350.053C206.922 350.232 207.027 350.381 207.102 350.498H207.201V349.449H208.227V356.17C208.227 356.732 208.1 357.192 207.846 357.55C207.592 357.907 207.249 358.17 206.817 358.338C206.386 358.506 205.904 358.59 205.373 358.59ZM205.344 354.957C205.742 354.957 206.078 354.866 206.352 354.685C206.625 354.503 206.832 354.241 206.973 353.899C207.113 353.558 207.184 353.148 207.184 352.672C207.184 352.207 207.114 351.798 206.976 351.444C206.837 351.091 206.631 350.813 206.357 350.612C206.084 350.411 205.746 350.311 205.344 350.311C204.93 350.311 204.584 350.417 204.307 350.63C204.029 350.843 203.821 351.127 203.683 351.482C203.544 351.838 203.475 352.234 203.475 352.672C203.475 353.121 203.545 353.518 203.686 353.861C203.826 354.205 204.035 354.474 204.312 354.667C204.59 354.86 204.934 354.957 205.344 354.957ZM210.078 356V349.449H211.133V356H210.078ZM210.611 348.377C210.412 348.377 210.24 348.309 210.096 348.172C209.951 348.035 209.879 347.871 209.879 347.68C209.879 347.484 209.951 347.319 210.096 347.185C210.24 347.05 210.412 346.982 210.611 346.982C210.814 346.982 210.988 347.05 211.133 347.185C211.277 347.319 211.35 347.484 211.35 347.68C211.35 347.871 211.277 348.035 211.133 348.172C210.988 348.309 210.814 348.377 210.611 348.377ZM214.039 352.074V356H212.984V349.449H213.998L214.004 351.037H213.857C214.057 350.432 214.341 350.002 214.71 349.748C215.079 349.494 215.512 349.367 216.008 349.367C216.449 349.367 216.836 349.458 217.168 349.64C217.5 349.821 217.759 350.095 217.944 350.46C218.13 350.825 218.223 351.285 218.223 351.84V356H217.168V351.928C217.168 351.424 217.036 351.029 216.772 350.744C216.509 350.459 216.148 350.316 215.691 350.316C215.379 350.316 215.098 350.385 214.848 350.521C214.598 350.658 214.4 350.857 214.256 351.119C214.111 351.381 214.039 351.699 214.039 352.074ZM222.828 356.141C222.195 356.141 221.649 356 221.19 355.719C220.731 355.438 220.378 355.045 220.13 354.541C219.882 354.037 219.758 353.449 219.758 352.777C219.758 352.105 219.879 351.514 220.121 351.002C220.363 350.49 220.706 350.09 221.149 349.801C221.593 349.512 222.111 349.367 222.705 349.367C223.053 349.367 223.396 349.425 223.733 349.54C224.071 349.655 224.378 349.841 224.653 350.097C224.929 350.353 225.148 350.689 225.312 351.107C225.477 351.525 225.559 352.037 225.559 352.643V353.082H220.473V352.191H224.99L224.498 352.52C224.498 352.09 224.431 351.708 224.296 351.374C224.161 351.04 223.961 350.778 223.695 350.589C223.43 350.399 223.1 350.305 222.705 350.305C222.311 350.305 221.973 350.401 221.691 350.595C221.41 350.788 221.195 351.04 221.047 351.351C220.898 351.661 220.824 351.994 220.824 352.35V352.941C220.824 353.426 220.908 353.837 221.076 354.175C221.244 354.513 221.479 354.769 221.782 354.942C222.085 355.116 222.436 355.203 222.834 355.203C223.092 355.203 223.326 355.166 223.537 355.092C223.748 355.018 223.93 354.905 224.082 354.755C224.234 354.604 224.352 354.418 224.434 354.195L225.453 354.477C225.352 354.805 225.18 355.094 224.938 355.344C224.695 355.594 224.396 355.789 224.038 355.93C223.681 356.07 223.277 356.141 222.828 356.141ZM229.824 356.141C229.191 356.141 228.646 356 228.187 355.719C227.728 355.438 227.374 355.045 227.126 354.541C226.878 354.037 226.754 353.449 226.754 352.777C226.754 352.105 226.875 351.514 227.117 351.002C227.359 350.49 227.702 350.09 228.146 349.801C228.589 349.512 229.107 349.367 229.701 349.367C230.049 349.367 230.392 349.425 230.729 349.54C231.067 349.655 231.374 349.841 231.649 350.097C231.925 350.353 232.145 350.689 232.309 351.107C232.473 351.525 232.555 352.037 232.555 352.643V353.082H227.469V352.191H231.986L231.494 352.52C231.494 352.09 231.427 351.708 231.292 351.374C231.157 351.04 230.957 350.778 230.691 350.589C230.426 350.399 230.096 350.305 229.701 350.305C229.307 350.305 228.969 350.401 228.688 350.595C228.406 350.788 228.191 351.04 228.043 351.351C227.895 351.661 227.82 351.994 227.82 352.35V352.941C227.82 353.426 227.904 353.837 228.072 354.175C228.24 354.513 228.476 354.769 228.778 354.942C229.081 355.116 229.432 355.203 229.83 355.203C230.088 355.203 230.322 355.166 230.533 355.092C230.744 355.018 230.926 354.905 231.078 354.755C231.23 354.604 231.348 354.418 231.43 354.195L232.449 354.477C232.348 354.805 232.176 355.094 231.934 355.344C231.691 355.594 231.392 355.789 231.034 355.93C230.677 356.07 230.273 356.141 229.824 356.141ZM234.066 356V349.449H235.086V350.457H235.156C235.277 350.125 235.493 349.858 235.804 349.657C236.114 349.456 236.465 349.355 236.855 349.355C236.934 349.355 237.026 349.357 237.134 349.361C237.241 349.365 237.326 349.369 237.389 349.373V350.434C237.357 350.426 237.279 350.414 237.154 350.398C237.029 350.383 236.896 350.375 236.756 350.375C236.443 350.375 236.163 350.44 235.915 350.571C235.667 350.702 235.473 350.882 235.332 351.11C235.191 351.339 235.121 351.602 235.121 351.898V356H234.066Z" fill="#475569"/>
<path d="M128 25.6004C153.938 25.6004 178.911 35.4443 197.873 53.1438C216.835 70.8433 228.373 95.0793 230.157 120.957" stroke="#1437FF" stroke-width="30.72"/>
<path d="M230.157 120.957C231.789 144.633 225.148 168.14 211.367 187.461C197.586 206.783 177.523 220.717 154.606 226.884" stroke="#6A2EFF" stroke-width="30.72"/>
<path d="M154.606 226.884C135.917 231.912 116.187 231.541 97.7001 225.815C79.2136 220.089 62.7283 209.241 50.1549 194.528" stroke="#00B7FF" stroke-width="30.72"/>
<path d="M50.1549 194.528C38.9941 181.469 31.2981 165.812 27.7755 148.998C24.253 132.184 25.017 114.755 29.9973 98.3136" stroke="#00D09C" stroke-width="30.72"/>
<path d="M29.9973 98.3136C37.5173 73.4887 54.1781 52.4427 76.6147 39.4264" stroke="#FFD166" stroke-width="30.72"/>
<path d="M76.6147 39.4264C92.3758 30.2828 110.291 25.5105 128.512 25.6017" stroke="#9A2DFF" stroke-width="30.72"/>
<path d="M103.228 112.039V129.5H99.6629V115.19H99.5457L95.5421 118.022V114.745L99.4023 112.039H103.228ZM112.891 129.734C111.422 129.734 110.167 129.381 109.126 128.673C108.086 127.966 107.288 126.946 106.734 125.614C106.18 124.282 105.903 122.67 105.903 120.778C105.903 118.894 106.181 117.283 106.737 115.946C107.292 114.608 108.09 113.584 109.13 112.872C110.171 112.161 111.424 111.805 112.891 111.805C114.358 111.805 115.614 112.161 116.658 112.874C117.703 113.587 118.501 114.612 119.053 115.948C119.605 117.284 119.881 118.895 119.881 120.782C119.881 122.669 119.606 124.279 119.056 125.612C118.505 126.946 117.71 127.966 116.669 128.673C115.629 129.381 114.369 129.734 112.891 129.734ZM112.893 126.764C113.609 126.764 114.215 126.531 114.712 126.065C115.209 125.599 115.587 124.92 115.847 124.029C116.106 123.138 116.236 122.055 116.236 120.78C116.236 119.499 116.106 118.41 115.847 117.513C115.587 116.616 115.208 115.933 114.711 115.463C114.213 114.992 113.607 114.757 112.894 114.757C112.18 114.757 111.574 114.993 111.075 115.465C110.576 115.937 110.197 116.621 109.937 117.516C109.678 118.411 109.548 119.499 109.548 120.78C109.548 122.055 109.677 123.138 109.934 124.029C110.192 124.92 110.57 125.599 111.07 126.065C111.569 126.531 112.177 126.764 112.893 126.764ZM129.075 129.734C127.605 129.734 126.35 129.381 125.31 128.673C124.269 127.966 123.472 126.946 122.918 125.614C122.364 124.282 122.087 122.67 122.087 120.778C122.087 118.894 122.365 117.283 122.92 115.946C123.476 114.608 124.274 113.584 125.314 112.872C126.354 112.161 127.608 111.805 129.075 111.805C130.542 111.805 131.797 112.161 132.842 112.874C133.886 113.587 134.685 114.612 135.236 115.948C135.788 117.284 136.064 118.895 136.064 120.782C136.064 122.669 135.789 124.279 135.239 125.612C134.689 126.946 133.894 127.966 132.853 128.673C131.812 129.381 130.553 129.734 129.075 129.734ZM129.076 126.764C129.792 126.764 130.399 126.531 130.895 126.065C131.392 125.599 131.77 124.92 132.03 124.029C132.29 123.138 132.42 122.055 132.42 120.78C132.42 119.499 132.29 118.41 132.03 117.513C131.77 116.616 131.392 115.933 130.894 115.463C130.397 114.992 129.791 114.757 129.077 114.757C128.364 114.757 127.758 114.993 127.259 115.465C126.76 115.937 126.381 116.621 126.121 117.516C125.861 118.411 125.731 119.499 125.731 120.78C125.731 122.055 125.86 123.138 126.118 124.029C126.375 124.92 126.754 125.599 127.253 126.065C127.753 126.531 128.36 126.764 129.076 126.764ZM143.153 120.376C142.331 120.376 141.636 120.2 141.07 119.848C140.503 119.496 140.074 119.028 139.783 118.442C139.492 117.857 139.346 117.219 139.346 116.527V115.613C139.346 114.914 139.495 114.272 139.792 113.688C140.089 113.105 140.522 112.637 141.091 112.285C141.66 111.934 142.347 111.758 143.153 111.758C143.988 111.758 144.686 111.934 145.249 112.285C145.812 112.637 146.238 113.105 146.528 113.688C146.817 114.272 146.962 114.914 146.962 115.613V116.527C146.962 117.227 146.815 117.869 146.522 118.452C146.229 119.035 145.8 119.502 145.234 119.851C144.669 120.201 143.976 120.376 143.153 120.376ZM143.153 118.227C143.68 118.227 144.038 118.05 144.23 117.697C144.422 117.344 144.517 116.954 144.517 116.527V115.613C144.517 115.19 144.425 114.797 144.242 114.434C144.058 114.071 143.695 113.889 143.153 113.889C142.639 113.889 142.283 114.074 142.087 114.443C141.89 114.813 141.791 115.203 141.791 115.613V116.527C141.791 116.954 141.89 117.344 142.087 117.697C142.285 118.05 142.64 118.227 143.153 118.227ZM155.555 129.808C154.732 129.808 154.038 129.632 153.471 129.281C152.905 128.929 152.476 128.461 152.185 127.875C151.893 127.29 151.748 126.651 151.748 125.96V125.046C151.748 124.346 151.896 123.705 152.194 123.121C152.491 122.537 152.924 122.07 153.493 121.718C154.061 121.366 154.749 121.19 155.555 121.19C156.389 121.19 157.089 121.366 157.654 121.718C158.218 122.07 158.645 122.537 158.932 123.121C159.22 123.705 159.364 124.346 159.364 125.046V125.96C159.364 126.66 159.217 127.301 158.924 127.885C158.63 128.468 158.201 128.934 157.636 129.284C157.071 129.633 156.377 129.808 155.555 129.808ZM155.555 127.659C156.081 127.659 156.44 127.483 156.632 127.129C156.823 126.776 156.919 126.386 156.919 125.96V125.046C156.919 124.623 156.827 124.23 156.643 123.867C156.46 123.503 156.097 123.321 155.555 123.321C155.041 123.321 154.685 123.506 154.488 123.876C154.291 124.246 154.193 124.636 154.193 125.046V125.96C154.193 126.386 154.291 126.776 154.489 127.129C154.687 127.483 155.042 127.659 155.555 127.659ZM142.081 129.5L154.081 112.039H156.511L144.511 129.5H142.081Z" fill="#071B2D"/>
<path d="M110.788 141.462V140.225H116.729V141.462H114.506V147.5H113.014V141.462H110.788ZM121.132 147.598C120.489 147.598 119.911 147.451 119.398 147.158C118.885 146.865 118.48 146.44 118.182 145.883C117.885 145.327 117.736 144.655 117.736 143.867C117.736 143.075 117.885 142.4 118.182 141.842C118.48 141.285 118.885 140.86 119.398 140.567C119.911 140.273 120.489 140.127 121.132 140.127C121.775 140.127 122.352 140.273 122.863 140.567C123.375 140.86 123.779 141.285 124.077 141.842C124.374 142.4 124.523 143.075 124.523 143.867C124.523 144.657 124.374 145.329 124.077 145.886C123.779 146.442 123.375 146.867 122.863 147.159C122.352 147.451 121.775 147.598 121.132 147.598ZM121.132 146.274C121.509 146.274 121.838 146.182 122.119 145.997C122.4 145.813 122.619 145.541 122.776 145.183C122.933 144.824 123.011 144.385 123.011 143.867C123.011 143.344 122.933 142.903 122.776 142.543C122.619 142.184 122.4 141.912 122.119 141.727C121.838 141.543 121.509 141.45 121.132 141.45C120.755 141.45 120.426 141.543 120.144 141.728C119.862 141.914 119.642 142.186 119.485 142.546C119.327 142.905 119.248 143.346 119.248 143.867C119.248 144.385 119.327 144.824 119.485 145.181C119.642 145.539 119.862 145.811 120.144 145.996C120.426 146.182 120.755 146.274 121.132 146.274ZM125.533 141.462V140.225H131.474V141.462H129.252V147.5H127.76V141.462H125.533ZM131.689 147.5L134.178 140.225H136.128L138.679 147.5H137.023L135.857 143.99C135.715 143.537 135.572 143.041 135.428 142.501C135.284 141.962 135.133 141.374 134.973 140.738H135.296C135.142 141.377 134.997 141.968 134.862 142.51C134.728 143.053 134.593 143.546 134.459 143.99L133.335 147.5H131.689ZM133.244 145.812V144.642H137.125V145.812H133.244ZM140.074 147.5V140.225H141.566V146.263H144.704V147.5H140.074Z" fill="#94A3B8"/>
</svg>
