<svg width="265" height="230" viewBox="0 0 265 230" fill="none" xmlns="http://www.w3.org/2000/svg">
<path d="M132.5 12.1904C143.334 12.1904 154.062 14.3244 164.071 18.4704C174.081 22.6164 183.175 28.6933 190.836 36.3541C198.497 44.015 204.574 53.1097 208.72 63.119C212.866 73.1284 215 83.8564 215 94.6904C215 105.524 212.866 116.252 208.72 126.262C204.574 136.271 198.497 145.366 190.836 153.027C183.175 160.688 174.081 166.764 164.071 170.91C154.062 175.057 143.334 177.19 132.5 177.19C121.666 177.19 110.938 175.057 100.929 170.91C90.9192 166.764 81.8245 160.688 74.1637 153.027C66.5029 145.366 60.4259 136.271 56.2799 126.262C52.1339 116.252 50 105.524 50 94.6904C50 83.8564 52.1339 73.1284 56.2799 63.119C60.426 53.1097 66.5029 44.0149 74.1637 36.3541C81.8245 28.6933 90.9193 22.6164 100.929 18.4704C110.938 14.3244 121.666 12.1904 132.5 12.1904L132.5 12.1904Z" stroke="#F1F5F9" stroke-width="12" stroke-linecap="round"/>
<g filter="url(#filter0_d_838_5199)">
<path d="M132.5 12C149.55 12 166.181 17.2824 180.105 27.1206C194.03 36.9588 204.565 50.8696 210.26 66.9397C215.956 83.0099 216.533 100.45 211.912 116.861C207.29 133.273 197.698 147.849 184.454 158.586C171.21 169.323 154.964 175.693 137.952 176.82C120.94 177.946 103.996 173.775 89.4515 164.878C74.907 155.982 63.476 142.797 56.7309 127.139C49.9857 111.48 48.2575 94.1163 51.7842 77.4354" stroke="#1437FF" stroke-width="12" stroke-linecap="round"/>
</g>
<path d="M97.4659 92.4688C96.4186 92.4622 95.4077 92.2865 94.4332 91.9419C93.4654 91.5972 92.5971 91.037 91.8281 90.2615C91.0592 89.4859 90.4493 88.4584 89.9986 87.1791C89.5545 85.8997 89.3324 84.3287 89.3324 82.466C89.339 80.7558 89.5346 79.2278 89.919 77.8822C90.3101 76.5299 90.867 75.3831 91.5895 74.4418C92.3187 73.5006 93.1903 72.7847 94.2045 72.2941C95.2188 71.797 96.3556 71.5484 97.6151 71.5484C98.974 71.5484 100.174 71.8135 101.214 72.3438C102.255 72.8675 103.09 73.5801 103.72 74.4816C104.357 75.3831 104.741 76.394 104.874 77.5143H100.628C100.462 76.805 100.114 76.2482 99.5838 75.8438C99.0535 75.4395 98.3973 75.2373 97.6151 75.2373C96.2893 75.2373 95.2817 75.814 94.5923 76.9674C93.9096 78.1208 93.5616 79.6885 93.5483 81.6705H93.6875C93.9924 81.0673 94.4034 80.5536 94.9205 80.1294C95.4441 79.6985 96.0374 79.3704 96.7003 79.145C97.3698 78.913 98.0758 78.797 98.8182 78.797C100.025 78.797 101.098 79.082 102.04 79.6521C102.981 80.2155 103.723 80.9911 104.267 81.9788C104.811 82.9665 105.082 84.0967 105.082 85.3694C105.082 86.7482 104.761 87.9745 104.118 89.0484C103.482 90.1222 102.59 90.9641 101.443 91.574C100.303 92.1772 98.9773 92.4755 97.4659 92.4688ZM97.446 89.0882C98.1089 89.0882 98.7022 88.9291 99.2259 88.6109C99.7495 88.2927 100.161 87.8618 100.459 87.3183C100.757 86.7747 100.906 86.1649 100.906 85.4887C100.906 84.8126 100.757 84.2061 100.459 83.6691C100.167 83.1322 99.7628 82.7046 99.2457 82.3865C98.7287 82.0683 98.1387 81.9092 97.4759 81.9092C96.9787 81.9092 96.518 82.002 96.0938 82.1876C95.6761 82.3732 95.3082 82.6317 94.9901 82.9632C94.6785 83.2946 94.4332 83.6791 94.2543 84.1166C94.0753 84.5474 93.9858 85.0081 93.9858 85.4987C93.9858 86.1549 94.1349 86.7548 94.4332 87.2984C94.7382 87.8419 95.1491 88.2761 95.6662 88.6009C96.1899 88.9258 96.7831 89.0882 97.446 89.0882ZM109.803 92.449C109.147 92.449 108.583 92.2169 108.113 91.7529C107.649 91.2823 107.417 90.7188 107.417 90.0626C107.417 89.413 107.649 88.8561 108.113 88.3921C108.583 87.9281 109.147 87.6961 109.803 87.6961C110.439 87.6961 110.996 87.9281 111.473 88.3921C111.951 88.8561 112.189 89.413 112.189 90.0626C112.189 90.5001 112.077 90.9011 111.851 91.2657C111.632 91.6237 111.344 91.912 110.986 92.1308C110.628 92.3429 110.234 92.449 109.803 92.449ZM122.791 92.6379C121.081 92.6312 119.609 92.2103 118.376 91.3751C117.15 90.5399 116.205 89.3301 115.543 87.7458C114.886 86.1615 114.562 84.2558 114.568 82.0285C114.568 79.8079 114.896 77.9153 115.553 76.3509C116.215 74.7865 117.16 73.5967 118.386 72.7813C119.619 71.9594 121.088 71.5484 122.791 71.5484C124.495 71.5484 125.96 71.9594 127.186 72.7813C128.419 73.6033 129.367 74.7965 130.03 76.3609C130.693 77.9186 131.021 79.8079 131.014 82.0285C131.014 84.2624 130.683 86.1715 130.02 87.7558C129.364 89.3401 128.422 90.5498 127.196 91.385C125.97 92.2203 124.501 92.6379 122.791 92.6379ZM122.791 89.0683C123.958 89.0683 124.889 88.4816 125.585 87.3083C126.281 86.135 126.626 84.3751 126.619 82.0285C126.619 80.484 126.46 79.198 126.142 78.1705C125.83 77.1431 125.386 76.3708 124.81 75.8538C124.24 75.3367 123.567 75.0782 122.791 75.0782C121.631 75.0782 120.703 75.6582 120.007 76.8183C119.311 77.9783 118.96 79.7151 118.953 82.0285C118.953 83.5929 119.109 84.8988 119.42 85.9461C119.739 86.9868 120.186 87.769 120.763 88.2927C121.339 88.8097 122.016 89.0683 122.791 89.0683Z" fill="#1437FF"/>
<path d="M140.178 92.1904V77.645H143.254V89.6549H149.489V92.1904H140.178ZM151.526 92.1904V77.645H157.265C158.368 77.645 159.308 77.8557 160.084 78.2771C160.861 78.6937 161.453 79.2738 161.86 80.0171C162.272 80.7558 162.478 81.608 162.478 82.574C162.478 83.5399 162.269 84.3921 161.853 85.1308C161.436 85.8694 160.832 86.4447 160.042 86.8566C159.256 87.2686 158.304 87.4745 157.186 87.4745H153.529V85.01H156.689C157.281 85.01 157.769 84.9082 158.152 84.7046C158.541 84.4963 158.829 84.2098 159.019 83.8453C159.213 83.4759 159.31 83.0522 159.31 82.574C159.31 82.091 159.213 81.6696 159.019 81.3097C158.829 80.9452 158.541 80.6634 158.152 80.4646C157.764 80.261 157.272 80.1592 156.675 80.1592H154.601V92.1904H151.526ZM165.303 92.1904H162.007L167.028 77.645H170.991L176.006 92.1904H172.71L169.067 80.9688H168.953L165.303 92.1904ZM165.097 86.4731H172.881V88.8737H165.097V86.4731Z" fill="#64696E"/>
<line x1="84" y1="102.69" x2="181" y2="102.69" stroke="#1437FF"/>
<path d="M87.9692 123.19H86.1567L88.9185 115.19H91.0981L93.856 123.19H92.0435L90.0396 117.019H89.9771L87.9692 123.19ZM87.856 120.046H92.1372V121.366H87.856V120.046ZM99.6294 117.19L97.5317 123.19H95.6567L93.5591 117.19H95.3169L96.563 121.483H96.6255L97.8677 117.19H99.6294ZM103.022 123.308C102.405 123.308 101.874 123.183 101.428 122.933C100.986 122.68 100.644 122.323 100.405 121.862C100.165 121.399 100.045 120.851 100.045 120.218C100.045 119.601 100.165 119.059 100.405 118.593C100.644 118.127 100.982 117.763 101.417 117.503C101.854 117.243 102.367 117.112 102.956 117.112C103.351 117.112 103.72 117.176 104.061 117.304C104.405 117.429 104.704 117.618 104.959 117.87C105.217 118.123 105.418 118.44 105.561 118.823C105.704 119.203 105.776 119.649 105.776 120.159V120.616H100.709V119.585H104.209C104.209 119.345 104.157 119.133 104.053 118.948C103.949 118.763 103.805 118.619 103.62 118.515C103.437 118.408 103.225 118.354 102.983 118.354C102.73 118.354 102.506 118.413 102.311 118.53C102.118 118.645 101.967 118.8 101.858 118.995C101.749 119.188 101.693 119.403 101.69 119.64V120.62C101.69 120.917 101.745 121.174 101.854 121.39C101.966 121.606 102.124 121.772 102.327 121.89C102.53 122.007 102.771 122.065 103.049 122.065C103.234 122.065 103.403 122.039 103.557 121.987C103.711 121.935 103.842 121.857 103.952 121.753C104.061 121.649 104.144 121.521 104.202 121.37L105.741 121.472C105.663 121.841 105.502 122.164 105.26 122.44C105.021 122.714 104.711 122.927 104.331 123.081C103.953 123.232 103.517 123.308 103.022 123.308ZM106.862 123.19V117.19H108.475V118.237H108.538C108.647 117.865 108.831 117.584 109.088 117.394C109.346 117.201 109.643 117.104 109.979 117.104C110.062 117.104 110.152 117.11 110.249 117.12C110.345 117.131 110.43 117.145 110.502 117.163V118.64C110.424 118.616 110.316 118.595 110.178 118.577C110.04 118.559 109.914 118.55 109.799 118.55C109.555 118.55 109.336 118.603 109.143 118.71C108.953 118.814 108.802 118.96 108.69 119.147C108.581 119.335 108.526 119.551 108.526 119.796V123.19H106.862ZM112.902 123.304C112.519 123.304 112.178 123.237 111.878 123.104C111.579 122.969 111.342 122.77 111.167 122.507C110.996 122.241 110.91 121.91 110.91 121.515C110.91 121.181 110.971 120.901 111.093 120.675C111.216 120.448 111.382 120.266 111.593 120.128C111.804 119.99 112.044 119.886 112.312 119.815C112.583 119.745 112.867 119.696 113.164 119.667C113.513 119.631 113.794 119.597 114.007 119.565C114.221 119.532 114.376 119.482 114.472 119.417C114.569 119.352 114.617 119.256 114.617 119.128V119.104C114.617 118.857 114.539 118.666 114.382 118.53C114.229 118.395 114.01 118.327 113.726 118.327C113.427 118.327 113.188 118.394 113.011 118.526C112.834 118.657 112.717 118.821 112.66 119.019L111.121 118.894C111.199 118.529 111.352 118.214 111.582 117.948C111.811 117.68 112.106 117.474 112.468 117.331C112.833 117.185 113.255 117.112 113.734 117.112C114.067 117.112 114.386 117.151 114.691 117.229C114.998 117.308 115.27 117.429 115.507 117.593C115.747 117.757 115.936 117.968 116.074 118.226C116.212 118.481 116.281 118.787 116.281 119.144V123.19H114.703V122.358H114.656C114.559 122.546 114.431 122.711 114.269 122.854C114.108 122.995 113.914 123.106 113.687 123.187C113.46 123.265 113.199 123.304 112.902 123.304ZM113.378 122.155C113.623 122.155 113.839 122.107 114.027 122.011C114.214 121.912 114.361 121.779 114.468 121.612C114.575 121.446 114.628 121.257 114.628 121.046V120.409C114.576 120.443 114.505 120.474 114.414 120.503C114.325 120.529 114.225 120.554 114.113 120.577C114.001 120.598 113.889 120.618 113.777 120.636C113.665 120.651 113.563 120.666 113.472 120.679C113.277 120.707 113.106 120.753 112.96 120.815C112.815 120.878 112.701 120.963 112.621 121.069C112.54 121.174 112.5 121.304 112.5 121.46C112.5 121.687 112.582 121.86 112.746 121.979C112.912 122.097 113.123 122.155 113.378 122.155ZM120.275 125.565C119.736 125.565 119.274 125.491 118.888 125.343C118.505 125.197 118.201 124.998 117.974 124.745C117.748 124.493 117.6 124.209 117.533 123.894L119.072 123.687C119.119 123.806 119.193 123.918 119.294 124.022C119.396 124.127 119.53 124.21 119.697 124.272C119.866 124.338 120.072 124.37 120.314 124.37C120.676 124.37 120.974 124.282 121.208 124.104C121.445 123.93 121.564 123.637 121.564 123.226V122.128H121.494C121.421 122.295 121.311 122.452 121.166 122.601C121.02 122.749 120.832 122.87 120.603 122.964C120.374 123.058 120.1 123.104 119.783 123.104C119.332 123.104 118.922 123 118.552 122.792C118.185 122.581 117.892 122.259 117.673 121.827C117.457 121.392 117.349 120.843 117.349 120.179C117.349 119.499 117.46 118.931 117.681 118.476C117.903 118.02 118.197 117.679 118.564 117.452C118.934 117.226 119.339 117.112 119.779 117.112C120.115 117.112 120.396 117.17 120.623 117.284C120.849 117.396 121.031 117.537 121.169 117.706C121.31 117.873 121.418 118.037 121.494 118.198H121.556V117.19H123.208V123.249C123.208 123.759 123.083 124.187 122.833 124.53C122.583 124.874 122.237 125.132 121.794 125.304C121.354 125.478 120.848 125.565 120.275 125.565ZM120.31 121.854C120.578 121.854 120.805 121.788 120.99 121.655C121.177 121.52 121.32 121.327 121.419 121.077C121.521 120.825 121.572 120.522 121.572 120.171C121.572 119.819 121.522 119.515 121.423 119.257C121.324 118.996 121.181 118.795 120.994 118.651C120.806 118.508 120.578 118.437 120.31 118.437C120.037 118.437 119.806 118.511 119.619 118.659C119.431 118.805 119.289 119.008 119.193 119.269C119.097 119.529 119.048 119.83 119.048 120.171C119.048 120.517 119.097 120.817 119.193 121.069C119.292 121.319 119.434 121.513 119.619 121.651C119.806 121.787 120.037 121.854 120.31 121.854ZM127.267 123.308C126.65 123.308 126.119 123.183 125.673 122.933C125.231 122.68 124.889 122.323 124.65 121.862C124.41 121.399 124.291 120.851 124.291 120.218C124.291 119.601 124.41 119.059 124.65 118.593C124.889 118.127 125.227 117.763 125.662 117.503C126.099 117.243 126.612 117.112 127.201 117.112C127.597 117.112 127.965 117.176 128.306 117.304C128.65 117.429 128.949 117.618 129.205 117.87C129.462 118.123 129.663 118.44 129.806 118.823C129.949 119.203 130.021 119.649 130.021 120.159V120.616H124.955V119.585H128.455C128.455 119.345 128.403 119.133 128.298 118.948C128.194 118.763 128.05 118.619 127.865 118.515C127.682 118.408 127.47 118.354 127.228 118.354C126.975 118.354 126.751 118.413 126.556 118.53C126.363 118.645 126.212 118.8 126.103 118.995C125.994 119.188 125.938 119.403 125.935 119.64V120.62C125.935 120.917 125.99 121.174 126.099 121.39C126.211 121.606 126.369 121.772 126.572 121.89C126.775 122.007 127.016 122.065 127.294 122.065C127.479 122.065 127.649 122.039 127.802 121.987C127.956 121.935 128.087 121.857 128.197 121.753C128.306 121.649 128.389 121.521 128.447 121.37L129.986 121.472C129.908 121.841 129.748 122.164 129.505 122.44C129.266 122.714 128.956 122.927 128.576 123.081C128.198 123.232 127.762 123.308 127.267 123.308ZM133.684 123.19V115.19H136.84C137.447 115.19 137.964 115.306 138.391 115.538C138.818 115.767 139.144 116.086 139.368 116.495C139.594 116.901 139.708 117.37 139.708 117.901C139.708 118.433 139.593 118.901 139.364 119.308C139.135 119.714 138.803 120.03 138.368 120.257C137.935 120.483 137.412 120.597 136.797 120.597H134.786V119.241H136.524C136.849 119.241 137.118 119.185 137.329 119.073C137.542 118.959 137.701 118.801 137.805 118.601C137.912 118.397 137.965 118.164 137.965 117.901C137.965 117.636 137.912 117.404 137.805 117.206C137.701 117.006 137.542 116.851 137.329 116.741C137.115 116.629 136.844 116.573 136.516 116.573H135.375V123.19H133.684ZM142.325 123.304C141.942 123.304 141.601 123.237 141.301 123.104C141.002 122.969 140.765 122.77 140.59 122.507C140.418 122.241 140.333 121.91 140.333 121.515C140.333 121.181 140.394 120.901 140.516 120.675C140.639 120.448 140.805 120.266 141.016 120.128C141.227 119.99 141.467 119.886 141.735 119.815C142.006 119.745 142.29 119.696 142.586 119.667C142.935 119.631 143.217 119.597 143.43 119.565C143.644 119.532 143.799 119.482 143.895 119.417C143.991 119.352 144.04 119.256 144.04 119.128V119.104C144.04 118.857 143.961 118.666 143.805 118.53C143.652 118.395 143.433 118.327 143.149 118.327C142.849 118.327 142.611 118.394 142.434 118.526C142.257 118.657 142.14 118.821 142.083 119.019L140.543 118.894C140.622 118.529 140.775 118.214 141.004 117.948C141.234 117.68 141.529 117.474 141.891 117.331C142.256 117.185 142.678 117.112 143.157 117.112C143.49 117.112 143.809 117.151 144.114 117.229C144.421 117.308 144.693 117.429 144.93 117.593C145.17 117.757 145.359 117.968 145.497 118.226C145.635 118.481 145.704 118.787 145.704 119.144V123.19H144.125V122.358H144.079C143.982 122.546 143.853 122.711 143.692 122.854C143.53 122.995 143.336 123.106 143.11 123.187C142.883 123.265 142.622 123.304 142.325 123.304ZM142.801 122.155C143.046 122.155 143.262 122.107 143.45 122.011C143.637 121.912 143.784 121.779 143.891 121.612C143.998 121.446 144.051 121.257 144.051 121.046V120.409C143.999 120.443 143.928 120.474 143.836 120.503C143.748 120.529 143.648 120.554 143.536 120.577C143.424 120.598 143.312 120.618 143.2 120.636C143.088 120.651 142.986 120.666 142.895 120.679C142.7 120.707 142.529 120.753 142.383 120.815C142.237 120.878 142.124 120.963 142.043 121.069C141.963 121.174 141.922 121.304 141.922 121.46C141.922 121.687 142.004 121.86 142.168 121.979C142.335 122.097 142.546 122.155 142.801 122.155ZM149.706 123.308C149.091 123.308 148.562 123.177 148.12 122.917C147.68 122.654 147.341 122.289 147.104 121.823C146.87 121.357 146.752 120.821 146.752 120.214C146.752 119.599 146.871 119.06 147.108 118.597C147.347 118.131 147.687 117.767 148.127 117.507C148.568 117.244 149.091 117.112 149.698 117.112C150.221 117.112 150.68 117.207 151.073 117.397C151.466 117.588 151.777 117.854 152.006 118.198C152.236 118.542 152.362 118.946 152.385 119.409H150.815C150.771 119.11 150.653 118.869 150.463 118.687C150.276 118.502 150.03 118.409 149.725 118.409C149.467 118.409 149.242 118.479 149.049 118.62C148.859 118.758 148.711 118.96 148.604 119.226C148.497 119.491 148.444 119.813 148.444 120.19C148.444 120.573 148.496 120.899 148.6 121.167C148.707 121.435 148.857 121.64 149.049 121.78C149.242 121.921 149.467 121.991 149.725 121.991C149.915 121.991 150.086 121.952 150.237 121.874C150.39 121.796 150.517 121.683 150.616 121.534C150.717 121.383 150.784 121.202 150.815 120.991H152.385C152.359 121.45 152.234 121.853 152.01 122.202C151.789 122.549 151.483 122.819 151.092 123.015C150.702 123.21 150.239 123.308 149.706 123.308ZM154.958 121.464L154.962 119.468H155.205L157.126 117.19H159.037L156.455 120.206H156.06L154.958 121.464ZM153.451 123.19V115.19H155.115V123.19H153.451ZM157.201 123.19L155.435 120.577L156.544 119.401L159.15 123.19H157.201ZM161.564 123.304C161.181 123.304 160.84 123.237 160.541 123.104C160.241 122.969 160.004 122.77 159.83 122.507C159.658 122.241 159.572 121.91 159.572 121.515C159.572 121.181 159.633 120.901 159.755 120.675C159.878 120.448 160.044 120.266 160.255 120.128C160.466 119.99 160.706 119.886 160.974 119.815C161.245 119.745 161.529 119.696 161.826 119.667C162.175 119.631 162.456 119.597 162.669 119.565C162.883 119.532 163.038 119.482 163.134 119.417C163.231 119.352 163.279 119.256 163.279 119.128V119.104C163.279 118.857 163.201 118.666 163.044 118.53C162.891 118.395 162.672 118.327 162.388 118.327C162.089 118.327 161.85 118.394 161.673 118.526C161.496 118.657 161.379 118.821 161.322 119.019L159.783 118.894C159.861 118.529 160.014 118.214 160.244 117.948C160.473 117.68 160.768 117.474 161.13 117.331C161.495 117.185 161.917 117.112 162.396 117.112C162.729 117.112 163.048 117.151 163.353 117.229C163.66 117.308 163.932 117.429 164.169 117.593C164.409 117.757 164.598 117.968 164.736 118.226C164.874 118.481 164.943 118.787 164.943 119.144V123.19H163.365V122.358H163.318C163.222 122.546 163.093 122.711 162.931 122.854C162.77 122.995 162.576 123.106 162.349 123.187C162.123 123.265 161.861 123.304 161.564 123.304ZM162.041 122.155C162.285 122.155 162.501 122.107 162.689 122.011C162.876 121.912 163.024 121.779 163.13 121.612C163.237 121.446 163.291 121.257 163.291 121.046V120.409C163.238 120.443 163.167 120.474 163.076 120.503C162.987 120.529 162.887 120.554 162.775 120.577C162.663 120.598 162.551 120.618 162.439 120.636C162.327 120.651 162.225 120.666 162.134 120.679C161.939 120.707 161.768 120.753 161.623 120.815C161.477 120.878 161.363 120.963 161.283 121.069C161.202 121.174 161.162 121.304 161.162 121.46C161.162 121.687 161.244 121.86 161.408 121.979C161.574 122.097 161.785 122.155 162.041 122.155ZM168.937 125.565C168.398 125.565 167.936 125.491 167.55 125.343C167.167 125.197 166.863 124.998 166.636 124.745C166.41 124.493 166.263 124.209 166.195 123.894L167.734 123.687C167.781 123.806 167.855 123.918 167.957 124.022C168.058 124.127 168.192 124.21 168.359 124.272C168.528 124.338 168.734 124.37 168.976 124.37C169.338 124.37 169.636 124.282 169.871 124.104C170.108 123.93 170.226 123.637 170.226 123.226V122.128H170.156C170.083 122.295 169.973 122.452 169.828 122.601C169.682 122.749 169.494 122.87 169.265 122.964C169.036 123.058 168.763 123.104 168.445 123.104C167.994 123.104 167.584 123 167.214 122.792C166.847 122.581 166.554 122.259 166.335 121.827C166.119 121.392 166.011 120.843 166.011 120.179C166.011 119.499 166.122 118.931 166.343 118.476C166.565 118.02 166.859 117.679 167.226 117.452C167.596 117.226 168.001 117.112 168.441 117.112C168.777 117.112 169.058 117.17 169.285 117.284C169.511 117.396 169.694 117.537 169.832 117.706C169.972 117.873 170.08 118.037 170.156 118.198H170.218V117.19H171.871V123.249C171.871 123.759 171.746 124.187 171.496 124.53C171.246 124.874 170.899 125.132 170.457 125.304C170.016 125.478 169.51 125.565 168.937 125.565ZM168.972 121.854C169.24 121.854 169.467 121.788 169.652 121.655C169.839 121.52 169.983 121.327 170.082 121.077C170.183 120.825 170.234 120.522 170.234 120.171C170.234 119.819 170.184 119.515 170.085 119.257C169.986 118.996 169.843 118.795 169.656 118.651C169.468 118.508 169.24 118.437 168.972 118.437C168.699 118.437 168.468 118.511 168.281 118.659C168.093 118.805 167.951 119.008 167.855 119.269C167.759 119.529 167.71 119.83 167.71 120.171C167.71 120.517 167.759 120.817 167.855 121.069C167.954 121.319 168.096 121.513 168.281 121.651C168.468 121.787 168.699 121.854 168.972 121.854ZM175.929 123.308C175.312 123.308 174.781 123.183 174.335 122.933C173.893 122.68 173.552 122.323 173.312 121.862C173.072 121.399 172.953 120.851 172.953 120.218C172.953 119.601 173.072 119.059 173.312 118.593C173.552 118.127 173.889 117.763 174.324 117.503C174.761 117.243 175.274 117.112 175.863 117.112C176.259 117.112 176.627 117.176 176.968 117.304C177.312 117.429 177.611 117.618 177.867 117.87C178.125 118.123 178.325 118.44 178.468 118.823C178.611 119.203 178.683 119.649 178.683 120.159V120.616H173.617V119.585H177.117C177.117 119.345 177.065 119.133 176.96 118.948C176.856 118.763 176.712 118.619 176.527 118.515C176.345 118.408 176.132 118.354 175.89 118.354C175.638 118.354 175.414 118.413 175.218 118.53C175.026 118.645 174.875 118.8 174.765 118.995C174.656 119.188 174.6 119.403 174.597 119.64V120.62C174.597 120.917 174.652 121.174 174.761 121.39C174.873 121.606 175.031 121.772 175.234 121.89C175.437 122.007 175.678 122.065 175.957 122.065C176.141 122.065 176.311 122.039 176.464 121.987C176.618 121.935 176.75 121.857 176.859 121.753C176.968 121.649 177.052 121.521 177.109 121.37L178.648 121.472C178.57 121.841 178.41 122.164 178.167 122.44C177.928 122.714 177.618 122.927 177.238 123.081C176.86 123.232 176.424 123.308 175.929 123.308Z" fill="#8E9BAC"/>
<path d="M70.5415 208.69H69.2603L72.1392 200.69H73.5337L76.4126 208.69H75.1313L72.8696 202.144H72.8071L70.5415 208.69ZM70.7563 205.558H74.9126V206.573H70.7563V205.558ZM81.855 202.69L79.6792 208.69H78.4292L76.2495 202.69H77.5034L79.0229 207.308H79.0854L80.6011 202.69H81.855ZM85.3345 208.812C84.7433 208.812 84.2342 208.685 83.8071 208.433C83.3826 208.177 83.0545 207.819 82.8228 207.358C82.5936 206.895 82.479 206.352 82.479 205.729C82.479 205.115 82.5936 204.573 82.8228 204.104C83.0545 203.636 83.3774 203.27 83.7915 203.007C84.2082 202.744 84.6951 202.612 85.2524 202.612C85.591 202.612 85.9191 202.668 86.2368 202.78C86.5545 202.892 86.8397 203.068 87.0923 203.308C87.3449 203.547 87.5441 203.858 87.6899 204.241C87.8358 204.621 87.9087 205.084 87.9087 205.628V206.042H83.1392V205.167H86.7642C86.7642 204.86 86.7017 204.588 86.5767 204.351C86.4517 204.111 86.2759 203.922 86.0493 203.784C85.8254 203.646 85.5623 203.577 85.2603 203.577C84.9321 203.577 84.6457 203.658 84.4009 203.819C84.1587 203.978 83.9712 204.187 83.8384 204.444C83.7082 204.7 83.6431 204.977 83.6431 205.276V205.96C83.6431 206.361 83.7134 206.702 83.854 206.983C83.9972 207.265 84.1965 207.479 84.4517 207.628C84.7069 207.774 85.005 207.847 85.3462 207.847C85.5675 207.847 85.7694 207.815 85.9517 207.753C86.134 207.688 86.2915 207.591 86.4243 207.464C86.5571 207.336 86.6587 207.179 86.729 206.991L87.8345 207.19C87.7459 207.516 87.5871 207.801 87.3579 208.046C87.1313 208.288 86.8462 208.477 86.5024 208.612C86.1613 208.745 85.772 208.812 85.3345 208.812ZM89.2046 208.69V202.69H90.3335V203.644H90.396C90.5054 203.321 90.6981 203.067 90.9741 202.882C91.2528 202.694 91.5679 202.601 91.9194 202.601C91.9924 202.601 92.0783 202.603 92.1772 202.608C92.2788 202.614 92.3582 202.62 92.4155 202.628V203.745C92.3687 203.732 92.2853 203.718 92.1655 203.702C92.0457 203.684 91.9259 203.675 91.8062 203.675C91.5301 203.675 91.284 203.733 91.0679 203.851C90.8543 203.965 90.6851 204.125 90.5601 204.331C90.4351 204.534 90.3726 204.766 90.3726 205.026V208.69H89.2046ZM95.1187 208.823C94.7384 208.823 94.3947 208.753 94.0874 208.612C93.7801 208.469 93.5366 208.262 93.3569 207.991C93.1799 207.72 93.0913 207.388 93.0913 206.995C93.0913 206.657 93.1564 206.378 93.2866 206.159C93.4168 205.94 93.5926 205.767 93.814 205.64C94.0353 205.512 94.2827 205.416 94.5562 205.351C94.8296 205.285 95.1082 205.236 95.3921 205.202C95.7515 205.16 96.0431 205.127 96.2671 205.101C96.491 205.072 96.6538 205.026 96.7554 204.964C96.8569 204.901 96.9077 204.8 96.9077 204.659V204.632C96.9077 204.291 96.8114 204.026 96.6187 203.839C96.4285 203.651 96.1447 203.558 95.7671 203.558C95.3739 203.558 95.064 203.645 94.8374 203.819C94.6134 203.991 94.4585 204.183 94.3726 204.394L93.2749 204.144C93.4051 203.779 93.5952 203.485 93.8452 203.261C94.0978 203.034 94.3882 202.87 94.7163 202.769C95.0444 202.664 95.3895 202.612 95.7515 202.612C95.991 202.612 96.245 202.641 96.5132 202.698C96.784 202.753 97.0366 202.854 97.271 203.003C97.508 203.151 97.702 203.364 97.853 203.64C98.0041 203.913 98.0796 204.269 98.0796 204.706V208.69H96.939V207.87H96.8921C96.8166 208.021 96.7033 208.17 96.5522 208.315C96.4012 208.461 96.2072 208.582 95.9702 208.679C95.7332 208.775 95.4494 208.823 95.1187 208.823ZM95.3726 207.886C95.6955 207.886 95.9715 207.822 96.2007 207.694C96.4325 207.567 96.6082 207.4 96.728 207.194C96.8504 206.986 96.9116 206.763 96.9116 206.526V205.753C96.87 205.795 96.7892 205.834 96.6694 205.87C96.5522 205.904 96.4181 205.934 96.2671 205.96C96.116 205.983 95.9689 206.006 95.8257 206.026C95.6825 206.045 95.5627 206.06 95.4663 206.073C95.2397 206.102 95.0327 206.15 94.8452 206.218C94.6603 206.285 94.5119 206.383 94.3999 206.511C94.2905 206.636 94.2358 206.802 94.2358 207.011C94.2358 207.3 94.3426 207.519 94.5562 207.667C94.7697 207.813 95.0418 207.886 95.3726 207.886ZM102.151 211.065C101.674 211.065 101.264 211.003 100.92 210.878C100.579 210.753 100.301 210.588 100.084 210.382C99.8683 210.176 99.7069 209.951 99.6001 209.706L100.604 209.292C100.674 209.407 100.768 209.528 100.885 209.655C101.005 209.785 101.167 209.896 101.37 209.987C101.575 210.078 101.84 210.124 102.163 210.124C102.605 210.124 102.971 210.016 103.26 209.8C103.549 209.586 103.694 209.245 103.694 208.776V207.597H103.62C103.549 207.724 103.448 207.866 103.315 208.022C103.185 208.179 103.005 208.314 102.776 208.429C102.547 208.543 102.249 208.601 101.881 208.601C101.407 208.601 100.98 208.49 100.6 208.269C100.222 208.045 99.923 207.715 99.7017 207.28C99.4829 206.843 99.3735 206.305 99.3735 205.667C99.3735 205.029 99.4816 204.482 99.6978 204.026C99.9165 203.571 100.216 203.222 100.596 202.979C100.976 202.735 101.407 202.612 101.889 202.612C102.262 202.612 102.562 202.675 102.792 202.8C103.021 202.922 103.199 203.065 103.327 203.229C103.457 203.394 103.557 203.538 103.627 203.663H103.713V202.69H104.858V208.823C104.858 209.339 104.738 209.762 104.499 210.093C104.259 210.424 103.935 210.668 103.526 210.827C103.12 210.986 102.661 211.065 102.151 211.065ZM102.139 207.632C102.475 207.632 102.759 207.554 102.991 207.397C103.225 207.239 103.402 207.012 103.522 206.718C103.644 206.421 103.706 206.065 103.706 205.651C103.706 205.248 103.646 204.892 103.526 204.585C103.406 204.278 103.23 204.038 102.999 203.866C102.767 203.692 102.48 203.604 102.139 203.604C101.788 203.604 101.495 203.696 101.26 203.878C101.026 204.058 100.849 204.302 100.729 204.612C100.612 204.922 100.553 205.269 100.553 205.651C100.553 206.045 100.613 206.39 100.733 206.687C100.853 206.983 101.03 207.215 101.264 207.382C101.501 207.549 101.793 207.632 102.139 207.632ZM109.01 208.812C108.419 208.812 107.91 208.685 107.483 208.433C107.058 208.177 106.73 207.819 106.499 207.358C106.269 206.895 106.155 206.352 106.155 205.729C106.155 205.115 106.269 204.573 106.499 204.104C106.73 203.636 107.053 203.27 107.467 203.007C107.884 202.744 108.371 202.612 108.928 202.612C109.267 202.612 109.595 202.668 109.913 202.78C110.23 202.892 110.515 203.068 110.768 203.308C111.021 203.547 111.22 203.858 111.366 204.241C111.512 204.621 111.584 205.084 111.584 205.628V206.042H106.815V205.167H110.44C110.44 204.86 110.377 204.588 110.252 204.351C110.127 204.111 109.952 203.922 109.725 203.784C109.501 203.646 109.238 203.577 108.936 203.577C108.608 203.577 108.321 203.658 108.077 203.819C107.834 203.978 107.647 204.187 107.514 204.444C107.384 204.7 107.319 204.977 107.319 205.276V205.96C107.319 206.361 107.389 206.702 107.53 206.983C107.673 207.265 107.872 207.479 108.127 207.628C108.383 207.774 108.681 207.847 109.022 207.847C109.243 207.847 109.445 207.815 109.627 207.753C109.81 207.688 109.967 207.591 110.1 207.464C110.233 207.336 110.334 207.179 110.405 206.991L111.51 207.19C111.422 207.516 111.263 207.801 111.034 208.046C110.807 208.288 110.522 208.477 110.178 208.612C109.837 208.745 109.448 208.812 109.01 208.812ZM120.249 202.792C120.207 202.422 120.035 202.136 119.733 201.933C119.431 201.727 119.051 201.624 118.592 201.624C118.264 201.624 117.98 201.676 117.741 201.78C117.501 201.882 117.315 202.022 117.182 202.202C117.052 202.379 116.987 202.581 116.987 202.808C116.987 202.998 117.031 203.162 117.12 203.3C117.211 203.438 117.329 203.554 117.475 203.647C117.624 203.739 117.782 203.815 117.952 203.878C118.121 203.938 118.284 203.987 118.44 204.026L119.221 204.229C119.476 204.292 119.738 204.377 120.006 204.483C120.275 204.59 120.523 204.731 120.752 204.905C120.982 205.08 121.167 205.296 121.307 205.554C121.45 205.812 121.522 206.12 121.522 206.479C121.522 206.933 121.405 207.335 121.17 207.687C120.939 208.038 120.601 208.315 120.159 208.519C119.719 208.722 119.186 208.823 118.561 208.823C117.962 208.823 117.444 208.728 117.006 208.538C116.569 208.348 116.226 208.078 115.979 207.729C115.732 207.378 115.595 206.961 115.569 206.479H116.78C116.803 206.769 116.897 207.009 117.061 207.202C117.228 207.392 117.44 207.534 117.698 207.628C117.958 207.719 118.243 207.765 118.553 207.765C118.894 207.765 119.198 207.711 119.463 207.604C119.732 207.495 119.943 207.344 120.096 207.151C120.25 206.956 120.327 206.728 120.327 206.468C120.327 206.231 120.259 206.037 120.124 205.886C119.991 205.735 119.81 205.61 119.581 205.511C119.354 205.412 119.097 205.325 118.811 205.249L117.866 204.991C117.225 204.817 116.717 204.56 116.342 204.222C115.97 203.883 115.784 203.435 115.784 202.878C115.784 202.417 115.909 202.015 116.159 201.671C116.409 201.327 116.747 201.06 117.174 200.87C117.601 200.677 118.083 200.581 118.62 200.581C119.161 200.581 119.639 200.676 120.053 200.866C120.47 201.056 120.798 201.318 121.038 201.651C121.277 201.982 121.402 202.362 121.413 202.792H120.249ZM124.617 208.823C124.236 208.823 123.893 208.753 123.585 208.612C123.278 208.469 123.035 208.262 122.855 207.991C122.678 207.72 122.589 207.388 122.589 206.995C122.589 206.657 122.654 206.378 122.785 206.159C122.915 205.94 123.091 205.767 123.312 205.64C123.533 205.512 123.781 205.416 124.054 205.351C124.328 205.285 124.606 205.236 124.89 205.202C125.25 205.16 125.541 205.127 125.765 205.101C125.989 205.072 126.152 205.026 126.253 204.964C126.355 204.901 126.406 204.8 126.406 204.659V204.632C126.406 204.291 126.309 204.026 126.117 203.839C125.927 203.651 125.643 203.558 125.265 203.558C124.872 203.558 124.562 203.645 124.335 203.819C124.111 203.991 123.957 204.183 123.871 204.394L122.773 204.144C122.903 203.779 123.093 203.485 123.343 203.261C123.596 203.034 123.886 202.87 124.214 202.769C124.542 202.664 124.888 202.612 125.25 202.612C125.489 202.612 125.743 202.641 126.011 202.698C126.282 202.753 126.535 202.854 126.769 203.003C127.006 203.151 127.2 203.364 127.351 203.64C127.502 203.913 127.578 204.269 127.578 204.706V208.69H126.437V207.87H126.39C126.315 208.021 126.201 208.17 126.05 208.315C125.899 208.461 125.705 208.582 125.468 208.679C125.231 208.775 124.947 208.823 124.617 208.823ZM124.871 207.886C125.194 207.886 125.47 207.822 125.699 207.694C125.931 207.567 126.106 207.4 126.226 207.194C126.348 206.986 126.41 206.763 126.41 206.526V205.753C126.368 205.795 126.287 205.834 126.167 205.87C126.05 205.904 125.916 205.934 125.765 205.96C125.614 205.983 125.467 206.006 125.324 206.026C125.181 206.045 125.061 206.06 124.964 206.073C124.738 206.102 124.531 206.15 124.343 206.218C124.158 206.285 124.01 206.383 123.898 206.511C123.789 206.636 123.734 206.802 123.734 207.011C123.734 207.3 123.841 207.519 124.054 207.667C124.268 207.813 124.54 207.886 124.871 207.886ZM130.301 200.69V208.69H129.133V200.69H130.301ZM133.619 208.823C133.238 208.823 132.895 208.753 132.587 208.612C132.28 208.469 132.037 208.262 131.857 207.991C131.68 207.72 131.591 207.388 131.591 206.995C131.591 206.657 131.656 206.378 131.787 206.159C131.917 205.94 132.093 205.767 132.314 205.64C132.535 205.512 132.783 205.416 133.056 205.351C133.33 205.285 133.608 205.236 133.892 205.202C134.251 205.16 134.543 205.127 134.767 205.101C134.991 205.072 135.154 205.026 135.255 204.964C135.357 204.901 135.408 204.8 135.408 204.659V204.632C135.408 204.291 135.311 204.026 135.119 203.839C134.929 203.651 134.645 203.558 134.267 203.558C133.874 203.558 133.564 203.645 133.337 203.819C133.113 203.991 132.958 204.183 132.873 204.394L131.775 204.144C131.905 203.779 132.095 203.485 132.345 203.261C132.598 203.034 132.888 202.87 133.216 202.769C133.544 202.664 133.889 202.612 134.251 202.612C134.491 202.612 134.745 202.641 135.013 202.698C135.284 202.753 135.537 202.854 135.771 203.003C136.008 203.151 136.202 203.364 136.353 203.64C136.504 203.913 136.58 204.269 136.58 204.706V208.69H135.439V207.87H135.392C135.317 208.021 135.203 208.17 135.052 208.315C134.901 208.461 134.707 208.582 134.47 208.679C134.233 208.775 133.949 208.823 133.619 208.823ZM133.873 207.886C134.195 207.886 134.472 207.822 134.701 207.694C134.932 207.567 135.108 207.4 135.228 207.194C135.35 206.986 135.412 206.763 135.412 206.526V205.753C135.37 205.795 135.289 205.834 135.169 205.87C135.052 205.904 134.918 205.934 134.767 205.96C134.616 205.983 134.469 206.006 134.326 206.026C134.182 206.045 134.063 206.06 133.966 206.073C133.74 206.102 133.533 206.15 133.345 206.218C133.16 206.285 133.012 206.383 132.9 206.511C132.791 206.636 132.736 206.802 132.736 207.011C132.736 207.3 132.843 207.519 133.056 207.667C133.27 207.813 133.542 207.886 133.873 207.886ZM138.135 208.69V202.69H139.264V203.644H139.327C139.436 203.321 139.629 203.067 139.905 202.882C140.183 202.694 140.499 202.601 140.85 202.601C140.923 202.601 141.009 202.603 141.108 202.608C141.209 202.614 141.289 202.62 141.346 202.628V203.745C141.299 203.732 141.216 203.718 141.096 203.702C140.976 203.684 140.857 203.675 140.737 203.675C140.461 203.675 140.215 203.733 139.999 203.851C139.785 203.965 139.616 204.125 139.491 204.331C139.366 204.534 139.303 204.766 139.303 205.026V208.69H138.135ZM143.278 210.94C143.103 210.94 142.944 210.926 142.801 210.897C142.658 210.871 142.551 210.843 142.481 210.812L142.762 209.854C142.976 209.912 143.166 209.937 143.333 209.929C143.499 209.921 143.646 209.858 143.774 209.741C143.904 209.624 144.019 209.433 144.118 209.167L144.262 208.769L142.067 202.69H143.317L144.836 207.347H144.899L146.418 202.69H147.672L145.2 209.491C145.085 209.804 144.939 210.068 144.762 210.284C144.585 210.503 144.374 210.667 144.129 210.776C143.885 210.886 143.601 210.94 143.278 210.94ZM151.775 208.69V200.69H154.626C155.249 200.69 155.764 200.804 156.173 201.03C156.582 201.257 156.888 201.567 157.091 201.96C157.294 202.351 157.396 202.791 157.396 203.28C157.396 203.772 157.293 204.215 157.087 204.608C156.884 204.999 156.577 205.309 156.166 205.538C155.757 205.765 155.242 205.878 154.623 205.878H152.662V204.854H154.513C154.906 204.854 155.225 204.787 155.47 204.651C155.715 204.513 155.895 204.326 156.009 204.089C156.124 203.852 156.181 203.582 156.181 203.28C156.181 202.978 156.124 202.71 156.009 202.476C155.895 202.241 155.714 202.058 155.466 201.925C155.222 201.792 154.899 201.726 154.498 201.726H152.982V208.69H151.775ZM160.41 208.823C160.029 208.823 159.686 208.753 159.378 208.612C159.071 208.469 158.828 208.262 158.648 207.991C158.471 207.72 158.382 207.388 158.382 206.995C158.382 206.657 158.447 206.378 158.578 206.159C158.708 205.94 158.884 205.767 159.105 205.64C159.326 205.512 159.574 205.416 159.847 205.351C160.121 205.285 160.399 205.236 160.683 205.202C161.042 205.16 161.334 205.127 161.558 205.101C161.782 205.072 161.945 205.026 162.046 204.964C162.148 204.901 162.199 204.8 162.199 204.659V204.632C162.199 204.291 162.102 204.026 161.91 203.839C161.72 203.651 161.436 203.558 161.058 203.558C160.665 203.558 160.355 203.645 160.128 203.819C159.904 203.991 159.75 204.183 159.664 204.394L158.566 204.144C158.696 203.779 158.886 203.485 159.136 203.261C159.389 203.034 159.679 202.87 160.007 202.769C160.335 202.664 160.681 202.612 161.042 202.612C161.282 202.612 161.536 202.641 161.804 202.698C162.075 202.753 162.328 202.854 162.562 203.003C162.799 203.151 162.993 203.364 163.144 203.64C163.295 203.913 163.371 204.269 163.371 204.706V208.69H162.23V207.87H162.183C162.108 208.021 161.994 208.17 161.843 208.315C161.692 208.461 161.498 208.582 161.261 208.679C161.024 208.775 160.74 208.823 160.41 208.823ZM160.664 207.886C160.986 207.886 161.263 207.822 161.492 207.694C161.723 207.567 161.899 207.4 162.019 207.194C162.141 206.986 162.203 206.763 162.203 206.526V205.753C162.161 205.795 162.08 205.834 161.96 205.87C161.843 205.904 161.709 205.934 161.558 205.96C161.407 205.983 161.26 206.006 161.117 206.026C160.973 206.045 160.854 206.06 160.757 206.073C160.531 206.102 160.324 206.15 160.136 206.218C159.951 206.285 159.803 206.383 159.691 206.511C159.582 206.636 159.527 206.802 159.527 207.011C159.527 207.3 159.634 207.519 159.847 207.667C160.061 207.813 160.333 207.886 160.664 207.886ZM167.454 208.812C166.873 208.812 166.373 208.68 165.954 208.417C165.537 208.151 165.217 207.785 164.993 207.319C164.769 206.853 164.657 206.319 164.657 205.718C164.657 205.108 164.771 204.571 165 204.104C165.23 203.636 165.553 203.27 165.969 203.007C166.386 202.744 166.877 202.612 167.442 202.612C167.898 202.612 168.304 202.697 168.661 202.866C169.017 203.033 169.305 203.267 169.524 203.569C169.745 203.871 169.877 204.224 169.918 204.628H168.782C168.719 204.347 168.576 204.104 168.352 203.901C168.131 203.698 167.834 203.597 167.461 203.597C167.136 203.597 166.851 203.683 166.606 203.854C166.364 204.024 166.175 204.266 166.04 204.581C165.904 204.894 165.836 205.263 165.836 205.69C165.836 206.128 165.903 206.506 166.036 206.823C166.168 207.141 166.356 207.387 166.598 207.562C166.843 207.736 167.131 207.823 167.461 207.823C167.683 207.823 167.883 207.783 168.063 207.702C168.245 207.619 168.398 207.5 168.52 207.347C168.645 207.193 168.732 207.008 168.782 206.792H169.918C169.877 207.18 169.75 207.526 169.54 207.831C169.329 208.136 169.046 208.375 168.692 208.55C168.34 208.724 167.928 208.812 167.454 208.812ZM172.242 206.655L172.234 205.229H172.437L174.828 202.69H176.226L173.5 205.581H173.316L172.242 206.655ZM171.167 208.69V200.69H172.335V208.69H171.167ZM174.957 208.69L172.808 205.839L173.613 205.022L176.39 208.69H174.957ZM179.037 208.823C178.656 208.823 178.313 208.753 178.005 208.612C177.698 208.469 177.455 208.262 177.275 207.991C177.098 207.72 177.009 207.388 177.009 206.995C177.009 206.657 177.074 206.378 177.205 206.159C177.335 205.94 177.511 205.767 177.732 205.64C177.953 205.512 178.201 205.416 178.474 205.351C178.748 205.285 179.026 205.236 179.31 205.202C179.669 205.16 179.961 205.127 180.185 205.101C180.409 205.072 180.572 205.026 180.673 204.964C180.775 204.901 180.826 204.8 180.826 204.659V204.632C180.826 204.291 180.729 204.026 180.537 203.839C180.347 203.651 180.063 203.558 179.685 203.558C179.292 203.558 178.982 203.645 178.755 203.819C178.531 203.991 178.376 204.183 178.291 204.394L177.193 204.144C177.323 203.779 177.513 203.485 177.763 203.261C178.016 203.034 178.306 202.87 178.634 202.769C178.962 202.664 179.307 202.612 179.669 202.612C179.909 202.612 180.163 202.641 180.431 202.698C180.702 202.753 180.955 202.854 181.189 203.003C181.426 203.151 181.62 203.364 181.771 203.64C181.922 203.913 181.998 204.269 181.998 204.706V208.69H180.857V207.87H180.81C180.735 208.021 180.621 208.17 180.47 208.315C180.319 208.461 180.125 208.582 179.888 208.679C179.651 208.775 179.367 208.823 179.037 208.823ZM179.291 207.886C179.613 207.886 179.889 207.822 180.119 207.694C180.35 207.567 180.526 207.4 180.646 207.194C180.768 206.986 180.83 206.763 180.83 206.526V205.753C180.788 205.795 180.707 205.834 180.587 205.87C180.47 205.904 180.336 205.934 180.185 205.96C180.034 205.983 179.887 206.006 179.744 206.026C179.6 206.045 179.481 206.06 179.384 206.073C179.158 206.102 178.951 206.15 178.763 206.218C178.578 206.285 178.43 206.383 178.318 206.511C178.208 206.636 178.154 206.802 178.154 207.011C178.154 207.3 178.261 207.519 178.474 207.667C178.688 207.813 178.96 207.886 179.291 207.886ZM186.069 211.065C185.592 211.065 185.182 211.003 184.838 210.878C184.497 210.753 184.219 210.588 184.002 210.382C183.786 210.176 183.625 209.951 183.518 209.706L184.522 209.292C184.592 209.407 184.686 209.528 184.803 209.655C184.923 209.785 185.084 209.896 185.288 209.987C185.493 210.078 185.758 210.124 186.081 210.124C186.523 210.124 186.889 210.016 187.178 209.8C187.467 209.586 187.612 209.245 187.612 208.776V207.597H187.538C187.467 207.724 187.366 207.866 187.233 208.022C187.103 208.179 186.923 208.314 186.694 208.429C186.465 208.543 186.167 208.601 185.799 208.601C185.325 208.601 184.898 208.49 184.518 208.269C184.14 208.045 183.841 207.715 183.62 207.28C183.401 206.843 183.292 206.305 183.292 205.667C183.292 205.029 183.4 204.482 183.616 204.026C183.834 203.571 184.134 203.222 184.514 202.979C184.894 202.735 185.325 202.612 185.807 202.612C186.18 202.612 186.48 202.675 186.709 202.8C186.939 202.922 187.117 203.065 187.245 203.229C187.375 203.394 187.475 203.538 187.545 203.663H187.631V202.69H188.776V208.823C188.776 209.339 188.656 209.762 188.417 210.093C188.177 210.424 187.853 210.668 187.444 210.827C187.038 210.986 186.579 211.065 186.069 211.065ZM186.057 207.632C186.393 207.632 186.677 207.554 186.909 207.397C187.143 207.239 187.32 207.012 187.44 206.718C187.562 206.421 187.624 206.065 187.624 205.651C187.624 205.248 187.564 204.892 187.444 204.585C187.324 204.278 187.148 204.038 186.917 203.866C186.685 203.692 186.398 203.604 186.057 203.604C185.706 203.604 185.413 203.696 185.178 203.878C184.944 204.058 184.767 204.302 184.647 204.612C184.53 204.922 184.471 205.269 184.471 205.651C184.471 206.045 184.531 206.39 184.651 206.687C184.771 206.983 184.948 207.215 185.182 207.382C185.419 207.549 185.711 207.632 186.057 207.632ZM192.928 208.812C192.337 208.812 191.828 208.685 191.401 208.433C190.976 208.177 190.648 207.819 190.417 207.358C190.187 206.895 190.073 206.352 190.073 205.729C190.073 205.115 190.187 204.573 190.417 204.104C190.648 203.636 190.971 203.27 191.385 203.007C191.802 202.744 192.289 202.612 192.846 202.612C193.185 202.612 193.513 202.668 193.831 202.78C194.148 202.892 194.433 203.068 194.686 203.308C194.939 203.547 195.138 203.858 195.284 204.241C195.43 204.621 195.502 205.084 195.502 205.628V206.042H190.733V205.167H194.358C194.358 204.86 194.295 204.588 194.17 204.351C194.045 204.111 193.87 203.922 193.643 203.784C193.419 203.646 193.156 203.577 192.854 203.577C192.526 203.577 192.239 203.658 191.995 203.819C191.752 203.978 191.565 204.187 191.432 204.444C191.302 204.7 191.237 204.977 191.237 205.276V205.96C191.237 206.361 191.307 206.702 191.448 206.983C191.591 207.265 191.79 207.479 192.045 207.628C192.301 207.774 192.599 207.847 192.94 207.847C193.161 207.847 193.363 207.815 193.545 207.753C193.728 207.688 193.885 207.591 194.018 207.464C194.151 207.336 194.252 207.179 194.323 206.991L195.428 207.19C195.34 207.516 195.181 207.801 194.952 208.046C194.725 208.288 194.44 208.477 194.096 208.612C193.755 208.745 193.366 208.812 192.928 208.812ZM96.2314 221.69C96.2314 222.545 96.0752 223.279 95.7627 223.894C95.4502 224.506 95.0218 224.977 94.4775 225.308C93.9359 225.636 93.32 225.8 92.6299 225.8C91.9372 225.8 91.3187 225.636 90.7744 225.308C90.2327 224.977 89.8057 224.504 89.4932 223.89C89.1807 223.275 89.0244 222.542 89.0244 221.69C89.0244 220.836 89.1807 220.103 89.4932 219.491C89.8057 218.877 90.2327 218.405 90.7744 218.077C91.3187 217.746 91.9372 217.581 92.6299 217.581C93.32 217.581 93.9359 217.746 94.4775 218.077C95.0218 218.405 95.4502 218.877 95.7627 219.491C96.0752 220.103 96.2314 220.836 96.2314 221.69ZM95.0361 221.69C95.0361 221.039 94.9307 220.491 94.7197 220.046C94.5114 219.598 94.2249 219.259 93.8604 219.03C93.4984 218.799 93.0882 218.683 92.6299 218.683C92.1689 218.683 91.7575 218.799 91.3955 219.03C91.0335 219.259 90.7471 219.598 90.5361 220.046C90.3278 220.491 90.2236 221.039 90.2236 221.69C90.2236 222.341 90.3278 222.891 90.5361 223.339C90.7471 223.784 91.0335 224.123 91.3955 224.354C91.7575 224.584 92.1689 224.698 92.6299 224.698C93.0882 224.698 93.4984 224.584 93.8604 224.354C94.2249 224.123 94.5114 223.784 94.7197 223.339C94.9307 222.891 95.0361 222.341 95.0361 221.69ZM100.498 219.69V220.628H97.1074V219.69H100.498ZM98.0371 225.69V218.995C98.0371 218.62 98.1191 218.309 98.2832 218.062C98.4473 217.812 98.6647 217.625 98.9355 217.503C99.2064 217.378 99.5007 217.315 99.8184 217.315C100.053 217.315 100.253 217.335 100.42 217.374C100.587 217.41 100.71 217.444 100.791 217.476L100.518 218.421C100.463 218.405 100.393 218.387 100.307 218.366C100.221 218.343 100.117 218.331 99.9941 218.331C99.7103 218.331 99.5072 218.401 99.3848 218.542C99.265 218.683 99.2051 218.886 99.2051 219.151V225.69H98.0371ZM111.657 221.69C111.657 222.545 111.501 223.279 111.188 223.894C110.876 224.506 110.448 224.977 109.903 225.308C109.362 225.636 108.746 225.8 108.056 225.8C107.363 225.8 106.744 225.636 106.2 225.308C105.659 224.977 105.231 224.504 104.919 223.89C104.606 223.275 104.45 222.542 104.45 221.69C104.45 220.836 104.606 220.103 104.919 219.491C105.231 218.877 105.659 218.405 106.2 218.077C106.744 217.746 107.363 217.581 108.056 217.581C108.746 217.581 109.362 217.746 109.903 218.077C110.448 218.405 110.876 218.877 111.188 219.491C111.501 220.103 111.657 220.836 111.657 221.69ZM110.462 221.69C110.462 221.039 110.356 220.491 110.146 220.046C109.937 219.598 109.651 219.259 109.286 219.03C108.924 218.799 108.514 218.683 108.056 218.683C107.595 218.683 107.183 218.799 106.821 219.03C106.459 219.259 106.173 219.598 105.962 220.046C105.754 220.491 105.649 221.039 105.649 221.69C105.649 222.341 105.754 222.891 105.962 223.339C106.173 223.784 106.459 224.123 106.821 224.354C107.183 224.584 107.595 224.698 108.056 224.698C108.514 224.698 108.924 224.584 109.286 224.354C109.651 224.123 109.937 223.784 110.146 223.339C110.356 222.891 110.462 222.341 110.462 221.69ZM116.869 223.202V219.69H118.041V225.69H116.893V224.651H116.83C116.692 224.972 116.471 225.239 116.166 225.452C115.864 225.663 115.488 225.769 115.037 225.769C114.652 225.769 114.311 225.684 114.014 225.515C113.719 225.343 113.488 225.089 113.318 224.753C113.152 224.417 113.068 224.002 113.068 223.507V219.69H114.236V223.366C114.236 223.775 114.35 224.101 114.576 224.343C114.803 224.585 115.097 224.706 115.459 224.706C115.678 224.706 115.895 224.651 116.111 224.542C116.33 224.433 116.511 224.267 116.654 224.046C116.8 223.825 116.872 223.543 116.869 223.202ZM119.61 225.69V219.69H120.739V220.644H120.802C120.911 220.321 121.104 220.067 121.38 219.882C121.659 219.694 121.974 219.601 122.325 219.601C122.398 219.601 122.484 219.603 122.583 219.608C122.685 219.614 122.764 219.62 122.821 219.628V220.745C122.774 220.732 122.691 220.718 122.571 220.702C122.451 220.684 122.332 220.675 122.212 220.675C121.936 220.675 121.69 220.733 121.474 220.851C121.26 220.965 121.091 221.125 120.966 221.331C120.841 221.534 120.778 221.766 120.778 222.026V225.69H119.61ZM131.2 219.792C131.159 219.422 130.987 219.136 130.685 218.933C130.382 218.727 130.002 218.624 129.544 218.624C129.216 218.624 128.932 218.676 128.692 218.78C128.453 218.882 128.267 219.022 128.134 219.202C128.004 219.379 127.938 219.581 127.938 219.808C127.938 219.998 127.983 220.162 128.071 220.3C128.162 220.438 128.281 220.554 128.427 220.647C128.575 220.739 128.734 220.815 128.903 220.878C129.073 220.938 129.235 220.987 129.392 221.026L130.173 221.229C130.428 221.292 130.69 221.377 130.958 221.483C131.226 221.59 131.475 221.731 131.704 221.905C131.933 222.08 132.118 222.296 132.259 222.554C132.402 222.812 132.474 223.12 132.474 223.479C132.474 223.933 132.356 224.335 132.122 224.687C131.89 225.038 131.553 225.315 131.11 225.519C130.67 225.722 130.138 225.823 129.513 225.823C128.914 225.823 128.396 225.728 127.958 225.538C127.521 225.348 127.178 225.078 126.931 224.729C126.683 224.378 126.547 223.961 126.521 223.479H127.731C127.755 223.769 127.849 224.009 128.013 224.202C128.179 224.392 128.392 224.534 128.649 224.628C128.91 224.719 129.195 224.765 129.505 224.765C129.846 224.765 130.149 224.711 130.415 224.604C130.683 224.495 130.894 224.344 131.048 224.151C131.201 223.956 131.278 223.728 131.278 223.468C131.278 223.231 131.211 223.037 131.075 222.886C130.942 222.735 130.761 222.61 130.532 222.511C130.306 222.412 130.049 222.325 129.763 222.249L128.817 221.991C128.177 221.817 127.669 221.56 127.294 221.222C126.922 220.883 126.735 220.435 126.735 219.878C126.735 219.417 126.86 219.015 127.11 218.671C127.36 218.327 127.699 218.06 128.126 217.87C128.553 217.677 129.035 217.581 129.571 217.581C130.113 217.581 130.591 217.676 131.005 217.866C131.422 218.056 131.75 218.318 131.989 218.651C132.229 218.982 132.354 219.362 132.364 219.792H131.2ZM136.623 219.69V220.628H133.346V219.69H136.623ZM134.225 218.253H135.393V223.929C135.393 224.155 135.426 224.326 135.494 224.44C135.562 224.552 135.649 224.629 135.756 224.671C135.865 224.71 135.984 224.729 136.111 224.729C136.205 224.729 136.287 224.723 136.357 224.71C136.428 224.697 136.482 224.687 136.521 224.679L136.732 225.644C136.665 225.67 136.568 225.696 136.443 225.722C136.318 225.75 136.162 225.766 135.975 225.769C135.667 225.774 135.381 225.719 135.115 225.604C134.85 225.49 134.635 225.313 134.471 225.073C134.307 224.834 134.225 224.533 134.225 224.171V218.253ZM141.716 223.202V219.69H142.888V225.69H141.739V224.651H141.677C141.539 224.972 141.317 225.239 141.013 225.452C140.711 225.663 140.334 225.769 139.884 225.769C139.498 225.769 139.157 225.684 138.86 225.515C138.566 225.343 138.334 225.089 138.165 224.753C137.998 224.417 137.915 224.002 137.915 223.507V219.69H139.083V223.366C139.083 223.775 139.196 224.101 139.423 224.343C139.649 224.585 139.944 224.706 140.306 224.706C140.524 224.706 140.742 224.651 140.958 224.542C141.177 224.433 141.358 224.267 141.501 224.046C141.647 223.825 141.718 223.543 141.716 223.202ZM146.703 225.808C146.219 225.808 145.786 225.684 145.406 225.437C145.029 225.187 144.732 224.831 144.516 224.37C144.302 223.907 144.195 223.351 144.195 222.702C144.195 222.054 144.303 221.499 144.52 221.038C144.738 220.577 145.038 220.224 145.418 219.979C145.798 219.735 146.229 219.612 146.711 219.612C147.083 219.612 147.383 219.675 147.609 219.8C147.839 219.922 148.016 220.065 148.141 220.229C148.268 220.394 148.367 220.538 148.438 220.663H148.508V217.69H149.676V225.69H148.535V224.757H148.438C148.367 224.884 148.266 225.03 148.133 225.194C148.003 225.358 147.823 225.502 147.594 225.624C147.365 225.746 147.068 225.808 146.703 225.808ZM146.961 224.812C147.297 224.812 147.581 224.723 147.813 224.546C148.047 224.366 148.224 224.118 148.344 223.8C148.466 223.482 148.527 223.112 148.527 222.69C148.527 222.274 148.467 221.909 148.348 221.597C148.228 221.284 148.052 221.041 147.82 220.866C147.589 220.692 147.302 220.604 146.961 220.604C146.609 220.604 146.316 220.696 146.082 220.878C145.848 221.06 145.671 221.309 145.551 221.624C145.434 221.939 145.375 222.295 145.375 222.69C145.375 223.091 145.435 223.452 145.555 223.772C145.674 224.093 145.852 224.347 146.086 224.534C146.323 224.719 146.615 224.812 146.961 224.812ZM153.929 225.812C153.338 225.812 152.828 225.685 152.401 225.433C151.977 225.177 151.649 224.819 151.417 224.358C151.188 223.895 151.073 223.352 151.073 222.729C151.073 222.115 151.188 221.573 151.417 221.104C151.649 220.636 151.972 220.27 152.386 220.007C152.802 219.744 153.289 219.612 153.847 219.612C154.185 219.612 154.513 219.668 154.831 219.78C155.149 219.892 155.434 220.068 155.687 220.308C155.939 220.547 156.138 220.858 156.284 221.241C156.43 221.621 156.503 222.084 156.503 222.628V223.042H151.733V222.167H155.358C155.358 221.86 155.296 221.588 155.171 221.351C155.046 221.111 154.87 220.922 154.644 220.784C154.42 220.646 154.157 220.577 153.854 220.577C153.526 220.577 153.24 220.658 152.995 220.819C152.753 220.978 152.565 221.187 152.433 221.444C152.302 221.7 152.237 221.977 152.237 222.276V222.96C152.237 223.361 152.308 223.702 152.448 223.983C152.591 224.265 152.791 224.479 153.046 224.628C153.301 224.774 153.599 224.847 153.94 224.847C154.162 224.847 154.364 224.815 154.546 224.753C154.728 224.688 154.886 224.591 155.019 224.464C155.151 224.336 155.253 224.179 155.323 223.991L156.429 224.19C156.34 224.516 156.181 224.801 155.952 225.046C155.726 225.288 155.44 225.477 155.097 225.612C154.756 225.745 154.366 225.812 153.929 225.812ZM158.967 222.128V225.69H157.799V219.69H158.92V220.667H158.994C159.132 220.349 159.348 220.094 159.643 219.901C159.939 219.709 160.313 219.612 160.764 219.612C161.173 219.612 161.531 219.698 161.838 219.87C162.145 220.039 162.383 220.292 162.553 220.628C162.722 220.964 162.807 221.379 162.807 221.874V225.69H161.639V222.015C161.639 221.58 161.525 221.24 161.299 220.995C161.072 220.748 160.761 220.624 160.365 220.624C160.094 220.624 159.854 220.683 159.643 220.8C159.434 220.917 159.269 221.089 159.146 221.315C159.027 221.539 158.967 221.81 158.967 222.128ZM167.174 219.69V220.628H163.896V219.69H167.174ZM164.775 218.253H165.943V223.929C165.943 224.155 165.977 224.326 166.045 224.44C166.113 224.552 166.2 224.629 166.307 224.671C166.416 224.71 166.535 224.729 166.662 224.729C166.756 224.729 166.838 224.723 166.908 224.71C166.979 224.697 167.033 224.687 167.072 224.679L167.283 225.644C167.215 225.67 167.119 225.696 166.994 225.722C166.869 225.75 166.713 225.766 166.525 225.769C166.218 225.774 165.932 225.719 165.666 225.604C165.4 225.49 165.186 225.313 165.021 225.073C164.857 224.834 164.775 224.533 164.775 224.171V218.253ZM172.865 221.155L171.807 221.343C171.762 221.207 171.692 221.078 171.596 220.956C171.502 220.834 171.374 220.733 171.213 220.655C171.051 220.577 170.85 220.538 170.607 220.538C170.277 220.538 170.001 220.612 169.779 220.761C169.558 220.907 169.447 221.095 169.447 221.327C169.447 221.528 169.521 221.689 169.67 221.812C169.818 221.934 170.058 222.034 170.389 222.112L171.342 222.331C171.894 222.459 172.305 222.655 172.576 222.921C172.847 223.187 172.982 223.532 172.982 223.956C172.982 224.315 172.878 224.636 172.67 224.917C172.464 225.196 172.176 225.414 171.807 225.573C171.439 225.732 171.014 225.812 170.529 225.812C169.857 225.812 169.309 225.668 168.885 225.382C168.46 225.093 168.2 224.683 168.104 224.151L169.232 223.979C169.303 224.274 169.447 224.496 169.666 224.647C169.885 224.796 170.17 224.87 170.521 224.87C170.904 224.87 171.21 224.791 171.439 224.632C171.669 224.47 171.783 224.274 171.783 224.042C171.783 223.854 171.713 223.697 171.572 223.569C171.434 223.442 171.222 223.345 170.936 223.28L169.92 223.058C169.36 222.93 168.946 222.727 168.678 222.448C168.412 222.17 168.279 221.817 168.279 221.39C168.279 221.035 168.378 220.726 168.576 220.46C168.774 220.194 169.048 219.987 169.396 219.839C169.745 219.688 170.145 219.612 170.596 219.612C171.244 219.612 171.755 219.753 172.127 220.034C172.499 220.313 172.745 220.687 172.865 221.155ZM175.036 225.765C174.823 225.765 174.639 225.689 174.485 225.538C174.332 225.384 174.255 225.2 174.255 224.983C174.255 224.77 174.332 224.588 174.485 224.437C174.639 224.283 174.823 224.206 175.036 224.206C175.25 224.206 175.433 224.283 175.587 224.437C175.741 224.588 175.817 224.77 175.817 224.983C175.817 225.127 175.781 225.258 175.708 225.378C175.638 225.495 175.544 225.589 175.427 225.659C175.31 225.729 175.179 225.765 175.036 225.765Z" fill="#8E9BAC"/>
<defs>
<filter id="filter0_d_838_5199" x="34" y="0" width="197" height="197" filterUnits="userSpaceOnUse" color-interpolation-filters="sRGB">
<feFlood flood-opacity="0" result="BackgroundImageFix"/>
<feColorMatrix in="SourceAlpha" type="matrix" values="0 0 0 0 0 0 0 0 0 0 0 0 0 0 0 0 0 0 127 0" result="hardAlpha"/>
<feOffset dy="4"/>
<feGaussianBlur stdDeviation="5"/>
<feComposite in2="hardAlpha" operator="out"/>
<feColorMatrix type="matrix" values="0 0 0 0 0.0784314 0 0 0 0 0.215686 0 0 0 0 1 0 0 0 0.25 0"/>
<feBlend mode="normal" in2="BackgroundImageFix" result="effect1_dropShadow_838_5199"/>
<feBlend mode="normal" in="SourceGraphic" in2="effect1_dropShadow_838_5199" result="shape"/>
</filter>
</defs>
</svg>
