<svg width="265" height="225" viewBox="0 0 265 225" fill="none" xmlns="http://www.w3.org/2000/svg">
<path d="M132.5 7.5C143.334 7.5 154.062 9.63393 164.071 13.7799C174.081 17.926 183.175 24.0029 190.836 31.6637C198.497 39.3245 204.574 48.4193 208.72 58.4286C212.866 68.438 215 79.1659 215 90C215 100.834 212.866 111.562 208.72 121.571C204.574 131.581 198.497 140.675 190.836 148.336C183.175 155.997 174.081 162.074 164.071 166.22C154.062 170.366 143.334 172.5 132.5 172.5C121.666 172.5 110.938 170.366 100.929 166.22C90.9192 162.074 81.8245 155.997 74.1637 148.336C66.5029 140.675 60.4259 131.581 56.2799 121.571C52.1339 111.562 50 100.834 50 90C50 79.1659 52.1339 68.438 56.2799 58.4286C60.426 48.4192 66.5029 39.3245 74.1637 31.6637C81.8245 24.0028 90.9193 17.9259 100.929 13.7799C110.938 9.63392 121.666 7.5 132.5 7.5L132.5 7.5Z" stroke="#F1F5F9" stroke-width="12" stroke-linecap="round"/>
<g filter="url(#filter0_d_838_5214)">
<path d="M132.5 7.25977C149.55 7.25977 166.181 12.5421 180.105 22.3803C194.03 32.2186 204.565 46.1293 210.26 62.1995C215.956 78.2696 216.533 95.7097 211.912 112.121C207.29 128.533 197.698 143.109 184.454 153.846C171.21 164.583 154.964 170.953 137.952 172.079C120.94 173.206 103.996 169.034 89.4515 160.138C74.907 151.241 63.476 138.057 56.7309 122.398C49.9857 106.74 48.2575 89.376 51.7842 72.6951" stroke="#6A2EFF" stroke-width="12" stroke-linecap="round"/>
</g>
<path d="M80.6506 87.5V84.3977L87.8991 77.6861C88.5156 77.0895 89.0327 76.5526 89.4503 76.0753C89.8745 75.598 90.196 75.1307 90.4148 74.6733C90.6335 74.2093 90.7429 73.7088 90.7429 73.1719C90.7429 72.5753 90.607 72.0616 90.3352 71.6307C90.0634 71.1932 89.6922 70.8584 89.2216 70.6264C88.7509 70.3878 88.2173 70.2685 87.6207 70.2685C86.9976 70.2685 86.4541 70.3944 85.9901 70.6463C85.526 70.8982 85.1681 71.2595 84.9162 71.7301C84.6643 72.2008 84.5384 72.7609 84.5384 73.4105H80.4517C80.4517 72.0781 80.7533 70.9214 81.3565 69.9403C81.9598 68.9593 82.8049 68.2003 83.892 67.6634C84.9792 67.1264 86.232 66.858 87.6506 66.858C89.1089 66.858 90.3783 67.1165 91.4588 67.6335C92.5459 68.1439 93.3911 68.8532 93.9943 69.7614C94.5975 70.6695 94.8991 71.7102 94.8991 72.8835C94.8991 73.6525 94.7467 74.4115 94.4418 75.1605C94.1435 75.9096 93.6098 76.7415 92.8409 77.6562C92.072 78.5644 90.9882 79.6548 89.5895 80.9276L86.6165 83.8409V83.9801H95.1676V87.5H80.6506ZM106.103 87.7784C105.055 87.7718 104.044 87.5961 103.07 87.2514C102.102 86.9067 101.234 86.3466 100.465 85.571C99.6959 84.7955 99.0861 83.768 98.6353 82.4886C98.1912 81.2093 97.9691 79.6383 97.9691 77.7756C97.9757 76.0653 98.1713 74.5374 98.5558 73.1918C98.9469 71.8395 99.5037 70.6927 100.226 69.7514C100.955 68.8101 101.827 68.0942 102.841 67.6037C103.855 67.1065 104.992 66.858 106.252 66.858C107.611 66.858 108.81 67.1231 109.851 67.6534C110.892 68.1771 111.727 68.8897 112.357 69.7912C112.993 70.6927 113.378 71.7036 113.51 72.8239H109.265C109.099 72.1146 108.751 71.5578 108.221 71.1534C107.69 70.7491 107.034 70.5469 106.252 70.5469C104.926 70.5469 103.918 71.1236 103.229 72.277C102.546 73.4304 102.198 74.9981 102.185 76.9801H102.324C102.629 76.3769 103.04 75.8632 103.557 75.4389C104.081 75.008 104.674 74.6799 105.337 74.4545C106.007 74.2225 106.712 74.1065 107.455 74.1065C108.661 74.1065 109.735 74.3916 110.676 74.9616C111.618 75.5251 112.36 76.3007 112.904 77.2884C113.447 78.276 113.719 79.4062 113.719 80.679C113.719 82.0578 113.398 83.2841 112.755 84.358C112.118 85.4318 111.227 86.2737 110.08 86.8835C108.94 87.4867 107.614 87.785 106.103 87.7784ZM106.083 84.3977C106.746 84.3977 107.339 84.2386 107.863 83.9205C108.386 83.6023 108.797 83.1714 109.096 82.6278C109.394 82.0843 109.543 81.4744 109.543 80.7983C109.543 80.1222 109.394 79.5156 109.096 78.9787C108.804 78.4418 108.4 78.0142 107.882 77.696C107.365 77.3778 106.775 77.2188 106.113 77.2188C105.615 77.2188 105.155 77.3116 104.73 77.4972C104.313 77.6828 103.945 77.9413 103.627 78.2727C103.315 78.6042 103.07 78.9886 102.891 79.4261C102.712 79.857 102.623 80.3177 102.623 80.8082C102.623 81.4645 102.772 82.0644 103.07 82.608C103.375 83.1515 103.786 83.5857 104.303 83.9105C104.827 84.2353 105.42 84.3977 106.083 84.3977ZM118.44 87.7585C117.783 87.7585 117.22 87.5265 116.749 87.0625C116.285 86.5919 116.053 86.0284 116.053 85.3722C116.053 84.7225 116.285 84.1657 116.749 83.7017C117.22 83.2377 117.783 83.0057 118.44 83.0057C119.076 83.0057 119.633 83.2377 120.11 83.7017C120.587 84.1657 120.826 84.7225 120.826 85.3722C120.826 85.8097 120.713 86.2107 120.488 86.5753C120.269 86.9332 119.981 87.2216 119.623 87.4403C119.265 87.6525 118.871 87.7585 118.44 87.7585ZM131.428 87.9474C129.718 87.9408 128.246 87.5199 127.013 86.6847C125.787 85.8494 124.842 84.6397 124.179 83.0554C123.523 81.4711 123.198 79.5653 123.205 77.3381C123.205 75.1174 123.533 73.2249 124.189 71.6605C124.852 70.0961 125.797 68.9062 127.023 68.0909C128.256 67.2689 129.724 66.858 131.428 66.858C133.132 66.858 134.596 67.2689 135.823 68.0909C137.056 68.9129 138.004 70.1061 138.667 71.6705C139.329 73.2282 139.658 75.1174 139.651 77.3381C139.651 79.572 139.319 81.4811 138.657 83.0653C138 84.6496 137.059 85.8594 135.833 86.6946C134.606 87.5298 133.138 87.9474 131.428 87.9474ZM131.428 84.3778C132.595 84.3778 133.526 83.7912 134.222 82.6179C134.918 81.4446 135.263 79.6847 135.256 77.3381C135.256 75.7936 135.097 74.5076 134.779 73.4801C134.467 72.4527 134.023 71.6804 133.446 71.1634C132.876 70.6463 132.203 70.3878 131.428 70.3878C130.268 70.3878 129.34 70.9678 128.644 72.1278C127.948 73.2879 127.596 75.0246 127.59 77.3381C127.59 78.9025 127.746 80.2083 128.057 81.2557C128.375 82.2964 128.823 83.0786 129.4 83.6023C129.976 84.1193 130.652 84.3778 131.428 84.3778Z" fill="#6A2EFF"/>
<path d="M148.815 87.5V72.9545H151.89V84.9645H158.126V87.5H148.815ZM160.163 87.5V72.9545H165.901C167.004 72.9545 167.944 73.1652 168.721 73.5866C169.497 74.0033 170.089 74.5833 170.496 75.3267C170.908 76.0653 171.114 76.9176 171.114 77.8835C171.114 78.8494 170.906 79.7017 170.489 80.4403C170.073 81.179 169.469 81.7543 168.678 82.1662C167.892 82.5781 166.941 82.7841 165.823 82.7841H162.165V80.3196H165.326C165.918 80.3196 166.406 80.2178 166.789 80.0142C167.177 79.8059 167.466 79.5194 167.656 79.1548C167.85 78.7855 167.947 78.3617 167.947 77.8835C167.947 77.4006 167.85 76.9792 167.656 76.6193C167.466 76.2547 167.177 75.973 166.789 75.7741C166.401 75.5705 165.908 75.4688 165.312 75.4688H163.238V87.5H160.163ZM173.939 87.5H170.644L175.665 72.9545H179.628L184.642 87.5H181.347L177.703 76.2784H177.59L173.939 87.5ZM173.733 81.7827H181.517V84.1832H173.733V81.7827Z" fill="#64696E"/>
<line x1="84" y1="98" x2="181" y2="98" stroke="#1437FF"/>
<path d="M87.8364 118.5V110.5H89.5278V113.801H92.9614V110.5H94.6489V118.5H92.9614V115.195H89.5278V118.5H87.8364ZM96.0122 118.5V112.5H97.6763V118.5H96.0122ZM96.8481 111.727C96.6007 111.727 96.3885 111.645 96.2114 111.48C96.0369 111.314 95.9497 111.115 95.9497 110.883C95.9497 110.654 96.0369 110.457 96.2114 110.293C96.3885 110.126 96.6007 110.043 96.8481 110.043C97.0955 110.043 97.3065 110.126 97.481 110.293C97.658 110.457 97.7466 110.654 97.7466 110.883C97.7466 111.115 97.658 111.314 97.481 111.48C97.3065 111.645 97.0955 111.727 96.8481 111.727ZM101.712 120.875C101.173 120.875 100.711 120.801 100.326 120.652C99.9429 120.507 99.6382 120.307 99.4116 120.055C99.1851 119.802 99.0379 119.518 98.9702 119.203L100.509 118.996C100.556 119.116 100.63 119.228 100.732 119.332C100.833 119.436 100.968 119.52 101.134 119.582C101.304 119.647 101.509 119.68 101.751 119.68C102.113 119.68 102.412 119.591 102.646 119.414C102.883 119.24 103.001 118.947 103.001 118.535V117.437H102.931C102.858 117.604 102.749 117.762 102.603 117.91C102.457 118.059 102.27 118.18 102.041 118.273C101.811 118.367 101.538 118.414 101.22 118.414C100.77 118.414 100.36 118.31 99.9897 118.102C99.6226 117.891 99.3296 117.569 99.1108 117.137C98.8947 116.702 98.7866 116.152 98.7866 115.488C98.7866 114.809 98.8973 114.241 99.1187 113.785C99.34 113.329 99.6343 112.988 100.001 112.762C100.371 112.535 100.776 112.422 101.216 112.422C101.552 112.422 101.833 112.479 102.06 112.594C102.287 112.706 102.469 112.846 102.607 113.016C102.748 113.182 102.856 113.346 102.931 113.508H102.994V112.5H104.646V118.559C104.646 119.069 104.521 119.496 104.271 119.84C104.021 120.184 103.675 120.441 103.232 120.613C102.792 120.788 102.285 120.875 101.712 120.875ZM101.748 117.164C102.016 117.164 102.242 117.098 102.427 116.965C102.615 116.829 102.758 116.637 102.857 116.387C102.958 116.134 103.009 115.832 103.009 115.48C103.009 115.129 102.96 114.824 102.861 114.566C102.762 114.306 102.619 114.104 102.431 113.961C102.244 113.818 102.016 113.746 101.748 113.746C101.474 113.746 101.244 113.82 101.056 113.969C100.869 114.115 100.727 114.318 100.63 114.578C100.534 114.839 100.486 115.139 100.486 115.48C100.486 115.827 100.534 116.126 100.63 116.379C100.729 116.629 100.871 116.823 101.056 116.961C101.244 117.096 101.474 117.164 101.748 117.164ZM107.634 115.031V118.5H105.97V110.5H107.587V113.559H107.658C107.793 113.204 108.012 112.927 108.314 112.727C108.616 112.523 108.995 112.422 109.451 112.422C109.867 112.422 110.231 112.513 110.541 112.695C110.853 112.875 111.095 113.134 111.267 113.473C111.442 113.809 111.528 114.211 111.525 114.68V118.5H109.861V114.977C109.863 114.607 109.77 114.319 109.58 114.113C109.392 113.908 109.129 113.805 108.791 113.805C108.564 113.805 108.363 113.853 108.189 113.949C108.017 114.046 107.882 114.186 107.783 114.371C107.686 114.553 107.637 114.773 107.634 115.031ZM115.569 118.617C114.952 118.617 114.42 118.492 113.975 118.242C113.532 117.99 113.191 117.633 112.952 117.172C112.712 116.708 112.592 116.16 112.592 115.527C112.592 114.91 112.712 114.368 112.952 113.902C113.191 113.436 113.528 113.073 113.963 112.812C114.401 112.552 114.914 112.422 115.502 112.422C115.898 112.422 116.267 112.486 116.608 112.613C116.952 112.738 117.251 112.927 117.506 113.18C117.764 113.432 117.965 113.75 118.108 114.133C118.251 114.513 118.323 114.958 118.323 115.469V115.926H113.256V114.895H116.756C116.756 114.655 116.704 114.443 116.6 114.258C116.496 114.073 116.351 113.928 116.167 113.824C115.984 113.717 115.772 113.664 115.53 113.664C115.277 113.664 115.053 113.723 114.858 113.84C114.665 113.954 114.514 114.109 114.405 114.305C114.295 114.497 114.239 114.712 114.237 114.949V115.93C114.237 116.227 114.292 116.483 114.401 116.699C114.513 116.915 114.67 117.082 114.874 117.199C115.077 117.316 115.318 117.375 115.596 117.375C115.781 117.375 115.95 117.349 116.104 117.297C116.258 117.245 116.389 117.167 116.499 117.062C116.608 116.958 116.691 116.831 116.749 116.68L118.288 116.781C118.209 117.151 118.049 117.474 117.807 117.75C117.568 118.023 117.258 118.237 116.877 118.391C116.5 118.542 116.064 118.617 115.569 118.617ZM124.401 114.211L122.877 114.305C122.851 114.174 122.795 114.057 122.709 113.953C122.624 113.846 122.51 113.762 122.37 113.699C122.232 113.634 122.066 113.602 121.874 113.602C121.616 113.602 121.398 113.656 121.221 113.766C121.044 113.872 120.956 114.016 120.956 114.195C120.956 114.339 121.013 114.46 121.127 114.559C121.242 114.658 121.439 114.737 121.717 114.797L122.803 115.016C123.387 115.135 123.821 115.328 124.108 115.594C124.394 115.859 124.538 116.208 124.538 116.641C124.538 117.034 124.422 117.379 124.19 117.676C123.961 117.973 123.646 118.204 123.245 118.371C122.846 118.535 122.387 118.617 121.866 118.617C121.071 118.617 120.439 118.452 119.967 118.121C119.499 117.788 119.224 117.335 119.143 116.762L120.78 116.676C120.829 116.918 120.949 117.103 121.139 117.23C121.329 117.355 121.573 117.418 121.87 117.418C122.161 117.418 122.396 117.362 122.573 117.25C122.752 117.135 122.844 116.988 122.846 116.809C122.844 116.658 122.78 116.534 122.655 116.438C122.53 116.339 122.337 116.263 122.077 116.211L121.038 116.004C120.452 115.887 120.015 115.684 119.729 115.395C119.445 115.105 119.303 114.737 119.303 114.289C119.303 113.904 119.407 113.572 119.616 113.293C119.827 113.014 120.122 112.799 120.502 112.648C120.885 112.497 121.333 112.422 121.846 112.422C122.604 112.422 123.2 112.582 123.635 112.902C124.073 113.223 124.328 113.659 124.401 114.211ZM128.777 112.5V113.75H125.164V112.5H128.777ZM125.984 111.062H127.648V116.656C127.648 116.81 127.671 116.93 127.718 117.016C127.765 117.099 127.83 117.158 127.914 117.191C128 117.225 128.098 117.242 128.21 117.242C128.289 117.242 128.367 117.236 128.445 117.223C128.523 117.207 128.583 117.195 128.625 117.187L128.886 118.426C128.803 118.452 128.686 118.482 128.535 118.516C128.384 118.552 128.2 118.574 127.984 118.582C127.583 118.598 127.231 118.544 126.929 118.422C126.63 118.299 126.397 118.109 126.23 117.852C126.063 117.594 125.981 117.268 125.984 116.875V111.062ZM132.438 118.5V110.5H135.594C136.201 110.5 136.718 110.616 137.145 110.848C137.572 111.077 137.898 111.396 138.122 111.805C138.348 112.211 138.461 112.68 138.461 113.211C138.461 113.742 138.347 114.211 138.118 114.617C137.889 115.023 137.556 115.34 137.122 115.566C136.689 115.793 136.166 115.906 135.551 115.906H133.54V114.551H135.278C135.603 114.551 135.872 114.495 136.083 114.383C136.296 114.268 136.455 114.111 136.559 113.91C136.666 113.707 136.719 113.474 136.719 113.211C136.719 112.945 136.666 112.714 136.559 112.516C136.455 112.315 136.296 112.16 136.083 112.051C135.869 111.939 135.598 111.883 135.27 111.883H134.129V118.5H132.438ZM141.079 118.613C140.696 118.613 140.355 118.547 140.055 118.414C139.756 118.279 139.519 118.079 139.344 117.816C139.172 117.551 139.086 117.22 139.086 116.824C139.086 116.491 139.148 116.211 139.27 115.984C139.392 115.758 139.559 115.576 139.77 115.437C139.981 115.299 140.221 115.195 140.489 115.125C140.76 115.055 141.043 115.005 141.34 114.977C141.689 114.94 141.971 114.906 142.184 114.875C142.398 114.841 142.553 114.792 142.649 114.727C142.745 114.661 142.793 114.565 142.793 114.437V114.414C142.793 114.167 142.715 113.975 142.559 113.84C142.405 113.704 142.187 113.637 141.903 113.637C141.603 113.637 141.365 113.703 141.188 113.836C141.011 113.966 140.894 114.13 140.836 114.328L139.297 114.203C139.375 113.839 139.529 113.523 139.758 113.258C139.987 112.99 140.283 112.784 140.645 112.641C141.01 112.495 141.431 112.422 141.911 112.422C142.244 112.422 142.563 112.461 142.868 112.539C143.175 112.617 143.447 112.738 143.684 112.902C143.924 113.066 144.112 113.277 144.25 113.535C144.389 113.79 144.458 114.096 144.458 114.453V118.5H142.879V117.668H142.833C142.736 117.855 142.607 118.021 142.446 118.164C142.284 118.305 142.09 118.415 141.864 118.496C141.637 118.574 141.375 118.613 141.079 118.613ZM141.555 117.465C141.8 117.465 142.016 117.417 142.204 117.32C142.391 117.221 142.538 117.089 142.645 116.922C142.752 116.755 142.805 116.566 142.805 116.355V115.719C142.753 115.753 142.681 115.784 142.59 115.812C142.502 115.839 142.402 115.863 142.29 115.887C142.178 115.908 142.066 115.927 141.954 115.945C141.842 115.961 141.74 115.975 141.649 115.988C141.454 116.017 141.283 116.062 141.137 116.125C140.991 116.187 140.878 116.272 140.797 116.379C140.717 116.483 140.676 116.613 140.676 116.77C140.676 116.996 140.758 117.169 140.922 117.289C141.089 117.406 141.3 117.465 141.555 117.465ZM148.459 118.617C147.845 118.617 147.316 118.487 146.874 118.227C146.433 117.964 146.095 117.599 145.858 117.133C145.624 116.667 145.506 116.13 145.506 115.523C145.506 114.909 145.625 114.37 145.862 113.906C146.101 113.44 146.441 113.077 146.881 112.816C147.321 112.553 147.845 112.422 148.452 112.422C148.975 112.422 149.433 112.517 149.827 112.707C150.22 112.897 150.531 113.164 150.76 113.508C150.989 113.852 151.116 114.255 151.139 114.719H149.569C149.525 114.419 149.407 114.178 149.217 113.996C149.03 113.811 148.784 113.719 148.479 113.719C148.221 113.719 147.996 113.789 147.803 113.93C147.613 114.068 147.465 114.27 147.358 114.535C147.251 114.801 147.198 115.122 147.198 115.5C147.198 115.883 147.25 116.208 147.354 116.477C147.461 116.745 147.611 116.949 147.803 117.09C147.996 117.23 148.221 117.301 148.479 117.301C148.669 117.301 148.84 117.262 148.991 117.184C149.144 117.105 149.271 116.992 149.37 116.844C149.471 116.693 149.538 116.512 149.569 116.301H151.139C151.113 116.759 150.988 117.163 150.764 117.512C150.543 117.858 150.237 118.129 149.846 118.324C149.456 118.52 148.993 118.617 148.459 118.617ZM153.712 116.773L153.716 114.777H153.958L155.88 112.5H157.791L155.208 115.516H154.814L153.712 116.773ZM152.205 118.5V110.5H153.869V118.5H152.205ZM155.955 118.5L154.189 115.887L155.298 114.711L157.904 118.5H155.955ZM160.318 118.613C159.935 118.613 159.594 118.547 159.294 118.414C158.995 118.279 158.758 118.079 158.583 117.816C158.412 117.551 158.326 117.22 158.326 116.824C158.326 116.491 158.387 116.211 158.509 115.984C158.632 115.758 158.798 115.576 159.009 115.437C159.22 115.299 159.46 115.195 159.728 115.125C159.999 115.055 160.283 115.005 160.58 114.977C160.929 114.94 161.21 114.906 161.423 114.875C161.637 114.841 161.792 114.792 161.888 114.727C161.985 114.661 162.033 114.565 162.033 114.437V114.414C162.033 114.167 161.955 113.975 161.798 113.84C161.645 113.704 161.426 113.637 161.142 113.637C160.843 113.637 160.604 113.703 160.427 113.836C160.25 113.966 160.133 114.13 160.076 114.328L158.537 114.203C158.615 113.839 158.768 113.523 158.998 113.258C159.227 112.99 159.522 112.784 159.884 112.641C160.249 112.495 160.671 112.422 161.15 112.422C161.483 112.422 161.802 112.461 162.107 112.539C162.414 112.617 162.686 112.738 162.923 112.902C163.163 113.066 163.352 113.277 163.49 113.535C163.628 113.79 163.697 114.096 163.697 114.453V118.5H162.119V117.668H162.072C161.975 117.855 161.847 118.021 161.685 118.164C161.524 118.305 161.33 118.415 161.103 118.496C160.876 118.574 160.615 118.613 160.318 118.613ZM160.794 117.465C161.039 117.465 161.255 117.417 161.443 117.32C161.63 117.221 161.778 117.089 161.884 116.922C161.991 116.755 162.044 116.566 162.044 116.355V115.719C161.992 115.753 161.921 115.784 161.83 115.812C161.741 115.839 161.641 115.863 161.529 115.887C161.417 115.908 161.305 115.927 161.193 115.945C161.081 115.961 160.979 115.975 160.888 115.988C160.693 116.017 160.522 116.062 160.376 116.125C160.231 116.187 160.117 116.272 160.037 116.379C159.956 116.483 159.916 116.613 159.916 116.77C159.916 116.996 159.998 117.169 160.162 117.289C160.328 117.406 160.539 117.465 160.794 117.465ZM167.691 120.875C167.152 120.875 166.69 120.801 166.304 120.652C165.921 120.507 165.617 120.307 165.39 120.055C165.164 119.802 165.016 119.518 164.949 119.203L166.488 118.996C166.535 119.116 166.609 119.228 166.71 119.332C166.812 119.436 166.946 119.52 167.113 119.582C167.282 119.647 167.488 119.68 167.73 119.68C168.092 119.68 168.39 119.591 168.625 119.414C168.861 119.24 168.98 118.947 168.98 118.535V117.437H168.91C168.837 117.604 168.727 117.762 168.582 117.91C168.436 118.059 168.248 118.18 168.019 118.273C167.79 118.367 167.516 118.414 167.199 118.414C166.748 118.414 166.338 118.31 165.968 118.102C165.601 117.891 165.308 117.569 165.089 117.137C164.873 116.702 164.765 116.152 164.765 115.488C164.765 114.809 164.876 114.241 165.097 113.785C165.319 113.329 165.613 112.988 165.98 112.762C166.35 112.535 166.755 112.422 167.195 112.422C167.531 112.422 167.812 112.479 168.039 112.594C168.265 112.706 168.447 112.846 168.585 113.016C168.726 113.182 168.834 113.346 168.91 113.508H168.972V112.5H170.625V118.559C170.625 119.069 170.5 119.496 170.25 119.84C170 120.184 169.653 120.441 169.21 120.613C168.77 120.788 168.264 120.875 167.691 120.875ZM167.726 117.164C167.994 117.164 168.221 117.098 168.406 116.965C168.593 116.829 168.736 116.637 168.835 116.387C168.937 116.134 168.988 115.832 168.988 115.48C168.988 115.129 168.938 114.824 168.839 114.566C168.74 114.306 168.597 114.104 168.41 113.961C168.222 113.818 167.994 113.746 167.726 113.746C167.453 113.746 167.222 113.82 167.035 113.969C166.847 114.115 166.705 114.318 166.609 114.578C166.513 114.839 166.464 115.139 166.464 115.48C166.464 115.827 166.513 116.126 166.609 116.379C166.708 116.629 166.85 116.823 167.035 116.961C167.222 117.096 167.453 117.164 167.726 117.164ZM174.683 118.617C174.066 118.617 173.535 118.492 173.089 118.242C172.647 117.99 172.306 117.633 172.066 117.172C171.826 116.708 171.707 116.16 171.707 115.527C171.707 114.91 171.826 114.368 172.066 113.902C172.306 113.436 172.643 113.073 173.078 112.812C173.515 112.552 174.028 112.422 174.617 112.422C175.013 112.422 175.381 112.486 175.722 112.613C176.066 112.738 176.365 112.927 176.621 113.18C176.878 113.432 177.079 113.75 177.222 114.133C177.365 114.513 177.437 114.958 177.437 115.469V115.926H172.371V114.895H175.871C175.871 114.655 175.819 114.443 175.714 114.258C175.61 114.073 175.466 113.928 175.281 113.824C175.098 113.717 174.886 113.664 174.644 113.664C174.391 113.664 174.167 113.723 173.972 113.84C173.779 113.954 173.628 114.109 173.519 114.305C173.41 114.497 173.354 114.712 173.351 114.949V115.93C173.351 116.227 173.406 116.483 173.515 116.699C173.627 116.915 173.785 117.082 173.988 117.199C174.191 117.316 174.432 117.375 174.71 117.375C174.895 117.375 175.065 117.349 175.218 117.297C175.372 117.245 175.503 117.167 175.613 117.062C175.722 116.958 175.806 116.831 175.863 116.68L177.402 116.781C177.324 117.151 177.164 117.474 176.921 117.75C176.682 118.023 176.372 118.237 175.992 118.391C175.614 118.542 175.178 118.617 174.683 118.617Z" fill="#8E9BAC"/>
<path d="M71.042 204V196H72.249V199.477H76.2373V196H77.4482V204H76.2373V200.512H72.249V204H71.042ZM79.1123 204V198H80.2803V204H79.1123ZM79.7021 197.074C79.499 197.074 79.3245 197.007 79.1787 196.871C79.0355 196.733 78.9639 196.569 78.9639 196.379C78.9639 196.186 79.0355 196.022 79.1787 195.887C79.3245 195.749 79.499 195.68 79.7021 195.68C79.9053 195.68 80.0785 195.749 80.2217 195.887C80.3675 196.022 80.4404 196.186 80.4404 196.379C80.4404 196.569 80.3675 196.733 80.2217 196.871C80.0785 197.007 79.9053 197.074 79.7021 197.074ZM84.3672 206.375C83.8906 206.375 83.4805 206.313 83.1367 206.188C82.7956 206.063 82.5169 205.897 82.3008 205.691C82.0846 205.486 81.9232 205.26 81.8164 205.016L82.8203 204.602C82.8906 204.716 82.9844 204.837 83.1016 204.965C83.2214 205.095 83.3828 205.206 83.5859 205.297C83.7917 205.388 84.056 205.434 84.3789 205.434C84.8216 205.434 85.1875 205.326 85.4766 205.109C85.7656 204.896 85.9102 204.555 85.9102 204.086V202.906H85.8359C85.7656 203.034 85.6641 203.176 85.5313 203.332C85.401 203.488 85.2214 203.624 84.9922 203.738C84.763 203.853 84.4648 203.91 84.0977 203.91C83.6237 203.91 83.1966 203.799 82.8164 203.578C82.4388 203.354 82.1393 203.025 81.918 202.59C81.6992 202.152 81.5898 201.615 81.5898 200.977C81.5898 200.339 81.6979 199.792 81.9141 199.336C82.1328 198.88 82.4323 198.531 82.8125 198.289C83.1927 198.044 83.6237 197.922 84.1055 197.922C84.4779 197.922 84.7786 197.984 85.0078 198.109C85.237 198.232 85.4154 198.375 85.543 198.539C85.6732 198.703 85.7734 198.848 85.8438 198.973H85.9297V198H87.0742V204.133C87.0742 204.648 86.9544 205.072 86.7148 205.402C86.4753 205.733 86.151 205.978 85.7422 206.137C85.3359 206.296 84.8776 206.375 84.3672 206.375ZM84.3555 202.941C84.6914 202.941 84.9753 202.863 85.207 202.707C85.4414 202.548 85.6185 202.322 85.7383 202.027C85.8607 201.73 85.9219 201.375 85.9219 200.961C85.9219 200.557 85.862 200.202 85.7422 199.895C85.6224 199.587 85.4466 199.348 85.2148 199.176C84.9831 199.001 84.6966 198.914 84.3555 198.914C84.0039 198.914 83.7109 199.005 83.4766 199.188C83.2422 199.367 83.0651 199.612 82.9453 199.922C82.8281 200.232 82.7695 200.578 82.7695 200.961C82.7695 201.354 82.8294 201.699 82.9492 201.996C83.069 202.293 83.2461 202.525 83.4805 202.691C83.7174 202.858 84.0091 202.941 84.3555 202.941ZM89.8086 200.437V204H88.6406V196H89.793V198.977H89.8672C90.0078 198.654 90.2227 198.397 90.5117 198.207C90.8008 198.017 91.1784 197.922 91.6445 197.922C92.056 197.922 92.4154 198.007 92.7227 198.176C93.0326 198.345 93.2721 198.598 93.4414 198.934C93.6133 199.267 93.6992 199.684 93.6992 200.184V204H92.5313V200.324C92.5313 199.884 92.418 199.543 92.1914 199.301C91.9648 199.056 91.6497 198.934 91.2461 198.934C90.9701 198.934 90.7227 198.992 90.5039 199.109C90.2878 199.227 90.1172 199.398 89.9922 199.625C89.8698 199.849 89.8086 200.12 89.8086 200.437ZM97.8437 204.121C97.2526 204.121 96.7435 203.995 96.3164 203.742C95.8919 203.487 95.5638 203.129 95.332 202.668C95.1029 202.204 94.9883 201.661 94.9883 201.039C94.9883 200.424 95.1029 199.883 95.332 199.414C95.5638 198.945 95.8867 198.579 96.3008 198.316C96.7174 198.053 97.2044 197.922 97.7617 197.922C98.1003 197.922 98.4284 197.978 98.7461 198.09C99.0638 198.202 99.349 198.378 99.6016 198.617C99.8542 198.857 100.053 199.168 100.199 199.551C100.345 199.931 100.418 200.393 100.418 200.937V201.352H95.6484V200.477H99.2734C99.2734 200.169 99.2109 199.897 99.0859 199.66C98.9609 199.421 98.7852 199.232 98.5586 199.094C98.3346 198.956 98.0716 198.887 97.7695 198.887C97.4414 198.887 97.1549 198.967 96.9102 199.129C96.668 199.288 96.4805 199.496 96.3477 199.754C96.2174 200.009 96.1523 200.286 96.1523 200.586V201.27C96.1523 201.671 96.2227 202.012 96.3633 202.293C96.5065 202.574 96.7057 202.789 96.9609 202.937C97.2161 203.083 97.5143 203.156 97.8555 203.156C98.0768 203.156 98.2786 203.125 98.4609 203.062C98.6432 202.997 98.8008 202.901 98.9336 202.773C99.0664 202.646 99.168 202.488 99.2383 202.301L100.344 202.5C100.255 202.826 100.096 203.111 99.8672 203.355C99.6406 203.598 99.3555 203.786 99.0117 203.922C98.6706 204.055 98.2812 204.121 97.8437 204.121ZM106.21 199.465L105.151 199.652C105.107 199.517 105.037 199.388 104.94 199.266C104.847 199.143 104.719 199.043 104.558 198.965C104.396 198.887 104.194 198.848 103.952 198.848C103.621 198.848 103.345 198.922 103.124 199.07C102.903 199.216 102.792 199.405 102.792 199.637C102.792 199.837 102.866 199.999 103.015 200.121C103.163 200.243 103.403 200.344 103.733 200.422L104.687 200.641C105.239 200.768 105.65 200.965 105.921 201.23C106.192 201.496 106.327 201.841 106.327 202.266C106.327 202.625 106.223 202.945 106.015 203.227C105.809 203.505 105.521 203.724 105.151 203.883C104.784 204.042 104.358 204.121 103.874 204.121C103.202 204.121 102.654 203.978 102.229 203.691C101.805 203.402 101.545 202.992 101.448 202.461L102.577 202.289C102.647 202.583 102.792 202.806 103.011 202.957C103.229 203.105 103.515 203.18 103.866 203.18C104.249 203.18 104.555 203.1 104.784 202.941C105.013 202.78 105.128 202.583 105.128 202.352C105.128 202.164 105.058 202.007 104.917 201.879C104.779 201.751 104.567 201.655 104.28 201.59L103.265 201.367C102.705 201.24 102.291 201.036 102.022 200.758C101.757 200.479 101.624 200.126 101.624 199.699C101.624 199.345 101.723 199.035 101.921 198.77C102.119 198.504 102.392 198.297 102.741 198.148C103.09 197.997 103.49 197.922 103.94 197.922C104.589 197.922 105.099 198.062 105.472 198.344C105.844 198.622 106.09 198.996 106.21 199.465ZM110.412 198V198.937H107.135V198H110.412ZM108.014 196.562H109.182V202.238C109.182 202.465 109.215 202.635 109.283 202.75C109.351 202.862 109.438 202.939 109.545 202.98C109.654 203.02 109.773 203.039 109.9 203.039C109.994 203.039 110.076 203.033 110.146 203.02C110.217 203.007 110.271 202.996 110.311 202.988L110.521 203.953C110.454 203.979 110.357 204.005 110.232 204.031C110.107 204.06 109.951 204.076 109.764 204.078C109.456 204.083 109.17 204.029 108.904 203.914C108.639 203.799 108.424 203.622 108.26 203.383C108.096 203.143 108.014 202.842 108.014 202.48V196.562ZM119.072 198.102C119.031 197.732 118.859 197.445 118.557 197.242C118.255 197.036 117.874 196.934 117.416 196.934C117.088 196.934 116.804 196.986 116.564 197.09C116.325 197.191 116.139 197.332 116.006 197.512C115.876 197.689 115.811 197.891 115.811 198.117C115.811 198.307 115.855 198.471 115.943 198.609C116.035 198.747 116.153 198.863 116.299 198.957C116.447 199.048 116.606 199.125 116.775 199.188C116.945 199.247 117.107 199.297 117.264 199.336L118.045 199.539C118.3 199.602 118.562 199.686 118.83 199.793C119.098 199.9 119.347 200.04 119.576 200.215C119.805 200.389 119.99 200.605 120.131 200.863C120.274 201.121 120.346 201.43 120.346 201.789C120.346 202.242 120.229 202.645 119.994 202.996C119.762 203.348 119.425 203.625 118.982 203.828C118.542 204.031 118.01 204.133 117.385 204.133C116.786 204.133 116.268 204.038 115.83 203.848C115.393 203.658 115.05 203.388 114.803 203.039C114.555 202.687 114.419 202.271 114.393 201.789H115.604C115.627 202.078 115.721 202.319 115.885 202.512C116.051 202.702 116.264 202.844 116.521 202.937C116.782 203.029 117.067 203.074 117.377 203.074C117.718 203.074 118.021 203.021 118.287 202.914C118.555 202.805 118.766 202.654 118.92 202.461C119.074 202.266 119.15 202.038 119.15 201.777C119.15 201.54 119.083 201.346 118.947 201.195C118.814 201.044 118.633 200.919 118.404 200.82C118.178 200.721 117.921 200.634 117.635 200.559L116.689 200.301C116.049 200.126 115.541 199.87 115.166 199.531C114.794 199.193 114.607 198.745 114.607 198.187C114.607 197.727 114.732 197.324 114.982 196.98C115.232 196.637 115.571 196.37 115.998 196.18C116.425 195.987 116.907 195.891 117.443 195.891C117.985 195.891 118.463 195.986 118.877 196.176C119.294 196.366 119.622 196.628 119.861 196.961C120.101 197.292 120.226 197.672 120.236 198.102H119.072ZM123.44 204.133C123.06 204.133 122.716 204.063 122.409 203.922C122.102 203.779 121.858 203.572 121.679 203.301C121.502 203.03 121.413 202.698 121.413 202.305C121.413 201.966 121.478 201.687 121.608 201.469C121.739 201.25 121.914 201.077 122.136 200.949C122.357 200.822 122.604 200.725 122.878 200.66C123.151 200.595 123.43 200.546 123.714 200.512C124.073 200.47 124.365 200.436 124.589 200.41C124.813 200.382 124.976 200.336 125.077 200.273C125.179 200.211 125.229 200.109 125.229 199.969V199.941C125.229 199.6 125.133 199.336 124.94 199.148C124.75 198.961 124.466 198.867 124.089 198.867C123.696 198.867 123.386 198.954 123.159 199.129C122.935 199.301 122.78 199.492 122.694 199.703L121.597 199.453C121.727 199.089 121.917 198.794 122.167 198.57C122.42 198.344 122.71 198.18 123.038 198.078C123.366 197.974 123.711 197.922 124.073 197.922C124.313 197.922 124.567 197.951 124.835 198.008C125.106 198.062 125.358 198.164 125.593 198.312C125.83 198.461 126.024 198.673 126.175 198.949C126.326 199.223 126.401 199.578 126.401 200.016V204H125.261V203.18H125.214C125.138 203.331 125.025 203.479 124.874 203.625C124.723 203.771 124.529 203.892 124.292 203.988C124.055 204.085 123.771 204.133 123.44 204.133ZM123.694 203.195C124.017 203.195 124.293 203.132 124.522 203.004C124.754 202.876 124.93 202.71 125.05 202.504C125.172 202.296 125.233 202.073 125.233 201.836V201.062C125.192 201.104 125.111 201.143 124.991 201.18C124.874 201.214 124.74 201.243 124.589 201.27C124.438 201.293 124.291 201.315 124.147 201.336C124.004 201.354 123.884 201.37 123.788 201.383C123.562 201.411 123.354 201.46 123.167 201.527C122.982 201.595 122.834 201.693 122.722 201.82C122.612 201.945 122.558 202.112 122.558 202.32C122.558 202.609 122.664 202.828 122.878 202.977C123.091 203.122 123.364 203.195 123.694 203.195ZM129.125 196V204H127.957V196H129.125ZM132.442 204.133C132.062 204.133 131.718 204.063 131.411 203.922C131.104 203.779 130.86 203.572 130.681 203.301C130.504 203.03 130.415 202.698 130.415 202.305C130.415 201.966 130.48 201.687 130.61 201.469C130.741 201.25 130.916 201.077 131.138 200.949C131.359 200.822 131.606 200.725 131.88 200.66C132.153 200.595 132.432 200.546 132.716 200.512C133.075 200.47 133.367 200.436 133.591 200.41C133.815 200.382 133.978 200.336 134.079 200.273C134.181 200.211 134.231 200.109 134.231 199.969V199.941C134.231 199.6 134.135 199.336 133.942 199.148C133.752 198.961 133.468 198.867 133.091 198.867C132.698 198.867 132.388 198.954 132.161 199.129C131.937 199.301 131.782 199.492 131.696 199.703L130.599 199.453C130.729 199.089 130.919 198.794 131.169 198.57C131.422 198.344 131.712 198.18 132.04 198.078C132.368 197.974 132.713 197.922 133.075 197.922C133.315 197.922 133.569 197.951 133.837 198.008C134.108 198.062 134.36 198.164 134.595 198.312C134.832 198.461 135.026 198.673 135.177 198.949C135.328 199.223 135.403 199.578 135.403 200.016V204H134.263V203.18H134.216C134.14 203.331 134.027 203.479 133.876 203.625C133.725 203.771 133.531 203.892 133.294 203.988C133.057 204.085 132.773 204.133 132.442 204.133ZM132.696 203.195C133.019 203.195 133.295 203.132 133.524 203.004C133.756 202.876 133.932 202.71 134.052 202.504C134.174 202.296 134.235 202.073 134.235 201.836V201.062C134.194 201.104 134.113 201.143 133.993 201.18C133.876 201.214 133.742 201.243 133.591 201.27C133.44 201.293 133.293 201.315 133.149 201.336C133.006 201.354 132.886 201.37 132.79 201.383C132.563 201.411 132.356 201.46 132.169 201.527C131.984 201.595 131.836 201.693 131.724 201.82C131.614 201.945 131.56 202.112 131.56 202.32C131.56 202.609 131.666 202.828 131.88 202.977C132.093 203.122 132.366 203.195 132.696 203.195ZM136.959 204V198H138.088V198.953H138.15C138.26 198.63 138.452 198.376 138.729 198.191C139.007 198.004 139.322 197.91 139.674 197.91C139.747 197.91 139.833 197.913 139.932 197.918C140.033 197.923 140.113 197.93 140.17 197.937V199.055C140.123 199.042 140.04 199.027 139.92 199.012C139.8 198.993 139.68 198.984 139.561 198.984C139.285 198.984 139.038 199.043 138.822 199.16C138.609 199.275 138.439 199.435 138.314 199.641C138.189 199.844 138.127 200.076 138.127 200.336V204H136.959ZM142.102 206.25C141.927 206.25 141.768 206.236 141.625 206.207C141.482 206.181 141.375 206.152 141.305 206.121L141.586 205.164C141.799 205.221 141.99 205.246 142.156 205.238C142.323 205.23 142.47 205.168 142.598 205.051C142.728 204.934 142.842 204.742 142.941 204.477L143.086 204.078L140.891 198H142.141L143.66 202.656H143.723L145.242 198H146.496L144.023 204.801C143.909 205.113 143.763 205.378 143.586 205.594C143.409 205.813 143.198 205.977 142.953 206.086C142.708 206.195 142.424 206.25 142.102 206.25ZM150.599 204V196H153.45C154.073 196 154.588 196.113 154.997 196.34C155.406 196.566 155.712 196.876 155.915 197.27C156.118 197.66 156.22 198.1 156.22 198.59C156.22 199.082 156.117 199.525 155.911 199.918C155.708 200.309 155.401 200.618 154.989 200.848C154.58 201.074 154.066 201.188 153.446 201.188H151.485V200.164H153.337C153.73 200.164 154.049 200.096 154.294 199.961C154.539 199.823 154.718 199.635 154.833 199.398C154.948 199.161 155.005 198.892 155.005 198.59C155.005 198.288 154.948 198.02 154.833 197.785C154.718 197.551 154.537 197.367 154.29 197.234C154.045 197.102 153.722 197.035 153.321 197.035H151.806V204H150.599ZM159.233 204.133C158.853 204.133 158.509 204.063 158.202 203.922C157.895 203.779 157.651 203.572 157.472 203.301C157.295 203.03 157.206 202.698 157.206 202.305C157.206 201.966 157.271 201.687 157.401 201.469C157.532 201.25 157.707 201.077 157.929 200.949C158.15 200.822 158.397 200.725 158.671 200.66C158.944 200.595 159.223 200.546 159.507 200.512C159.866 200.47 160.158 200.436 160.382 200.41C160.606 200.382 160.769 200.336 160.87 200.273C160.972 200.211 161.022 200.109 161.022 199.969V199.941C161.022 199.6 160.926 199.336 160.733 199.148C160.543 198.961 160.259 198.867 159.882 198.867C159.489 198.867 159.179 198.954 158.952 199.129C158.728 199.301 158.573 199.492 158.487 199.703L157.39 199.453C157.52 199.089 157.71 198.794 157.96 198.57C158.213 198.344 158.503 198.18 158.831 198.078C159.159 197.974 159.504 197.922 159.866 197.922C160.106 197.922 160.36 197.951 160.628 198.008C160.899 198.062 161.151 198.164 161.386 198.312C161.623 198.461 161.817 198.673 161.968 198.949C162.119 199.223 162.194 199.578 162.194 200.016V204H161.054V203.18H161.007C160.931 203.331 160.818 203.479 160.667 203.625C160.516 203.771 160.322 203.892 160.085 203.988C159.848 204.085 159.564 204.133 159.233 204.133ZM159.487 203.195C159.81 203.195 160.086 203.132 160.315 203.004C160.547 202.876 160.723 202.71 160.843 202.504C160.965 202.296 161.026 202.073 161.026 201.836V201.062C160.985 201.104 160.904 201.143 160.784 201.18C160.667 201.214 160.533 201.243 160.382 201.27C160.231 201.293 160.084 201.315 159.94 201.336C159.797 201.354 159.677 201.37 159.581 201.383C159.354 201.411 159.147 201.46 158.96 201.527C158.775 201.595 158.627 201.693 158.515 201.82C158.405 201.945 158.351 202.112 158.351 202.32C158.351 202.609 158.457 202.828 158.671 202.977C158.884 203.122 159.157 203.195 159.487 203.195ZM166.277 204.121C165.697 204.121 165.197 203.99 164.777 203.727C164.361 203.461 164.04 203.095 163.816 202.629C163.592 202.163 163.48 201.629 163.48 201.027C163.48 200.418 163.595 199.88 163.824 199.414C164.053 198.945 164.376 198.579 164.793 198.316C165.21 198.053 165.701 197.922 166.266 197.922C166.721 197.922 167.128 198.007 167.484 198.176C167.841 198.342 168.129 198.577 168.348 198.879C168.569 199.181 168.701 199.534 168.742 199.937H167.605C167.543 199.656 167.4 199.414 167.176 199.211C166.954 199.008 166.658 198.906 166.285 198.906C165.96 198.906 165.674 198.992 165.43 199.164C165.188 199.333 164.999 199.576 164.863 199.891C164.728 200.203 164.66 200.573 164.66 201C164.66 201.437 164.727 201.815 164.859 202.133C164.992 202.451 165.18 202.697 165.422 202.871C165.667 203.046 165.954 203.133 166.285 203.133C166.507 203.133 166.707 203.092 166.887 203.012C167.069 202.928 167.221 202.81 167.344 202.656C167.469 202.503 167.556 202.318 167.605 202.102H168.742C168.701 202.49 168.574 202.836 168.363 203.141C168.152 203.445 167.87 203.685 167.516 203.859C167.164 204.034 166.751 204.121 166.277 204.121ZM171.065 201.965L171.058 200.539H171.261L173.651 198H175.05L172.323 200.891H172.14L171.065 201.965ZM169.991 204V196H171.159V204H169.991ZM173.78 204L171.632 201.148L172.437 200.332L175.214 204H173.78ZM177.86 204.133C177.48 204.133 177.136 204.063 176.829 203.922C176.522 203.779 176.278 203.572 176.099 203.301C175.922 203.03 175.833 202.698 175.833 202.305C175.833 201.966 175.898 201.687 176.028 201.469C176.159 201.25 176.334 201.077 176.556 200.949C176.777 200.822 177.024 200.725 177.298 200.66C177.571 200.595 177.85 200.546 178.134 200.512C178.493 200.47 178.785 200.436 179.009 200.41C179.233 200.382 179.396 200.336 179.497 200.273C179.599 200.211 179.649 200.109 179.649 199.969V199.941C179.649 199.6 179.553 199.336 179.36 199.148C179.17 198.961 178.886 198.867 178.509 198.867C178.116 198.867 177.806 198.954 177.579 199.129C177.355 199.301 177.2 199.492 177.114 199.703L176.017 199.453C176.147 199.089 176.337 198.794 176.587 198.57C176.84 198.344 177.13 198.18 177.458 198.078C177.786 197.974 178.131 197.922 178.493 197.922C178.733 197.922 178.987 197.951 179.255 198.008C179.526 198.062 179.778 198.164 180.013 198.312C180.25 198.461 180.444 198.673 180.595 198.949C180.746 199.223 180.821 199.578 180.821 200.016V204H179.681V203.18H179.634C179.558 203.331 179.445 203.479 179.294 203.625C179.143 203.771 178.949 203.892 178.712 203.988C178.475 204.085 178.191 204.133 177.86 204.133ZM178.114 203.195C178.437 203.195 178.713 203.132 178.942 203.004C179.174 202.876 179.35 202.71 179.47 202.504C179.592 202.296 179.653 202.073 179.653 201.836V201.062C179.612 201.104 179.531 201.143 179.411 201.18C179.294 201.214 179.16 201.243 179.009 201.27C178.858 201.293 178.711 201.315 178.567 201.336C178.424 201.354 178.304 201.37 178.208 201.383C177.981 201.411 177.774 201.46 177.587 201.527C177.402 201.595 177.254 201.693 177.142 201.82C177.032 201.945 176.978 202.112 176.978 202.32C176.978 202.609 177.084 202.828 177.298 202.977C177.511 203.122 177.784 203.195 178.114 203.195ZM184.893 206.375C184.416 206.375 184.006 206.313 183.662 206.188C183.321 206.063 183.042 205.897 182.826 205.691C182.61 205.486 182.449 205.26 182.342 205.016L183.346 204.602C183.416 204.716 183.51 204.837 183.627 204.965C183.747 205.095 183.908 205.206 184.111 205.297C184.317 205.388 184.581 205.434 184.904 205.434C185.347 205.434 185.713 205.326 186.002 205.109C186.291 204.896 186.436 204.555 186.436 204.086V202.906H186.361C186.291 203.034 186.189 203.176 186.057 203.332C185.926 203.488 185.747 203.624 185.518 203.738C185.288 203.853 184.99 203.91 184.623 203.91C184.149 203.91 183.722 203.799 183.342 203.578C182.964 203.354 182.665 203.025 182.443 202.59C182.225 202.152 182.115 201.615 182.115 200.977C182.115 200.339 182.223 199.792 182.439 199.336C182.658 198.88 182.958 198.531 183.338 198.289C183.718 198.044 184.149 197.922 184.631 197.922C185.003 197.922 185.304 197.984 185.533 198.109C185.762 198.232 185.941 198.375 186.068 198.539C186.199 198.703 186.299 198.848 186.369 198.973H186.455V198H187.6V204.133C187.6 204.648 187.48 205.072 187.24 205.402C187.001 205.733 186.676 205.978 186.268 206.137C185.861 206.296 185.403 206.375 184.893 206.375ZM184.881 202.941C185.217 202.941 185.501 202.863 185.732 202.707C185.967 202.548 186.144 202.322 186.264 202.027C186.386 201.73 186.447 201.375 186.447 200.961C186.447 200.557 186.387 200.202 186.268 199.895C186.148 199.587 185.972 199.348 185.74 199.176C185.508 199.001 185.222 198.914 184.881 198.914C184.529 198.914 184.236 199.005 184.002 199.188C183.768 199.367 183.59 199.612 183.471 199.922C183.354 200.232 183.295 200.578 183.295 200.961C183.295 201.354 183.355 201.699 183.475 201.996C183.594 202.293 183.771 202.525 184.006 202.691C184.243 202.858 184.535 202.941 184.881 202.941ZM191.752 204.121C191.161 204.121 190.652 203.995 190.225 203.742C189.8 203.487 189.472 203.129 189.24 202.668C189.011 202.204 188.896 201.661 188.896 201.039C188.896 200.424 189.011 199.883 189.24 199.414C189.472 198.945 189.795 198.579 190.209 198.316C190.626 198.053 191.113 197.922 191.67 197.922C192.008 197.922 192.337 197.978 192.654 198.09C192.972 198.202 193.257 198.378 193.51 198.617C193.762 198.857 193.962 199.168 194.107 199.551C194.253 199.931 194.326 200.393 194.326 200.937V201.352H189.557V200.477H193.182C193.182 200.169 193.119 199.897 192.994 199.66C192.869 199.421 192.693 199.232 192.467 199.094C192.243 198.956 191.98 198.887 191.678 198.887C191.35 198.887 191.063 198.967 190.818 199.129C190.576 199.288 190.389 199.496 190.256 199.754C190.126 200.009 190.061 200.286 190.061 200.586V201.27C190.061 201.671 190.131 202.012 190.271 202.293C190.415 202.574 190.614 202.789 190.869 202.937C191.124 203.083 191.423 203.156 191.764 203.156C191.985 203.156 192.187 203.125 192.369 203.062C192.551 202.997 192.709 202.901 192.842 202.773C192.975 202.646 193.076 202.488 193.146 202.301L194.252 202.5C194.163 202.826 194.005 203.111 193.775 203.355C193.549 203.598 193.264 203.786 192.92 203.922C192.579 204.055 192.189 204.121 191.752 204.121ZM96.2314 217C96.2314 217.854 96.0752 218.589 95.7627 219.203C95.4502 219.815 95.0218 220.286 94.4775 220.617C93.9359 220.945 93.32 221.109 92.6299 221.109C91.9372 221.109 91.3187 220.945 90.7744 220.617C90.2327 220.286 89.8057 219.814 89.4932 219.199C89.1807 218.585 89.0244 217.852 89.0244 217C89.0244 216.146 89.1807 215.413 89.4932 214.801C89.8057 214.186 90.2327 213.715 90.7744 213.387C91.3187 213.056 91.9372 212.891 92.6299 212.891C93.32 212.891 93.9359 213.056 94.4775 213.387C95.0218 213.715 95.4502 214.186 95.7627 214.801C96.0752 215.413 96.2314 216.146 96.2314 217ZM95.0361 217C95.0361 216.349 94.9307 215.801 94.7197 215.355C94.5114 214.908 94.2249 214.569 93.8604 214.34C93.4984 214.108 93.0882 213.992 92.6299 213.992C92.1689 213.992 91.7575 214.108 91.3955 214.34C91.0335 214.569 90.7471 214.908 90.5361 215.355C90.3278 215.801 90.2236 216.349 90.2236 217C90.2236 217.651 90.3278 218.201 90.5361 218.648C90.7471 219.094 91.0335 219.432 91.3955 219.664C91.7575 219.893 92.1689 220.008 92.6299 220.008C93.0882 220.008 93.4984 219.893 93.8604 219.664C94.2249 219.432 94.5114 219.094 94.7197 218.648C94.9307 218.201 95.0361 217.651 95.0361 217ZM100.498 215V215.937H97.1074V215H100.498ZM98.0371 221V214.305C98.0371 213.93 98.1191 213.618 98.2832 213.371C98.4473 213.121 98.6647 212.935 98.9355 212.812C99.2064 212.687 99.5007 212.625 99.8184 212.625C100.053 212.625 100.253 212.645 100.42 212.684C100.587 212.72 100.71 212.754 100.791 212.785L100.518 213.73C100.463 213.715 100.393 213.697 100.307 213.676C100.221 213.652 100.117 213.641 99.9941 213.641C99.7103 213.641 99.5072 213.711 99.3848 213.852C99.265 213.992 99.2051 214.195 99.2051 214.461V221H98.0371ZM111.657 217C111.657 217.854 111.501 218.589 111.188 219.203C110.876 219.815 110.448 220.286 109.903 220.617C109.362 220.945 108.746 221.109 108.056 221.109C107.363 221.109 106.744 220.945 106.2 220.617C105.659 220.286 105.231 219.814 104.919 219.199C104.606 218.585 104.45 217.852 104.45 217C104.45 216.146 104.606 215.413 104.919 214.801C105.231 214.186 105.659 213.715 106.2 213.387C106.744 213.056 107.363 212.891 108.056 212.891C108.746 212.891 109.362 213.056 109.903 213.387C110.448 213.715 110.876 214.186 111.188 214.801C111.501 215.413 111.657 216.146 111.657 217ZM110.462 217C110.462 216.349 110.356 215.801 110.146 215.355C109.937 214.908 109.651 214.569 109.286 214.34C108.924 214.108 108.514 213.992 108.056 213.992C107.595 213.992 107.183 214.108 106.821 214.34C106.459 214.569 106.173 214.908 105.962 215.355C105.754 215.801 105.649 216.349 105.649 217C105.649 217.651 105.754 218.201 105.962 218.648C106.173 219.094 106.459 219.432 106.821 219.664C107.183 219.893 107.595 220.008 108.056 220.008C108.514 220.008 108.924 219.893 109.286 219.664C109.651 219.432 109.937 219.094 110.146 218.648C110.356 218.201 110.462 217.651 110.462 217ZM116.869 218.512V215H118.041V221H116.893V219.961H116.83C116.692 220.281 116.471 220.548 116.166 220.762C115.864 220.973 115.488 221.078 115.037 221.078C114.652 221.078 114.311 220.993 114.014 220.824C113.719 220.652 113.488 220.398 113.318 220.062C113.152 219.727 113.068 219.311 113.068 218.816V215H114.236V218.676C114.236 219.085 114.35 219.41 114.576 219.652C114.803 219.895 115.097 220.016 115.459 220.016C115.678 220.016 115.895 219.961 116.111 219.852C116.33 219.742 116.511 219.577 116.654 219.355C116.8 219.134 116.872 218.853 116.869 218.512ZM119.61 221V215H120.739V215.953H120.802C120.911 215.63 121.104 215.376 121.38 215.191C121.659 215.004 121.974 214.91 122.325 214.91C122.398 214.91 122.484 214.913 122.583 214.918C122.685 214.923 122.764 214.93 122.821 214.937V216.055C122.774 216.042 122.691 216.027 122.571 216.012C122.451 215.993 122.332 215.984 122.212 215.984C121.936 215.984 121.69 216.043 121.474 216.16C121.26 216.275 121.091 216.435 120.966 216.641C120.841 216.844 120.778 217.076 120.778 217.336V221H119.61ZM131.2 215.102C131.159 214.732 130.987 214.445 130.685 214.242C130.382 214.036 130.002 213.934 129.544 213.934C129.216 213.934 128.932 213.986 128.692 214.09C128.453 214.191 128.267 214.332 128.134 214.512C128.004 214.689 127.938 214.891 127.938 215.117C127.938 215.307 127.983 215.471 128.071 215.609C128.162 215.747 128.281 215.863 128.427 215.957C128.575 216.048 128.734 216.125 128.903 216.188C129.073 216.247 129.235 216.297 129.392 216.336L130.173 216.539C130.428 216.602 130.69 216.686 130.958 216.793C131.226 216.9 131.475 217.04 131.704 217.215C131.933 217.389 132.118 217.605 132.259 217.863C132.402 218.121 132.474 218.43 132.474 218.789C132.474 219.242 132.356 219.645 132.122 219.996C131.89 220.348 131.553 220.625 131.11 220.828C130.67 221.031 130.138 221.133 129.513 221.133C128.914 221.133 128.396 221.038 127.958 220.848C127.521 220.658 127.178 220.388 126.931 220.039C126.683 219.687 126.547 219.271 126.521 218.789H127.731C127.755 219.078 127.849 219.319 128.013 219.512C128.179 219.702 128.392 219.844 128.649 219.937C128.91 220.029 129.195 220.074 129.505 220.074C129.846 220.074 130.149 220.021 130.415 219.914C130.683 219.805 130.894 219.654 131.048 219.461C131.201 219.266 131.278 219.038 131.278 218.777C131.278 218.54 131.211 218.346 131.075 218.195C130.942 218.044 130.761 217.919 130.532 217.82C130.306 217.721 130.049 217.634 129.763 217.559L128.817 217.301C128.177 217.126 127.669 216.87 127.294 216.531C126.922 216.193 126.735 215.745 126.735 215.187C126.735 214.727 126.86 214.324 127.11 213.98C127.36 213.637 127.699 213.37 128.126 213.18C128.553 212.987 129.035 212.891 129.571 212.891C130.113 212.891 130.591 212.986 131.005 213.176C131.422 213.366 131.75 213.628 131.989 213.961C132.229 214.292 132.354 214.672 132.364 215.102H131.2ZM136.623 215V215.937H133.346V215H136.623ZM134.225 213.562H135.393V219.238C135.393 219.465 135.426 219.635 135.494 219.75C135.562 219.862 135.649 219.939 135.756 219.98C135.865 220.02 135.984 220.039 136.111 220.039C136.205 220.039 136.287 220.033 136.357 220.02C136.428 220.007 136.482 219.996 136.521 219.988L136.732 220.953C136.665 220.979 136.568 221.005 136.443 221.031C136.318 221.06 136.162 221.076 135.975 221.078C135.667 221.083 135.381 221.029 135.115 220.914C134.85 220.799 134.635 220.622 134.471 220.383C134.307 220.143 134.225 219.842 134.225 219.48V213.562ZM141.716 218.512V215H142.888V221H141.739V219.961H141.677C141.539 220.281 141.317 220.548 141.013 220.762C140.711 220.973 140.334 221.078 139.884 221.078C139.498 221.078 139.157 220.993 138.86 220.824C138.566 220.652 138.334 220.398 138.165 220.062C137.998 219.727 137.915 219.311 137.915 218.816V215H139.083V218.676C139.083 219.085 139.196 219.41 139.423 219.652C139.649 219.895 139.944 220.016 140.306 220.016C140.524 220.016 140.742 219.961 140.958 219.852C141.177 219.742 141.358 219.577 141.501 219.355C141.647 219.134 141.718 218.853 141.716 218.512ZM146.703 221.117C146.219 221.117 145.786 220.993 145.406 220.746C145.029 220.496 144.732 220.141 144.516 219.68C144.302 219.216 144.195 218.66 144.195 218.012C144.195 217.363 144.303 216.809 144.52 216.348C144.738 215.887 145.038 215.534 145.418 215.289C145.798 215.044 146.229 214.922 146.711 214.922C147.083 214.922 147.383 214.984 147.609 215.109C147.839 215.232 148.016 215.375 148.141 215.539C148.268 215.703 148.367 215.848 148.438 215.973H148.508V213H149.676V221H148.535V220.066H148.438C148.367 220.194 148.266 220.34 148.133 220.504C148.003 220.668 147.823 220.811 147.594 220.934C147.365 221.056 147.068 221.117 146.703 221.117ZM146.961 220.121C147.297 220.121 147.581 220.033 147.813 219.855C148.047 219.676 148.224 219.427 148.344 219.109C148.466 218.792 148.527 218.422 148.527 218C148.527 217.583 148.467 217.219 148.348 216.906C148.228 216.594 148.052 216.35 147.82 216.176C147.589 216.001 147.302 215.914 146.961 215.914C146.609 215.914 146.316 216.005 146.082 216.188C145.848 216.37 145.671 216.618 145.551 216.934C145.434 217.249 145.375 217.604 145.375 218C145.375 218.401 145.435 218.762 145.555 219.082C145.674 219.402 145.852 219.656 146.086 219.844C146.323 220.029 146.615 220.121 146.961 220.121ZM153.929 221.121C153.338 221.121 152.828 220.995 152.401 220.742C151.977 220.487 151.649 220.129 151.417 219.668C151.188 219.204 151.073 218.661 151.073 218.039C151.073 217.424 151.188 216.883 151.417 216.414C151.649 215.945 151.972 215.579 152.386 215.316C152.802 215.053 153.289 214.922 153.847 214.922C154.185 214.922 154.513 214.978 154.831 215.09C155.149 215.202 155.434 215.378 155.687 215.617C155.939 215.857 156.138 216.168 156.284 216.551C156.43 216.931 156.503 217.393 156.503 217.937V218.352H151.733V217.477H155.358C155.358 217.169 155.296 216.897 155.171 216.66C155.046 216.421 154.87 216.232 154.644 216.094C154.42 215.956 154.157 215.887 153.854 215.887C153.526 215.887 153.24 215.967 152.995 216.129C152.753 216.288 152.565 216.496 152.433 216.754C152.302 217.009 152.237 217.286 152.237 217.586V218.27C152.237 218.671 152.308 219.012 152.448 219.293C152.591 219.574 152.791 219.789 153.046 219.937C153.301 220.083 153.599 220.156 153.94 220.156C154.162 220.156 154.364 220.125 154.546 220.062C154.728 219.997 154.886 219.901 155.019 219.773C155.151 219.646 155.253 219.488 155.323 219.301L156.429 219.5C156.34 219.826 156.181 220.111 155.952 220.355C155.726 220.598 155.44 220.786 155.097 220.922C154.756 221.055 154.366 221.121 153.929 221.121ZM158.967 217.437V221H157.799V215H158.92V215.977H158.994C159.132 215.659 159.348 215.404 159.643 215.211C159.939 215.018 160.313 214.922 160.764 214.922C161.173 214.922 161.531 215.008 161.838 215.18C162.145 215.349 162.383 215.602 162.553 215.937C162.722 216.273 162.807 216.689 162.807 217.184V221H161.639V217.324C161.639 216.889 161.525 216.549 161.299 216.305C161.072 216.057 160.761 215.934 160.365 215.934C160.094 215.934 159.854 215.992 159.643 216.109C159.434 216.227 159.269 216.398 159.146 216.625C159.027 216.849 158.967 217.12 158.967 217.437ZM167.174 215V215.937H163.896V215H167.174ZM164.775 213.562H165.943V219.238C165.943 219.465 165.977 219.635 166.045 219.75C166.113 219.862 166.2 219.939 166.307 219.98C166.416 220.02 166.535 220.039 166.662 220.039C166.756 220.039 166.838 220.033 166.908 220.02C166.979 220.007 167.033 219.996 167.072 219.988L167.283 220.953C167.215 220.979 167.119 221.005 166.994 221.031C166.869 221.06 166.713 221.076 166.525 221.078C166.218 221.083 165.932 221.029 165.666 220.914C165.4 220.799 165.186 220.622 165.021 220.383C164.857 220.143 164.775 219.842 164.775 219.48V213.562ZM172.865 216.465L171.807 216.652C171.762 216.517 171.692 216.388 171.596 216.266C171.502 216.143 171.374 216.043 171.213 215.965C171.051 215.887 170.85 215.848 170.607 215.848C170.277 215.848 170.001 215.922 169.779 216.07C169.558 216.216 169.447 216.405 169.447 216.637C169.447 216.837 169.521 216.999 169.67 217.121C169.818 217.243 170.058 217.344 170.389 217.422L171.342 217.641C171.894 217.768 172.305 217.965 172.576 218.23C172.847 218.496 172.982 218.841 172.982 219.266C172.982 219.625 172.878 219.945 172.67 220.227C172.464 220.505 172.176 220.724 171.807 220.883C171.439 221.042 171.014 221.121 170.529 221.121C169.857 221.121 169.309 220.978 168.885 220.691C168.46 220.402 168.2 219.992 168.104 219.461L169.232 219.289C169.303 219.583 169.447 219.806 169.666 219.957C169.885 220.105 170.17 220.18 170.521 220.18C170.904 220.18 171.21 220.1 171.439 219.941C171.669 219.78 171.783 219.583 171.783 219.352C171.783 219.164 171.713 219.007 171.572 218.879C171.434 218.751 171.222 218.655 170.936 218.59L169.92 218.367C169.36 218.24 168.946 218.036 168.678 217.758C168.412 217.479 168.279 217.126 168.279 216.699C168.279 216.345 168.378 216.035 168.576 215.77C168.774 215.504 169.048 215.297 169.396 215.148C169.745 214.997 170.145 214.922 170.596 214.922C171.244 214.922 171.755 215.062 172.127 215.344C172.499 215.622 172.745 215.996 172.865 216.465ZM175.036 221.074C174.823 221.074 174.639 220.999 174.485 220.848C174.332 220.694 174.255 220.509 174.255 220.293C174.255 220.079 174.332 219.897 174.485 219.746C174.639 219.592 174.823 219.516 175.036 219.516C175.25 219.516 175.433 219.592 175.587 219.746C175.741 219.897 175.817 220.079 175.817 220.293C175.817 220.436 175.781 220.568 175.708 220.687C175.638 220.805 175.544 220.898 175.427 220.969C175.31 221.039 175.179 221.074 175.036 221.074Z" fill="#8E9BAC"/>
<defs>
<filter id="filter0_d_838_5214" x="40" y="1.25977" width="185" height="185" filterUnits="userSpaceOnUse" color-interpolation-filters="sRGB">
<feFlood flood-opacity="0" result="BackgroundImageFix"/>
<feColorMatrix in="SourceAlpha" type="matrix" values="0 0 0 0 0 0 0 0 0 0 0 0 0 0 0 0 0 0 127 0" result="hardAlpha"/>
<feOffset dy="4"/>
<feGaussianBlur stdDeviation="2"/>
<feComposite in2="hardAlpha" operator="out"/>
<feColorMatrix type="matrix" values="0 0 0 0 0.415686 0 0 0 0 0.180392 0 0 0 0 1 0 0 0 0.25 0"/>
<feBlend mode="normal" in2="BackgroundImageFix" result="effect1_dropShadow_838_5214"/>
<feBlend mode="normal" in="SourceGraphic" in2="effect1_dropShadow_838_5214" result="shape"/>
</filter>
</defs>
</svg>
