<svg width="532" height="262" viewBox="0 0 532 262" fill="none" xmlns="http://www.w3.org/2000/svg">
<path d="M256.867 44.8096H289.133C292.371 44.8096 295 46.5997 295 48.8047V195.814C295 198.019 292.371 199.81 289.133 199.81H256.867C253.629 199.81 251 198.019 251 195.814V48.8047C251 46.5997 253.629 44.8096 256.867 44.8096Z" fill="#00B7FF"/>
<path d="M259.704 214.615C259.121 214.615 258.612 214.503 258.177 214.279C257.741 214.056 257.403 213.747 257.164 213.354C256.925 212.96 256.805 212.51 256.805 212.002V207.228H257.921V211.912C257.921 212.239 257.993 212.529 258.138 212.783C258.283 213.037 258.489 213.238 258.755 213.384C259.021 213.53 259.338 213.603 259.704 213.603C260.07 213.603 260.386 213.53 260.651 213.384C260.917 213.238 261.121 213.037 261.265 212.783C261.408 212.529 261.48 212.239 261.48 211.912V207.228H262.596V212.002C262.596 212.51 262.476 212.96 262.236 213.354C261.997 213.747 261.66 214.056 261.227 214.279C260.794 214.503 260.286 214.615 259.704 214.615ZM265.323 207.228V214.503H264.207V207.228H265.323ZM272.295 206.886L269.951 215.597H268.988L271.331 206.886H272.295ZM278.859 214.615C278.277 214.615 277.768 214.503 277.332 214.279C276.896 214.056 276.559 213.747 276.319 213.354C276.08 212.96 275.96 212.51 275.96 212.002V207.228H277.076V211.912C277.076 212.239 277.149 212.529 277.294 212.783C277.439 213.037 277.644 213.238 277.91 213.384C278.177 213.53 278.493 213.603 278.859 213.603C279.226 213.603 279.541 213.53 279.807 213.384C280.072 213.238 280.276 213.037 280.42 212.783C280.564 212.529 280.635 212.239 280.635 211.912V207.228H281.751V212.002C281.751 212.51 281.631 212.96 281.392 213.354C281.152 213.747 280.816 214.056 280.382 214.279C279.949 214.503 279.441 214.615 278.859 214.615ZM282.826 214.503L285.725 210.367V211.203L283.011 207.228H284.304L285.27 208.663C285.424 208.892 285.55 209.089 285.648 209.255C285.746 209.421 285.836 209.582 285.918 209.738C285.999 209.895 286.091 210.073 286.193 210.273H285.954C286.057 210.076 286.149 209.899 286.231 209.742C286.314 209.586 286.405 209.424 286.506 209.257C286.607 209.09 286.735 208.892 286.889 208.663L287.872 207.228H289.134L286.441 211.15V210.335L289.297 214.503H287.996L286.809 212.764C286.673 212.561 286.56 212.388 286.469 212.244C286.379 212.099 286.295 211.957 286.219 211.818C286.143 211.679 286.056 211.515 285.959 211.328H286.171C286.077 211.507 285.991 211.667 285.913 211.807C285.835 211.946 285.75 212.089 285.658 212.236C285.567 212.383 285.45 212.559 285.308 212.764L284.104 214.503H282.826Z" fill="#8E9BAC"/>
<path d="M270.702 29.2727V38H268.856V31.0241H268.805L266.807 32.277V30.6406L268.967 29.2727H270.702ZM275.963 38.1193C275.361 38.1193 274.824 38.0085 274.352 37.7869C273.884 37.5653 273.512 37.2599 273.236 36.8707C272.96 36.4815 272.817 36.0355 272.806 35.5327H274.595C274.615 35.8707 274.757 36.1449 275.021 36.3551C275.286 36.5653 275.6 36.6705 275.963 36.6705C276.253 36.6705 276.509 36.6065 276.73 36.4787C276.955 36.348 277.129 36.1676 277.254 35.9375C277.382 35.7045 277.446 35.4375 277.446 35.1364C277.446 34.8295 277.381 34.5597 277.25 34.3267C277.122 34.0937 276.945 33.9119 276.718 33.7812C276.49 33.6506 276.23 33.5838 275.938 33.581C275.682 33.581 275.433 33.6335 275.192 33.7386C274.953 33.8437 274.767 33.9872 274.634 34.169L272.993 33.875L273.406 29.2727H278.742V30.7812H274.928L274.702 32.9673H274.753C274.906 32.7514 275.138 32.5724 275.448 32.4304C275.757 32.2884 276.104 32.2173 276.487 32.2173C277.013 32.2173 277.482 32.3409 277.894 32.5881C278.306 32.8352 278.631 33.1747 278.869 33.6065C279.108 34.0355 279.226 34.5298 279.223 35.0895C279.226 35.6776 279.09 36.2003 278.814 36.6577C278.541 37.1122 278.159 37.4702 277.668 37.7315C277.179 37.9901 276.611 38.1193 275.963 38.1193Z" fill="#4C545D"/>
<path d="M18.8667 117.31H51.1333C54.3712 117.31 57 119.098 57 121.3V195.319C57 197.521 54.3712 199.31 51.1333 199.31H18.8667C15.6288 199.31 13 197.521 13 195.319V121.3C13 119.098 15.6288 117.31 18.8667 117.31Z" fill="#1437FF"/>
<path d="M15.2214 215L13.2486 207.725H14.4226L15.4722 211.892C15.5364 212.151 15.5964 212.419 15.6523 212.696C15.7083 212.974 15.7627 213.254 15.8157 213.536C15.8686 213.819 15.9191 214.102 15.967 214.385H15.8046C15.8569 214.102 15.91 213.819 15.9639 213.536C16.0177 213.254 16.0747 212.974 16.1347 212.696C16.1948 212.419 16.2575 212.151 16.3228 211.892L17.4038 207.725H18.6237L19.6967 211.892C19.7647 212.151 19.8281 212.419 19.8868 212.696C19.9455 212.974 20.0032 213.254 20.0597 213.536C20.1162 213.819 20.1706 214.102 20.2229 214.385H20.0477C20.0988 214.102 20.1507 213.819 20.2034 213.536C20.2561 213.254 20.3119 212.974 20.3707 212.696C20.4296 212.419 20.4895 212.151 20.5505 211.892L21.5969 207.725H22.7789L20.7981 215H19.5116L18.3565 210.687C18.2675 210.349 18.1858 209.982 18.1112 209.586C18.0366 209.19 17.9606 208.753 17.8831 208.275H18.1364C18.0554 208.732 17.9815 209.153 17.9146 209.541C17.8477 209.929 17.7641 210.311 17.6639 210.687L16.5119 215H15.2214ZM25.6016 215.114C25.0643 215.114 24.6008 214.998 24.2113 214.765C23.8218 214.533 23.5221 214.207 23.3122 213.787C23.1022 213.367 22.9973 212.874 22.9973 212.309C22.9973 211.749 23.1004 211.256 23.3066 210.83C23.5128 210.405 23.8046 210.072 24.182 209.832C24.5594 209.593 25.0016 209.473 25.5087 209.473C25.8207 209.473 26.1221 209.524 26.4131 209.625C26.704 209.727 26.965 209.888 27.1959 210.106C27.4269 210.325 27.6099 210.608 27.7448 210.955C27.8798 211.303 27.9473 211.723 27.9473 212.215V212.596H23.5947V211.795H27.3937L26.8921 212.059C26.8921 211.726 26.8402 211.431 26.7364 211.176C26.6326 210.92 26.4785 210.721 26.2741 210.577C26.0698 210.433 25.8158 210.361 25.5122 210.361C25.2086 210.361 24.9493 210.434 24.7343 210.581C24.5192 210.727 24.3551 210.92 24.242 211.16C24.1288 211.399 24.0723 211.66 24.0723 211.943V212.488C24.0723 212.862 24.1365 213.179 24.2651 213.439C24.3936 213.698 24.5739 213.894 24.806 214.026C25.0381 214.159 25.3069 214.225 25.6126 214.225C25.8128 214.225 25.9948 214.196 26.1585 214.139C26.3223 214.082 26.4633 213.995 26.5814 213.88C26.6996 213.764 26.7902 213.622 26.8533 213.451L27.8611 213.689C27.7753 213.972 27.6289 214.22 27.4218 214.434C27.2147 214.648 26.9572 214.815 26.6494 214.934C26.3416 215.054 25.9923 215.114 25.6016 215.114ZM31.8317 215.108C31.5031 215.108 31.234 215.052 31.0245 214.939C30.8149 214.827 30.6508 214.695 30.5322 214.545C30.4136 214.395 30.3222 214.262 30.258 214.146H30.1691V215H29.1227V207.725H30.1967V210.43H30.258C30.3216 210.317 30.4111 210.185 30.5265 210.035C30.6418 209.886 30.8032 209.755 31.0107 209.642C31.2181 209.529 31.4917 209.473 31.8312 209.473C32.27 209.473 32.6606 209.583 33.0032 209.805C33.3458 210.026 33.6163 210.347 33.8147 210.767C34.0131 211.186 34.1123 211.692 34.1123 212.283C34.1123 212.872 34.0146 213.376 33.8193 213.798C33.624 214.219 33.3549 214.543 33.0121 214.769C32.6692 214.995 32.2757 215.108 31.8317 215.108ZM31.5936 214.193C31.9066 214.193 32.1686 214.108 32.3793 213.939C32.59 213.77 32.7488 213.54 32.8556 213.251C32.9623 212.961 33.0157 212.636 33.0157 212.275C33.0157 211.917 32.963 211.596 32.8576 211.311C32.7521 211.027 32.594 210.802 32.3833 210.636C32.1726 210.471 31.9093 210.388 31.5936 210.388C31.2864 210.388 31.0277 210.467 30.8174 210.624C30.6071 210.782 30.4483 211.002 30.3409 211.283C30.2336 211.565 30.1799 211.896 30.1799 212.275C30.1799 212.654 30.2342 212.987 30.3429 213.275C30.4516 213.563 30.6118 213.788 30.8234 213.95C31.035 214.112 31.2917 214.193 31.5936 214.193ZM40.4194 215H38.6194V214.025H40.3573C40.9082 214.025 41.3661 213.922 41.7311 213.716C42.096 213.51 42.3693 213.208 42.5508 212.81C42.7323 212.411 42.8231 211.925 42.8231 211.351C42.8231 210.782 42.7327 210.3 42.5519 209.906C42.3711 209.512 42.103 209.212 41.7476 209.007C41.3921 208.802 40.9492 208.7 40.4188 208.7H38.5821V207.725H40.4902C41.2069 207.725 41.8204 207.87 42.3306 208.16C42.8409 208.45 43.2328 208.866 43.5063 209.408C43.7798 209.95 43.9166 210.598 43.9166 211.351C43.9166 212.109 43.7793 212.76 43.5047 213.305C43.2302 213.85 42.832 214.269 42.3104 214.561C41.7887 214.854 41.1584 215 40.4194 215ZM39.1689 207.725V215H38.0531V207.725H39.1689ZM47.54 215.114C47.0027 215.114 46.5393 214.998 46.1498 214.765C45.7603 214.533 45.4606 214.207 45.2506 213.787C45.0407 213.367 44.9357 212.874 44.9357 212.309C44.9357 211.749 45.0389 211.256 45.2451 210.83C45.4513 210.405 45.7431 210.072 46.1205 209.832C46.4978 209.593 46.9401 209.473 47.4472 209.473C47.7591 209.473 48.0606 209.524 48.3516 209.625C48.6425 209.727 48.9035 209.888 49.1344 210.106C49.3654 210.325 49.5483 210.608 49.6833 210.955C49.8183 211.303 49.8857 211.723 49.8857 212.215V212.596H45.5332V211.795H49.3321L48.8306 212.059C48.8306 211.726 48.7787 211.431 48.6749 211.176C48.571 210.92 48.417 210.721 48.2126 210.577C48.0082 210.433 47.7543 210.361 47.4507 210.361C47.1471 210.361 46.8878 210.434 46.6728 210.581C46.4577 210.727 46.2936 210.92 46.1805 211.16C46.0673 211.399 46.0107 211.66 46.0107 211.943V212.488C46.0107 212.862 46.075 213.179 46.2036 213.439C46.3321 213.698 46.5124 213.894 46.7445 214.026C46.9765 214.159 47.2454 214.225 47.5511 214.225C47.7513 214.225 47.9333 214.196 48.097 214.139C48.2608 214.082 48.4018 213.995 48.5199 213.88C48.6381 213.764 48.7287 213.622 48.7918 213.451L49.7996 213.689C49.7138 213.972 49.5673 214.22 49.3603 214.434C49.1532 214.648 48.8957 214.815 48.5879 214.934C48.2801 215.054 47.9308 215.114 47.54 215.114ZM52.4347 215L50.3752 209.541H51.5349L52.6152 212.644C52.7354 212.985 52.8381 213.327 52.9231 213.67C53.0082 214.013 53.0968 214.353 53.1889 214.69H52.8692C52.9607 214.353 53.0488 214.013 53.1336 213.671C53.2184 213.328 53.3193 212.986 53.4362 212.644L54.5131 209.541H55.6675L53.6062 215H52.4347Z" fill="#8E9BAC"/>
<path d="M34.9963 111.119C34.34 111.119 33.7562 111.013 33.2449 110.8C32.7363 110.584 32.3372 110.29 32.0474 109.918C31.7576 109.545 31.6127 109.124 31.6127 108.652C31.6127 108.288 31.6951 107.955 31.8599 107.651C32.0275 107.344 32.2548 107.089 32.5417 106.888C32.8287 106.683 33.1497 106.553 33.5048 106.496V106.436C33.0389 106.342 32.661 106.116 32.3713 105.759C32.0815 105.398 31.9366 104.979 31.9366 104.501C31.9366 104.05 32.0687 103.648 32.3329 103.295C32.5971 102.94 32.9593 102.662 33.4196 102.46C33.8826 102.256 34.4082 102.153 34.9963 102.153C35.5843 102.153 36.1085 102.256 36.5687 102.46C37.0318 102.665 37.3954 102.945 37.6596 103.3C37.9238 103.652 38.0574 104.053 38.0602 104.501C38.0574 104.982 37.9096 105.401 37.617 105.759C37.3244 106.116 36.9494 106.342 36.492 106.436V106.496C36.8414 106.553 37.1582 106.683 37.4423 106.888C37.7292 107.089 37.9565 107.344 38.1241 107.651C38.2946 107.955 38.3812 108.288 38.3841 108.652C38.3812 109.124 38.2349 109.545 37.9451 109.918C37.6554 110.29 37.2548 110.584 36.7434 110.8C36.2349 111.013 35.6525 111.119 34.9963 111.119ZM34.9963 109.764C35.2889 109.764 35.5446 109.712 35.7633 109.607C35.9821 109.499 36.1525 109.351 36.2747 109.163C36.3997 108.973 36.4622 108.754 36.4622 108.507C36.4622 108.254 36.3983 108.031 36.2704 107.838C36.1426 107.642 35.9693 107.489 35.7505 107.378C35.5318 107.264 35.2804 107.207 34.9963 107.207C34.715 107.207 34.4636 107.264 34.242 107.378C34.0204 107.489 33.8457 107.642 33.7179 107.838C33.5929 108.031 33.5304 108.254 33.5304 108.507C33.5304 108.754 33.5914 108.973 33.7136 109.163C33.8358 109.351 34.0076 109.499 34.2292 109.607C34.4508 109.712 34.7065 109.764 34.9963 109.764ZM34.9963 105.865C35.2406 105.865 35.4579 105.815 35.6483 105.716C35.8386 105.616 35.9877 105.479 36.0957 105.303C36.2037 105.126 36.2576 104.923 36.2576 104.693C36.2576 104.466 36.2037 104.267 36.0957 104.097C35.9877 103.923 35.84 103.788 35.6525 103.692C35.465 103.592 35.2463 103.543 34.9963 103.543C34.7491 103.543 34.5304 103.592 34.34 103.692C34.1497 103.788 34.0005 103.923 33.8926 104.097C33.7875 104.267 33.7349 104.466 33.7349 104.693C33.7349 104.923 33.7889 105.126 33.8968 105.303C34.0048 105.479 34.1539 105.616 34.3443 105.716C34.5346 105.815 34.752 105.865 34.9963 105.865Z" fill="#4C545D"/>
<path d="M136.867 154.31H169.133C172.371 154.31 175 156.094 175 158.293V195.326C175 197.525 172.371 199.31 169.133 199.31H136.867C133.629 199.31 131 197.525 131 195.326V158.293C131 156.094 133.629 154.31 136.867 154.31Z" fill="#6A2EFF"/>
<path d="M136.249 215L138.839 207.725H140.205L142.84 215H141.636L140.219 210.953C140.109 210.623 139.988 210.236 139.857 209.791C139.725 209.345 139.573 208.81 139.4 208.186H139.625C139.457 208.815 139.307 209.356 139.176 209.807C139.046 210.258 138.93 210.64 138.829 210.953L137.455 215H136.249ZM137.652 213.083V212.153H141.436V213.083H137.652ZM145.011 207.725V215H143.895V207.725H145.011ZM151.982 207.383L149.639 216.094H148.675L151.019 207.383H151.982ZM155.648 215V207.725H157.29L158.877 211.898C158.922 212.021 158.972 212.178 159.029 212.368C159.086 212.558 159.146 212.764 159.208 212.985C159.27 213.206 159.329 213.424 159.384 213.639C159.44 213.854 159.489 214.048 159.529 214.221H159.295C159.338 214.056 159.388 213.867 159.443 213.655C159.499 213.443 159.558 213.226 159.62 213.003C159.682 212.78 159.742 212.572 159.8 212.378C159.858 212.184 159.909 212.024 159.954 211.898L161.519 207.725H163.166V215H162.058V211.086C162.058 210.934 162.06 210.754 162.063 210.547C162.065 210.34 162.07 210.12 162.076 209.887C162.081 209.655 162.087 209.419 162.092 209.18C162.098 208.942 162.102 208.713 162.105 208.495H162.189C162.122 208.735 162.051 208.98 161.975 209.231C161.898 209.482 161.823 209.725 161.749 209.959C161.675 210.194 161.605 210.408 161.539 210.603C161.472 210.798 161.416 210.959 161.369 211.086L159.884 215H158.928L157.42 211.086C157.373 210.961 157.318 210.804 157.254 210.613C157.19 210.422 157.121 210.211 157.046 209.979C156.971 209.747 156.895 209.504 156.817 209.251C156.739 208.997 156.661 208.745 156.583 208.495H156.681C156.686 208.695 156.692 208.911 156.697 209.144C156.703 209.378 156.708 209.613 156.712 209.849C156.717 210.086 156.721 210.311 156.725 210.525C156.729 210.739 156.731 210.926 156.731 211.086V215H155.648ZM164.774 215V207.725H165.89V214.041H169.181V215H164.774Z" fill="#8E9BAC"/>
<path d="M153.028 147.119C152.425 147.119 151.888 147.009 151.417 146.787C150.948 146.565 150.576 146.26 150.3 145.871C150.025 145.482 149.881 145.036 149.87 144.533H151.66C151.68 144.871 151.822 145.145 152.086 145.355C152.35 145.565 152.664 145.67 153.028 145.67C153.317 145.67 153.573 145.607 153.795 145.479C154.019 145.348 154.194 145.168 154.319 144.938C154.447 144.705 154.511 144.437 154.511 144.136C154.511 143.83 154.445 143.56 154.315 143.327C154.187 143.094 154.009 142.912 153.782 142.781C153.555 142.651 153.295 142.584 153.002 142.581C152.746 142.581 152.498 142.634 152.256 142.739C152.018 142.844 151.832 142.987 151.698 143.169L150.058 142.875L150.471 138.273H155.806V139.781H151.992L151.766 141.967H151.817C151.971 141.751 152.202 141.572 152.512 141.43C152.822 141.288 153.168 141.217 153.552 141.217C154.077 141.217 154.546 141.341 154.958 141.588C155.37 141.835 155.695 142.175 155.934 142.607C156.173 143.036 156.29 143.53 156.288 144.089C156.29 144.678 156.154 145.2 155.879 145.658C155.606 146.112 155.224 146.47 154.732 146.732C154.244 146.99 153.675 147.119 153.028 147.119Z" fill="#4C545D"/>
<path d="M372.867 79.3094H405.133C408.371 79.3094 411 81.1064 411 83.3198V195.299C411 197.512 408.371 199.309 405.133 199.309H372.867C369.629 199.309 367 197.512 367 195.299V83.3198C367 81.1064 369.629 79.3094 372.867 79.3094Z" fill="#00D09C"/>
<path d="M381.491 215H379.137V207.727H381.566C382.278 207.727 382.89 207.873 383.402 208.164C383.913 208.453 384.305 208.868 384.577 209.41C384.852 209.95 384.989 210.598 384.989 211.353C384.989 212.11 384.851 212.762 384.574 213.306C384.299 213.851 383.901 214.27 383.381 214.563C382.86 214.854 382.23 215 381.491 215ZM380.234 214.041H381.431C381.985 214.041 382.445 213.937 382.812 213.729C383.179 213.518 383.454 213.214 383.636 212.816C383.818 212.416 383.91 211.928 383.91 211.353C383.91 210.782 383.818 210.298 383.636 209.901C383.456 209.503 383.188 209.201 382.83 208.995C382.473 208.789 382.029 208.686 381.498 208.686H380.234V214.041ZM387.856 215.121C387.51 215.121 387.198 215.057 386.918 214.929C386.639 214.799 386.418 214.61 386.254 214.364C386.093 214.118 386.013 213.816 386.013 213.459C386.013 213.151 386.072 212.898 386.19 212.699C386.309 212.5 386.469 212.343 386.67 212.227C386.871 212.11 387.096 212.023 387.344 211.964C387.593 211.905 387.846 211.86 388.104 211.829C388.431 211.791 388.696 211.76 388.9 211.736C389.103 211.71 389.251 211.669 389.344 211.612C389.436 211.555 389.482 211.463 389.482 211.335V211.31C389.482 211 389.395 210.76 389.219 210.589C389.047 210.419 388.789 210.334 388.445 210.334C388.088 210.334 387.806 210.413 387.6 210.572C387.397 210.728 387.256 210.902 387.178 211.094L386.18 210.866C386.298 210.535 386.471 210.267 386.698 210.064C386.928 209.858 387.192 209.709 387.49 209.616C387.788 209.522 388.102 209.474 388.431 209.474C388.649 209.474 388.88 209.5 389.124 209.552C389.37 209.602 389.599 209.695 389.812 209.829C390.028 209.964 390.204 210.157 390.342 210.408C390.479 210.657 390.548 210.98 390.548 211.378V215H389.511V214.254H389.468C389.399 214.392 389.296 214.526 389.159 214.659C389.022 214.792 388.845 214.902 388.63 214.989C388.415 215.077 388.156 215.121 387.856 215.121ZM388.087 214.268C388.38 214.268 388.631 214.21 388.839 214.094C389.05 213.978 389.21 213.827 389.319 213.64C389.43 213.45 389.486 213.248 389.486 213.033V212.329C389.448 212.367 389.375 212.403 389.266 212.436C389.159 212.467 389.037 212.494 388.9 212.518C388.763 212.539 388.629 212.559 388.499 212.578C388.368 212.595 388.259 212.609 388.172 212.621C387.966 212.647 387.778 212.691 387.607 212.752C387.439 212.814 387.304 212.902 387.202 213.018C387.103 213.132 387.053 213.284 387.053 213.473C387.053 213.736 387.15 213.935 387.344 214.07C387.539 214.202 387.786 214.268 388.087 214.268ZM394.508 209.545V210.398H391.529V209.545H394.508ZM392.328 208.239H393.389V213.398C393.389 213.604 393.42 213.759 393.482 213.864C393.543 213.965 393.623 214.035 393.72 214.073C393.819 214.109 393.927 214.126 394.043 214.126C394.128 214.126 394.203 214.12 394.267 214.109C394.33 214.097 394.38 214.087 394.416 214.08L394.607 214.957C394.546 214.981 394.458 215.005 394.345 215.028C394.231 215.054 394.089 215.069 393.919 215.071C393.639 215.076 393.379 215.026 393.137 214.922C392.896 214.818 392.7 214.657 392.551 214.439C392.402 214.221 392.328 213.948 392.328 213.619V208.239ZM397.27 215.121C396.924 215.121 396.612 215.057 396.332 214.929C396.053 214.799 395.832 214.61 395.668 214.364C395.507 214.118 395.427 213.816 395.427 213.459C395.427 213.151 395.486 212.898 395.604 212.699C395.723 212.5 395.883 212.343 396.084 212.227C396.285 212.11 396.51 212.023 396.759 211.964C397.007 211.905 397.26 211.86 397.518 211.829C397.845 211.791 398.11 211.76 398.314 211.736C398.518 211.71 398.665 211.669 398.758 211.612C398.85 211.555 398.896 211.463 398.896 211.335V211.31C398.896 211 398.809 210.76 398.634 210.589C398.461 210.419 398.203 210.334 397.859 210.334C397.502 210.334 397.22 210.413 397.014 210.572C396.811 210.728 396.67 210.902 396.592 211.094L395.594 210.866C395.712 210.535 395.885 210.267 396.112 210.064C396.342 209.858 396.606 209.709 396.904 209.616C397.202 209.522 397.516 209.474 397.845 209.474C398.063 209.474 398.294 209.5 398.538 209.552C398.784 209.602 399.013 209.695 399.227 209.829C399.442 209.964 399.618 210.157 399.756 210.408C399.893 210.657 399.962 210.98 399.962 211.378V215H398.925V214.254H398.882C398.813 214.392 398.71 214.526 398.573 214.659C398.436 214.792 398.259 214.902 398.044 214.989C397.829 215.077 397.571 215.121 397.27 215.121ZM397.501 214.268C397.794 214.268 398.045 214.21 398.254 214.094C398.464 213.978 398.624 213.827 398.733 213.64C398.844 213.45 398.9 213.248 398.9 213.033V212.329C398.862 212.367 398.789 212.403 398.68 212.436C398.573 212.467 398.451 212.494 398.314 212.518C398.177 212.539 398.043 212.559 397.913 212.578C397.782 212.595 397.674 212.609 397.586 212.621C397.38 212.647 397.192 212.691 397.021 212.752C396.853 212.814 396.718 212.902 396.616 213.018C396.517 213.132 396.467 213.284 396.467 213.473C396.467 213.736 396.564 213.935 396.759 214.07C396.953 214.202 397.2 214.268 397.501 214.268ZM375.271 221.638C375.234 221.302 375.077 221.041 374.803 220.856C374.528 220.669 374.182 220.576 373.766 220.576C373.468 220.576 373.209 220.623 372.992 220.718C372.774 220.81 372.605 220.938 372.484 221.102C372.365 221.262 372.306 221.446 372.306 221.652C372.306 221.825 372.347 221.974 372.427 222.099C372.51 222.225 372.618 222.33 372.75 222.415C372.885 222.498 373.03 222.568 373.183 222.625C373.337 222.679 373.485 222.724 373.627 222.76L374.338 222.945C374.57 223.001 374.807 223.078 375.051 223.175C375.295 223.272 375.521 223.4 375.73 223.559C375.938 223.718 376.106 223.914 376.234 224.148C376.364 224.383 376.429 224.663 376.429 224.99C376.429 225.402 376.323 225.768 376.11 226.087C375.899 226.407 375.592 226.659 375.19 226.844C374.79 227.028 374.306 227.121 373.737 227.121C373.193 227.121 372.722 227.034 372.324 226.861C371.926 226.689 371.615 226.444 371.39 226.126C371.165 225.807 371.041 225.428 371.017 224.99H372.118C372.139 225.253 372.225 225.472 372.374 225.647C372.525 225.82 372.718 225.949 372.953 226.034C373.189 226.117 373.449 226.158 373.73 226.158C374.04 226.158 374.316 226.11 374.558 226.013C374.802 225.913 374.993 225.776 375.133 225.601C375.273 225.423 375.343 225.216 375.343 224.979C375.343 224.764 375.281 224.588 375.158 224.45C375.037 224.313 374.873 224.199 374.664 224.109C374.458 224.019 374.225 223.94 373.965 223.871L373.105 223.637C372.523 223.478 372.061 223.245 371.72 222.937C371.382 222.63 371.213 222.222 371.213 221.716C371.213 221.297 371.326 220.931 371.553 220.619C371.781 220.306 372.088 220.063 372.477 219.891C372.865 219.715 373.303 219.628 373.791 219.628C374.283 219.628 374.718 219.714 375.094 219.887C375.473 220.06 375.771 220.298 375.989 220.601C376.207 220.901 376.32 221.247 376.33 221.638H375.271ZM379.953 227.11C379.425 227.11 378.97 226.99 378.589 226.751C378.21 226.51 377.919 226.177 377.716 225.753C377.512 225.33 377.41 224.844 377.41 224.298C377.41 223.744 377.514 223.255 377.723 222.831C377.931 222.405 378.225 222.072 378.603 221.833C378.982 221.594 379.428 221.474 379.942 221.474C380.356 221.474 380.726 221.551 381.05 221.705C381.374 221.857 381.636 222.07 381.835 222.344C382.036 222.619 382.156 222.94 382.194 223.307H381.16C381.103 223.051 380.973 222.831 380.77 222.646C380.568 222.462 380.298 222.369 379.96 222.369C379.664 222.369 379.405 222.447 379.182 222.604C378.962 222.758 378.79 222.978 378.667 223.264C378.544 223.548 378.483 223.884 378.483 224.273C378.483 224.67 378.543 225.014 378.664 225.302C378.784 225.591 378.955 225.815 379.175 225.974C379.398 226.132 379.659 226.212 379.96 226.212C380.161 226.212 380.343 226.175 380.507 226.102C380.672 226.026 380.811 225.918 380.922 225.778C381.036 225.639 381.115 225.471 381.16 225.274H382.194C382.156 225.627 382.041 225.942 381.849 226.219C381.657 226.496 381.4 226.713 381.078 226.872C380.759 227.031 380.384 227.11 379.953 227.11ZM383.329 227V221.545H384.391V227H383.329ZM383.865 220.704C383.681 220.704 383.522 220.642 383.389 220.519C383.259 220.394 383.194 220.244 383.194 220.072C383.194 219.896 383.259 219.747 383.389 219.624C383.522 219.499 383.681 219.436 383.865 219.436C384.05 219.436 384.207 219.499 384.338 219.624C384.47 219.747 384.536 219.896 384.536 220.072C384.536 220.244 384.47 220.394 384.338 220.519C384.207 220.642 384.05 220.704 383.865 220.704ZM388.17 227.11C387.633 227.11 387.17 226.995 386.782 226.766C386.396 226.534 386.097 226.208 385.887 225.789C385.678 225.368 385.574 224.874 385.574 224.308C385.574 223.749 385.678 223.257 385.887 222.831C386.097 222.405 386.391 222.072 386.767 221.833C387.146 221.594 387.589 221.474 388.096 221.474C388.403 221.474 388.702 221.525 388.99 221.627C389.279 221.729 389.538 221.889 389.768 222.106C389.998 222.324 390.179 222.607 390.311 222.955C390.444 223.301 390.51 223.721 390.51 224.216V224.592H386.174V223.797H389.47C389.47 223.517 389.413 223.27 389.299 223.055C389.186 222.837 389.026 222.665 388.82 222.54C388.616 222.414 388.377 222.352 388.103 222.352C387.804 222.352 387.544 222.425 387.321 222.572C387.101 222.716 386.931 222.905 386.81 223.14C386.692 223.372 386.632 223.624 386.632 223.896V224.518C386.632 224.882 386.696 225.192 386.824 225.448C386.954 225.704 387.136 225.899 387.368 226.034C387.6 226.167 387.871 226.233 388.181 226.233C388.382 226.233 388.565 226.204 388.731 226.148C388.897 226.088 389.04 226.001 389.161 225.885C389.282 225.769 389.374 225.626 389.438 225.455L390.443 225.636C390.362 225.932 390.218 226.191 390.01 226.414C389.804 226.634 389.544 226.806 389.232 226.929C388.922 227.05 388.568 227.11 388.17 227.11ZM392.75 223.761V227H391.688V221.545H392.708V222.433H392.775C392.901 222.144 393.097 221.912 393.365 221.737C393.634 221.562 393.974 221.474 394.384 221.474C394.755 221.474 395.081 221.552 395.36 221.709C395.64 221.863 395.856 222.092 396.01 222.398C396.164 222.703 396.241 223.081 396.241 223.53V227H395.179V223.658C395.179 223.263 395.076 222.954 394.87 222.731C394.664 222.507 394.381 222.394 394.021 222.394C393.775 222.394 393.556 222.447 393.365 222.554C393.175 222.66 393.025 222.817 392.914 223.023C392.805 223.226 392.75 223.472 392.75 223.761ZM399.963 227.11C399.435 227.11 398.98 226.99 398.599 226.751C398.22 226.51 397.929 226.177 397.725 225.753C397.522 225.33 397.42 224.844 397.42 224.298C397.42 223.744 397.524 223.255 397.732 222.831C397.941 222.405 398.234 222.072 398.613 221.833C398.992 221.594 399.438 221.474 399.952 221.474C400.366 221.474 400.735 221.551 401.06 221.705C401.384 221.857 401.646 222.07 401.845 222.344C402.046 222.619 402.165 222.94 402.203 223.307H401.17C401.113 223.051 400.983 222.831 400.779 222.646C400.578 222.462 400.308 222.369 399.97 222.369C399.674 222.369 399.414 222.447 399.192 222.604C398.972 222.758 398.8 222.978 398.677 223.264C398.554 223.548 398.492 223.884 398.492 224.273C398.492 224.67 398.553 225.014 398.673 225.302C398.794 225.591 398.965 225.815 399.185 225.974C399.407 226.132 399.669 226.212 399.97 226.212C400.171 226.212 400.353 226.175 400.517 226.102C400.682 226.026 400.821 225.918 400.932 225.778C401.046 225.639 401.125 225.471 401.17 225.274H402.203C402.165 225.627 402.051 225.942 401.859 226.219C401.667 226.496 401.41 226.713 401.088 226.872C400.769 227.031 400.393 227.11 399.963 227.11ZM405.69 227.11C405.152 227.11 404.689 226.995 404.301 226.766C403.915 226.534 403.617 226.208 403.406 225.789C403.198 225.368 403.094 224.874 403.094 224.308C403.094 223.749 403.198 223.257 403.406 222.831C403.617 222.405 403.911 222.072 404.287 221.833C404.666 221.594 405.108 221.474 405.615 221.474C405.923 221.474 406.221 221.525 406.51 221.627C406.799 221.729 407.058 221.889 407.288 222.106C407.517 222.324 407.698 222.607 407.831 222.955C407.964 223.301 408.03 223.721 408.03 224.216V224.592H403.694V223.797H406.989C406.989 223.517 406.933 223.27 406.819 223.055C406.705 222.837 406.545 222.665 406.339 222.54C406.136 222.414 405.897 222.352 405.622 222.352C405.324 222.352 405.063 222.425 404.841 222.572C404.621 222.716 404.45 222.905 404.33 223.14C404.211 223.372 404.152 223.624 404.152 223.896V224.518C404.152 224.882 404.216 225.192 404.344 225.448C404.474 225.704 404.655 225.899 404.887 226.034C405.119 226.167 405.39 226.233 405.7 226.233C405.902 226.233 406.085 226.204 406.251 226.148C406.416 226.088 406.56 226.001 406.68 225.885C406.801 225.769 406.893 225.626 406.957 225.455L407.962 225.636C407.882 225.932 407.737 226.191 407.529 226.414C407.323 226.634 407.064 226.806 406.751 226.929C406.441 227.05 406.087 227.11 405.69 227.11Z" fill="#8E9BAC"/>
<path d="M386.938 64.2726V72.9999H385.093V66.024H385.042L383.043 67.2769V65.6405L385.203 64.2726H386.938ZM392.434 73.1916C391.701 73.1888 391.07 73.0084 390.542 72.6504C390.016 72.2925 389.612 71.774 389.327 71.095C389.046 70.4161 388.907 69.5993 388.91 68.6448C388.91 67.6931 389.05 66.882 389.332 66.2115C389.616 65.5411 390.021 65.0311 390.546 64.6817C391.075 64.3294 391.704 64.1533 392.434 64.1533C393.164 64.1533 393.792 64.3294 394.317 64.6817C394.846 65.034 395.252 65.5453 395.536 66.2158C395.82 66.8834 395.961 67.6931 395.958 68.6448C395.958 69.6022 395.816 70.4203 395.532 71.0993C395.251 71.7783 394.847 72.2968 394.322 72.6547C393.796 73.0127 393.167 73.1916 392.434 73.1916ZM392.434 71.6618C392.934 71.6618 393.333 71.4104 393.631 70.9075C393.93 70.4047 394.077 69.6504 394.075 68.6448C394.075 67.9828 394.006 67.4317 393.87 66.9914C393.737 66.551 393.546 66.22 393.299 65.9985C393.055 65.7769 392.766 65.6661 392.434 65.6661C391.937 65.6661 391.539 65.9147 391.241 66.4118C390.942 66.909 390.792 67.6533 390.789 68.6448C390.789 69.3152 390.856 69.8749 390.989 70.3237C391.126 70.7698 391.317 71.105 391.565 71.3294C391.812 71.551 392.102 71.6618 392.434 71.6618Z" fill="#4C545D"/>
<path d="M483.867 137.31H516.133C519.371 137.31 522 139.111 522 141.33V195.289C522 197.508 519.371 199.31 516.133 199.31H483.867C480.629 199.31 478 197.508 478 195.289V141.33C478 139.111 480.629 137.31 483.867 137.31Z" fill="#F43F5E"/>
<path d="M480.12 221V213.727H482.784C483.3 213.727 483.727 213.812 484.066 213.983C484.404 214.151 484.657 214.379 484.826 214.668C484.994 214.955 485.078 215.278 485.078 215.638C485.078 215.941 485.022 216.196 484.911 216.405C484.8 216.611 484.65 216.777 484.463 216.902C484.279 217.025 484.075 217.115 483.853 217.172V217.243C484.094 217.255 484.33 217.333 484.559 217.477C484.791 217.619 484.983 217.822 485.134 218.085C485.286 218.347 485.362 218.667 485.362 219.043C485.362 219.415 485.274 219.749 485.099 220.045C484.926 220.338 484.659 220.571 484.296 220.744C483.934 220.915 483.471 221 482.908 221H480.12ZM481.218 220.059H482.801C483.327 220.059 483.703 219.957 483.931 219.754C484.158 219.55 484.272 219.295 484.272 218.99C484.272 218.76 484.214 218.55 484.098 218.358C483.982 218.166 483.816 218.013 483.6 217.9C483.387 217.786 483.134 217.729 482.84 217.729H481.218V220.059ZM481.218 216.874H482.688C482.934 216.874 483.155 216.826 483.352 216.732C483.551 216.637 483.708 216.504 483.824 216.334C483.943 216.161 484.002 215.957 484.002 215.723C484.002 215.422 483.896 215.17 483.686 214.967C483.475 214.763 483.152 214.661 482.716 214.661H481.218V216.874ZM488.165 221.121C487.82 221.121 487.507 221.057 487.228 220.929C486.949 220.799 486.727 220.611 486.564 220.364C486.403 220.118 486.322 219.816 486.322 219.459C486.322 219.151 486.382 218.898 486.5 218.699C486.618 218.5 486.778 218.343 486.979 218.227C487.181 218.111 487.405 218.023 487.654 217.964C487.903 217.905 488.156 217.86 488.414 217.829C488.741 217.791 489.006 217.76 489.209 217.737C489.413 217.71 489.561 217.669 489.653 217.612C489.746 217.555 489.792 217.463 489.792 217.335V217.31C489.792 217 489.704 216.76 489.529 216.589C489.356 216.419 489.098 216.334 488.755 216.334C488.397 216.334 488.116 216.413 487.91 216.572C487.706 216.728 487.565 216.902 487.487 217.094L486.489 216.866C486.608 216.535 486.78 216.268 487.008 216.064C487.237 215.858 487.501 215.709 487.8 215.616C488.098 215.522 488.412 215.474 488.741 215.474C488.958 215.474 489.189 215.5 489.433 215.553C489.679 215.602 489.909 215.695 490.122 215.83C490.338 215.964 490.514 216.157 490.651 216.408C490.789 216.657 490.857 216.98 490.857 217.378V221H489.82V220.254H489.778C489.709 220.392 489.606 220.527 489.469 220.659C489.331 220.792 489.155 220.902 488.94 220.989C488.724 221.077 488.466 221.121 488.165 221.121ZM488.396 220.268C488.69 220.268 488.941 220.21 489.149 220.094C489.36 219.978 489.52 219.827 489.628 219.64C489.74 219.451 489.795 219.248 489.795 219.033V218.33C489.757 218.367 489.684 218.403 489.575 218.436C489.469 218.467 489.347 218.494 489.209 218.518C489.072 218.539 488.938 218.559 488.808 218.578C488.678 218.595 488.569 218.609 488.481 218.621C488.275 218.647 488.087 218.691 487.917 218.752C487.749 218.814 487.614 218.902 487.512 219.018C487.413 219.132 487.363 219.284 487.363 219.473C487.363 219.736 487.46 219.935 487.654 220.07C487.848 220.202 488.096 220.268 488.396 220.268ZM494.569 221.11C494.041 221.11 493.586 220.991 493.205 220.751C492.827 220.51 492.535 220.177 492.332 219.754C492.128 219.33 492.026 218.844 492.026 218.298C492.026 217.744 492.131 217.255 492.339 216.831C492.547 216.405 492.841 216.072 493.22 215.833C493.598 215.594 494.045 215.474 494.558 215.474C494.973 215.474 495.342 215.551 495.666 215.705C495.991 215.857 496.252 216.07 496.451 216.344C496.652 216.619 496.772 216.94 496.81 217.307H495.776C495.72 217.051 495.589 216.831 495.386 216.646C495.185 216.462 494.915 216.369 494.576 216.369C494.28 216.369 494.021 216.447 493.798 216.604C493.578 216.758 493.407 216.978 493.283 217.264C493.16 217.548 493.099 217.884 493.099 218.273C493.099 218.67 493.159 219.014 493.28 219.303C493.401 219.591 493.571 219.815 493.791 219.974C494.014 220.132 494.275 220.212 494.576 220.212C494.777 220.212 494.96 220.175 495.123 220.102C495.289 220.026 495.427 219.918 495.538 219.778C495.652 219.639 495.731 219.471 495.776 219.274H496.81C496.772 219.627 496.657 219.942 496.465 220.219C496.274 220.496 496.017 220.714 495.695 220.872C495.375 221.031 495 221.11 494.569 221.11ZM498.922 219.15L498.915 217.854H499.099L501.273 215.545H502.544L500.065 218.173H499.898L498.922 219.15ZM497.945 221V213.727H499.007V221H497.945ZM501.39 221L499.437 218.408L500.168 217.665L502.693 221H501.39ZM505.638 221.11C505.1 221.11 504.638 220.995 504.249 220.766C503.863 220.534 503.565 220.208 503.354 219.789C503.146 219.368 503.042 218.874 503.042 218.308C503.042 217.75 503.146 217.257 503.354 216.831C503.565 216.405 503.859 216.072 504.235 215.833C504.614 215.594 505.057 215.474 505.563 215.474C505.871 215.474 506.169 215.525 506.458 215.627C506.747 215.729 507.006 215.889 507.236 216.107C507.466 216.324 507.647 216.607 507.779 216.955C507.912 217.301 507.978 217.721 507.978 218.216V218.592H503.642V217.797H506.938C506.938 217.518 506.881 217.27 506.767 217.055C506.653 216.837 506.494 216.665 506.288 216.54C506.084 216.414 505.845 216.352 505.57 216.352C505.272 216.352 505.012 216.425 504.789 216.572C504.569 216.716 504.399 216.906 504.278 217.14C504.159 217.372 504.1 217.624 504.1 217.896V218.518C504.1 218.882 504.164 219.192 504.292 219.448C504.422 219.704 504.603 219.899 504.835 220.034C505.067 220.167 505.338 220.233 505.649 220.233C505.85 220.233 506.033 220.205 506.199 220.148C506.365 220.089 506.508 220.001 506.629 219.885C506.749 219.769 506.842 219.626 506.906 219.455L507.911 219.636C507.83 219.932 507.686 220.192 507.477 220.414C507.271 220.634 507.012 220.806 506.7 220.929C506.39 221.05 506.036 221.11 505.638 221.11ZM510.218 217.761V221H509.156V215.545H510.175V216.433H510.243C510.368 216.144 510.565 215.912 510.832 215.737C511.102 215.562 511.442 215.474 511.851 215.474C512.223 215.474 512.549 215.553 512.828 215.709C513.107 215.863 513.324 216.092 513.478 216.398C513.632 216.703 513.709 217.081 513.709 217.531V221H512.647V217.658C512.647 217.263 512.544 216.954 512.338 216.732C512.132 216.507 511.849 216.394 511.489 216.394C511.243 216.394 511.024 216.447 510.832 216.554C510.643 216.661 510.493 216.817 510.381 217.023C510.272 217.226 510.218 217.473 510.218 217.761ZM517.175 221.107C516.734 221.107 516.341 220.994 515.996 220.769C515.652 220.542 515.382 220.219 515.186 219.8C514.992 219.378 514.895 218.873 514.895 218.283C514.895 217.694 514.993 217.19 515.19 216.771C515.388 216.352 515.661 216.031 516.006 215.808C516.352 215.586 516.744 215.474 517.182 215.474C517.52 215.474 517.793 215.531 517.998 215.645C518.207 215.756 518.368 215.886 518.481 216.036C518.597 216.185 518.687 216.316 518.751 216.43H518.815V213.727H519.877V221H518.84V220.151H518.751C518.687 220.267 518.595 220.4 518.474 220.549C518.356 220.698 518.193 220.828 517.984 220.94C517.776 221.051 517.506 221.107 517.175 221.107ZM517.409 220.201C517.714 220.201 517.972 220.121 518.183 219.96C518.396 219.796 518.557 219.57 518.666 219.281C518.777 218.992 518.833 218.656 518.833 218.273C518.833 217.894 518.779 217.562 518.67 217.278C518.561 216.994 518.401 216.773 518.19 216.614C517.98 216.456 517.719 216.376 517.409 216.376C517.089 216.376 516.823 216.459 516.61 216.625C516.397 216.791 516.236 217.017 516.127 217.303C516.021 217.59 515.967 217.913 515.967 218.273C515.967 218.637 516.022 218.965 516.131 219.256C516.239 219.548 516.4 219.778 516.614 219.949C516.829 220.117 517.094 220.201 517.409 220.201Z" fill="#8E9BAC"/>
<path d="M497.484 132L501.102 124.841V124.781H496.888V123.273H503.011V124.803L499.389 132H497.484Z" fill="#4C545D"/>
<line y1="198.729" x2="532" y2="198.729" stroke="#E3E9F2"/>
<path d="M58.8817 258H56.0565V249.273H58.9712C59.8263 249.273 60.5607 249.447 61.1744 249.797C61.788 250.143 62.2582 250.642 62.5849 251.293C62.9144 251.94 63.0792 252.717 63.0792 253.624C63.0792 254.533 62.913 255.314 62.5806 255.967C62.2511 256.621 61.7738 257.124 61.1488 257.476C60.5238 257.825 59.7681 258 58.8817 258ZM57.3732 256.849H58.8093C59.4741 256.849 60.0266 256.724 60.467 256.474C60.9073 256.222 61.2369 255.857 61.4556 255.379C61.6744 254.899 61.7837 254.314 61.7837 253.624C61.7837 252.939 61.6744 252.358 61.4556 251.881C61.2397 251.403 60.9173 251.041 60.4883 250.794C60.0593 250.547 59.5266 250.423 58.8903 250.423H57.3732V256.849ZM66.5192 258.145C66.1044 258.145 65.7294 258.068 65.3942 257.915C65.0589 257.759 64.7933 257.533 64.5973 257.237C64.4041 256.942 64.3075 256.58 64.3075 256.151C64.3075 255.781 64.3786 255.477 64.5206 255.239C64.6626 255 64.8544 254.811 65.0959 254.672C65.3374 254.533 65.6072 254.428 65.9055 254.357C66.2038 254.286 66.5078 254.232 66.8175 254.195C67.2095 254.149 67.5277 254.112 67.772 254.084C68.0163 254.053 68.1939 254.003 68.3047 253.935C68.4155 253.866 68.4709 253.756 68.4709 253.602V253.572C68.4709 253.2 68.3658 252.912 68.1555 252.707C67.9482 252.503 67.6385 252.401 67.2266 252.401C66.7976 252.401 66.4595 252.496 66.2124 252.686C65.968 252.874 65.799 253.082 65.7053 253.312L64.5078 253.04C64.6499 252.642 64.8572 252.321 65.13 252.077C65.4055 251.83 65.7223 251.651 66.0803 251.54C66.4382 251.426 66.8146 251.369 67.2095 251.369C67.4709 251.369 67.7479 251.401 68.0405 251.463C68.3359 251.523 68.6115 251.634 68.8672 251.795C69.1257 251.957 69.3374 252.189 69.5021 252.49C69.6669 252.788 69.7493 253.176 69.7493 253.653V258H68.505V257.105H68.4538C68.3714 257.27 68.2479 257.432 68.0831 257.591C67.9183 257.75 67.7067 257.882 67.4482 257.987C67.1896 258.092 66.88 258.145 66.5192 258.145ZM66.7962 257.122C67.1484 257.122 67.4496 257.053 67.6996 256.913C67.9524 256.774 68.1442 256.592 68.2749 256.368C68.4084 256.141 68.4751 255.898 68.4751 255.639V254.795C68.4297 254.841 68.3416 254.884 68.2109 254.923C68.0831 254.96 67.9368 254.993 67.772 255.021C67.6072 255.047 67.4467 255.071 67.2905 255.094C67.1342 255.114 67.0036 255.131 66.8984 255.145C66.6513 255.176 66.4254 255.229 66.2209 255.303C66.0192 255.376 65.8572 255.483 65.7351 255.622C65.6158 255.759 65.5561 255.94 65.5561 256.168C65.5561 256.483 65.6726 256.722 65.9055 256.884C66.1385 257.043 66.4354 257.122 66.7962 257.122ZM74.5018 251.455V252.477H70.9265V251.455H74.5018ZM71.8853 249.886H73.1594V256.078C73.1594 256.325 73.1964 256.511 73.2702 256.636C73.3441 256.759 73.4393 256.842 73.5558 256.888C73.6751 256.93 73.8043 256.952 73.9435 256.952C74.0458 256.952 74.1353 256.945 74.212 256.93C74.2887 256.916 74.3484 256.905 74.391 256.896L74.6211 257.949C74.5472 257.977 74.4421 258.006 74.3058 258.034C74.1694 258.065 73.9989 258.082 73.7944 258.085C73.4592 258.091 73.1467 258.031 72.8569 257.906C72.5671 257.781 72.3327 257.588 72.1538 257.327C71.9748 257.065 71.8853 256.737 71.8853 256.342V249.886ZM77.8161 258.145C77.4013 258.145 77.0263 258.068 76.6911 257.915C76.3558 257.759 76.0902 257.533 75.8942 257.237C75.701 256.942 75.6044 256.58 75.6044 256.151C75.6044 255.781 75.6754 255.477 75.8175 255.239C75.9595 255 76.1513 254.811 76.3928 254.672C76.6342 254.533 76.9041 254.428 77.2024 254.357C77.5007 254.286 77.8047 254.232 78.1143 254.195C78.5064 254.149 78.8246 254.112 79.0689 254.084C79.3132 254.053 79.4908 254.003 79.6016 253.935C79.7124 253.866 79.7678 253.756 79.7678 253.602V253.572C79.7678 253.2 79.6626 252.912 79.4524 252.707C79.245 252.503 78.9354 252.401 78.5234 252.401C78.0945 252.401 77.7564 252.496 77.5092 252.686C77.2649 252.874 77.0959 253.082 77.0021 253.312L75.8047 253.04C75.9467 252.642 76.1541 252.321 76.4268 252.077C76.7024 251.83 77.0192 251.651 77.3771 251.54C77.7351 251.426 78.1115 251.369 78.5064 251.369C78.7678 251.369 79.0447 251.401 79.3374 251.463C79.6328 251.523 79.9084 251.634 80.1641 251.795C80.4226 251.957 80.6342 252.189 80.799 252.49C80.9638 252.788 81.0462 253.176 81.0462 253.653V258H79.8018V257.105H79.7507C79.6683 257.27 79.5447 257.432 79.38 257.591C79.2152 257.75 79.0036 257.882 78.745 257.987C78.4865 258.092 78.1768 258.145 77.8161 258.145ZM78.093 257.122C78.4453 257.122 78.7464 257.053 78.9964 256.913C79.2493 256.774 79.4411 256.592 79.5717 256.368C79.7053 256.141 79.772 255.898 79.772 255.639V254.795C79.7266 254.841 79.6385 254.884 79.5078 254.923C79.38 254.96 79.2337 254.993 79.0689 255.021C78.9041 255.047 78.7436 255.071 78.5874 255.094C78.4311 255.114 78.3004 255.131 78.1953 255.145C77.9482 255.176 77.7223 255.229 77.5178 255.303C77.3161 255.376 77.1541 255.483 77.032 255.622C76.9126 255.759 76.853 255.94 76.853 256.168C76.853 256.483 76.9695 256.722 77.2024 256.884C77.4354 257.043 77.7322 257.122 78.093 257.122ZM90.0653 255.286V251.455H91.3438V258H90.0909V256.866H90.0227C89.8722 257.216 89.6307 257.507 89.2983 257.74C88.9688 257.97 88.5582 258.085 88.0668 258.085C87.6463 258.085 87.2741 257.993 86.9503 257.808C86.6293 257.621 86.3764 257.344 86.1918 256.977C86.0099 256.611 85.919 256.158 85.919 255.618V251.455H87.1932V255.464C87.1932 255.911 87.3168 256.266 87.5639 256.53C87.8111 256.794 88.1321 256.926 88.527 256.926C88.7656 256.926 89.0028 256.866 89.2386 256.747C89.4773 256.628 89.6747 256.447 89.831 256.206C89.9901 255.964 90.0682 255.658 90.0653 255.286ZM93.0558 260.455V251.455H94.3001V252.516H94.4066C94.4805 252.379 94.587 252.222 94.7262 252.043C94.8654 251.864 95.0586 251.707 95.3058 251.574C95.5529 251.438 95.8796 251.369 96.2859 251.369C96.8143 251.369 97.2859 251.503 97.7006 251.77C98.1154 252.037 98.4407 252.422 98.6765 252.925C98.9151 253.428 99.0344 254.033 99.0344 254.74C99.0344 255.447 98.9165 256.054 98.6808 256.56C98.445 257.062 98.1211 257.45 97.7092 257.723C97.2972 257.993 96.8271 258.128 96.2987 258.128C95.9009 258.128 95.5756 258.061 95.3228 257.928C95.0728 257.794 94.8768 257.638 94.7347 257.459C94.5927 257.28 94.4833 257.121 94.4066 256.982H94.3299V260.455H93.0558ZM94.3043 254.727C94.3043 255.187 94.3711 255.591 94.5046 255.938C94.6381 256.284 94.8313 256.555 95.0842 256.751C95.337 256.945 95.6467 257.041 96.0131 257.041C96.3938 257.041 96.712 256.94 96.9677 256.739C97.2234 256.534 97.4165 256.257 97.5472 255.908C97.6808 255.558 97.7475 255.165 97.7475 254.727C97.7475 254.295 97.6822 253.908 97.5515 253.564C97.4237 253.22 97.2305 252.949 96.9719 252.75C96.7163 252.551 96.3967 252.452 96.0131 252.452C95.6438 252.452 95.3313 252.547 95.0756 252.737C94.8228 252.928 94.631 253.193 94.5004 253.534C94.3697 253.875 94.3043 254.273 94.3043 254.727ZM102.912 258.128C102.384 258.128 101.912 257.993 101.498 257.723C101.086 257.45 100.762 257.062 100.526 256.56C100.293 256.054 100.176 255.447 100.176 254.74C100.176 254.033 100.294 253.428 100.53 252.925C100.769 252.422 101.096 252.037 101.51 251.77C101.925 251.503 102.395 251.369 102.921 251.369C103.327 251.369 103.654 251.438 103.901 251.574C104.151 251.707 104.344 251.864 104.48 252.043C104.62 252.222 104.728 252.379 104.804 252.516H104.881V249.273H106.155V258H104.911V256.982H104.804C104.728 257.121 104.617 257.28 104.472 257.459C104.33 257.638 104.134 257.794 103.884 257.928C103.634 258.061 103.31 258.128 102.912 258.128ZM103.194 257.041C103.56 257.041 103.87 256.945 104.123 256.751C104.378 256.555 104.571 256.284 104.702 255.938C104.836 255.591 104.902 255.187 104.902 254.727C104.902 254.273 104.837 253.875 104.706 253.534C104.576 253.193 104.384 252.928 104.131 252.737C103.878 252.547 103.566 252.452 103.194 252.452C102.81 252.452 102.49 252.551 102.235 252.75C101.979 252.949 101.786 253.22 101.655 253.564C101.527 253.908 101.463 254.295 101.463 254.727C101.463 255.165 101.529 255.558 101.659 255.908C101.79 256.257 101.983 256.534 102.239 256.739C102.498 256.94 102.816 257.041 103.194 257.041ZM109.879 258.145C109.464 258.145 109.089 258.068 108.754 257.915C108.418 257.759 108.153 257.533 107.957 257.237C107.763 256.942 107.667 256.58 107.667 256.151C107.667 255.781 107.738 255.477 107.88 255.239C108.022 255 108.214 254.811 108.455 254.672C108.697 254.533 108.967 254.428 109.265 254.357C109.563 254.286 109.867 254.232 110.177 254.195C110.569 254.149 110.887 254.112 111.131 254.084C111.376 254.053 111.553 254.003 111.664 253.935C111.775 253.866 111.83 253.756 111.83 253.602V253.572C111.83 253.2 111.725 252.912 111.515 252.707C111.308 252.503 110.998 252.401 110.586 252.401C110.157 252.401 109.819 252.496 109.572 252.686C109.327 252.874 109.158 253.082 109.065 253.312L107.867 253.04C108.009 252.642 108.217 252.321 108.489 252.077C108.765 251.83 109.082 251.651 109.44 251.54C109.798 251.426 110.174 251.369 110.569 251.369C110.83 251.369 111.107 251.401 111.4 251.463C111.695 251.523 111.971 251.634 112.227 251.795C112.485 251.957 112.697 252.189 112.862 252.49C113.026 252.788 113.109 253.176 113.109 253.653V258H111.864V257.105H111.813C111.731 257.27 111.607 257.432 111.442 257.591C111.278 257.75 111.066 257.882 110.808 257.987C110.549 258.092 110.239 258.145 109.879 258.145ZM110.156 257.122C110.508 257.122 110.809 257.053 111.059 256.913C111.312 256.774 111.504 256.592 111.634 256.368C111.768 256.141 111.835 255.898 111.835 255.639V254.795C111.789 254.841 111.701 254.884 111.57 254.923C111.442 254.96 111.296 254.993 111.131 255.021C110.967 255.047 110.806 255.071 110.65 255.094C110.494 255.114 110.363 255.131 110.258 255.145C110.011 255.176 109.785 255.229 109.58 255.303C109.379 255.376 109.217 255.483 109.094 255.622C108.975 255.759 108.915 255.94 108.915 256.168C108.915 256.483 109.032 256.722 109.265 256.884C109.498 257.043 109.795 257.122 110.156 257.122ZM117.861 251.455V252.477H114.286V251.455H117.861ZM115.245 249.886H116.519V256.078C116.519 256.325 116.556 256.511 116.63 256.636C116.703 256.759 116.799 256.842 116.915 256.888C117.034 256.93 117.164 256.952 117.303 256.952C117.405 256.952 117.495 256.945 117.571 256.93C117.648 256.916 117.708 256.905 117.75 256.896L117.98 257.949C117.907 257.977 117.801 258.006 117.665 258.034C117.529 258.065 117.358 258.082 117.154 258.085C116.819 258.091 116.506 258.031 116.216 257.906C115.926 257.781 115.692 257.588 115.513 257.327C115.334 257.065 115.245 256.737 115.245 256.342V249.886ZM122.021 258.132C121.376 258.132 120.821 257.994 120.355 257.719C119.892 257.44 119.534 257.05 119.281 256.547C119.031 256.041 118.906 255.449 118.906 254.77C118.906 254.099 119.031 253.509 119.281 252.997C119.534 252.486 119.886 252.087 120.338 251.8C120.793 251.513 121.324 251.369 121.932 251.369C122.301 251.369 122.659 251.43 123.006 251.553C123.352 251.675 123.663 251.866 123.939 252.128C124.214 252.389 124.432 252.729 124.591 253.146C124.75 253.561 124.83 254.065 124.83 254.659V255.111H119.626V254.156H123.581C123.581 253.821 123.513 253.524 123.376 253.266C123.24 253.004 123.048 252.798 122.801 252.648C122.557 252.497 122.27 252.422 121.94 252.422C121.582 252.422 121.27 252.51 121.003 252.686C120.739 252.859 120.534 253.087 120.389 253.368C120.247 253.646 120.176 253.949 120.176 254.276V255.021C120.176 255.459 120.253 255.831 120.406 256.138C120.562 256.445 120.78 256.679 121.058 256.841C121.337 257 121.662 257.08 122.034 257.08C122.276 257.08 122.496 257.045 122.695 256.977C122.893 256.906 123.065 256.801 123.21 256.662C123.355 256.523 123.466 256.351 123.543 256.146L124.749 256.364C124.652 256.719 124.479 257.03 124.229 257.297C123.982 257.561 123.67 257.767 123.295 257.915C122.923 258.06 122.499 258.132 122.021 258.132ZM128.694 258.128C128.165 258.128 127.694 257.993 127.279 257.723C126.867 257.45 126.543 257.062 126.307 256.56C126.074 256.054 125.958 255.447 125.958 254.74C125.958 254.033 126.076 253.428 126.311 252.925C126.55 252.422 126.877 252.037 127.292 251.77C127.706 251.503 128.176 251.369 128.702 251.369C129.108 251.369 129.435 251.438 129.682 251.574C129.932 251.707 130.125 251.864 130.262 252.043C130.401 252.222 130.509 252.379 130.586 252.516H130.662V249.273H131.936V258H130.692V256.982H130.586C130.509 257.121 130.398 257.28 130.253 257.459C130.111 257.638 129.915 257.794 129.665 257.928C129.415 258.061 129.091 258.128 128.694 258.128ZM128.975 257.041C129.341 257.041 129.651 256.945 129.904 256.751C130.159 256.555 130.353 256.284 130.483 255.938C130.617 255.591 130.684 255.187 130.684 254.727C130.684 254.273 130.618 253.875 130.488 253.534C130.357 253.193 130.165 252.928 129.912 252.737C129.659 252.547 129.347 252.452 128.975 252.452C128.591 252.452 128.272 252.551 128.016 252.75C127.76 252.949 127.567 253.22 127.436 253.564C127.309 253.908 127.245 254.295 127.245 254.727C127.245 255.165 127.31 255.558 127.441 255.908C127.571 256.257 127.765 256.534 128.02 256.739C128.279 256.94 128.597 257.041 128.975 257.041ZM138.836 258.145C138.421 258.145 138.046 258.068 137.711 257.915C137.375 257.759 137.11 257.533 136.914 257.237C136.721 256.942 136.624 256.58 136.624 256.151C136.624 255.781 136.695 255.477 136.837 255.239C136.979 255 137.171 254.811 137.412 254.672C137.654 254.533 137.924 254.428 138.222 254.357C138.52 254.286 138.824 254.232 139.134 254.195C139.526 254.149 139.844 254.112 140.088 254.084C140.333 254.053 140.51 254.003 140.621 253.935C140.732 253.866 140.787 253.756 140.787 253.602V253.572C140.787 253.2 140.682 252.912 140.472 252.707C140.265 252.503 139.955 252.401 139.543 252.401C139.114 252.401 138.776 252.496 138.529 252.686C138.284 252.874 138.115 253.082 138.022 253.312L136.824 253.04C136.966 252.642 137.174 252.321 137.446 252.077C137.722 251.83 138.039 251.651 138.397 251.54C138.755 251.426 139.131 251.369 139.526 251.369C139.787 251.369 140.064 251.401 140.357 251.463C140.652 251.523 140.928 251.634 141.184 251.795C141.442 251.957 141.654 252.189 141.819 252.49C141.983 252.788 142.066 253.176 142.066 253.653V258H140.821V257.105H140.77C140.688 257.27 140.564 257.432 140.4 257.591C140.235 257.75 140.023 257.882 139.765 257.987C139.506 258.092 139.196 258.145 138.836 258.145ZM139.113 257.122C139.465 257.122 139.766 257.053 140.016 256.913C140.269 256.774 140.461 256.592 140.591 256.368C140.725 256.141 140.792 255.898 140.792 255.639V254.795C140.746 254.841 140.658 254.884 140.527 254.923C140.4 254.96 140.253 254.993 140.088 255.021C139.924 255.047 139.763 255.071 139.607 255.094C139.451 255.114 139.32 255.131 139.215 255.145C138.968 255.176 138.742 255.229 138.537 255.303C138.336 255.376 138.174 255.483 138.051 255.622C137.932 255.759 137.873 255.94 137.873 256.168C137.873 256.483 137.989 256.722 138.222 256.884C138.455 257.043 138.752 257.122 139.113 257.122ZM148.668 253.053L147.513 253.257C147.464 253.109 147.388 252.969 147.283 252.835C147.18 252.702 147.041 252.592 146.865 252.507C146.689 252.422 146.469 252.379 146.205 252.379C145.844 252.379 145.543 252.46 145.301 252.622C145.06 252.781 144.939 252.987 144.939 253.24C144.939 253.459 145.02 253.635 145.182 253.768C145.344 253.902 145.605 254.011 145.966 254.097L147.006 254.335C147.608 254.474 148.057 254.689 148.352 254.979C148.648 255.268 148.795 255.645 148.795 256.108C148.795 256.5 148.682 256.849 148.455 257.156C148.23 257.46 147.916 257.699 147.513 257.872C147.112 258.045 146.648 258.132 146.119 258.132C145.386 258.132 144.788 257.976 144.325 257.663C143.862 257.348 143.578 256.901 143.473 256.321L144.705 256.134C144.781 256.455 144.939 256.697 145.178 256.862C145.416 257.024 145.727 257.105 146.111 257.105C146.528 257.105 146.862 257.018 147.112 256.845C147.362 256.669 147.487 256.455 147.487 256.202C147.487 255.997 147.411 255.825 147.257 255.686C147.107 255.547 146.875 255.442 146.562 255.371L145.455 255.128C144.844 254.989 144.392 254.767 144.099 254.463C143.81 254.159 143.665 253.774 143.665 253.308C143.665 252.922 143.773 252.584 143.989 252.294C144.205 252.004 144.503 251.778 144.884 251.616C145.264 251.452 145.7 251.369 146.192 251.369C146.899 251.369 147.456 251.523 147.862 251.83C148.268 252.134 148.537 252.541 148.668 253.053ZM156.129 258.132C155.516 258.132 154.98 257.991 154.523 257.71C154.065 257.429 153.71 257.036 153.457 256.53C153.205 256.024 153.078 255.433 153.078 254.757C153.078 254.078 153.205 253.484 153.457 252.976C153.71 252.467 154.065 252.072 154.523 251.791C154.98 251.51 155.516 251.369 156.129 251.369C156.743 251.369 157.278 251.51 157.736 251.791C158.193 252.072 158.548 252.467 158.801 252.976C159.054 253.484 159.18 254.078 159.18 254.757C159.18 255.433 159.054 256.024 158.801 256.53C158.548 257.036 158.193 257.429 157.736 257.71C157.278 257.991 156.743 258.132 156.129 258.132ZM156.134 257.062C156.531 257.062 156.861 256.957 157.122 256.747C157.384 256.537 157.577 256.257 157.702 255.908C157.83 255.558 157.893 255.173 157.893 254.753C157.893 254.335 157.83 253.952 157.702 253.602C157.577 253.25 157.384 252.967 157.122 252.754C156.861 252.541 156.531 252.435 156.134 252.435C155.733 252.435 155.401 252.541 155.136 252.754C154.875 252.967 154.68 253.25 154.553 253.602C154.428 253.952 154.365 254.335 154.365 254.753C154.365 255.173 154.428 255.558 154.553 255.908C154.68 256.257 154.875 256.537 155.136 256.747C155.401 256.957 155.733 257.062 156.134 257.062ZM163.718 251.455V252.477H160.019V251.455H163.718ZM161.033 258V250.696C161.033 250.287 161.123 249.947 161.301 249.678C161.48 249.405 161.718 249.202 162.013 249.068C162.309 248.932 162.63 248.864 162.976 248.864C163.232 248.864 163.451 248.885 163.632 248.928C163.814 248.967 163.949 249.004 164.037 249.038L163.739 250.07C163.679 250.053 163.603 250.033 163.509 250.01C163.415 249.984 163.301 249.972 163.168 249.972C162.858 249.972 162.637 250.048 162.503 250.202C162.373 250.355 162.307 250.577 162.307 250.866V258H161.033ZM171.519 255.17H172.815L173.727 256.359L174.157 256.888L175.61 258.784H174.263L173.292 257.518L172.96 257.058L171.519 255.17ZM175.891 253.636C175.891 254.568 175.721 255.369 175.38 256.04C175.039 256.707 174.572 257.222 173.978 257.582C173.387 257.94 172.715 258.119 171.962 258.119C171.207 258.119 170.532 257.94 169.938 257.582C169.347 257.222 168.881 256.706 168.54 256.036C168.2 255.365 168.029 254.565 168.029 253.636C168.029 252.705 168.2 251.905 168.54 251.237C168.881 250.567 169.347 250.053 169.938 249.695C170.532 249.334 171.207 249.153 171.962 249.153C172.715 249.153 173.387 249.334 173.978 249.695C174.572 250.053 175.039 250.567 175.38 251.237C175.721 251.905 175.891 252.705 175.891 253.636ZM174.587 253.636C174.587 252.926 174.472 252.328 174.242 251.842C174.015 251.354 173.702 250.984 173.305 250.734C172.91 250.482 172.462 250.355 171.962 250.355C171.46 250.355 171.011 250.482 170.616 250.734C170.221 250.984 169.908 251.354 169.678 251.842C169.451 252.328 169.337 252.926 169.337 253.636C169.337 254.347 169.451 254.946 169.678 255.435C169.908 255.92 170.221 256.29 170.616 256.543C171.011 256.793 171.46 256.918 171.962 256.918C172.462 256.918 172.91 256.793 173.305 256.543C173.702 256.29 174.015 255.92 174.242 255.435C174.472 254.946 174.587 254.347 174.587 253.636ZM180.452 258.119C179.867 258.119 179.344 258.018 178.884 257.817C178.426 257.615 178.064 257.335 177.797 256.977C177.533 256.616 177.391 256.199 177.371 255.724H178.709C178.726 255.983 178.813 256.207 178.969 256.398C179.128 256.585 179.336 256.73 179.591 256.832C179.847 256.935 180.131 256.986 180.444 256.986C180.787 256.986 181.091 256.926 181.355 256.807C181.623 256.687 181.831 256.521 181.982 256.308C182.132 256.092 182.208 255.844 182.208 255.562C182.208 255.27 182.132 255.013 181.982 254.791C181.834 254.567 181.617 254.391 181.33 254.263C181.046 254.135 180.702 254.071 180.299 254.071H179.561V252.997H180.299C180.623 252.997 180.907 252.939 181.151 252.822C181.398 252.706 181.591 252.544 181.73 252.337C181.87 252.126 181.939 251.881 181.939 251.599C181.939 251.33 181.878 251.095 181.756 250.896C181.637 250.695 181.466 250.537 181.245 250.423C181.026 250.31 180.767 250.253 180.469 250.253C180.185 250.253 179.919 250.305 179.672 250.411C179.428 250.513 179.229 250.661 179.076 250.854C178.922 251.044 178.84 251.273 178.828 251.54H177.554C177.569 251.068 177.708 250.653 177.972 250.295C178.239 249.937 178.591 249.658 179.029 249.456C179.466 249.254 179.952 249.153 180.486 249.153C181.046 249.153 181.529 249.263 181.935 249.482C182.344 249.697 182.659 249.986 182.881 250.347C183.105 250.707 183.216 251.102 183.213 251.531C183.216 252.02 183.08 252.435 182.804 252.776C182.532 253.116 182.168 253.345 181.713 253.462V253.53C182.293 253.618 182.742 253.848 183.06 254.22C183.381 254.592 183.54 255.054 183.537 255.605C183.54 256.085 183.407 256.516 183.137 256.896C182.87 257.277 182.505 257.577 182.042 257.795C181.578 258.011 181.049 258.119 180.452 258.119ZM188.324 258V257.045L191.277 253.986C191.592 253.653 191.852 253.362 192.057 253.112C192.264 252.859 192.419 252.619 192.521 252.392C192.624 252.165 192.675 251.923 192.675 251.668C192.675 251.378 192.607 251.128 192.47 250.918C192.334 250.705 192.148 250.541 191.912 250.428C191.676 250.311 191.411 250.253 191.115 250.253C190.803 250.253 190.53 250.317 190.297 250.445C190.064 250.572 189.885 250.753 189.76 250.986C189.635 251.219 189.572 251.491 189.572 251.804H188.315C188.315 251.273 188.438 250.808 188.682 250.411C188.926 250.013 189.261 249.705 189.688 249.486C190.114 249.264 190.598 249.153 191.141 249.153C191.689 249.153 192.172 249.263 192.589 249.482C193.01 249.697 193.338 249.993 193.574 250.368C193.81 250.74 193.928 251.161 193.928 251.629C193.928 251.953 193.866 252.27 193.744 252.58C193.625 252.889 193.416 253.234 193.118 253.615C192.82 253.993 192.405 254.452 191.874 254.991L190.139 256.807V256.871H194.068V258H188.324ZM198.722 258.145C198.048 258.142 197.473 257.964 196.996 257.612C196.518 257.26 196.153 256.747 195.901 256.074C195.648 255.401 195.521 254.589 195.521 253.641C195.521 252.695 195.648 251.886 195.901 251.216C196.156 250.545 196.523 250.034 197 249.682C197.48 249.33 198.054 249.153 198.722 249.153C199.389 249.153 199.962 249.331 200.439 249.686C200.916 250.038 201.281 250.55 201.534 251.22C201.79 251.888 201.918 252.695 201.918 253.641C201.918 254.592 201.791 255.405 201.538 256.078C201.286 256.749 200.92 257.261 200.443 257.616C199.966 257.969 199.392 258.145 198.722 258.145ZM198.722 257.007C199.313 257.007 199.774 256.719 200.107 256.142C200.442 255.565 200.609 254.732 200.609 253.641C200.609 252.916 200.533 252.304 200.379 251.804C200.229 251.301 200.011 250.92 199.727 250.662C199.446 250.401 199.111 250.27 198.722 250.27C198.134 250.27 197.672 250.56 197.337 251.139C197.001 251.719 196.832 252.553 196.83 253.641C196.83 254.368 196.905 254.983 197.055 255.486C197.209 255.986 197.426 256.365 197.707 256.624C197.989 256.879 198.327 257.007 198.722 257.007ZM203.429 258V257.045L206.382 253.986C206.698 253.653 206.958 253.362 207.162 253.112C207.37 252.859 207.525 252.619 207.627 252.392C207.729 252.165 207.78 251.923 207.78 251.668C207.78 251.378 207.712 251.128 207.576 250.918C207.439 250.705 207.253 250.541 207.017 250.428C206.782 250.311 206.516 250.253 206.221 250.253C205.908 250.253 205.635 250.317 205.402 250.445C205.169 250.572 204.99 250.753 204.865 250.986C204.74 251.219 204.678 251.491 204.678 251.804H203.421C203.421 251.273 203.543 250.808 203.787 250.411C204.032 250.013 204.367 249.705 204.793 249.486C205.219 249.264 205.703 249.153 206.246 249.153C206.794 249.153 207.277 249.263 207.695 249.482C208.115 249.697 208.444 249.993 208.679 250.368C208.915 250.74 209.033 251.161 209.033 251.629C209.033 251.953 208.972 252.27 208.85 252.58C208.73 252.889 208.522 253.234 208.223 253.615C207.925 253.993 207.51 254.452 206.979 254.991L205.245 256.807V256.871H209.174V258H203.429ZM213.836 258.119C213.446 258.114 213.063 258.043 212.685 257.906C212.31 257.77 211.969 257.543 211.662 257.224C211.355 256.906 211.11 256.479 210.925 255.942C210.743 255.405 210.652 254.734 210.652 253.93C210.652 253.169 210.728 252.493 210.878 251.902C211.032 251.311 211.252 250.812 211.539 250.406C211.826 249.997 212.172 249.686 212.578 249.473C212.985 249.26 213.441 249.153 213.946 249.153C214.466 249.153 214.928 249.256 215.331 249.46C215.735 249.665 216.061 249.947 216.311 250.308C216.564 250.669 216.725 251.08 216.793 251.54H215.493C215.405 251.176 215.23 250.879 214.969 250.649C214.708 250.419 214.367 250.304 213.946 250.304C213.307 250.304 212.809 250.582 212.451 251.139C212.096 251.696 211.917 252.47 211.914 253.462H211.978C212.128 253.214 212.313 253.004 212.532 252.831C212.753 252.655 213 252.52 213.273 252.426C213.549 252.33 213.838 252.281 214.142 252.281C214.648 252.281 215.105 252.405 215.515 252.652C215.926 252.896 216.255 253.234 216.499 253.666C216.743 254.098 216.865 254.592 216.865 255.149C216.865 255.706 216.739 256.21 216.486 256.662C216.236 257.114 215.884 257.472 215.429 257.736C214.975 257.997 214.444 258.125 213.836 258.119ZM213.831 257.011C214.167 257.011 214.466 256.929 214.73 256.764C214.995 256.599 215.203 256.378 215.357 256.099C215.51 255.821 215.587 255.51 215.587 255.166C215.587 254.831 215.512 254.526 215.361 254.25C215.213 253.974 215.009 253.756 214.748 253.594C214.489 253.432 214.194 253.351 213.861 253.351C213.608 253.351 213.374 253.399 213.158 253.496C212.945 253.592 212.757 253.726 212.596 253.896C212.434 254.067 212.306 254.263 212.212 254.484C212.121 254.703 212.076 254.935 212.076 255.179C212.076 255.506 212.151 255.808 212.301 256.087C212.455 256.365 212.664 256.589 212.928 256.76C213.195 256.928 213.496 257.011 213.831 257.011ZM218.876 258.081C218.643 258.081 218.442 257.999 218.275 257.834C218.107 257.666 218.023 257.464 218.023 257.229C218.023 256.996 218.107 256.797 218.275 256.632C218.442 256.464 218.643 256.381 218.876 256.381C219.109 256.381 219.309 256.464 219.477 256.632C219.644 256.797 219.728 256.996 219.728 257.229C219.728 257.385 219.688 257.528 219.609 257.659C219.532 257.787 219.43 257.889 219.302 257.966C219.174 258.043 219.032 258.081 218.876 258.081ZM225.889 249.273V258H224.572V249.273H225.889ZM228.978 254.114V258H227.704V251.455H228.927V252.52H229.008C229.159 252.173 229.395 251.895 229.716 251.685C230.039 251.474 230.447 251.369 230.939 251.369C231.385 251.369 231.775 251.463 232.11 251.651C232.446 251.835 232.706 252.111 232.89 252.477C233.075 252.844 233.167 253.297 233.167 253.837V258H231.893V253.99C231.893 253.516 231.77 253.145 231.522 252.878C231.275 252.608 230.936 252.473 230.504 252.473C230.208 252.473 229.946 252.537 229.716 252.665C229.488 252.793 229.308 252.98 229.174 253.227C229.044 253.472 228.978 253.767 228.978 254.114ZM237.633 258.132C237 258.132 236.454 257.989 235.997 257.702C235.542 257.412 235.193 257.013 234.949 256.504C234.704 255.996 234.582 255.413 234.582 254.757C234.582 254.092 234.707 253.506 234.957 252.997C235.207 252.486 235.559 252.087 236.014 251.8C236.468 251.513 237.004 251.369 237.62 251.369C238.118 251.369 238.561 251.462 238.95 251.646C239.339 251.828 239.653 252.084 239.892 252.413C240.133 252.743 240.277 253.128 240.322 253.568H239.082C239.014 253.261 238.858 252.997 238.613 252.776C238.372 252.554 238.048 252.443 237.642 252.443C237.287 252.443 236.975 252.537 236.708 252.724C236.444 252.909 236.238 253.173 236.091 253.517C235.943 253.858 235.869 254.261 235.869 254.727C235.869 255.205 235.941 255.616 236.086 255.963C236.231 256.31 236.436 256.578 236.7 256.768C236.967 256.959 237.281 257.054 237.642 257.054C237.883 257.054 238.102 257.01 238.298 256.922C238.497 256.831 238.663 256.702 238.797 256.534C238.933 256.366 239.028 256.165 239.082 255.929H240.322C240.277 256.352 240.139 256.73 239.909 257.062C239.679 257.395 239.37 257.656 238.984 257.847C238.6 258.037 238.15 258.132 237.633 258.132ZM242.959 249.273V258H241.685V249.273H242.959ZM248.819 255.286V251.455H250.098V258H248.845V256.866H248.777C248.626 257.216 248.385 257.507 248.052 257.74C247.723 257.97 247.312 258.085 246.821 258.085C246.4 258.085 246.028 257.993 245.704 257.808C245.383 257.621 245.13 257.344 244.946 256.977C244.764 256.611 244.673 256.158 244.673 255.618V251.455H245.947V255.464C245.947 255.911 246.071 256.266 246.318 256.53C246.565 256.794 246.886 256.926 247.281 256.926C247.52 256.926 247.757 256.866 247.993 256.747C248.231 256.628 248.429 256.447 248.585 256.206C248.744 255.964 248.822 255.658 248.819 255.286ZM254.26 258.128C253.732 258.128 253.26 257.993 252.845 257.723C252.433 257.45 252.109 257.062 251.874 256.56C251.641 256.054 251.524 255.447 251.524 254.74C251.524 254.033 251.642 253.428 251.878 252.925C252.116 252.422 252.443 252.037 252.858 251.77C253.273 251.503 253.743 251.369 254.268 251.369C254.675 251.369 255.001 251.438 255.249 251.574C255.499 251.707 255.692 251.864 255.828 252.043C255.967 252.222 256.075 252.379 256.152 252.516H256.229V249.273H257.503V258H256.259V256.982H256.152C256.075 257.121 255.964 257.28 255.82 257.459C255.678 257.638 255.482 257.794 255.232 257.928C254.982 258.061 254.658 258.128 254.26 258.128ZM254.541 257.041C254.908 257.041 255.217 256.945 255.47 256.751C255.726 256.555 255.919 256.284 256.05 255.938C256.183 255.591 256.25 255.187 256.25 254.727C256.25 254.273 256.185 253.875 256.054 253.534C255.923 253.193 255.732 252.928 255.479 252.737C255.226 252.547 254.913 252.452 254.541 252.452C254.158 252.452 253.838 252.551 253.582 252.75C253.327 252.949 253.134 253.22 253.003 253.564C252.875 253.908 252.811 254.295 252.811 254.727C252.811 255.165 252.876 255.558 253.007 255.908C253.138 256.257 253.331 256.534 253.587 256.739C253.845 256.94 254.163 257.041 254.541 257.041ZM262.142 258.132C261.498 258.132 260.942 257.994 260.476 257.719C260.013 257.44 259.655 257.05 259.402 256.547C259.152 256.041 259.027 255.449 259.027 254.77C259.027 254.099 259.152 253.509 259.402 252.997C259.655 252.486 260.007 252.087 260.459 251.8C260.914 251.513 261.445 251.369 262.053 251.369C262.422 251.369 262.78 251.43 263.127 251.553C263.473 251.675 263.784 251.866 264.06 252.128C264.336 252.389 264.553 252.729 264.712 253.146C264.871 253.561 264.951 254.065 264.951 254.659V255.111H259.748V254.156H263.702C263.702 253.821 263.634 253.524 263.498 253.266C263.361 253.004 263.169 252.798 262.922 252.648C262.678 252.497 262.391 252.422 262.061 252.422C261.703 252.422 261.391 252.51 261.124 252.686C260.86 252.859 260.655 253.087 260.51 253.368C260.368 253.646 260.297 253.949 260.297 254.276V255.021C260.297 255.459 260.374 255.831 260.527 256.138C260.684 256.445 260.901 256.679 261.179 256.841C261.458 257 261.783 257.08 262.155 257.08C262.397 257.08 262.617 257.045 262.816 256.977C263.015 256.906 263.186 256.801 263.331 256.662C263.476 256.523 263.587 256.351 263.664 256.146L264.87 256.364C264.773 256.719 264.6 257.03 264.35 257.297C264.103 257.561 263.792 257.767 263.417 257.915C263.044 258.06 262.62 258.132 262.142 258.132ZM271.269 253.053L270.114 253.257C270.066 253.109 269.989 252.969 269.884 252.835C269.782 252.702 269.643 252.592 269.467 252.507C269.29 252.422 269.07 252.379 268.806 252.379C268.445 252.379 268.144 252.46 267.903 252.622C267.661 252.781 267.54 252.987 267.54 253.24C267.54 253.459 267.621 253.635 267.783 253.768C267.945 253.902 268.207 254.011 268.567 254.097L269.607 254.335C270.21 254.474 270.658 254.689 270.954 254.979C271.249 255.268 271.397 255.645 271.397 256.108C271.397 256.5 271.283 256.849 271.056 257.156C270.832 257.46 270.518 257.699 270.114 257.872C269.714 258.045 269.249 258.132 268.721 258.132C267.988 258.132 267.39 257.976 266.927 257.663C266.464 257.348 266.18 256.901 266.075 256.321L267.306 256.134C267.383 256.455 267.54 256.697 267.779 256.862C268.018 257.024 268.329 257.105 268.712 257.105C269.13 257.105 269.464 257.018 269.714 256.845C269.964 256.669 270.089 256.455 270.089 256.202C270.089 255.997 270.012 255.825 269.859 255.686C269.708 255.547 269.477 255.442 269.164 255.371L268.056 255.128C267.445 254.989 266.994 254.767 266.701 254.463C266.411 254.159 266.266 253.774 266.266 253.308C266.266 252.922 266.374 252.584 266.59 252.294C266.806 252.004 267.104 251.778 267.485 251.616C267.866 251.452 268.302 251.369 268.793 251.369C269.501 251.369 270.058 251.523 270.464 251.83C270.87 252.134 271.138 252.541 271.269 253.053ZM275.974 258V251.455H277.248V258H275.974ZM276.617 250.445C276.396 250.445 276.205 250.371 276.046 250.223C275.89 250.072 275.812 249.893 275.812 249.686C275.812 249.476 275.89 249.297 276.046 249.149C276.205 248.999 276.396 248.923 276.617 248.923C276.839 248.923 277.028 248.999 277.184 249.149C277.343 249.297 277.423 249.476 277.423 249.686C277.423 249.893 277.343 250.072 277.184 250.223C277.028 250.371 276.839 250.445 276.617 250.445ZM280.236 254.114V258H278.962V251.455H280.185V252.52H280.266C280.417 252.173 280.652 251.895 280.973 251.685C281.297 251.474 281.705 251.369 282.196 251.369C282.642 251.369 283.033 251.463 283.368 251.651C283.703 251.835 283.963 252.111 284.148 252.477C284.333 252.844 284.425 253.297 284.425 253.837V258H283.151V253.99C283.151 253.516 283.027 253.145 282.78 252.878C282.533 252.608 282.194 252.473 281.762 252.473C281.466 252.473 281.203 252.537 280.973 252.665C280.746 252.793 280.566 252.98 280.432 253.227C280.301 253.472 280.236 253.767 280.236 254.114ZM288.584 258.128C288.056 258.128 287.584 257.993 287.169 257.723C286.757 257.45 286.434 257.062 286.198 256.56C285.965 256.054 285.848 255.447 285.848 254.74C285.848 254.033 285.966 253.428 286.202 252.925C286.441 252.422 286.767 252.037 287.182 251.77C287.597 251.503 288.067 251.369 288.593 251.369C288.999 251.369 289.326 251.438 289.573 251.574C289.823 251.707 290.016 251.864 290.152 252.043C290.292 252.222 290.4 252.379 290.476 252.516H290.553V249.273H291.827V258H290.583V256.982H290.476C290.4 257.121 290.289 257.28 290.144 257.459C290.002 257.638 289.806 257.794 289.556 257.928C289.306 258.061 288.982 258.128 288.584 258.128ZM288.865 257.041C289.232 257.041 289.542 256.945 289.794 256.751C290.05 256.555 290.243 256.284 290.374 255.938C290.507 255.591 290.574 255.187 290.574 254.727C290.574 254.273 290.509 253.875 290.378 253.534C290.248 253.193 290.056 252.928 289.803 252.737C289.55 252.547 289.238 252.452 288.865 252.452C288.482 252.452 288.162 252.551 287.907 252.75C287.651 252.949 287.458 253.22 287.327 253.564C287.199 253.908 287.135 254.295 287.135 254.727C287.135 255.165 287.201 255.558 287.331 255.908C287.462 256.257 287.655 256.534 287.911 256.739C288.169 256.94 288.488 257.041 288.865 257.041ZM297.792 255.286V251.455H299.07V258H297.817V256.866H297.749C297.599 257.216 297.357 257.507 297.025 257.74C296.695 257.97 296.285 258.085 295.793 258.085C295.373 258.085 295.001 257.993 294.677 257.808C294.356 257.621 294.103 257.344 293.918 256.977C293.737 256.611 293.646 256.158 293.646 255.618V251.455H294.92V255.464C294.92 255.911 295.043 256.266 295.29 256.53C295.538 256.794 295.859 256.926 296.254 256.926C296.492 256.926 296.729 256.866 296.965 256.747C297.204 256.628 297.401 256.447 297.558 256.206C297.717 255.964 297.795 255.658 297.792 255.286ZM305.687 253.053L304.532 253.257C304.484 253.109 304.407 252.969 304.302 252.835C304.2 252.702 304.061 252.592 303.885 252.507C303.708 252.422 303.488 252.379 303.224 252.379C302.863 252.379 302.562 252.46 302.321 252.622C302.079 252.781 301.958 252.987 301.958 253.24C301.958 253.459 302.039 253.635 302.201 253.768C302.363 253.902 302.625 254.011 302.985 254.097L304.025 254.335C304.627 254.474 305.076 254.689 305.372 254.979C305.667 255.268 305.815 255.645 305.815 256.108C305.815 256.5 305.701 256.849 305.474 257.156C305.25 257.46 304.936 257.699 304.532 257.872C304.132 258.045 303.667 258.132 303.139 258.132C302.406 258.132 301.808 257.976 301.345 257.663C300.882 257.348 300.598 256.901 300.493 256.321L301.724 256.134C301.801 256.455 301.958 256.697 302.197 256.862C302.436 257.024 302.747 257.105 303.13 257.105C303.548 257.105 303.882 257.018 304.132 256.845C304.382 256.669 304.507 256.455 304.507 256.202C304.507 255.997 304.43 255.825 304.277 255.686C304.126 255.547 303.895 255.442 303.582 255.371L302.474 255.128C301.863 254.989 301.412 254.767 301.119 254.463C300.829 254.159 300.684 253.774 300.684 253.308C300.684 252.922 300.792 252.584 301.008 252.294C301.224 252.004 301.522 251.778 301.903 251.616C302.284 251.452 302.72 251.369 303.211 251.369C303.919 251.369 304.475 251.523 304.882 251.83C305.288 252.134 305.556 252.541 305.687 253.053ZM310.271 251.455V252.477H306.696V251.455H310.271ZM307.655 249.886H308.929V256.078C308.929 256.325 308.966 256.511 309.04 256.636C309.114 256.759 309.209 256.842 309.325 256.888C309.445 256.93 309.574 256.952 309.713 256.952C309.815 256.952 309.905 256.945 309.982 256.93C310.058 256.916 310.118 256.905 310.161 256.896L310.391 257.949C310.317 257.977 310.212 258.006 310.075 258.034C309.939 258.065 309.768 258.082 309.564 258.085C309.229 258.091 308.916 258.031 308.626 257.906C308.337 257.781 308.102 257.588 307.923 257.327C307.744 257.065 307.655 256.737 307.655 256.342V249.886ZM311.681 258V251.455H312.912V252.494H312.98C313.1 252.142 313.31 251.865 313.611 251.663C313.915 251.459 314.259 251.357 314.642 251.357C314.722 251.357 314.816 251.359 314.924 251.365C315.034 251.371 315.121 251.378 315.184 251.386V252.605C315.132 252.591 315.042 252.575 314.911 252.558C314.78 252.538 314.65 252.528 314.519 252.528C314.218 252.528 313.949 252.592 313.713 252.72C313.48 252.845 313.296 253.02 313.159 253.244C313.023 253.466 312.955 253.719 312.955 254.003V258H311.681ZM316.286 258V251.455H317.56V258H316.286ZM316.93 250.445C316.708 250.445 316.518 250.371 316.359 250.223C316.202 250.072 316.124 249.893 316.124 249.686C316.124 249.476 316.202 249.297 316.359 249.149C316.518 248.999 316.708 248.923 316.93 248.923C317.151 248.923 317.34 248.999 317.496 249.149C317.656 249.297 317.735 249.476 317.735 249.686C317.735 249.893 317.656 250.072 317.496 250.223C317.34 250.371 317.151 250.445 316.93 250.445ZM321.179 258.145C320.765 258.145 320.39 258.068 320.054 257.915C319.719 257.759 319.453 257.533 319.257 257.237C319.064 256.942 318.968 256.58 318.968 256.151C318.968 255.781 319.039 255.477 319.181 255.239C319.323 255 319.515 254.811 319.756 254.672C319.998 254.533 320.267 254.428 320.566 254.357C320.864 254.286 321.168 254.232 321.478 254.195C321.87 254.149 322.188 254.112 322.432 254.084C322.676 254.053 322.854 254.003 322.965 253.935C323.076 253.866 323.131 253.756 323.131 253.602V253.572C323.131 253.2 323.026 252.912 322.816 252.707C322.608 252.503 322.299 252.401 321.887 252.401C321.458 252.401 321.12 252.496 320.873 252.686C320.628 252.874 320.459 253.082 320.365 253.312L319.168 253.04C319.31 252.642 319.517 252.321 319.79 252.077C320.066 251.83 320.382 251.651 320.74 251.54C321.098 251.426 321.475 251.369 321.87 251.369C322.131 251.369 322.408 251.401 322.701 251.463C322.996 251.523 323.272 251.634 323.527 251.795C323.786 251.957 323.998 252.189 324.162 252.49C324.327 252.788 324.409 253.176 324.409 253.653V258H323.165V257.105H323.114C323.032 257.27 322.908 257.432 322.743 257.591C322.578 257.75 322.367 257.882 322.108 257.987C321.85 258.092 321.54 258.145 321.179 258.145ZM321.456 257.122C321.809 257.122 322.11 257.053 322.36 256.913C322.613 256.774 322.804 256.592 322.935 256.368C323.069 256.141 323.135 255.898 323.135 255.639V254.795C323.09 254.841 323.002 254.884 322.871 254.923C322.743 254.96 322.597 254.993 322.432 255.021C322.267 255.047 322.107 255.071 321.951 255.094C321.794 255.114 321.664 255.131 321.559 255.145C321.311 255.176 321.086 255.229 320.881 255.303C320.679 255.376 320.517 255.483 320.395 255.622C320.276 255.759 320.216 255.94 320.216 256.168C320.216 256.483 320.333 256.722 320.566 256.884C320.799 257.043 321.096 257.122 321.456 257.122ZM327.381 249.273V258H326.107V249.273H327.381ZM332.271 260.455V251.455H333.515V252.516H333.621C333.695 252.379 333.802 252.222 333.941 252.043C334.08 251.864 334.273 251.707 334.521 251.574C334.768 251.438 335.094 251.369 335.501 251.369C336.029 251.369 336.501 251.503 336.915 251.77C337.33 252.037 337.656 252.422 337.891 252.925C338.13 253.428 338.249 254.033 338.249 254.74C338.249 255.447 338.131 256.054 337.896 256.56C337.66 257.062 337.336 257.45 336.924 257.723C336.512 257.993 336.042 258.128 335.513 258.128C335.116 258.128 334.79 258.061 334.538 257.928C334.288 257.794 334.092 257.638 333.95 257.459C333.808 257.28 333.698 257.121 333.621 256.982H333.545V260.455H332.271ZM333.519 254.727C333.519 255.187 333.586 255.591 333.719 255.938C333.853 256.284 334.046 256.555 334.299 256.751C334.552 256.945 334.862 257.041 335.228 257.041C335.609 257.041 335.927 256.94 336.183 256.739C336.438 256.534 336.631 256.257 336.762 255.908C336.896 255.558 336.962 255.165 336.962 254.727C336.962 254.295 336.897 253.908 336.766 253.564C336.638 253.22 336.445 252.949 336.187 252.75C335.931 252.551 335.612 252.452 335.228 252.452C334.859 252.452 334.546 252.547 334.29 252.737C334.038 252.928 333.846 253.193 333.715 253.534C333.585 253.875 333.519 254.273 333.519 254.727ZM339.677 258V251.455H340.908V252.494H340.977C341.096 252.142 341.306 251.865 341.607 251.663C341.911 251.459 342.255 251.357 342.638 251.357C342.718 251.357 342.812 251.359 342.92 251.365C343.031 251.371 343.117 251.378 343.18 251.386V252.605C343.129 252.591 343.038 252.575 342.907 252.558C342.776 252.538 342.646 252.528 342.515 252.528C342.214 252.528 341.945 252.592 341.71 252.72C341.477 252.845 341.292 253.02 341.156 253.244C341.019 253.466 340.951 253.719 340.951 254.003V258H339.677ZM346.805 258.132C346.191 258.132 345.656 257.991 345.199 257.71C344.741 257.429 344.386 257.036 344.133 256.53C343.88 256.024 343.754 255.433 343.754 254.757C343.754 254.078 343.88 253.484 344.133 252.976C344.386 252.467 344.741 252.072 345.199 251.791C345.656 251.51 346.191 251.369 346.805 251.369C347.419 251.369 347.954 251.51 348.412 251.791C348.869 252.072 349.224 252.467 349.477 252.976C349.73 253.484 349.856 254.078 349.856 254.757C349.856 255.433 349.73 256.024 349.477 256.53C349.224 257.036 348.869 257.429 348.412 257.71C347.954 257.991 347.419 258.132 346.805 258.132ZM346.809 257.062C347.207 257.062 347.537 256.957 347.798 256.747C348.059 256.537 348.252 256.257 348.377 255.908C348.505 255.558 348.569 255.173 348.569 254.753C348.569 254.335 348.505 253.952 348.377 253.602C348.252 253.25 348.059 252.967 347.798 252.754C347.537 252.541 347.207 252.435 346.809 252.435C346.409 252.435 346.076 252.541 345.812 252.754C345.551 252.967 345.356 253.25 345.228 253.602C345.103 253.952 345.041 254.335 345.041 254.753C345.041 255.173 345.103 255.558 345.228 255.908C345.356 256.257 345.551 256.537 345.812 256.747C346.076 256.957 346.409 257.062 346.809 257.062ZM351.278 251.455H352.553V258.426C352.553 258.864 352.473 259.233 352.314 259.534C352.158 259.835 351.925 260.064 351.615 260.22C351.308 260.376 350.929 260.455 350.477 260.455C350.432 260.455 350.389 260.455 350.349 260.455C350.307 260.455 350.263 260.453 350.217 260.45V259.355C350.257 259.355 350.293 259.355 350.324 259.355C350.352 259.355 350.385 259.355 350.422 259.355C350.723 259.355 350.94 259.274 351.074 259.112C351.21 258.953 351.278 258.722 351.278 258.418V251.455ZM351.909 250.445C351.688 250.445 351.497 250.371 351.338 250.223C351.182 250.072 351.104 249.893 351.104 249.686C351.104 249.476 351.182 249.297 351.338 249.149C351.497 248.999 351.688 248.923 351.909 248.923C352.131 248.923 352.32 248.999 352.476 249.149C352.635 249.297 352.714 249.476 352.714 249.686C352.714 249.893 352.635 250.072 352.476 250.223C352.32 250.371 352.131 250.445 351.909 250.445ZM357.088 258.132C356.443 258.132 355.887 257.994 355.422 257.719C354.958 257.44 354.6 257.05 354.348 256.547C354.098 256.041 353.973 255.449 353.973 254.77C353.973 254.099 354.098 253.509 354.348 252.997C354.6 252.486 354.953 252.087 355.404 251.8C355.859 251.513 356.39 251.369 356.998 251.369C357.368 251.369 357.725 251.43 358.072 251.553C358.419 251.675 358.73 251.866 359.005 252.128C359.281 252.389 359.498 252.729 359.657 253.146C359.816 253.561 359.896 254.065 359.896 254.659V255.111H354.693V254.156H358.647C358.647 253.821 358.579 253.524 358.443 253.266C358.306 253.004 358.115 252.798 357.868 252.648C357.623 252.497 357.336 252.422 357.007 252.422C356.649 252.422 356.336 252.51 356.069 252.686C355.805 252.859 355.6 253.087 355.456 253.368C355.314 253.646 355.243 253.949 355.243 254.276V255.021C355.243 255.459 355.319 255.831 355.473 256.138C355.629 256.445 355.846 256.679 356.125 256.841C356.403 257 356.728 257.08 357.1 257.08C357.342 257.08 357.562 257.045 357.761 256.977C357.96 256.906 358.132 256.801 358.277 256.662C358.422 256.523 358.532 256.351 358.609 256.146L359.815 256.364C359.718 256.719 359.545 257.03 359.295 257.297C359.048 257.561 358.737 257.767 358.362 257.915C357.99 258.06 357.565 258.132 357.088 258.132ZM364.067 258.132C363.433 258.132 362.888 257.989 362.43 257.702C361.976 257.412 361.626 257.013 361.382 256.504C361.138 255.996 361.016 255.413 361.016 254.757C361.016 254.092 361.141 253.506 361.391 252.997C361.641 252.486 361.993 252.087 362.447 251.8C362.902 251.513 363.438 251.369 364.054 251.369C364.551 251.369 364.994 251.462 365.384 251.646C365.773 251.828 366.087 252.084 366.325 252.413C366.567 252.743 366.71 253.128 366.756 253.568H365.516C365.447 253.261 365.291 252.997 365.047 252.776C364.805 252.554 364.482 252.443 364.075 252.443C363.72 252.443 363.409 252.537 363.142 252.724C362.878 252.909 362.672 253.173 362.524 253.517C362.376 253.858 362.303 254.261 362.303 254.727C362.303 255.205 362.375 255.616 362.52 255.963C362.665 256.31 362.869 256.578 363.134 256.768C363.401 256.959 363.714 257.054 364.075 257.054C364.317 257.054 364.536 257.01 364.732 256.922C364.93 256.831 365.097 256.702 365.23 256.534C365.366 256.366 365.462 256.165 365.516 255.929H366.756C366.71 256.352 366.572 256.73 366.342 257.062C366.112 257.395 365.804 257.656 365.418 257.847C365.034 258.037 364.584 258.132 364.067 258.132ZM371.174 251.455V252.477H367.598V251.455H371.174ZM368.557 249.886H369.831V256.078C369.831 256.325 369.868 256.511 369.942 256.636C370.016 256.759 370.111 256.842 370.228 256.888C370.347 256.93 370.476 256.952 370.615 256.952C370.718 256.952 370.807 256.945 370.884 256.93C370.961 256.916 371.02 256.905 371.063 256.896L371.293 257.949C371.219 257.977 371.114 258.006 370.978 258.034C370.841 258.065 370.671 258.082 370.466 258.085C370.131 258.091 369.819 258.031 369.529 257.906C369.239 257.781 369.005 257.588 368.826 257.327C368.647 257.065 368.557 256.737 368.557 256.342V249.886ZM377.382 253.053L376.228 253.257C376.179 253.109 376.103 252.969 375.998 252.835C375.895 252.702 375.756 252.592 375.58 252.507C375.404 252.422 375.184 252.379 374.919 252.379C374.559 252.379 374.257 252.46 374.016 252.622C373.775 252.781 373.654 252.987 373.654 253.24C373.654 253.459 373.735 253.635 373.897 253.768C374.059 253.902 374.32 254.011 374.681 254.097L375.721 254.335C376.323 254.474 376.772 254.689 377.067 254.979C377.363 255.268 377.51 255.645 377.51 256.108C377.51 256.5 377.397 256.849 377.169 257.156C376.945 257.46 376.631 257.699 376.228 257.872C375.827 258.045 375.363 258.132 374.834 258.132C374.101 258.132 373.503 257.976 373.04 257.663C372.577 257.348 372.293 256.901 372.188 256.321L373.419 256.134C373.496 256.455 373.654 256.697 373.892 256.862C374.131 257.024 374.442 257.105 374.826 257.105C375.243 257.105 375.577 257.018 375.827 256.845C376.077 256.669 376.202 256.455 376.202 256.202C376.202 255.997 376.125 255.825 375.972 255.686C375.821 255.547 375.59 255.442 375.277 255.371L374.169 255.128C373.559 254.989 373.107 254.767 372.814 254.463C372.525 254.159 372.38 253.774 372.38 253.308C372.38 252.922 372.488 252.584 372.703 252.294C372.919 252.004 373.218 251.778 373.598 251.616C373.979 251.452 374.415 251.369 374.907 251.369C375.614 251.369 376.171 251.523 376.577 251.83C376.983 252.134 377.252 252.541 377.382 253.053ZM384.627 258.124C384.042 258.124 383.537 258.017 383.114 257.804C382.694 257.591 382.37 257.301 382.142 256.935C381.915 256.565 381.801 256.148 381.801 255.682C381.801 255.327 381.875 255.011 382.023 254.736C382.171 254.457 382.377 254.2 382.641 253.964C382.905 253.729 383.211 253.491 383.557 253.253L384.963 252.26C385.202 252.104 385.388 251.939 385.522 251.766C385.655 251.589 385.722 251.372 385.722 251.114C385.722 250.909 385.634 250.713 385.458 250.526C385.282 250.338 385.046 250.244 384.75 250.244C384.546 250.244 384.365 250.294 384.209 250.393C384.056 250.493 383.935 250.621 383.847 250.777C383.762 250.93 383.719 251.092 383.719 251.263C383.719 251.462 383.773 251.662 383.881 251.864C383.992 252.065 384.134 252.274 384.307 252.49C384.48 252.703 384.662 252.925 384.853 253.155L388.905 258H387.465L384.111 254.058C383.83 253.726 383.569 253.413 383.327 253.121C383.086 252.825 382.89 252.527 382.739 252.226C382.591 251.922 382.517 251.594 382.517 251.241C382.517 250.841 382.608 250.486 382.79 250.176C382.975 249.864 383.232 249.619 383.561 249.443C383.891 249.267 384.277 249.179 384.721 249.179C385.169 249.179 385.554 249.267 385.875 249.443C386.199 249.616 386.448 249.848 386.621 250.138C386.797 250.425 386.885 250.739 386.885 251.08C386.885 251.494 386.782 251.861 386.574 252.179C386.37 252.494 386.087 252.784 385.726 253.048L383.975 254.339C383.634 254.589 383.397 254.837 383.263 255.081C383.132 255.322 383.067 255.511 383.067 255.648C383.067 255.898 383.131 256.129 383.259 256.342C383.39 256.555 383.571 256.726 383.804 256.854C384.04 256.982 384.316 257.045 384.631 257.045C384.955 257.045 385.27 256.976 385.577 256.837C385.887 256.695 386.167 256.491 386.417 256.227C386.669 255.963 386.87 255.646 387.017 255.277C387.165 254.908 387.239 254.494 387.239 254.037H388.39C388.39 254.599 388.326 255.075 388.198 255.464C388.07 255.851 387.915 256.166 387.733 256.411C387.554 256.652 387.385 256.841 387.226 256.977C387.175 257.023 387.127 257.068 387.081 257.114C387.036 257.159 386.988 257.205 386.936 257.25C386.641 257.548 386.283 257.768 385.863 257.911C385.445 258.053 385.033 258.124 384.627 258.124ZM395.836 258.132C395.203 258.132 394.657 257.989 394.2 257.702C393.745 257.412 393.396 257.013 393.152 256.504C392.907 255.996 392.785 255.413 392.785 254.757C392.785 254.092 392.91 253.506 393.16 252.997C393.41 252.486 393.762 252.087 394.217 251.8C394.672 251.513 395.207 251.369 395.824 251.369C396.321 251.369 396.764 251.462 397.153 251.646C397.542 251.828 397.856 252.084 398.095 252.413C398.336 252.743 398.48 253.128 398.525 253.568H397.285C397.217 253.261 397.061 252.997 396.816 252.776C396.575 252.554 396.251 252.443 395.845 252.443C395.49 252.443 395.179 252.537 394.912 252.724C394.647 252.909 394.441 253.173 394.294 253.517C394.146 253.858 394.072 254.261 394.072 254.727C394.072 255.205 394.145 255.616 394.289 255.963C394.434 256.31 394.639 256.578 394.903 256.768C395.17 256.959 395.484 257.054 395.845 257.054C396.086 257.054 396.305 257.01 396.501 256.922C396.7 256.831 396.866 256.702 397 256.534C397.136 256.366 397.231 256.165 397.285 255.929H398.525C398.48 256.352 398.342 256.73 398.112 257.062C397.882 257.395 397.574 257.656 397.187 257.847C396.804 258.037 396.353 258.132 395.836 258.132ZM401.162 249.273V258H399.888V249.273H401.162ZM402.876 258V251.455H404.15V258H402.876ZM403.52 250.445C403.298 250.445 403.108 250.371 402.949 250.223C402.792 250.072 402.714 249.893 402.714 249.686C402.714 249.476 402.792 249.297 402.949 249.149C403.108 248.999 403.298 248.923 403.52 248.923C403.741 248.923 403.93 248.999 404.086 249.149C404.245 249.297 404.325 249.476 404.325 249.686C404.325 249.893 404.245 250.072 404.086 250.223C403.93 250.371 403.741 250.445 403.52 250.445ZM408.685 258.132C408.04 258.132 407.485 257.994 407.019 257.719C406.556 257.44 406.198 257.05 405.945 256.547C405.695 256.041 405.57 255.449 405.57 254.77C405.57 254.099 405.695 253.509 405.945 252.997C406.198 252.486 406.55 252.087 407.002 251.8C407.457 251.513 407.988 251.369 408.596 251.369C408.965 251.369 409.323 251.43 409.67 251.553C410.016 251.675 410.327 251.866 410.603 252.128C410.879 252.389 411.096 252.729 411.255 253.146C411.414 253.561 411.494 254.065 411.494 254.659V255.111H406.29V254.156H410.245C410.245 253.821 410.177 253.524 410.04 253.266C409.904 253.004 409.712 252.798 409.465 252.648C409.221 252.497 408.934 252.422 408.604 252.422C408.246 252.422 407.934 252.51 407.667 252.686C407.403 252.859 407.198 253.087 407.053 253.368C406.911 253.646 406.84 253.949 406.84 254.276V255.021C406.84 255.459 406.917 255.831 407.07 256.138C407.227 256.445 407.444 256.679 407.722 256.841C408.001 257 408.326 257.08 408.698 257.08C408.94 257.08 409.16 257.045 409.359 256.977C409.558 256.906 409.729 256.801 409.874 256.662C410.019 256.523 410.13 256.351 410.207 256.146L411.413 256.364C411.316 256.719 411.143 257.03 410.893 257.297C410.646 257.561 410.335 257.767 409.96 257.915C409.587 258.06 409.163 258.132 408.685 258.132ZM414.181 254.114V258H412.907V251.455H414.13V252.52H414.211C414.362 252.173 414.598 251.895 414.919 251.685C415.243 251.474 415.65 251.369 416.142 251.369C416.588 251.369 416.978 251.463 417.314 251.651C417.649 251.835 417.909 252.111 418.093 252.477C418.278 252.844 418.37 253.297 418.37 253.837V258H417.096V253.99C417.096 253.516 416.973 253.145 416.725 252.878C416.478 252.608 416.139 252.473 415.707 252.473C415.412 252.473 415.149 252.537 414.919 252.665C414.691 252.793 414.511 252.98 414.377 253.227C414.247 253.472 414.181 253.767 414.181 254.114ZM423.135 251.455V252.477H419.559V251.455H423.135ZM420.518 249.886H421.792V256.078C421.792 256.325 421.829 256.511 421.903 256.636C421.977 256.759 422.072 256.842 422.189 256.888C422.308 256.93 422.437 256.952 422.576 256.952C422.679 256.952 422.768 256.945 422.845 256.93C422.922 256.916 422.981 256.905 423.024 256.896L423.254 257.949C423.18 257.977 423.075 258.006 422.939 258.034C422.802 258.065 422.632 258.082 422.427 258.085C422.092 258.091 421.779 258.031 421.49 257.906C421.2 257.781 420.966 257.588 420.787 257.327C420.608 257.065 420.518 256.737 420.518 256.342V249.886ZM427.72 260.455V251.455H428.964V252.516H429.071C429.145 252.379 429.251 252.222 429.39 252.043C429.529 251.864 429.723 251.707 429.97 251.574C430.217 251.438 430.544 251.369 430.95 251.369C431.478 251.369 431.95 251.503 432.365 251.77C432.779 252.037 433.105 252.422 433.341 252.925C433.579 253.428 433.699 254.033 433.699 254.74C433.699 255.447 433.581 256.054 433.345 256.56C433.109 257.062 432.785 257.45 432.373 257.723C431.961 257.993 431.491 258.128 430.963 258.128C430.565 258.128 430.24 258.061 429.987 257.928C429.737 257.794 429.541 257.638 429.399 257.459C429.257 257.28 429.147 257.121 429.071 256.982H428.994V260.455H427.72ZM428.968 254.727C428.968 255.187 429.035 255.591 429.169 255.938C429.302 256.284 429.495 256.555 429.748 256.751C430.001 256.945 430.311 257.041 430.677 257.041C431.058 257.041 431.376 256.94 431.632 256.739C431.887 256.534 432.081 256.257 432.211 255.908C432.345 255.558 432.412 255.165 432.412 254.727C432.412 254.295 432.346 253.908 432.216 253.564C432.088 253.22 431.895 252.949 431.636 252.75C431.38 252.551 431.061 252.452 430.677 252.452C430.308 252.452 429.995 252.547 429.74 252.737C429.487 252.928 429.295 253.193 429.164 253.534C429.034 253.875 428.968 254.273 428.968 254.727ZM435.126 258V251.455H436.358V252.494H436.426C436.545 252.142 436.755 251.865 437.056 251.663C437.36 251.459 437.704 251.357 438.088 251.357C438.167 251.357 438.261 251.359 438.369 251.365C438.48 251.371 438.566 251.378 438.629 251.386V252.605C438.578 252.591 438.487 252.575 438.356 252.558C438.225 252.538 438.095 252.528 437.964 252.528C437.663 252.528 437.395 252.592 437.159 252.72C436.926 252.845 436.741 253.02 436.605 253.244C436.468 253.466 436.4 253.719 436.4 254.003V258H435.126ZM442.254 258.132C441.641 258.132 441.105 257.991 440.648 257.71C440.19 257.429 439.835 257.036 439.582 256.53C439.33 256.024 439.203 255.433 439.203 254.757C439.203 254.078 439.33 253.484 439.582 252.976C439.835 252.467 440.19 252.072 440.648 251.791C441.105 251.51 441.641 251.369 442.254 251.369C442.868 251.369 443.403 251.51 443.861 251.791C444.318 252.072 444.673 252.467 444.926 252.976C445.179 253.484 445.305 254.078 445.305 254.757C445.305 255.433 445.179 256.024 444.926 256.53C444.673 257.036 444.318 257.429 443.861 257.71C443.403 257.991 442.868 258.132 442.254 258.132ZM442.259 257.062C442.656 257.062 442.986 256.957 443.247 256.747C443.509 256.537 443.702 256.257 443.827 255.908C443.955 255.558 444.018 255.173 444.018 254.753C444.018 254.335 443.955 253.952 443.827 253.602C443.702 253.25 443.509 252.967 443.247 252.754C442.986 252.541 442.656 252.435 442.259 252.435C441.858 252.435 441.526 252.541 441.261 252.754C441 252.967 440.805 253.25 440.678 253.602C440.553 253.952 440.49 254.335 440.49 254.753C440.49 255.173 440.553 255.558 440.678 255.908C440.805 256.257 441 256.537 441.261 256.747C441.526 256.957 441.858 257.062 442.259 257.062ZM446.728 251.455H448.002V258.426C448.002 258.864 447.922 259.233 447.763 259.534C447.607 259.835 447.374 260.064 447.064 260.22C446.757 260.376 446.378 260.455 445.926 260.455C445.881 260.455 445.838 260.455 445.799 260.455C445.756 260.455 445.712 260.453 445.667 260.45V259.355C445.706 259.355 445.742 259.355 445.773 259.355C445.801 259.355 445.834 259.355 445.871 259.355C446.172 259.355 446.39 259.274 446.523 259.112C446.659 258.953 446.728 258.722 446.728 258.418V251.455ZM447.358 250.445C447.137 250.445 446.946 250.371 446.787 250.223C446.631 250.072 446.553 249.893 446.553 249.686C446.553 249.476 446.631 249.297 446.787 249.149C446.946 248.999 447.137 248.923 447.358 248.923C447.58 248.923 447.769 248.999 447.925 249.149C448.084 249.297 448.164 249.476 448.164 249.686C448.164 249.893 448.084 250.072 447.925 250.223C447.769 250.371 447.58 250.445 447.358 250.445ZM452.537 258.132C451.892 258.132 451.337 257.994 450.871 257.719C450.408 257.44 450.05 257.05 449.797 256.547C449.547 256.041 449.422 255.449 449.422 254.77C449.422 254.099 449.547 253.509 449.797 252.997C450.05 252.486 450.402 252.087 450.854 251.8C451.308 251.513 451.839 251.369 452.447 251.369C452.817 251.369 453.175 251.43 453.521 251.553C453.868 251.675 454.179 251.866 454.455 252.128C454.73 252.389 454.947 252.729 455.107 253.146C455.266 253.561 455.345 254.065 455.345 254.659V255.111H450.142V254.156H454.097C454.097 253.821 454.028 253.524 453.892 253.266C453.756 253.004 453.564 252.798 453.317 252.648C453.072 252.497 452.786 252.422 452.456 252.422C452.098 252.422 451.786 252.51 451.518 252.686C451.254 252.859 451.05 253.087 450.905 253.368C450.763 253.646 450.692 253.949 450.692 254.276V255.021C450.692 255.459 450.768 255.831 450.922 256.138C451.078 256.445 451.295 256.679 451.574 256.841C451.852 257 452.178 257.08 452.55 257.08C452.791 257.08 453.011 257.045 453.21 256.977C453.409 256.906 453.581 256.801 453.726 256.662C453.871 256.523 453.982 256.351 454.058 256.146L455.264 256.364C455.168 256.719 454.994 257.03 454.744 257.297C454.497 257.561 454.186 257.767 453.811 257.915C453.439 258.06 453.014 258.132 452.537 258.132ZM459.516 258.132C458.882 258.132 458.337 257.989 457.88 257.702C457.425 257.412 457.076 257.013 456.831 256.504C456.587 255.996 456.465 255.413 456.465 254.757C456.465 254.092 456.59 253.506 456.84 252.997C457.09 252.486 457.442 252.087 457.897 251.8C458.351 251.513 458.887 251.369 459.503 251.369C460 251.369 460.444 251.462 460.833 251.646C461.222 251.828 461.536 252.084 461.775 252.413C462.016 252.743 462.159 253.128 462.205 253.568H460.965C460.897 253.261 460.74 252.997 460.496 252.776C460.255 252.554 459.931 252.443 459.525 252.443C459.169 252.443 458.858 252.537 458.591 252.724C458.327 252.909 458.121 253.173 457.973 253.517C457.826 253.858 457.752 254.261 457.752 254.727C457.752 255.205 457.824 255.616 457.969 255.963C458.114 256.31 458.319 256.578 458.583 256.768C458.85 256.959 459.164 257.054 459.525 257.054C459.766 257.054 459.985 257.01 460.181 256.922C460.38 256.831 460.546 256.702 460.679 256.534C460.816 256.366 460.911 256.165 460.965 255.929H462.205C462.159 256.352 462.022 256.73 461.792 257.062C461.561 257.395 461.253 257.656 460.867 257.847C460.483 258.037 460.033 258.132 459.516 258.132ZM466.623 251.455V252.477H463.048V251.455H466.623ZM464.006 249.886H465.281V256.078C465.281 256.325 465.317 256.511 465.391 256.636C465.465 256.759 465.56 256.842 465.677 256.888C465.796 256.93 465.925 256.952 466.065 256.952C466.167 256.952 466.256 256.945 466.333 256.93C466.41 256.916 466.469 256.905 466.512 256.896L466.742 257.949C466.668 257.977 466.563 258.006 466.427 258.034C466.29 258.065 466.12 258.082 465.915 258.085C465.58 258.091 465.268 258.031 464.978 257.906C464.688 257.781 464.454 257.588 464.275 257.327C464.096 257.065 464.006 256.737 464.006 256.342V249.886ZM472.832 253.053L471.677 253.257C471.629 253.109 471.552 252.969 471.447 252.835C471.344 252.702 471.205 252.592 471.029 252.507C470.853 252.422 470.633 252.379 470.369 252.379C470.008 252.379 469.707 252.46 469.465 252.622C469.224 252.781 469.103 252.987 469.103 253.24C469.103 253.459 469.184 253.635 469.346 253.768C469.508 253.902 469.769 254.011 470.13 254.097L471.17 254.335C471.772 254.474 472.221 254.689 472.516 254.979C472.812 255.268 472.96 255.645 472.96 256.108C472.96 256.5 472.846 256.849 472.619 257.156C472.394 257.46 472.08 257.699 471.677 257.872C471.276 258.045 470.812 258.132 470.283 258.132C469.55 258.132 468.952 257.976 468.489 257.663C468.026 257.348 467.742 256.901 467.637 256.321L468.869 256.134C468.945 256.455 469.103 256.697 469.342 256.862C469.58 257.024 469.891 257.105 470.275 257.105C470.692 257.105 471.026 257.018 471.276 256.845C471.526 256.669 471.651 256.455 471.651 256.202C471.651 255.997 471.575 255.825 471.421 255.686C471.271 255.547 471.039 255.442 470.727 255.371L469.619 255.128C469.008 254.989 468.556 254.767 468.263 254.463C467.974 254.159 467.829 253.774 467.829 253.308C467.829 252.922 467.937 252.584 468.153 252.294C468.369 252.004 468.667 251.778 469.048 251.616C469.428 251.452 469.864 251.369 470.356 251.369C471.063 251.369 471.62 251.523 472.026 251.83C472.433 252.134 472.701 252.541 472.832 253.053ZM475.2 258.081C474.967 258.081 474.767 257.999 474.599 257.834C474.431 257.666 474.348 257.464 474.348 257.229C474.348 256.996 474.431 256.797 474.599 256.632C474.767 256.464 474.967 256.381 475.2 256.381C475.433 256.381 475.633 256.464 475.801 256.632C475.968 256.797 476.052 256.996 476.052 257.229C476.052 257.385 476.012 257.528 475.933 257.659C475.856 257.787 475.754 257.889 475.626 257.966C475.498 258.043 475.356 258.081 475.2 258.081Z" fill="#929394"/>
</svg>
