<svg width="38" height="38" viewBox="0 0 38 38" fill="none" xmlns="http://www.w3.org/2000/svg">
<rect width="38" height="38" rx="8" fill="#E9EEFF"/>
<path d="M24.9166 11.5H14.0833C13.3929 11.5 12.8333 12.0596 12.8333 12.75V15.25C12.8333 15.9404 13.3929 16.5 14.0833 16.5H24.9166C25.6069 16.5 26.1666 15.9404 26.1666 15.25V12.75C26.1666 12.0596 25.6069 11.5 24.9166 11.5Z" stroke="#1437FF" stroke-width="1.5"/>
<path d="M24.9166 21.5H14.0833C13.3929 21.5 12.8333 22.0596 12.8333 22.75V25.25C12.8333 25.9404 13.3929 26.5 14.0833 26.5H24.9166C25.6069 26.5 26.1666 25.9404 26.1666 25.25V22.75C26.1666 22.0596 25.6069 21.5 24.9166 21.5Z" stroke="#1437FF" stroke-width="1.5"/>
<path d="M15.3333 16.5V21.5M23.6666 16.5V21.5" stroke="#1437FF" stroke-width="1.5"/>
</svg>
