<svg width="38" height="38" viewBox="0 0 38 38" fill="none" xmlns="http://www.w3.org/2000/svg">
<rect width="38" height="38" rx="8" fill="#E4F7FF"/>
<path d="M17.4166 12.333H14.0833C13.3929 12.333 12.8333 12.8927 12.8333 13.583V16.9163C12.8333 17.6067 13.3929 18.1663 14.0833 18.1663H17.4166C18.1069 18.1663 18.6666 17.6067 18.6666 16.9163V13.583C18.6666 12.8927 18.1069 12.333 17.4166 12.333Z" stroke="#00B7FF" stroke-width="1.5"/>
<path d="M24.9166 12.333H21.5833C20.8929 12.333 20.3333 12.8927 20.3333 13.583V16.9163C20.3333 17.6067 20.8929 18.1663 21.5833 18.1663H24.9166C25.6069 18.1663 26.1666 17.6067 26.1666 16.9163V13.583C26.1666 12.8927 25.6069 12.333 24.9166 12.333Z" stroke="#00B7FF" stroke-width="1.5"/>
<path d="M17.4166 19.833H14.0833C13.3929 19.833 12.8333 20.3927 12.8333 21.083V24.4163C12.8333 25.1067 13.3929 25.6663 14.0833 25.6663H17.4166C18.1069 25.6663 18.6666 25.1067 18.6666 24.4163V21.083C18.6666 20.3927 18.1069 19.833 17.4166 19.833Z" stroke="#00B7FF" stroke-width="1.5"/>
<path d="M24.9166 19.833H21.5833C20.8929 19.833 20.3333 20.3927 20.3333 21.083V24.4163C20.3333 25.1067 20.8929 25.6663 21.5833 25.6663H24.9166C25.6069 25.6663 26.1666 25.1067 26.1666 24.4163V21.083C26.1666 20.3927 25.6069 19.833 24.9166 19.833Z" stroke="#00B7FF" stroke-width="1.5"/>
</svg>
