<svg width="38" height="38" viewBox="0 0 38 38" fill="none" xmlns="http://www.w3.org/2000/svg">
<rect width="38" height="38" rx="8" fill="#F1EBFF"/>
<path d="M25.3333 12.333H13.6667C12.7462 12.333 12 13.0792 12 13.9997V23.9997C12 24.9201 12.7462 25.6663 13.6667 25.6663H25.3333C26.2538 25.6663 27 24.9201 27 23.9997V13.9997C27 13.0792 26.2538 12.333 25.3333 12.333Z" stroke="#6A2EFF" stroke-width="1.5"/>
<path d="M12 16.5H27" stroke="#6A2EFF" stroke-width="1.5"/>
<path d="M15.3333 14.917C15.6094 14.917 15.8333 14.6931 15.8333 14.417C15.8333 14.1408 15.6094 13.917 15.3333 13.917C15.0571 13.917 14.8333 14.1408 14.8333 14.417C14.8333 14.6931 15.0571 14.917 15.3333 14.917Z" fill="#6A2EFF"/>
</svg>
